<svg id="Capa_1" enable-background="new 0 0 512 512" height="512" viewBox="0 0 512 512" width="512" xmlns="http://www.w3.org/2000/svg"><g><g fill="#c8effe"><path d="m471.878 382.932c18.574-34.515 29.122-73.99 29.122-115.932s-10.548-81.417-29.122-115.932z"/><path d="m40.122 151.068c-18.574 34.515-29.122 73.99-29.122 115.932s10.548 81.417 29.122 115.932z"/></g><path d="m57.297 400-6.41 1c43.751 66.835 119.267 111 205.113 111s161.362-44.165 205.113-111l-6.41-1z" fill="#d9e7ec"/><path d="m435 72v22.109c0 2.206-1.794 4-4 4h-350c-2.206 0-4-1.794-4-4v-22.109h-37.878v309.037c3.611 6.853 7.535 13.514 11.758 19.963h410.241c4.222-6.45 8.147-13.11 11.758-19.963v-309.037z" fill="#b6c4cf"/><path d="m81 162c-2.761 0-5-2.239-5-5v-34c0-2.761 2.239-5 5-5h6v-19.891h-6c-2.206 0-4-1.794-4-4v-22.109h-37.878v309.037c3.611 6.853 7.535 13.514 11.758 19.963h25.12v-211c0-2.761 2.239-5 5-5h6v-23z" fill="#9facba"/><g><g><path d="m204 162h104c2.761 0 5-2.239 5-5v-34c0-2.761-2.239-5-5-5h-104c-2.761 0-5 2.239-5 5v34c0 2.761 2.239 5 5 5z" fill="#d9e7ec"/></g><path d="m231 157v-34c0-2.761 2.239-5 5-5h-32c-2.761 0-5 2.239-5 5v34c0 2.761 2.239 5 5 5h32c-2.761 0-5-2.239-5-5z" fill="#c5d3dd"/><g><path d="m214 144v-8c0-1.657 1.343-3 3-3h78c1.657 0 3 1.343 3 3v8c0 1.657-1.343 3-3 3h-78c-1.657 0-3-1.343-3-3z" fill="#b6c4cf"/></g><g><path d="m331 123v34c0 2.761 2.239 5 5 5h95c2.761 0 5-2.239 5-5v-34c0-2.761-2.239-5-5-5h-95c-2.761 0-5 2.239-5 5z" fill="#d9e7ec"/></g><path d="m363 157v-34c0-2.761 2.239-5 5-5h-32c-2.761 0-5 2.239-5 5v34c0 2.761 2.239 5 5 5h32c-2.761 0-5-2.239-5-5z" fill="#c5d3dd"/><g><path d="m346 144v-8c0-1.657 1.343-3 3-3h69c1.657 0 3 1.343 3 3v8c0 1.657-1.343 3-3 3h-69c-1.657 0-3-1.343-3-3z" fill="#b6c4cf"/></g><g><path d="m176 118h-95c-2.761 0-5 2.239-5 5v34c0 2.761 2.239 5 5 5h95c2.761 0 5-2.239 5-5v-34c0-2.761-2.239-5-5-5z" fill="#d9e7ec"/></g><path d="m108 157v-34c0-2.761 2.239-5 5-5h-32c-2.761 0-5 2.239-5 5v34c0 2.761 2.239 5 5 5h32c-2.761 0-5-2.239-5-5z" fill="#c5d3dd"/><g><path d="m91 144v-8c0-1.657 1.343-3 3-3h69c1.657 0 3 1.343 3 3v8c0 1.657-1.343 3-3 3h-69c-1.657 0-3-1.343-3-3z" fill="#b6c4cf"/></g></g><g><g fill="#d9e7ec"><path d="m77 35h-50c-2.761 0-5 2.239-5 5v28c0 2.761 2.239 5 5 5h50z"/><path d="m485 35h-50v38h50c2.761 0 5-2.239 5-5v-28c0-2.761-2.239-5-5-5z"/></g><g fill="#c5d3dd"><path d="m435 57v16h50c2.761 0 5-2.239 5-5v-11z"/><path d="m77 57h-20c-2.761 0-5-2.239-5-5v-17h-25c-2.761 0-5 2.239-5 5v28c0 2.761 2.239 5 5 5h50z"/></g><g><g><path d="m431 99.109h-350c-2.761 0-5-2.239-5-5v-89.109c0-2.761 2.239-5 5-5h350c2.761 0 5 2.239 5 5v89.109c0 2.762-2.239 5-5 5z" fill="#8379c1"/></g><path d="m124 94.109v-89.109c0-2.761 2.239-5 5-5h-48c-2.761 0-5 2.239-5 5v89.109c0 2.761 2.239 5 5 5h48c-2.761 0-5-2.238-5-5z" fill="#6e61b6"/><g><g><path d="m147.337 18.111h-40.969c-1.584 0-2.868 1.284-2.868 2.868v8.604c0 1.584 1.284 2.868 2.868 2.868h13.314v45.679c0 1.584 1.284 2.868 2.868 2.868h8.604c1.584 0 2.868-1.284 2.868-2.868v-45.679h13.315c1.584 0 2.868-1.284 2.868-2.868v-8.604c0-1.584-1.284-2.868-2.868-2.868z" fill="#fff"/><g><path d="m344.891 80.998h-22.805c-6.589 0-11.95-5.361-11.95-11.95v-38.987c0-6.589 5.361-11.95 11.95-11.95h22.805c6.589 0 11.95 5.361 11.95 11.95v38.987c0 6.59-5.361 11.95-11.95 11.95zm-20.415-14.34h18.025v-34.207h-18.025z" fill="#fff"/></g><path d="m250.655 18.111h-40.969c-1.584 0-2.868 1.284-2.868 2.868v8.604c0 1.584 1.284 2.868 2.868 2.868h13.314v45.679c0 1.584 1.284 2.868 2.868 2.868h8.604c1.584 0 2.868-1.284 2.868-2.868v-45.679h13.314c1.584 0 2.868-1.284 2.868-2.868v-8.604c.001-1.584-1.283-2.868-2.867-2.868z" fill="#fff"/><path d="m302.314 18.111h-40.969c-1.584 0-2.868 1.284-2.868 2.868v8.604c0 1.584 1.284 2.868 2.868 2.868h13.314v45.679c0 1.584 1.284 2.868 2.868 2.868h8.604c1.584 0 2.868-1.284 2.868-2.868v-45.679h13.315c1.584 0 2.868-1.284 2.868-2.868v-8.604c0-1.584-1.284-2.868-2.868-2.868z" fill="#fff"/><g><g><path d="m396.55 80.998h-22.805c-6.589 0-11.95-5.361-11.95-11.95v-38.987c0-6.589 5.361-11.95 11.95-11.95h22.805c6.589 0 11.95 5.361 11.95 11.95v38.987c0 6.59-5.361 11.95-11.95 11.95zm-20.415-14.34h18.025v-34.207h-18.025z" fill="#fff"/></g></g></g><path d="m185.134 18.111h-13.245c-9.24 0-16.73 7.49-16.73 16.73v43.289c0 1.584 1.284 2.868 2.868 2.868h8.604c1.584 0 2.868-1.284 2.868-2.868v-11.42h18.025v11.42c0 1.584 1.284 2.868 2.868 2.868h8.604c1.584 0 2.868-1.284 2.868-2.868v-43.289c0-9.24-7.49-16.73-16.73-16.73zm-15.635 34.259v-17.529c0-1.318 1.072-2.39 2.39-2.39h13.245c1.318 0 2.39 1.072 2.39 2.39v17.529z" fill="#fff"/></g></g></g><g><path d="m182 401h-106v-211c0-2.761 2.239-5 5-5h96c2.761 0 5 2.239 5 5z" fill="#8379c1"/></g><path d="m113 185h-32c-2.761 0-5 2.239-5 5v211h32v-211c0-2.761 2.239-5 5-5z" fill="#6e61b6"/><g><path d="m91 332v-129c0-1.657 1.343-3 3-3h70c1.657 0 3 1.343 3 3v129c0 1.657-1.343 3-3 3h-70c-1.657 0-3-1.343-3-3z" fill="#d9e7ec"/></g><path d="m108 200h-14c-1.657 0-3 1.343-3 3v129c0 1.657 1.343 3 3 3h14z" fill="#c5d3dd"/><g><path d="m91 383v-27c0-1.657 1.343-3 3-3h70c1.657 0 3 1.343 3 3v27c0 1.657-1.343 3-3 3h-70c-1.657 0-3-1.343-3-3z" fill="#d9e7ec"/></g><path d="m108 353h-14c-1.657 0-3 1.343-3 3v27c0 1.657 1.343 3 3 3h14z" fill="#c5d3dd"/><g><g><path d="m436 401h-230v-211c0-2.761 2.239-5 5-5h220c2.761 0 5 2.239 5 5z" fill="#8379c1"/></g><path d="m251 185h-40c-2.761 0-5 2.239-5 5v211h40v-211c0-2.761 2.239-5 5-5z" fill="#6e61b6"/><g><path d="m221 335v-132c0-1.657 1.343-3 3-3h194c1.657 0 3 1.343 3 3v132c0 1.657-1.343 3-3 3h-194c-1.657 0-3-1.343-3-3z" fill="#d9e7ec"/></g><path d="m246 200h-22c-1.657 0-3 1.343-3 3v132c0 1.657 1.343 3 3 3h22z" fill="#c5d3dd"/><g><path d="m354.471 252c-6.417-11.907-18.998-20-33.471-20s-27.055 8.093-33.471 20z" fill="#fff"/><path d="m329.264 232.912c-2.661-.59-5.424-.912-8.264-.912-14.474 0-27.055 8.093-33.471 20h16.529c5.157-9.571 14.301-16.667 25.206-19.088z" fill="#f5f8f9"/><path d="m287.529 288c6.417 11.907 18.998 20 33.471 20s27.055-8.093 33.471-20z" fill="#fff"/><path d="m304.057 288h-16.529c6.417 11.907 18.998 20 33.471 20 2.84 0 5.603-.322 8.264-.912-10.904-2.421-20.048-9.517-25.206-19.088z" fill="#f5f8f9"/></g><g><path d="m269 270c0-5.523 4.477-10 10-10h84c5.523 0 10 4.477 10 10 0 5.523-4.477 10-10 10h-84c-5.523 0-10-4.477-10-10z" fill="#8379c1"/></g><path d="m293 270c0-5.523 4.477-10 10-10h-24c-5.523 0-10 4.477-10 10s4.477 10 10 10h24c-5.523 0-10-4.477-10-10z" fill="#6e61b6"/></g><g><path d="m167 306h-10c-2.761 0-5-2.239-5-5v-48.235c0-2.761 2.239-5 5-5h10z" fill="#fac600"/></g><g><g><path d="m294.182 459h-76.364c-2.761 0-5-2.239-5-5v-10c0-2.761 2.239-5 5-5h76.364c2.761 0 5 2.239 5 5v10c0 2.761-2.239 5-5 5z" fill="#c5d3dd"/></g><g fill="#c5d3dd"><path d="m368.318 439c-2.761 0-5 2.239-5 5v10c0 2.761 2.239 5 5 5h39.863c7.825-6.212 15.258-12.894 22.263-20z"/><path d="m143.682 439h-62.127c7.006 7.106 14.439 13.788 22.263 20h39.863c2.761 0 5-2.239 5-5v-10c.001-2.761-2.238-5-4.999-5z"/></g></g><g><path d="m410 237h-23c-1.657 0-3-1.343-3-3v-23c0-1.657 1.343-3 3-3h23c1.657 0 3 1.343 3 3v23c0 1.657-1.343 3-3 3z" fill="#fac600"/></g><path d="m396 234v-23c0-1.657 1.343-3 3-3h-12c-1.657 0-3 1.343-3 3v23c0 1.657 1.343 3 3 3h12c-1.657 0-3-1.343-3-3z" fill="#e8b800"/></g></svg>