<svg id="Capa_1" enable-background="new 0 0 512 512" height="512" viewBox="0 0 512 512" width="512" xmlns="http://www.w3.org/2000/svg"><g><g fill="#c8effe"><path d="m498.78 300c1.454-10.795 2.22-21.807 2.22-33 0-135.31-109.69-245-245-245s-245 109.69-245 245c0 11.193.766 22.205 2.22 33z"/><g><path d="m458 340v56.174l1 8.025c13.252-19.569 23.754-41.151 30.938-64.199z"/><path d="m54 340h-31.938c7.184 23.048 17.687 44.63 30.938 64.199l1-8.025z"/></g></g><g><path d="m432.971 300c1.983-10.699 3.029-21.727 3.029-33 0-99.411-80.589-180-180-180s-180 80.589-180 180c0 11.273 1.047 22.301 3.029 33z" fill="#dff6fd"/></g><g><g><g><path d="m408.444 150.993h-304.888c-24.056 0-43.556-19.5-43.556-43.555v-63.882c0-24.056 19.5-43.556 43.556-43.556h304.889c24.055 0 43.555 19.5 43.555 43.556v63.882c0 24.055-19.5 43.555-43.556 43.555z" fill="#fe5694"/></g></g><path d="m120 107.438v-63.882c0-24.056 19.5-43.556 43.556-43.556h-60c-24.056 0-43.556 19.5-43.556 43.556v63.882c0 24.055 19.5 43.556 43.556 43.556h60c-24.056-.001-43.556-19.501-43.556-43.556z" fill="#fe0364"/><g><path d="m401.688 134.215h-291.376c-18.491 0-33.534-15.043-33.534-33.533v-50.37c0-18.491 15.043-33.534 33.534-33.534h291.377c18.491 0 33.534 15.043 33.534 33.534v50.37c0 18.49-15.043 33.533-33.535 33.533zm-291.376-107.438c-12.977 0-23.534 10.558-23.534 23.534v50.37c0 12.977 10.558 23.533 23.534 23.533h291.377c12.977 0 23.534-10.557 23.534-23.533v-50.37c0-12.977-10.558-23.534-23.534-23.534z" fill="#fee97d"/></g><g fill="#fff"><path d="m152.289 42.85h-42.863c-1.104 0-2 .895-2 2v6c0 1.104.896 2 2 2h16.432v55.295h10v-55.295h16.432c1.104 0 2-.896 2-2v-6c-.001-1.105-.896-2-2.001-2z"/><path d="m186.192 42.85h-10.73c-9.978 0-18.066 8.089-18.066 18.066v45.229c0 1.104.896 2 2 2h6c1.104 0 2-.896 2-2v-14.275h26.863v14.274c0 1.104.896 2 2 2h6c1.104 0 2-.896 2-2v-45.228c0-9.978-8.089-18.066-18.067-18.066zm-18.796 39.02v-20.954c0-4.455 3.611-8.066 8.066-8.066h10.73c4.455 0 8.066 3.611 8.066 8.066v20.954z"/><path d="m336.419 42.85h-10.73c-9.962 0-18.066 8.104-18.066 18.066v29.161c0 9.962 8.104 18.067 18.066 18.067h10.73c9.962 0 18.066-8.105 18.066-18.067v-29.161c0-9.962-8.104-18.066-18.066-18.066zm8.066 47.227c0 4.448-3.618 8.067-8.066 8.067h-10.73c-4.448 0-8.066-3.619-8.066-8.067v-29.161c0-4.448 3.618-8.066 8.066-8.066h10.73c4.448 0 8.066 3.618 8.066 8.066z"/><path d="m252.367 42.85h-42.863c-1.104 0-2 .895-2 2v6c0 1.104.896 2 2 2h16.432v53.295c0 1.104.896 2 2 2h6c1.104 0 2-.896 2-2v-53.295h16.432c1.104 0 2-.896 2-2v-6c-.001-1.105-.896-2-2.001-2z"/><path d="m302.477 42.85h-42.864c-1.104 0-2 .895-2 2v6c0 1.104.896 2 2 2h16.433v53.295c0 1.104.896 2 2 2h6c1.104 0 2-.896 2-2v-53.295h16.432c1.104 0 2-.896 2-2v-6c-.001-1.105-.897-2-2.001-2z"/><path d="m386.508 42.85h-10.73c-9.962 0-18.066 8.104-18.066 18.066v29.161c0 9.962 8.104 18.067 18.066 18.067h10.73c9.962 0 18.066-8.105 18.066-18.067v-29.161c0-9.962-8.104-18.066-18.066-18.066zm8.066 47.227c0 4.448-3.618 8.067-8.066 8.067h-10.73c-4.448 0-8.066-3.619-8.066-8.067v-29.161c0-4.448 3.618-8.066 8.066-8.066h10.73c4.448 0 8.066 3.618 8.066 8.066z"/></g></g><g><g fill="#fed2a4"><path d="m288.57 300h20.43v-69.27c0-11.529-9.05-20.919-20.43-21.518z"/><path d="m160.117 260v-50.788c-11.379.6-20.429 9.989-20.429 21.518v29.27z"/></g><g fill="#596c76"><path d="m305.634 247.477-4.961 4.961c-.391.391-1.026.391-1.418 0l-4.961-4.961c-.391-.391-.391-1.026 0-1.418l4.961-4.961c.391-.391 1.026-.391 1.418 0l4.961 4.961c.391.391.391 1.026 0 1.418z"/><g><path d="m288.57 271.838c.206-.096.402-.222.572-.392l9.9-9.9c.781-.781.781-2.047 0-2.828l-9.9-9.9c-.17-.17-.366-.296-.572-.392z"/><path d="m288.57 300h4.785l5.686-5.686c.781-.781.781-2.047 0-2.828l-9.9-9.9c-.17-.17-.366-.296-.572-.392v18.806z"/><path d="m288.57 245.11c.206-.096.402-.222.572-.392l9.9-9.9c.781-.781.781-2.047 0-2.828l-9.9-9.899c-.17-.17-.366-.296-.572-.392z"/></g><path d="m153.45 237.262h6.667v-16.244l-8.023 13.896c-.602 1.044.151 2.348 1.356 2.348z"/></g><path d="m244.586 95.779v19.281h3.936c6.721 0 12.188 5.468 12.188 12.188v7.188h6.419c2.19 0 4.239.597 6.01 1.622v-32.377c0-12.774-10.356-23.13-23.13-23.13h-12.597c4.379 3.631 7.174 9.109 7.174 15.228z" fill="#97d729"/><path d="m181.559 134.436h6.42v-7.188c0-6.72 5.468-12.188 12.188-12.188h45.42v-19.281c0-11.476-9.303-20.779-20.779-20.779h-44.041c-2.881 0-5.217 2.336-5.217 5.217v55.84c1.77-1.025 3.819-1.621 6.009-1.621z" fill="#a2e62e"/><path d="m192 80.217c0-2.881 2.336-5.217 5.217-5.217h-16.451c-2.881 0-5.217 2.336-5.217 5.217v55.84c1.771-1.026 3.82-1.622 6.01-1.622h6.42v-7.188c0-3.577 1.559-6.789 4.021-9.021z" fill="#97d729"/><g><path d="m289.571 300v-90.984c0-4.322-3.504-7.826-7.826-7.826h-114.802c-4.322 0-7.826 3.504-7.826 7.826v90.984z" fill="#fed402"/></g><path d="m192.373 201.19h-25.429c-4.322 0-7.826 3.504-7.826 7.826v90.984h25.429v-90.984c-.001-4.322 3.503-7.826 7.826-7.826z" fill="#fac600"/><path d="m235.434 193.093h-22.179c-1.558 0-3.082-.149-4.563-.421v16.432c0 8.645 7.008 15.652 15.652 15.652 8.645 0 15.652-7.008 15.652-15.652v-16.431c-1.481.271-3.004.42-4.562.42z" fill="#ffbd86"/><path d="m222 209.104v-16.011h-8.745c-1.558 0-3.082-.149-4.563-.421v16.432c0 8.645 7.008 15.652 15.652 15.652 2.382 0 4.629-.548 6.647-1.504-5.309-2.504-8.991-7.889-8.991-14.148z" fill="#f6a96c"/><g><path d="m187.979 133.435h-6.42c-7.204 0-13.044 5.84-13.044 13.044v6.783c0 7.204 5.84 13.044 13.044 13.044h6.42z" fill="#f6a96c"/><path d="m267.129 133.435h-6.419v32.87h6.419c7.204 0 13.044-5.84 13.044-13.044v-6.783c0-7.203-5.84-13.043-13.044-13.043z" fill="#ffbd86"/></g><path d="m184.121 168.364-4.243 4.243c-1.172 1.172-3.071 1.172-4.243 0l-4.243-4.243c-1.172-1.172-1.172-3.071 0-4.243l4.243-4.243c1.172-1.172 3.071-1.172 4.243 0l4.243 4.243c1.172 1.172 1.172 3.071 0 4.243z" fill="#596c76"/><g><path d="m235.433 194.093h-22.179c-14.512 0-26.276-11.764-26.276-26.276v-40.568c0-7.283 5.904-13.188 13.188-13.188h48.356c7.283 0 13.188 5.904 13.188 13.188v40.568c0 14.511-11.765 26.276-26.277 26.276z" fill="#fed2a4"/><path d="m203.269 167.816v-40.568c0-7.283 5.904-13.188 13.188-13.188h-16.29c-7.284 0-13.188 5.905-13.188 13.188v40.568c0 14.512 11.764 26.276 26.276 26.276h16.29c-14.512.001-26.276-11.764-26.276-26.276z" fill="#ffbd86"/><g fill="#d78878"><path d="m209.837 145.879v-6.154c0-3.313-2.687-6-6-6s-6 2.687-6 6v6.154c0 3.313 2.687 6 6 6s6-2.687 6-6z"/><path d="m244.85 133.725c-3.313 0-6 2.687-6 6v6.154c0 3.313 2.687 6 6 6s6-2.687 6-6v-6.154c0-3.314-2.687-6-6-6z"/><path d="m214.408 159.278 7.133 3.769c.894.473 1.853.696 2.798.696 2.152 0 4.234-1.162 5.31-3.198 1.549-2.93.428-6.56-2.502-8.107l-1.008-.533 3.056-4.197c1.95-2.679 1.359-6.432-1.319-8.382-2.679-1.951-6.433-1.36-8.382 1.319l-7.133 9.798c-1.024 1.407-1.388 3.19-.994 4.886.392 1.695 1.502 3.137 3.041 3.949z"/><path d="m233.744 167.749c-2.511 2.511-5.849 3.894-9.4 3.894s-6.89-1.383-9.401-3.894c-2.342-2.344-6.143-2.344-8.484 0-2.344 2.343-2.344 6.142 0 8.484 4.777 4.778 11.129 7.409 17.886 7.409s13.109-2.631 17.887-7.409c2.343-2.343 2.343-6.143-.001-8.485-2.345-2.342-6.143-2.343-8.487.001z"/></g></g><path d="m253.719 300v-49.391c0-1.441-1.168-2.609-2.609-2.609h-53.533c-1.441 0-2.609 1.168-2.609 2.609v49.391z" fill="#01c0fa"/><path d="m213.858 248h-16.281c-1.441 0-2.609 1.168-2.609 2.609v49.391h16.281v-49.391c.001-1.441 1.168-2.609 2.609-2.609z" fill="#08a9f1"/><path d="m139.688 260h6.585l8.151-6.385v-5.929l-14.736-11.543v9.567l6.307 4.941-6.307 4.941z" fill="#596c76"/></g><g><path d="m438.446 279v-105.932c0-1.695-1.374-3.068-3.068-3.068h-87.756c-1.695 0-3.068 1.374-3.068 3.068v105.932z" fill="#fff"/><path d="m359.897 279v-105.932c0-1.695 1.374-3.068 3.068-3.068h-15.343c-1.695 0-3.068 1.374-3.068 3.068v105.932z" fill="#f5f8f9"/><path d="m411.049 226.289h-12.19c-.784 0-1.367-.725-1.199-1.49l6.207-28.318c.278-1.27-1.351-2.044-2.16-1.026l-30.718 38.662c-.639.804-.066 1.991.961 1.991h12.19c.784 0 1.367.725 1.199 1.49l-6.207 28.318c-.278 1.27 1.351 2.044 2.16 1.026l30.718-38.662c.639-.805.067-1.991-.961-1.991z" fill="#596c76"/><g fill="#465a61"><path d="m378.781 234.116 23.251-29.264 1.835-8.371c.278-1.27-1.351-2.045-2.16-1.026l-30.718 38.662c-.639.804-.066 1.991.961 1.991h7.792c-1.027-.001-1.6-1.187-.961-1.992z"/><path d="m393.131 237.597c.168-.766-.415-1.49-1.199-1.49h-7.792c.784 0 1.367.725 1.199 1.49l-6.207 28.318c-.278 1.27 1.351 2.044 2.16 1.026l7.467-9.398z"/></g><g fill="#596c76"><path d="m378.343 186.817 2.41 4.882c.146.295.427.5.753.547l5.388.783c.82.119 1.148 1.127.554 1.706l-3.899 3.8c-.236.23-.343.561-.288.885l.92 5.366c.14.817-.717 1.44-1.451 1.054l-4.819-2.534c-.291-.153-.639-.153-.931 0l-4.819 2.534c-.734.386-1.591-.237-1.451-1.054l.92-5.366c.056-.324-.052-.655-.288-.885l-3.899-3.8c-.594-.579-.266-1.587.554-1.706l5.388-.783c.326-.047.607-.252.753-.547l2.41-4.882c.368-.743 1.428-.743 1.795 0z"/><path d="m414.647 246.859 2.41 4.882c.146.295.427.5.753.547l5.388.783c.82.119 1.148 1.127.554 1.706l-3.899 3.8c-.236.23-.343.561-.288.885l.92 5.366c.14.817-.717 1.44-1.451 1.054l-4.819-2.534c-.291-.153-.639-.153-.931 0l-4.819 2.534c-.734.386-1.591-.237-1.451-1.054l.92-5.366c.056-.324-.052-.655-.288-.885l-3.899-3.8c-.594-.579-.266-1.587.554-1.706l5.388-.783c.326-.047.607-.252.753-.547l2.41-4.882c.369-.743 1.429-.743 1.795 0z"/></g></g><path d="m454 300v-17c0-2.761-2.239-5-5-5h-115c-2.761 0-5 2.239-5 5v17z" fill="#01c0fa"/><path d="m366 278h-32c-2.761 0-5 2.239-5 5v17h32v-17c0-2.761 2.239-5 5-5z" fill="#08a9f1"/><path d="m104 300v-36c0-2.761-2.239-5-5-5h-45c-2.761 0-5 2.239-5 5v36z" fill="#fff"/><path d="m78 259h-24c-2.761 0-5 2.239-5 5v36h24v-36c0-2.761 2.239-5 5-5z" fill="#f5f8f9"/><path d="m171 300v-36c0-2.761-2.239-5-5-5h-45c-2.761 0-5 2.239-5 5v36z" fill="#fff"/><path d="m145 259h-24c-2.761 0-5 2.239-5 5v36h24v-36c0-2.761 2.239-5 5-5z" fill="#f5f8f9"/><path d="m53 340v64.209c44.048 65.042 118.531 107.791 203 107.791s158.952-42.749 203-107.791v-64.209z" fill="#978ecb"/><path d="m98 340h-45v64.209c12.65 18.679 27.814 35.514 45 50.032z" fill="#8379c1"/><path d="m502 341h-492c-5.523 0-10-4.477-10-10v-22c0-5.523 4.477-10 10-10h492c5.523 0 10 4.477 10 10v22c0 5.523-4.477 10-10 10z" fill="#8379c1"/><path d="m66 325c-5.523 0-10-4.477-10-10v-16h-46c-5.523 0-10 4.477-10 10v22c0 5.523 4.477 10 10 10h492c5.523 0 10-4.477 10-10v-6z" fill="#6e61b6"/><circle cx="256" cy="419.5" fill="#fff" r="57.5"/><path d="m231 419.5c0-26.111 17.41-48.143 41.25-55.156-5.155-1.516-10.604-2.344-16.25-2.344-31.756 0-57.5 25.744-57.5 57.5s25.744 57.5 57.5 57.5c5.646 0 11.095-.828 16.25-2.344-23.84-7.013-41.25-29.045-41.25-55.156z" fill="#f5f8f9"/></g></svg>