<svg id="Capa_1" enable-background="new 0 0 512 512" height="512" viewBox="0 0 512 512" width="512" xmlns="http://www.w3.org/2000/svg"><g><g fill="#fff5c6"><path d="m498.763 249h-.005c.006.083.015.166.021.249-.006-.082-.01-.166-.016-.249z"/><path d="m434.192 250h63.639l.927-1c-9.217-126.903-115.08-227-244.334-227-135.31 0-245 109.69-245 245 0 60.341 21.827 115.576 58 158.272l1-.368v-112.904c0-19.097 9.419-36.971 25.195-47.814l.317-.219.089-.375c2.896-12.206 13.689-20.73 26.246-20.73h194.07c14.878 0 26.981 12.104 26.981 26.981v63.913c0 18.589-8.564 35.627-23.497 46.745l-.402.3v121.969l1 .768c91.39-24.672 161.616-100.882 177.566-195.538l-.796-1.328-61.007.328-.762-2.761v-51.358z"/></g><g><g><circle cx="254.423" cy="267" fill="#fef0ae" r="178"/></g></g><g fill="#fed2a4"><path d="m414.423 252.625-1-3.625h-81.966c6.021 4.953 9.867 12.457 9.867 20.843v38.157h72.1l1-3.75v-51.625z"/><path d="m498.763 249h-65.339l-1 3.75v51.625l1 3.625h62.566c2.247-13.334 3.434-27.027 3.434-41-.001-6.055-.229-12.055-.661-18z"/></g><g fill="#ffbd86"><path d="m341.324 292h72.1v16h-72.1z"/><path d="m433.423 292v16h62.566c.889-5.278 1.605-10.614 2.155-16z"/></g><path d="m117.19 380.801-.402-.3c-14.934-11.119-23.498-28.156-23.498-46.745v-63.913c0-2.539.36-4.995 1.019-7.326-16.178 10.521-26.886 28.746-26.886 49.483v113.272c14.455 17.061 31.204 32.112 49.767 44.688z" fill="#fed2a4"/><g fill="#596c76"><path d="m93.29 287.455-5.022 10.177c-.294.595-.862 1.008-1.519 1.104l-11.594 1.685c-1.655.24-2.316 2.275-1.118 3.442l8.39 8.178c.476.464.693 1.132.58 1.786l-1.981 11.548c-.283 1.648 1.448 2.906 2.928 2.127l9.337-4.909v-35.138z"/><path d="m357.423 263h-16.981c.573 2.186.881 4.479.881 6.843v3.157h16.1c1.657 0 3-1.343 3-3v-4c0-1.657-1.343-3-3-3z"/><path d="m432.423 255v9h21l5-9z"/><path d="m488.487 258.444c-6.725-6.725-18.777-8.125-24.711-2.191-8.421 8.421 1.469 22.946-9.156 33.571-4.182 4.182-9.834 6.33-14.299 1.865-2.656-2.656-3.956-7.234-.169-11.021 3.9-3.899 7.856-3.787 12.829.396 1.583-2.487.848-4.917-1.696-7.46-4.352-4.352-11.134-5.482-16.447-.17-.998.998-1.788 2.029-2.416 3.075v14.532c1.06 2.116 2.424 3.939 3.754 5.269 9.099 9.099 22.173 8.547 30.142.579 12.603-12.603.396-25.829 9.269-34.702 3.108-3.109 7.065-2.769 10.173.339 2.996 2.996 2.317 5.935.339 7.913-1.865 1.865-4.973 2.939-7.404 2.317-.113 1.583.452 2.826 1.356 3.73 2.939 2.939 7.178 2.204 10.399-1.017 6.332-6.33 1.032-14.03-1.963-17.025z"/><path d="m106.863 371.173c-4.133-4.901-7.374-10.42-9.661-16.346-6.814 11.274 1.946 22.603-5.943 30.492-3.108 3.109-7.065 2.769-10.173-.339-2.996-2.996-2.317-5.935-.339-7.913 1.865-1.865 4.973-2.939 7.404-2.317.113-1.583-.452-2.826-1.356-3.73-2.939-2.939-7.178-2.204-10.399 1.017-6.33 6.33-1.03 14.029 1.965 17.025 6.725 6.725 18.777 8.125 24.711 2.191 5.165-5.166 3.443-12.629 3.791-20.08z"/></g><g><g><path d="m91.588 411.187c3.108-3.109 7.065-2.769 10.173.339 2.996 2.996 2.317 5.935.339 7.913-1.865 1.865-4.973 2.939-7.404 2.317-.113 1.583.452 2.826 1.356 3.73 2.939 2.939 7.178 2.204 10.399-1.017 6.33-6.33 1.03-14.029-1.965-17.025-6.725-6.725-18.777-8.125-24.711-2.191-7.002 7.002-1.354 18.222-5.356 27.914 3.249 3.518 6.596 6.944 10.044 10.266 8.962-11.843-1.173-23.948 7.125-32.246z" fill="#596c76"/></g></g><g><path d="m252.907 10.64h-24.332c17.084 10.917 28.444 30.037 28.444 51.771v13.477c17.122.487 30.903 14.557 30.903 31.794v48.96c0 25.862-14.119 49.631-36.847 62.03v1.878h42.118c1.603 0 3.003.909 3.655 2.373.651 1.464.391 3.112-.682 4.304l-14.073 15.634h28.734v-174.299c.003-31.989-25.93-57.922-57.92-57.922z" fill="#fe0364"/></g><g><path d="m152.519 242.861-14.074-15.634c-1.072-1.191-1.333-2.84-.681-4.304.651-1.464 2.052-2.373 3.653-2.373h41.641l.479-1.878c-22.728-12.399-36.847-36.168-36.847-62.03v-13.346c6.18-1.383 11.771-4.789 15.814-9.652l43.856-52.731c2.668-3.208 6.591-5.048 10.764-5.048h38.981c.643 0 1.28.025 1.914.063v-13.517c.001-34.469-27.942-62.411-62.411-62.411h-9.413c-34.469 0-62.411 27.942-62.411 62.411v180.45z" fill="#fe5694"/></g><path d="m157.423 242.861v-180.45c0-30.323 21.629-55.586 50.298-61.226-3.919-.771-7.967-1.185-12.113-1.185h-9.413c-34.469 0-62.411 27.942-62.411 62.411v180.45z" fill="#fd3581"/><path d="m314.342 241.862h-194.071c-15.454 0-27.981 12.528-27.981 27.981v63.913c0 19.472 9.396 36.749 23.9 47.547v87.987c39.348 26.94 86.946 42.71 138.233 42.71 22.145 0 43.596-2.956 64-8.463v-122.234c14.504-10.799 23.9-28.075 23.9-47.547v-63.913c0-15.454-12.527-27.981-27.981-27.981z" fill="#fed402"/><path d="m149.323 488.352v-102.275c0-2.875-1.226-5.624-3.401-7.505-12.555-10.863-20.5-26.911-20.5-44.816v-63.913c0-15.454 12.528-27.981 27.981-27.981h-33.134c-15.454 0-27.981 12.528-27.981 27.981v63.913c0 19.472 9.396 36.749 23.9 47.547v87.987c10.488 7.179 21.564 13.556 33.135 19.062z" fill="#fac600"/><g fill="#fee97d"><path d="m188.306 220.997c-1.018-.461-2.026-.939-3.017-1.446h-43.871c-4.329 0-6.612 5.128-3.716 8.345l50.604 56.218z"/><path d="m293.195 219.551h-43.871c-.992.507-2 .985-3.018 1.446v63.118l50.605-56.219c2.897-3.217.613-8.345-3.716-8.345z"/></g><path d="m246.167 257.03-25.349 46.449c-.712 1.305-2.024 2.084-3.511 2.084s-2.8-.779-3.512-2.084l-25.35-46.449h-1.139v75.299c0 3.095.479 6.172 1.42 9.121l23.817 74.625c1.481 4.64 8.046 4.64 9.527 0l23.817-74.625c.941-2.949 1.42-6.026 1.42-9.121v-75.299z" fill="#fff"/><g><path d="m204.844 341.45c-.941-2.949-1.42-6.026-1.42-9.121v-47.855l-14.978-27.444h-1.139v75.299c0 3.095.479 6.172 1.42 9.121l23.817 74.625c1.481 4.64 8.046 4.64 9.527 0l3.295-10.324z" fill="#f2fbff"/></g><path d="m217.307 227.259c-10.723 0-20.889-2.414-30-6.708v36.479l25.611 46.928c1.895 3.473 6.882 3.473 8.778 0l25.611-46.928v-36.479c-9.112 4.294-19.278 6.708-30 6.708z" fill="#ffbd86"/><g><path d="m211.423 257.03v-30.042c-8.557-.713-16.691-2.937-24.117-6.437v36.479l25.611 46.928c1.895 3.473 6.882 3.473 8.778 0l7.669-14.053z" fill="#f6a96c"/></g><g><path d="m146.69 142.278c-2.036.473-4.136.722-6.267.722v-26c0-2.761-2.239-5-5-5h-.121c-13.807 0-25 11.193-25 25v13c0 13.807 11.193 25 25 25h13.823c-1.579-5.858-2.435-12.009-2.435-18.358z" fill="#f6a96c"/><path d="m299.311 112h-11.388v44.642c0 6.35-.856 12.501-2.435 18.358h13.823c13.807 0 25-11.193 25-25v-13c0-13.807-11.193-25-25-25z" fill="#ffbd86"/></g><path d="m146.911 161.965c-2.041-1.239-4.427-1.965-6.988-1.965-7.456 0-13.5 6.044-13.5 13.5s6.044 13.5 13.5 13.5c4.63 0 8.713-2.333 11.145-5.885-2.238-6.039-3.656-12.468-4.157-19.15z" fill="#c5d3dd"/><path d="m293.923 160c-2.232 0-4.332.551-6.187 1.51-.486 7.096-2.02 13.905-4.456 20.276 2.47 3.168 6.314 5.214 10.643 5.214 7.456 0 13.5-6.044 13.5-13.5s-6.044-13.5-13.5-13.5z" fill="#c5d3dd"/><g><path d="m256.106 74.865h-38.981c-4.457 0-8.683 1.982-11.533 5.408l-14.805 17.801.347 1.145 3.191.945c3.437 1.018 5.405 4.641 4.388 8.077-.812 2.742-3.373 4.657-6.229 4.657-.621 0-1.243-.091-1.849-.27l-8.549-2.53-1.74.528-18.611 22.377c-4.126 4.961-9.816 8.274-16.046 9.48v14.157c0 39.553 32.064 71.617 71.617 71.617s71.617-32.064 71.617-71.617v-48.959c.001-18.123-14.692-32.816-32.817-32.816z" fill="#fed2a4"/><g><path d="m171.189 156.642v-35.004l-9.453 11.367c-4.126 4.961-9.816 8.274-16.046 9.48v14.157c0 39.553 32.064 71.617 71.617 71.617 4.354 0 8.61-.41 12.75-1.154-33.467-6.018-58.868-35.264-58.868-70.463z" fill="#ffbd86"/></g><g><g><path d="m178.002 151.021c-4.143 0-7.5-3.357-7.5-7.5v-11.796c0-4.143 3.357-7.5 7.5-7.5s7.5 3.357 7.5 7.5v11.796c0 4.143-3.357 7.5-7.5 7.5z" fill="#d78878"/></g><g><path d="m256.61 151.021c-4.143 0-7.5-3.357-7.5-7.5v-11.796c0-4.143 3.357-7.5 7.5-7.5s7.5 3.357 7.5 7.5v11.796c0 4.143-3.358 7.5-7.5 7.5z" fill="#d78878"/></g></g><g><path d="m217.303 173.76c-1.679 0-3.367-.561-4.765-1.711l-13.671-11.26c-1.594-1.313-2.576-3.226-2.715-5.286-.138-2.062.579-4.088 1.984-5.603l13.671-14.742c2.815-3.038 7.562-3.217 10.599-.399 3.037 2.816 3.216 7.562.399 10.599l-8.262 8.91 7.531 6.203c3.197 2.633 3.654 7.36 1.021 10.558-1.481 1.799-3.629 2.731-5.792 2.731z" fill="#d78878"/></g><g><path d="m217.307 204.209c-11.396 0-22.787-4.336-31.463-13.011-2.929-2.93-2.929-7.678 0-10.607 2.93-2.928 7.678-2.928 10.607 0 11.498 11.499 30.21 11.501 41.712 0 2.928-2.929 7.677-2.928 10.606.001s2.929 7.678-.001 10.606c-8.672 8.673-20.068 13.011-31.461 13.011z" fill="#d78878"/></g></g><g><path d="m194.61 99.206-3.823-1.131-10.44 12.553 10.005 2.961c.711.21 1.427.311 2.132.311 3.236 0 6.224-2.112 7.188-5.373 1.176-3.973-1.09-8.145-5.062-9.321z" fill="#fe0364"/><g><path d="m242.129 113.899c-3.237 0-6.224-2.111-7.188-5.373-1.176-3.973 1.091-8.145 5.062-9.32l28.373-8.397c3.979-1.176 8.146 1.092 9.32 5.062 1.176 3.973-1.091 8.145-5.062 9.32l-28.373 8.397c-.711.211-1.428.311-2.132.311z" fill="#fe0364"/></g></g><g><g><g fill="#c5d3dd"><path d="m447.233 155.914h8.595v10.752h-8.595z" transform="matrix(.707 -.707 .707 .707 18.205 366.53)"/><path d="m472.561 130.26h9.248v10.752h-9.248z" transform="matrix(.707 -.707 .707 .707 43.855 377.147)"/></g><path d="m377.927 230.434-21.02 21.02c-1.073 1.073-.607 2.904.849 3.333l10.195 3.005c.702.207 1.462.014 1.979-.504l17.425-17.425z" fill="#8d9ca8"/><path d="m367.01 249.123 14.802-14.802-3.886-3.886-21.02 21.02c-1.073 1.073-.607 2.904.849 3.333l10.195 3.005c.702.207 1.462.014 1.979-.504l3.26-3.261-5.332-1.571c-1.454-.431-1.92-2.261-.847-3.334z" fill="#7a8c98"/><path d="m381.306 220.136-5.464 5.464c-1.15 1.15-1.15 3.014 0 4.164l12.183 12.184c1.15 1.15 3.014 1.15 4.164 0l5.464-5.464z" fill="#f2fbff"/><path d="m387.957 226.787-6.651-6.651-5.464 5.464c-1.15 1.15-1.15 3.014 0 4.164l5.76 5.76c-.368-1.037-.146-2.236.684-3.066z" fill="#e8edf2"/><g><path d="m433.112 170.86h14.302v13.333h-14.302z" fill="#8d9ca8" transform="matrix(.707 -.707 .707 .707 3.42 363.309)"/></g><g><path d="m458.939 164.036-10.155-10.155c-1.172-1.172-1.172-3.071 0-4.243l16.517-16.517c1.172-1.172 3.071-1.172 4.243 0l10.155 10.155c1.172 1.172 1.172 3.071 0 4.243l-16.517 16.517c-1.172 1.171-3.071 1.171-4.243 0z" fill="#8d9ca8"/></g><path d="m460.302 153.881c-1.172-1.172-1.172-3.071 0-4.243l12.88-12.88-3.637-3.637c-1.172-1.172-3.071-1.172-4.243 0l-16.517 16.517c-1.171 1.171-1.171 3.071 0 4.243l10.155 10.154c1.172 1.172 3.071 1.172 4.243 0l3.637-3.637z" fill="#7a8c98"/><g><path d="m397.703 237.948-17.861-17.861c-2.734-2.734-2.734-7.166 0-9.899l37.241-37.242c2.734-2.734 7.166-2.734 9.9 0l17.861 17.861c2.734 2.734 2.734 7.166 0 9.9l-37.241 37.241c-2.734 2.733-7.166 2.733-9.9 0z" fill="#c5d3dd"/></g><path d="m396.474 220.086c-2.734-2.734-2.734-7.166 0-9.9l33.875-33.875-3.366-3.366c-2.734-2.734-7.166-2.734-9.9 0l-37.241 37.241c-2.734 2.734-2.734 7.166 0 9.9l17.861 17.861c2.734 2.734 7.166 2.734 9.899 0l3.366-3.366z" fill="#b6c4cf"/><path d="m499.647 138.832-22.811-22.811c-.781-.781-2.047-.781-2.828 0l-4.242 4.242c-.781.781-.781 2.047 0 2.828l22.811 22.812-30.549 30.548-27.314-27.313-7.07 7.071 27.313 27.312c1.889 1.89 4.399 2.931 7.071 2.931 2.671 0 5.183-1.04 7.071-2.93l30.548-30.548c1.89-1.889 2.93-4.4 2.93-7.071 0-2.673-1.041-5.183-2.93-7.071z" fill="#01c0fa"/></g><g><path d="m418.264 162.758-5.186-5.186c-1.172-1.172-1.172-3.071 0-4.243l18.757-18.757c1.172-1.172 3.071-1.172 4.243 0l5.186 5.186c1.172 1.172 1.172 3.071 0 4.243l-18.757 18.757c-1.172 1.172-3.071 1.172-4.243 0z" fill="#8d9ca8"/></g><path d="m421.302 157.573c-1.172-1.171-1.172-3.071 0-4.243l16.767-16.767-1.99-1.99c-1.171-1.171-3.071-1.171-4.243 0l-18.757 18.757c-1.171 1.172-1.171 3.071 0 4.243l5.186 5.186c1.172 1.172 3.071 1.172 4.243 0l1.99-1.99z" fill="#7a8c98"/></g><g><path d="m413.423 249h20v59h-20z" fill="#f2fbff"/></g><path d="m413.423 292h20v16h-20z" fill="#dff6fd"/><g><path d="m482.429 283.854-5.83 4.236c-.701.509-.994 1.412-.727 2.236l2.227 6.854c.268.824 1.036 1.382 1.902 1.382h7.206c.866 0 1.634-.558 1.902-1.382l2.227-6.854c.268-.824-.026-1.727-.727-2.236l-5.83-4.236c-.7-.509-1.649-.509-2.35 0z" fill="#596c76"/></g><g><circle cx="101.923" cy="440.5" fill="#596c76" r="5.5"/></g><g><circle cx="80.923" cy="355.5" fill="#596c76" r="5.5"/></g><g><circle cx="80.923" cy="338.5" fill="#596c76" r="5.5"/></g></g></svg>