<svg id="Capa_1" enable-background="new 0 0 512 512" height="512" viewBox="0 0 512 512" width="512" xmlns="http://www.w3.org/2000/svg"><g><path d="m250.5 22c-135.31 0-245 109.69-245 245 0 63.072 23.84 120.581 62.995 163.999l1-2.178v-94.709h42.929l1-1h353.637c4.473 0 8.111-3.639 8.111-8.111v-1h13.646c4.359-18.292 6.681-37.374 6.681-57 .001-135.311-109.689-245.001-244.999-245.001z" fill="#6e61b6"/><path d="m475.173 324.035v.965c0 4.473-3.639 8.111-8.111 8.111h-.068l-1 1v43.01l1 4.641c9.579-18.034 16.974-37.405 21.825-57.763z" fill="#8379c1"/><path d="m52.738 122.38c20.567 34.194 58.036 57.12 100.762 57.12 64.789 0 117.5-52.71 117.5-117.5 0-13.896-2.431-27.233-6.88-39.617-4.509-.247-9.049-.383-13.62-.383-81.214 0-153.185 39.526-197.762 100.38z" fill="#8379c1"/><path d="m72.807 98.335c13.892 30.73 44.836 52.165 80.693 52.165 48.799 0 88.5-39.701 88.5-88.5 0-14.13-3.334-27.494-9.249-39.355-62.835 4.499-119.112 32.687-159.944 75.69z" fill="#978ecb"/><g fill="#8379c1"><path d="m258.5 485v22l1 4.818c36.199-1.308 70.381-10.456 100.921-25.818l-5.421-1z"/><path d="m416.5 333.111h-158v132.889h134.923c7.709-5.547 15.075-11.511 22.077-17.896l1-5.104z"/><path d="m112.424 333.111v128.889l1 8.093c36.283 24.546 79.482 39.588 126.076 41.65l1-4.742v-173.89z"/></g><g fill="#01c0fa"><path d="m386.25 353v-8c0-1.657-1.343-3-3-3h-4c-1.657 0-3 1.343-3 3v8z"/><path d="m398.75 353v-8c0-1.657-1.343-3-3-3h-4c-1.657 0-3 1.343-3 3v8z"/></g><g><path d="m352.912 438h-73.847c-2.761 0-5 2.239-5 5v24h83.847v-24c0-2.761-2.239-5-5-5z" fill="#fff"/><path d="m304.153 438h-25.089c-2.761 0-5 2.239-5 5v24h25.089v-24c0-2.761 2.238-5 5-5z" fill="#f5f8f9"/><path d="m336.488 459h-41c-1.657 0-3-1.343-3-3v-4c0-1.657 1.343-3 3-3h41c1.657 0 3 1.343 3 3v4c0 1.657-1.343 3-3 3z" fill="#c8effe"/></g><path d="m406 382.5v-27.5c0-1.657-1.343-3-3-3h-31c-1.657 0-3 1.343-3 3v27.5z" fill="#fff"/><path d="m388 352h-16c-1.657 0-3 1.343-3 3v27.5h16v-27.5c0-1.657 1.343-3 3-3z" fill="#f5f8f9"/><path d="m357.912 382.5v-25.5c0-2.761-2.238-5-5-5h-73.847c-2.761 0-5 2.239-5 5v25.5z" fill="#fff"/><path d="m304.153 352h-25.089c-2.761 0-5 2.239-5 5v25.5h25.089v-25.5c0-2.761 2.238-5 5-5z" fill="#f5f8f9"/><circle cx="153.5" cy="62" fill="#978ecb" r="43"/><path d="m135 62c0-19.455 12.991-35.924 30.75-41.212-3.885-1.157-7.994-1.788-12.25-1.788-23.71 0-43 19.29-43 43s19.29 43 43 43c4.256 0 8.365-.631 12.25-1.788-17.759-5.288-30.75-21.757-30.75-41.212z" fill="#8379c1"/><g><g><path d="m164.5 170.698v-48.711c-3.571.653-7.243 1.013-11 1.013s-7.429-.359-11-1.013v40.696c7.873 1.198 15.336 3.957 22 8.015z" fill="#c5d3dd"/></g><g><path d="m153 122.988c-3.582-.031-7.089-.377-10.5-1.001v40.696c3.6.548 7.109 1.438 10.5 2.613z" fill="#b6c4cf"/></g><path d="m185.108 198.138 3.852-1c-9.39-21.279-30.661-36.138-55.414-36.138h-45.002c-16.142 0-29.228 13.086-29.228 29.228v6.911l3.836 1h121.956z" fill="#f5f8f9"/><path d="m95.143 190.228c0-16.142 13.086-29.228 29.228-29.228h-35.827c-16.142 0-29.228 13.086-29.228 29.228v6.911h35.827z" fill="#d9e7ec"/><g><path d="m153.5 124c-34.187 0-62-27.813-62-62s27.813-62 62-62 62 27.813 62 62-27.813 62-62 62zm0-104c-23.159 0-42 18.841-42 42s18.841 42 42 42 42-18.841 42-42-18.841-42-42-42z" fill="#f5f8f9"/></g><g><path d="m102 62c0-32.417 25.013-59.086 56.75-61.762-1.733-.146-3.48-.238-5.25-.238-34.187 0-62 27.813-62 62s27.813 62 62 62c1.77 0 3.517-.092 5.25-.238-31.737-2.676-56.75-29.345-56.75-61.762z" fill="#d9e7ec"/></g></g><g><path d="m112.424 392.792h304.076v28.208h-304.076z" fill="#8d9ca8"/><path d="m416.5 410h-275.141c-2.761 0-5-2.239-5-5v-12.208h-23.936v28.208h304.077z" fill="#7a8c98"/><path d="m434.5 333.111v91.889l1 2.594c12.144-13.978 22.735-29.34 31.494-45.828v-48.654h-32.494z" fill="#7a8c98"/><path d="m68.495 333.111v97.887c13.318 14.771 28.401 27.917 44.929 39.094v-136.981z" fill="#8d9ca8"/><path d="m85.071 333.111h-16.576v97.887c5.254 5.827 10.792 11.39 16.576 16.69z" fill="#7a8c98"/><g><path d="m60.316 201.952h-15.816c-5.523 0-10 4.477-10 10v28.048c0 5.523 4.477 10 10 10h15.816z" fill="#8d9ca8"/><path d="m496.5 201.952h-21.327v48.048h21.327c5.523 0 10-4.477 10-10v-28.048c0-5.523-4.477-10-10-10z" fill="#8d9ca8"/><path d="m496.5 233h-21.327v17h21.327c5.523 0 10-4.477 10-10v-17c0 5.523-4.477 10-10 10z" fill="#7a8c98"/></g><path d="m34.5 223v17c0 5.523 4.477 10 10 10h15.816v-17h-15.816c-5.523 0-10-4.477-10-10z" fill="#7a8c98"/></g><path d="m467.062 334.111h-398.635c-5.032 0-9.111-4.079-9.111-9.111v-127.862h412.301c2.516 0 4.556 2.04 4.556 4.556v123.306c0 5.032-4.079 9.111-9.111 9.111z" fill="#fff"/><g><path d="m258.5 381.5h158v20h-158z" fill="#d9e7ec"/><path d="m258.5 486h101.921c11.553-5.81 22.584-12.505 33.002-20h-134.923z" fill="#d9e7ec"/><g><g><path d="m400.936 292.786v-47.068l-3.073-1.061h-48.181l-3.241 1.061v47.068z" fill="#dff6fd"/><path d="m346.441 245.718v47.068h18.034v-47.068z" fill="#c8effe"/><path d="m360.065 280.049h27.247c1.505 0 2.725-1.22 2.725-2.725v-16.348c0-1.505-1.22-2.725-2.725-2.725h-27.247c-1.505 0-2.725 1.22-2.725 2.725v16.348c0 1.505 1.22 2.725 2.725 2.725z" fill="#01c0fa"/><path d="m369.3 277.325v-16.348c0-1.505 1.22-2.725 2.725-2.725h-11.96c-1.505 0-2.725 1.22-2.725 2.725v16.348c0 1.505 1.22 2.725 2.725 2.725h11.96c-1.505-.001-2.725-1.221-2.725-2.725z" fill="#08a9f1"/><path d="m400.936 245.718h-54.495v-16.893c0-4.514 3.66-8.174 8.174-8.174h38.146c4.514 0 8.174 3.66 8.174 8.174v16.893z" fill="#01c0fa"/><path d="m372.649 220.65h-18.034c-4.514 0-8.174 3.66-8.174 8.174v16.893h18.034v-16.893c0-4.514 3.66-8.174 8.174-8.174z" fill="#08a9f1"/></g><g><path d="m304.802 168.799-2.458-10.265c-.216-.9-1.02-1.534-1.945-1.534h-.057c-.925 0-1.729.635-1.945 1.534l-2.458 10.265z" fill="#c5d3dd"/><g><path d="m307.839 179.385v-8.586c0-1.657-1.343-3-3-3h-8.935c-1.657 0-3 1.343-3 3v8.586z" fill="#f5f8f9"/></g><path d="m303 167.799h-7.097c-1.657 0-3 1.343-3 3v8.586h7.097v-8.586c0-1.657 1.343-3 3-3z" fill="#d9e7ec"/><path d="m315.476 192.623v-11.238c0-1.657-1.343-3-3-3h-24.21c-1.657 0-3 1.343-3 3v11.238z" fill="#d9e7ec"/><path d="m300.79 178.385h-12.524c-1.657 0-3 1.343-3 3v11.238h12.524v-11.238c0-1.657 1.343-3 3-3z" fill="#c5d3dd"/><path d="m326.677 293v-96.377c0-2.761-2.239-5-5-5h-42.613c-2.761 0-5 2.239-5 5v96.377z" fill="#596c76"/><path d="m313.779 273.767h-26.816c-.937 0-1.697-.76-1.697-1.697v-60.144c0-.937.76-1.697 1.697-1.697h26.816c.937 0 1.697.76 1.697 1.697v60.144c0 .937-.76 1.697-1.697 1.697z" fill="#8d9ca8"/><path d="m298 272.07v-60.144c0-.938.76-1.697 1.697-1.697h-12.734c-.937 0-1.697.76-1.697 1.697v60.144c0 .937.76 1.697 1.697 1.697h12.734c-.937 0-1.697-.76-1.697-1.697z" fill="#7a8c98"/></g></g><g><path d="m239.5 314v197.742c3.648.161 7.312.258 11 .258 3.015 0 6.012-.074 9-.182v-197.818z" fill="#c5d3dd"/><path d="m249 314h-9.5v197.742c3.152.139 6.319.217 9.5.239z" fill="#b6c4cf"/><path d="m415.5 314v134.104c7.057-6.433 13.735-13.272 20-20.482v-113.622z" fill="#c5d3dd"/><path d="m415.5 448.104c3.25-2.963 6.413-6.02 9.5-9.153v-124.951h-9.5z" fill="#b6c4cf"/></g><path d="m445 315h-215c-2.761 0-5-2.239-5-5v-13c0-2.761 2.239-5 5-5h215c2.761 0 5 2.239 5 5v13c0 2.761-2.239 5-5 5z" fill="#c5d3dd"/><path d="m254 307c-2.761 0-5-2.239-5-5v-10h-19c-2.761 0-5 2.239-5 5v13c0 2.761 2.239 5 5 5h215c2.761 0 5-2.239 5-5v-3z" fill="#b6c4cf"/></g><path d="m95.143 325v-127.862h-35.827v127.862c0 5.032 4.079 9.111 9.111 9.111h35.827c-5.032 0-9.111-4.079-9.111-9.111z" fill="#f5f8f9"/></g></svg>