<svg id="Capa_1" enable-background="new 0 0 512 512" height="512" viewBox="0 0 512 512" width="512" xmlns="http://www.w3.org/2000/svg"><g><g><path d="m353 365.608v-11.608c0-4.962 4.037-9 9-9h97.147c4.963 0 9 4.038 9 9v41.882c27.635-39.664 43.853-87.876 43.853-139.882 0-135.31-109.69-245-245-245s-245 109.69-245 245c0 39.403 9.317 76.626 25.844 109.608z" fill="#fedf30"/><path d="m362 421.872c-4.963 0-9-4.038-9-9v-11.607h-283.292c44.612 60.488 116.364 99.735 197.292 99.735 71.324 0 135.519-30.487 180.293-79.128z" fill="#7a8c98"/></g><path d="m228.305 62.664v-12.87c0-5.523-4.477-10-10-10h-14.053c-5.523 0-10 4.477-10 10v12.87z" fill="#d9e7ec"/><path d="m219.653 39.895c-.442-.06-.889-.101-1.347-.101h-14.053c-5.523 0-10 4.477-10 10v12.87h16.747v-12.87c0-5.065 3.769-9.24 8.653-9.899z" fill="#c5d3dd"/><path d="m266.183 225.41h-109.764l-62.901 140.198h235.529z" fill="#fff5c6"/><path d="m156.419 225.41-62.901 140.198h33.953l62.901-140.198z" fill="#fef0ae"/><path d="m178.839 225.41c.989 17.06 15.132 30.59 32.44 30.59s31.45-13.531 32.44-30.59z" fill="#fee97d"/><path d="m203.074 225.41h-24.234c.989 17.06 15.132 30.59 32.44 30.59 4.282 0 8.367-.836 12.111-2.341-11.389-4.577-19.571-15.413-20.317-28.249z" fill="#fedf30"/><path d="m420.574 311.892v-193.741c-3.143 1.061-6.504 1.644-10 1.644s-6.857-.584-10-1.644v193.74h20z" fill="#b6c4cf"/><path d="m437 345v-29.109c0-2.761-2.239-5-5-5h-42.852c-2.761 0-5 2.239-5 5v29.109z" fill="#e8edf2"/><path d="m415 310.891h-25.852c-2.761 0-5 2.239-5 5v29.109h25.852v-29.109c0-2.761 2.239-5 5-5z" fill="#d9e7ec"/><path d="m459.148 344h-97.148c-5.523 0-10 4.477-10 10v11.608h62c4.963 0 9 4.038 9 9v17.656c0 4.962-4.037 9-9 9h-62v11.607c0 5.523 4.477 10 10 10h97.148c5.523 0 10-4.477 10-10v-58.871c0-5.523-4.478-10-10-10z" fill="#d9e7ec"/><g fill="#c5d3dd"><path d="m394.852 354c0-5.523 4.477-10 10-10h-42.852c-5.523 0-10 4.477-10 10v11.608h42.852z"/><path d="m394.852 412.872v-11.607h-42.852v11.607c0 5.523 4.477 10 10 10h42.852c-5.523 0-10-4.477-10-10z"/></g><g><path d="m414 402.264h-404c-5.523 0-10-4.477-10-10v-17.656c0-5.523 4.477-10 10-10h404c5.523 0 10 4.477 10 10v17.656c0 5.523-4.477 10-10 10z" fill="#596c76"/></g><g><path d="m58 385.656c-5.523 0-10-4.477-10-10v-11.048h-38c-5.523 0-10 4.477-10 10v17.656c0 5.523 4.477 10 10 10h404c5.523 0 10-4.477 10-10v-6.608z" fill="#465a61"/></g><path d="m379.213 88.435c0-3.496.584-6.857 1.645-10h-143.514v20h143.513c-1.06-3.143-1.644-6.504-1.644-10z" fill="#b6c4cf"/><g><circle cx="410.574" cy="88.435" fill="#d9e7ec" r="32.361"/></g><g><path d="m410.574 102.913c-7.984 0-14.479-6.495-14.479-14.478s6.495-14.478 14.479-14.478c7.983 0 14.478 6.495 14.478 14.478s-6.495 14.478-14.478 14.478z" fill="#c5d3dd"/></g><path d="m409 88.435c0-5.663 3.276-10.564 8.026-12.942-1.946-.974-4.132-1.536-6.452-1.536-7.984 0-14.479 6.495-14.479 14.478s6.495 14.478 14.479 14.478c2.32 0 4.506-.562 6.452-1.536-4.75-2.378-8.026-7.279-8.026-12.942z" fill="#b6c4cf"/><path d="m233.344 61.664h-44.131c-2.761 0-5 2.239-5 5v60.722h54.131v-60.722c0-2.762-2.239-5-5-5z" fill="#f5f8f9"/><g><path d="m238.344 126.385h-54.131l-45.057 95.747c-.936 1.99.515 4.277 2.714 4.277h138.816c2.199 0 3.651-2.288 2.714-4.277z" fill="#fff"/></g><path d="m214.346 61.664h-25.133c-2.761 0-5 2.239-5 5v60.722h25.133v-60.722c0-2.762 2.239-5 5-5z" fill="#e8edf2"/><path d="m164.289 222.132 45.057-95.747h-25.133l-45.057 95.747c-.936 1.99.515 4.277 2.714 4.277h25.133c-2.198 0-3.65-2.287-2.714-4.277z" fill="#f5f8f9"/></g></svg>