<svg id="Capa_1" enable-background="new 0 0 512 512" height="512" viewBox="0 0 512 512" width="512" xmlns="http://www.w3.org/2000/svg"><g><g><g><circle cx="256" cy="267" fill="#99e6fc" r="245"/></g><g><path d="m132 262.145c-11.304 0-20.5-9.196-20.5-20.5v-35.88c0-11.304 9.196-20.5 20.5-20.5s20.5 9.196 20.5 20.5v35.88c0 11.303-9.196 20.5-20.5 20.5z" fill="#fff"/></g><g><path d="m132 262.145c-11.304 0-20.5-9.196-20.5-20.5v-35.88c0-11.304 9.196-20.5 20.5-20.5s20.5 9.196 20.5 20.5v35.88c0 11.303-9.196 20.5-20.5 20.5z" fill="#01c0fa"/></g><g><path d="m137 74.265v-49c0-1.657-1.343-3-3-3h-4c-1.657 0-3 1.343-3 3v49z" fill="#596c76"/></g><path d="m127 185.907v75.595c1.604.404 3.273.642 5 .642s3.396-.238 5-.642v-75.595c-1.604-.404-3.273-.642-5-.642s-3.396.238-5 .642z" fill="#596c76"/><path d="m94.5 161.613v117.917h75v-117.917zm57 80.032c0 10.77-8.73 19.5-19.5 19.5s-19.5-8.73-19.5-19.5v-35.88c0-10.77 8.73-19.5 19.5-19.5s19.5 8.73 19.5 19.5z" fill="#dff6fd"/><path d="m283.731 87.348 1.771-1-5.194-33.123c-.381-2.433-2.477-4.225-4.94-4.225h-38.737c-2.462 0-4.558 1.793-4.94 4.225l-5.194 33.123 1.771 1z" fill="#fff"/><path d="m248.192 53.225c.381-2.433 2.477-4.225 4.94-4.225h-16.5c-2.462 0-4.558 1.793-4.94 4.225l-5.194 33.123 1.771 1h16.5l-1.771-1z" fill="#f5f8f9"/><g><g><g fill="#596c76"><path d="m254 87.348v-85.348c0-1.105-.895-2-2-2h-2c-1.105 0-2 .895-2 2v85.348z"/><path d="m264 87.348v-85.348c0-1.105-.895-2-2-2h-2c-1.105 0-2 .895-2 2v85.348z"/><path d="m244 87.348v-85.348c0-1.105-.895-2-2-2h-2c-1.105 0-2 .895-2 2v85.348z"/><path d="m274 87.348v-85.348c0-1.105-.895-2-2-2h-2c-1.105 0-2 .895-2 2v85.348z"/></g><g><path d="m256 237.88c-11.304 0-20.5-9.196-20.5-20.5v-35.88c0-11.304 9.196-20.5 20.5-20.5s20.5 9.196 20.5 20.5v35.88c0 11.304-9.196 20.5-20.5 20.5z" fill="#01c0fa"/></g></g><path d="m240 412v38.735c0 2.761 2.239 5 5 5h22c2.761 0 5-2.239 5-5v-38.735z" fill="#dff6fd"/><path d="m256 450.735v-38.735h-16v38.735c0 2.761 2.239 5 5 5h16c-2.761 0-5-2.238-5-5z" fill="#c8effe"/><g><g><g><g><path d="m261 237.237v-75.595c-1.604-.404-3.273-.642-5-.642s-3.396.238-5 .642v75.595c1.604.404 3.273.642 5 .642s3.396-.237 5-.642z" fill="#596c76"/></g><path d="m291.206 136.348h-70.411l-2.294 1v117.917h75v-117.917zm-15.706 81.032c0 10.77-8.73 19.5-19.5 19.5s-19.5-8.73-19.5-19.5v-35.88c0-10.77 8.73-19.5 19.5-19.5s19.5 8.73 19.5 19.5z" fill="#dff6fd"/><g><path d="m237.294 136.348h-16.5l-2.294 1v117.917h16.5v-117.917z" fill="#c8effe"/></g><g><g><path d="m225 285v118c0 5.523 4.477 10 10 10h42c5.523 0 10-4.477 10-10v-118z" fill="#fff"/></g></g><g><path d="m249 403v-118h-24v118c0 5.523 4.477 10 10 10h24c-5.523 0-10-4.477-10-10z" fill="#f2fbff"/></g><g><path d="m214 286h84c2.761 0 5-2.239 5-5v-21.735c0-2.761-2.239-5-5-5h-84c-2.761 0-5 2.239-5 5v21.735c0 2.761 2.239 5 5 5z" fill="#f2fbff"/></g><path d="m241 281v-21.735c0-2.761 2.239-5 5-5h-32c-2.761 0-5 2.239-5 5v21.735c0 2.761 2.239 5 5 5h32c-2.761 0-5-2.239-5-5z" fill="#dff6fd"/><g><g><path d="m285.502 86.348h-59.004l-7.998 51h75z" fill="#f2fbff"/></g></g><path d="m226.498 86.348-7.998 51h16.5l7.998-51z" fill="#dff6fd"/></g></g><g><path d="m236 382h-22c-2.761 0-5-2.239-5-5v-60c0-2.761 2.239-5 5-5h22c2.761 0 5 2.239 5 5v60c0 2.761-2.239 5-5 5z" fill="#fff"/></g><path d="m225 377v-60c0-2.761 2.239-5 5-5h-16c-2.761 0-5 2.239-5 5v60c0 2.761 2.239 5 5 5h16c-2.761 0-5-2.239-5-5z" fill="#f5f8f9"/></g></g><g><g><path d="m116 434.265v33.801c10.134 7.07 20.826 13.392 32 18.889v-52.69z" fill="#dff6fd"/><g><path d="m132 434.265h-16v33.801c5.19 3.62 10.528 7.042 16 10.26z" fill="#c8effe"/></g><g><g><path d="m141.677 73.265h-19.354c-2.257 0-4.234 1.512-4.825 3.689l-22.998 84.659h75l-22.998-84.659c-.591-2.178-2.568-3.689-4.825-3.689z" fill="#fff"/></g><path d="m138.823 73.265h-16.5c-2.257 0-4.234 1.512-4.825 3.689l-22.998 84.659h16.5l22.998-84.659c.591-2.178 2.568-3.689 4.825-3.689z" fill="#f5f8f9"/><g><path d="m94.5 161.613h16.5v117.917h-16.5z" fill="#c8effe"/><g><g><path d="m101 309.265v116c0 5.523 4.477 10 10 10h42c5.523 0 10-4.477 10-10v-116z" fill="#fff"/></g></g><g><path d="m125 425.265v-116h-24v116c0 5.523 4.477 10 10 10h24c-5.523 0-10-4.477-10-10z" fill="#f2fbff"/></g><g><path d="m90 310.265h84c2.761 0 5-2.239 5-5v-21.735c0-2.761-2.239-5-5-5h-84c-2.761 0-5 2.239-5 5v21.735c0 2.761 2.239 5 5 5z" fill="#f2fbff"/></g><path d="m109 305.265v-21.735c0-2.761 2.239-5 5-5h-24c-2.761 0-5 2.239-5 5v21.735c0 2.761 2.239 5 5 5h24c-2.761 0-5-2.239-5-5z" fill="#dff6fd"/><g><path d="m108.354 110.613-13.854 51h75l-13.854-51z" fill="#f2fbff"/></g><path d="m108.354 110.613-13.854 51h16.5l13.854-51z" fill="#dff6fd"/></g></g><g><path d="m112 404.265h-22c-2.761 0-5-2.239-5-5v-60c0-2.761 2.239-5 5-5h22c2.761 0 5 2.239 5 5v60c0 2.761-2.239 5-5 5z" fill="#fff"/></g><path d="m101 399.265v-60c0-2.761 2.239-5 5-5h-16c-2.761 0-5 2.239-5 5v60c0 2.761 2.239 5 5 5h16c-2.761 0-5-2.239-5-5z" fill="#f5f8f9"/></g><g><g><path d="m389.677 70.265h-19.354c-2.257 0-4.234 1.512-4.825 3.689l-22.998 84.659h75l-22.998-84.659c-.591-2.178-2.568-3.689-4.825-3.689z" fill="#fff"/></g><path d="m386.823 70.265h-16.5c-2.257 0-4.234 1.512-4.825 3.689l-22.998 84.659h16.5l22.998-84.659c.591-2.178 2.568-3.689 4.825-3.689z" fill="#f5f8f9"/><g><path d="m364 434.265v52.69c11.174-5.497 21.866-11.819 32-18.889v-33.801z" fill="#dff6fd"/><path d="m380 434.265h-16v52.69c5.452-2.682 10.786-5.563 16-8.629z" fill="#c8effe"/><g><g><g><path d="m378.5 109.612v-85.347c0-1.105-.896-2-2-2h-2c-1.104 0-2 .895-2 2v85.348h6z" fill="#596c76"/></g><g><path d="m387.5 109.612v-85.347c0-1.105-.896-2-2-2h-2c-1.104 0-2 .895-2 2v85.348h6z" fill="#596c76"/></g></g><g><g><g><path d="m380 260.145c-11.304 0-20.5-9.196-20.5-20.5v-35.88c0-11.304 9.196-20.5 20.5-20.5s20.5 9.196 20.5 20.5v35.88c0 11.303-9.196 20.5-20.5 20.5z" fill="#01c0fa"/></g><path d="m375 259.502c1.604.404 3.273.642 5 .642s3.396-.238 5-.642v-75.595c-1.604-.404-3.273-.642-5-.642s-3.396.238-5 .642z" fill="#596c76"/><g><g><path d="m349 307.265v118c0 5.523 4.477 10 10 10h42c5.523 0 10-4.477 10-10v-118z" fill="#fff"/></g></g><g><path d="m373 425.265v-118h-24v118c0 5.523 4.477 10 10 10h24c-5.523 0-10-4.477-10-10z" fill="#f2fbff"/></g><g><path d="m356.354 108.613-13.854 51h75l-13.854-51z" fill="#f2fbff"/></g><g fill="#dff6fd"><path d="m356.083 108.613-13.583 50h16.5l13.583-50z"/><path d="m342.5 159.613v117.917h75v-117.917zm57 80.032c0 10.77-8.73 19.5-19.5 19.5s-19.5-8.73-19.5-19.5v-35.88c0-10.77 8.73-19.5 19.5-19.5s19.5 8.73 19.5 19.5z"/></g></g></g></g><g><path d="m360 404.265h-22c-2.761 0-5-2.239-5-5v-60c0-2.761 2.239-5 5-5h22c2.761 0 5 2.239 5 5v60c0 2.761-2.239 5-5 5z" fill="#fff"/></g><path d="m349 399.265v-60c0-2.761 2.239-5 5-5h-16c-2.761 0-5 2.239-5 5v60c0 2.761 2.239 5 5 5h16c-2.761 0-5-2.239-5-5z" fill="#f5f8f9"/></g></g></g></g><g><path d="m338 308.265h84c2.761 0 5-2.239 5-5v-21.735c0-2.761-2.239-5-5-5h-84c-2.761 0-5 2.239-5 5v21.735c0 2.761 2.239 5 5 5z" fill="#f2fbff"/></g><path d="m365 303.265v-21.735c0-2.761 2.239-5 5-5h-32c-2.761 0-5 2.239-5 5v21.735c0 2.761 2.239 5 5 5h32c-2.761 0-5-2.239-5-5z" fill="#dff6fd"/><g><path d="m342.5 159.613h16.5v117.917h-16.5z" fill="#c8effe"/></g></g></svg>