<svg id="Capa_1" enable-background="new 0 0 512 512" height="512" viewBox="0 0 512 512" width="512" xmlns="http://www.w3.org/2000/svg"><g><g><g><circle cx="256" cy="256" fill="#8379c1" r="245"/></g></g><g><g><g fill="#978ecb"><path d="m372.201 83.461c-33.179-22.389-73.163-35.461-116.201-35.461s-83.022 13.072-116.201 35.461z"/><path d="m139.799 428.539c33.179 22.389 73.163 35.461 116.201 35.461s83.022-13.072 116.201-35.461z"/></g><path d="m10 428.539c-4.962 0-9-4.038-9-9v-327.078c0-4.962 4.038-9 9-9h492c4.963 0 9 4.038 9 9v327.077c0 4.962-4.037 9-9 9h-492z" fill="#f5f8f9"/></g></g><g><g><path d="m502 429.538h-492c-5.523 0-10-4.477-10-10v-327.076c0-5.523 4.477-10 10-10h492c5.523 0 10 4.477 10 10v327.077c0 5.522-4.477 9.999-10 9.999z" fill="#f5f8f9"/></g><path d="m48 419.538v-327.076c0-5.523 4.477-10 10-10h-48c-5.523 0-10 4.477-10 10v327.077c0 5.523 4.477 10 10 10h48c-5.523-.001-10-4.478-10-10.001z" fill="#e8edf2"/><path d="m24 106.461v142.539h122.462c9.181 0 17.857-4.204 23.547-11.411l32.209-40.798h-9.592c-12.476 0-22.625-10.149-22.625-22.625s10.149-22.625 22.625-22.625h235.25c12.084 0 21.986 9.523 22.595 21.458h37.529v-66.539h-464z" fill="#fff"/><path d="m24 106.461h24v142.539h-24z" fill="#f5f8f9"/><g><path d="m489 414.539h-466c-4.411 0-8-3.589-8-8v-301.078c0-4.411 3.589-8 8-8h466c4.411 0 8 3.589 8 8v301.077c0 4.412-3.589 8.001-8 8.001zm-464-10h462v-297.078h-462z" fill="#c5d3dd"/></g><g><path d="m276.646 372.48c-.893-.498-1.901-.761-2.917-.761-2.332 0-4.472 1.366-5.45 3.48l-8.648 18.677c-.673 1.452-2.029 2.319-3.63 2.319-1.6 0-2.957-.867-3.63-2.319l-8.648-18.677c-.979-2.114-3.118-3.48-5.45-3.48-1.016 0-2.024.263-2.917.761l-12.516 6.982v83.659c0 2.292 2.737 3.478 4.409 1.91l26.962-25.288c1.007-.945 2.575-.945 3.582 0l26.962 25.288c1.672 1.568 4.409.383 4.409-1.91v-83.659z" fill="#fe76a8"/><path d="m238.272 371.719c-1.016 0-2.024.263-2.917.761l-12.516 6.982v83.659c0 2.292 2.737 3.478 4.409 1.91l15.429-14.471v-76.903c-1.12-1.208-2.709-1.938-4.405-1.938z" fill="#fe5694"/><g><path d="m260.537 252.054 8.649 18.677c1.222 2.64 4.432 3.683 6.973 2.266l17.975-10.027c3.72-2.075 8.165 1.155 7.341 5.334l-3.981 20.194c-.563 2.854 1.421 5.585 4.309 5.931l20.435 2.454c4.229.508 5.927 5.733 2.804 8.63l-15.09 13.997c-2.133 1.978-2.133 5.353 0 7.332l15.09 13.997c3.123 2.897 1.425 8.122-2.804 8.63l-20.435 2.454c-2.889.347-4.872 3.077-4.309 5.931l3.981 20.194c.824 4.179-3.621 7.409-7.341 5.334l-17.975-10.027c-2.541-1.417-5.75-.374-6.973 2.266l-8.649 18.677c-1.79 3.865-7.284 3.865-9.074 0l-8.649-18.677c-1.222-2.64-4.432-3.683-6.973-2.266l-17.975 10.027c-3.72 2.075-8.165-1.155-7.341-5.334l3.981-20.194c.563-2.854-1.421-5.585-4.309-5.931l-20.435-2.454c-4.229-.508-5.927-5.733-2.804-8.63l15.09-13.997c2.133-1.978 2.133-5.353 0-7.332l-15.09-13.997c-3.123-2.897-1.425-8.122 2.804-8.63l20.435-2.454c2.889-.347 4.872-3.077 4.309-5.931l-3.981-20.194c-.824-4.179 3.621-7.409 7.341-5.334l17.975 10.027c2.541 1.417 5.75.374 6.973-2.266l8.649-18.677c1.79-3.866 7.284-3.866 9.074 0z" fill="#fac600"/></g><path d="m301.475 378.047-2.393-12.138c-1.186.06-2.38.091-3.582.091-16.606 0-31.846-5.832-43.8-15.55l-14.012 7.366c-2.665 1.401-5.779-.862-5.27-3.829l3.174-18.508c.202-1.178-.189-2.38-1.045-3.215l-13.447-13.108c-2.156-2.101-.966-5.762 2.013-6.195l4.707-.684c-1.177-5.071-1.82-10.347-1.82-15.777 0-9.251 1.823-18.073 5.104-26.146l-13.238-7.384c-3.72-2.075-8.165 1.155-7.341 5.334l3.981 20.194c.563 2.854-1.421 5.585-4.309 5.931l-20.435 2.454c-4.229.508-5.927 5.733-2.804 8.63l15.09 13.997c2.133 1.978 2.133 5.353 0 7.332l-15.09 13.997c-3.123 2.897-1.425 8.122 2.804 8.63l20.435 2.454c2.889.347 4.872 3.077 4.309 5.931l-3.981 20.194c-.824 4.179 3.621 7.409 7.341 5.334l17.975-10.026c2.541-1.417 5.75-.374 6.973 2.266l8.649 18.677c1.79 3.865 7.284 3.865 9.074 0l8.649-18.677c1.222-2.64 4.432-3.683 6.973-2.266l17.975 10.026c3.72 2.074 8.165-1.156 7.341-5.335z" fill="#e8b800"/><g><path d="m259.257 291.435 8.311 16.84c.529 1.072 1.552 1.815 2.735 1.987l18.583 2.7c2.979.433 4.169 4.094 2.013 6.195l-13.447 13.108c-.856.834-1.247 2.037-1.045 3.215l3.174 18.508c.509 2.967-2.605 5.23-5.27 3.829l-16.622-8.738c-1.058-.556-2.322-.556-3.38 0l-16.622 8.738c-2.665 1.401-5.779-.862-5.27-3.829l3.174-18.508c.202-1.178-.189-2.38-1.045-3.215l-13.447-13.108c-2.156-2.101-.966-5.762 2.013-6.195l18.584-2.7c1.183-.172 2.206-.915 2.735-1.987l8.311-16.84c1.333-2.7 5.183-2.7 6.515 0z" fill="#fee97d"/></g><g><path d="m250.418 348.578 3.174-18.508c.202-1.178-.189-2.38-1.045-3.215l-13.447-13.108c-.859-.838-1.18-1.922-1.074-2.952l-14.913 2.167c-2.979.433-4.169 4.094-2.013 6.195l13.447 13.108c.856.834 1.247 2.037 1.045 3.215l-3.174 18.508c-.509 2.967 2.605 5.23 5.27 3.829l13.117-6.896c-.369-.673-.536-1.476-.387-2.343z" fill="#fedf30"/></g></g><g><g><path d="m156 324h-81c-2.761 0-5-2.239-5-5s2.239-5 5-5h81c2.761 0 5 2.239 5 5s-2.239 5-5 5z" fill="#b6c4cf"/></g><g><path d="m156 345h-81c-2.761 0-5-2.239-5-5s2.239-5 5-5h81c2.761 0 5 2.239 5 5s-2.239 5-5 5z" fill="#b6c4cf"/></g><g><path d="m156 288h-81c-2.761 0-5-2.239-5-5s2.239-5 5-5h81c2.761 0 5 2.239 5 5s-2.239 5-5 5z" fill="#b6c4cf"/></g><g><path d="m156 366h-81c-2.761 0-5-2.239-5-5s2.239-5 5-5h81c2.761 0 5 2.239 5 5s-2.239 5-5 5z" fill="#b6c4cf"/></g></g><g><g><g><path d="m427.875 197.792h-235.25c-13.048 0-23.625-10.577-23.625-23.625 0-13.048 10.577-23.625 23.625-23.625h235.25c13.048 0 23.625 10.577 23.625 23.625 0 13.047-10.577 23.625-23.625 23.625z" fill="#c5d3dd"/></g><path d="m229.5 174.167c0-13.048 10.577-23.625 23.625-23.625h-60.5c-13.048 0-23.625 10.577-23.625 23.625 0 13.048 10.577 23.625 23.625 23.625h60.5c-13.048 0-23.625-10.578-23.625-23.625z" fill="#b6c4cf"/><g><g><path d="m422.25 179.167h-142.813c-2.762 0-5-2.239-5-5s2.238-5 5-5h142.813c2.762 0 5 2.239 5 5s-2.238 5-5 5z" fill="#fff"/></g><g><path d="m256.94 179.167h-58.69c-2.761 0-5-2.239-5-5s2.239-5 5-5h58.69c2.761 0 5 2.239 5 5s-2.239 5-5 5z" fill="#fff"/></g></g></g><g><circle cx="105.5" cy="174.167" fill="#fedf30" r="45"/></g><g><circle cx="105.5" cy="174.167" fill="#fac600" r="25"/></g><path d="m97 174.167c0-10.895 7.008-20.178 16.75-23.595-2.585-.906-5.36-1.405-8.25-1.405-13.785 0-25 11.215-25 25s11.215 25 25 25c2.89 0 5.665-.499 8.25-1.405-9.742-3.417-16.75-12.701-16.75-23.595z" fill="#e8b800"/></g><g><path d="m440.5 368h-83c-2.761 0-5-2.239-5-5v-36c0-2.761 2.239-5 5-5h83c2.761 0 5 2.239 5 5v36c0 2.761-2.239 5-5 5z" fill="#fee97d"/></g><path d="m385 363v-36c0-2.761 2.239-5 5-5h-32.5c-2.761 0-5 2.239-5 5v36c0 2.761 2.239 5 5 5h32.5c-2.761 0-5-2.239-5-5z" fill="#fedf30"/><g><g><path d="m441 236h-60c-2.762 0-5-2.239-5-5s2.238-5 5-5h60c2.762 0 5 2.239 5 5s-2.238 5-5 5z" fill="#b6c4cf"/></g><g><path d="m441 255h-100c-2.762 0-5-2.239-5-5s2.238-5 5-5h100c2.762 0 5 2.239 5 5s-2.238 5-5 5z" fill="#b6c4cf"/></g><g><path d="m441 274h-100c-2.762 0-5-2.239-5-5s2.238-5 5-5h100c2.762 0 5 2.239 5 5s-2.238 5-5 5z" fill="#b6c4cf"/></g></g></g></g></svg>