<svg id="Capa_1" enable-background="new 0 0 512 512" height="512" viewBox="0 0 512 512" width="512" xmlns="http://www.w3.org/2000/svg"><g><g><path d="m256 22c-135.31 0-245 109.69-245 245s109.69 245 245 245c36.16 0 70.502-7.845 101.398-21.909v-1h-60.716c-1.71 0-3.101-1.392-3.101-3.102v-116.887c0-1.71 1.391-3.102 3.101-3.102h103.217c1.71 0 3.102 1.392 3.102 3.102v93.143h1c58.933-44.742 97-115.543 97-195.244-.001-135.311-109.691-245.001-245.001-245.001z" fill="#c8effe"/><g><g><circle cx="256" cy="267" fill="#99e6fc" r="202"/></g></g><path d="m256 106.298c0-5.547-4.497-10.044-10.044-10.044h-18.956v42.243c0 2.066-1.682 3.748-3.749 3.748h-119.502c-2.067 0-3.749-1.682-3.749-3.748v-42.243h-62.956c-5.547 0-10.044 4.497-10.044 10.044v321.403c0 5.547 4.497 10.044 10.044 10.044h208.912c5.547 0 10.044-4.497 10.044-10.044l1-3.593v-313.367z" fill="#fe5694"/><path d="m75 427.702v-10.044h-22.89c-2.774 0-5.022-2.249-5.022-5.022v-291.272c0-2.774 2.248-5.022 5.022-5.022h22.89v-10.044c0-5.547 4.497-10.044 10.044-10.044h-48c-5.547 0-10.044 4.497-10.044 10.044v321.403c0 5.547 4.497 10.044 10.044 10.044h48c-5.547.001-10.044-4.496-10.044-10.043z" fill="#fd3581"/><path d="m52.11 116.342c-2.774 0-5.022 2.248-5.022 5.022v291.272c0 2.773 2.248 5.022 5.022 5.022h22.89v-301.316z" fill="#e8edf2"/><g><path d="m474.956 96.254h-208.912c-5.547 0-10.044 4.497-10.044 10.044v321.403c0 5.547 4.497 10.044 10.044 10.044h27.537v-68.644c0-1.71 1.391-3.102 3.101-3.102h103.217c1.71 0 3.102 1.392 3.102 3.102v68.644h71.956c5.547 0 10.044-4.497 10.044-10.044v-321.403c-.001-5.547-4.498-10.044-10.045-10.044z" fill="#fe93bb"/><g fill="#fe76a8"><path d="m271.066 116.342h27.934v-10.044c0-5.547 4.497-10.044 10.044-10.044h-43c-5.547 0-10.044 4.497-10.044 10.044v25.11c0-8.321 6.745-15.066 15.066-15.066z"/><path d="m293.581 417.658h-37.581v10.044c0 5.547 4.497 10.044 10.044 10.044h27.537z"/></g><path d="m256 131.408c0-8.321-6.745-15.066-15.066-15.066h-13.934v22.155c0 2.066-1.682 3.748-3.749 3.748h-119.502c-2.067 0-3.749-1.682-3.749-3.748v-22.155h-47.89c-2.774 0-5.022 2.248-5.022 5.022v291.272c0 2.773 2.248 5.022 5.022 5.022h204.89v-286.25z" fill="#f5f8f9"/><path d="m73 412.636v-10.044h-7.833c-1.664 0-3.013-1.349-3.013-3.013v-89.39c0-1.664 1.349-3.013 3.013-3.013h7.833v-15.066h-7.833c-1.664 0-3.013-1.349-3.013-3.013v-154.676c0-1.664 1.349-3.013 3.013-3.013h7.833v-10.044c0-2.774 2.248-5.022 5.022-5.022h-25.912c-2.774 0-5.022 2.248-5.022 5.022v291.272c0 2.773 2.248 5.022 5.022 5.022h25.912c-2.774 0-5.022-2.249-5.022-5.022z" fill="#e8edf2"/><path d="m459.89 116.342h-188.824c-8.321 0-15.066 6.745-15.066 15.066v286.25h37.581v-48.556c0-1.71 1.391-3.102 3.101-3.102h103.217c1.71 0 3.102 1.392 3.102 3.102v48.556h56.89c2.773 0 5.022-2.249 5.022-5.022v-291.272c-.001-2.774-2.249-5.022-5.023-5.022z" fill="#f5f8f9"/><path d="m274.079 402.592c-1.664 0-3.013-1.349-3.013-3.013v-84.871c0-1.664 1.349-3.013 3.013-3.013h14.061v-15.066h-14.061c-1.664 0-3.013-1.349-3.013-3.013v-159.195c0-1.664 1.349-3.013 3.013-3.013h14.061c0-8.321 6.745-15.066 15.066-15.066h-32.14c-8.321 0-15.066 6.745-15.066 15.066v286.25h32.14v-15.066z" fill="#e8edf2"/><g><path d="m62.154 310.189v89.39c0 1.664 1.349 3.013 3.013 3.013h172.754c1.664 0 3.013-1.349 3.013-3.013v-89.39c0-1.664-1.349-3.013-3.013-3.013h-172.754c-1.664-.001-3.013 1.348-3.013 3.013z" fill="#fff"/></g><path d="m79 399.579v-89.39c0-1.664 1.349-3.013 3.013-3.013h-16.846c-1.664 0-3.013 1.349-3.013 3.013v89.39c0 1.664 1.349 3.013 3.013 3.013h16.846c-1.664 0-3.013-1.349-3.013-3.013z" fill="#f5f8f9"/><path d="m103.749 142.245c-2.067 0-3.749-1.682-3.749-3.748v-7.089h-34.833c-1.664 0-3.013 1.349-3.013 3.013v154.675c0 1.664 1.349 3.013 3.013 3.013h75.831c1.664 0 3.013-1.349 3.013-3.013v-146.851z" fill="#fff"/><path d="m79.143 289.096v-154.675c0-1.664 1.349-3.013 3.013-3.013h-16.989c-1.664 0-3.013 1.349-3.013 3.013v154.675c0 1.664 1.349 3.013 3.013 3.013h16.989c-1.664.001-3.013-1.348-3.013-3.013z" fill="#f5f8f9"/><g><path d="m95.778 170.579v-20.304h14.608v20.304h10v-25.304l-5-5h-24.608l-5 5v25.304z" fill="#596c76"/><g><path d="m99 140.275h-8.222l-5 5v25.304h8.222v-25.304z" fill="#465a61"/></g><path d="m110.386 249.925v23.317h-14.608v-23.317h-10v28.317l5 5h24.608l5-5v-28.317z" fill="#596c76"/><g><path d="m94 249.925h-8.222v28.317l5 5h8.222l-5-5z" fill="#465a61"/></g></g><path d="m237.921 131.408h-10.921v7.089c0 2.066-1.682 3.748-3.749 3.748h-64.175v146.851c0 1.664 1.349 3.013 3.013 3.013h75.831c1.664 0 3.013-1.349 3.013-3.013v-154.675c.001-1.664-1.348-3.013-3.012-3.013z" fill="#fff"/><g><g><path d="m352.923 293.616v-159.195c0-1.664-1.349-3.013-3.013-3.013h-75.831c-1.664 0-3.013 1.349-3.013 3.013v159.195c0 1.664 1.349 3.013 3.013 3.013h75.831c1.664 0 3.013-1.349 3.013-3.013z" fill="#fff"/></g><path d="m288 293.616v-159.195c0-1.664 1.349-3.013 3.013-3.013h-16.934c-1.664 0-3.013 1.349-3.013 3.013v159.195c0 1.664 1.349 3.013 3.013 3.013h16.934c-1.664 0-3.013-1.349-3.013-3.013z" fill="#f5f8f9"/><g><path d="m293.581 369.102c0-1.71 1.391-3.102 3.101-3.102h56.242v-51.292c0-1.664-1.349-3.013-3.013-3.013h-75.831c-1.664 0-3.013 1.349-3.013 3.013v84.871c0 1.664 1.349 3.013 3.013 3.013h19.502v-33.49z" fill="#fff"/><path d="m288 399.579v-84.871c0-1.664 1.349-3.013 3.013-3.013h-16.934c-1.664 0-3.013 1.349-3.013 3.013v84.871c0 1.664 1.349 3.013 3.013 3.013h16.934c-1.664 0-3.013-1.349-3.013-3.013z" fill="#f5f8f9"/><g><g><g fill="#596c76"><path d="m311.8 386.213v-.001.002z"/><g><path d="m315.471 366 5.112-20.56h-17.176l5.111 20.56z"/><path d="m320.393 340.44-2.959-9.588h-10.879l-2.958 9.588z"/><path d="m303.366 366-5.112-20.56h-14.098l14.135 20.56z"/><path d="m298.364 340.44 2.959-9.588h-8.318l-8.182 9.588z"/><path d="m325.625 340.44h13.541l-8.183-9.588h-8.317z"/><path d="m325.698 366 14.135-20.56h-14.098l-5.112 20.56z"/></g></g></g></g></g></g><g><path d="m449.846 220.296v-85.875c0-1.664-1.349-3.013-3.013-3.013h-75.831c-1.664 0-3.013 1.349-3.013 3.013v85.875c0 1.664 1.349 3.013 3.013 3.013h75.831c1.664 0 3.013-1.349 3.013-3.013z" fill="#fff"/></g><g><g><path d="m329.902 177.766h-14.141c-.909 0-1.585-.841-1.391-1.729l7.2-32.851c.323-1.474-1.567-2.372-2.506-1.191l-35.635 44.851c-.741.933-.077 2.31 1.115 2.31h14.141c.909 0 1.585.841 1.391 1.729l-7.2 32.851c-.323 1.474 1.567 2.372 2.506 1.191l35.635-44.851c.742-.933.077-2.31-1.115-2.31z" fill="#596c76"/></g><g><g><path d="m292.469 186.847 26.973-33.949 2.129-9.711c.323-1.474-1.567-2.372-2.506-1.191l-35.635 44.851c-.741.933-.077 2.31 1.115 2.31h9.039c-1.192 0-1.856-1.377-1.115-2.31z" fill="#465a61"/></g><g><path d="m309.116 190.885c.195-.888-.482-1.729-1.391-1.729h-9.039c.909 0 1.585.841 1.391 1.729l-7.2 32.851c-.323 1.474 1.567 2.372 2.506 1.19l8.662-10.902z" fill="#465a61"/></g></g></g><g><g><path d="m322.952 242.308h-11.21c-.721 0-1.257-.666-1.103-1.37l5.708-26.042c.256-1.168-1.242-1.88-1.986-.944l-28.249 35.554c-.588.74-.061 1.831.884 1.831h11.21c.721 0 1.257.666 1.103 1.37l-5.708 26.042c-.256 1.168 1.242 1.88 1.986.944l28.249-35.554c.588-.74.061-1.831-.884-1.831z" fill="#596c76"/></g><g><g><path d="m293.278 249.507 21.382-26.912 1.687-7.698c.256-1.168-1.242-1.88-1.986-.944l-28.249 35.554c-.588.74-.061 1.831.884 1.831h7.165c-.944 0-1.471-1.091-.883-1.831z" fill="#465a61"/></g><g><path d="m306.474 252.708c.154-.704-.382-1.37-1.102-1.37h-7.165c.721 0 1.257.666 1.103 1.37l-5.708 26.042c-.256 1.168 1.242 1.88 1.986.944l6.866-8.642z" fill="#465a61"/></g></g></g><g><path d="m345.643 195.689h-17.673c-1.376 0-2.577.932-2.919 2.265l-8.759 34.176c-.256 1.168 1.242 1.88 1.986.944l28.249-35.554c.588-.74.061-1.831-.884-1.831z" fill="#596c76"/></g><g><path d="m329.068 203.326c.342-1.333 1.543-2.265 2.919-2.265h11.727l2.814-3.541c.588-.74.061-1.831-.884-1.831h-17.674c-1.376 0-2.577.932-2.919 2.265l-8.758 34.176c-.256 1.168 1.242 1.88 1.986.944l4.674-5.882z" fill="#465a61"/></g><path d="m162.075 323.249c-22.475 1.138-32.409 15.353-35.784 21.808v-.872c0-1.106-.435-2.109-1.128-2.873l7.56-13.095c.415-.718.168-1.635-.549-2.049-.717-.415-1.634-.169-2.049.549l-7.633 13.22c-.166-.02-.33-.051-.501-.051-.172 0-.335.031-.501.051l-7.633-13.22c-.414-.718-1.33-.964-2.049-.549-.717.414-.963 1.331-.549 2.049l7.56 13.095c-.693.764-1.128 1.766-1.128 2.872v.872c-3.375-6.455-13.31-20.67-35.785-21.808-1.546-.078-2.768 1.175-2.485 2.55.683 3.307 2.372 8.845 6.267 11.192 5.732 3.454-2.388 15.973 3.344 16.836h20.03c-5.272 3.642-19.237 14.192-15.731 21.585 4.299 9.066 17.673 15.973 20.539 12.951 1.494-1.575 2.857-11.362 3.821-20.371v1.985c0 2.364 1.934 4.299 4.299 4.299s4.299-1.934 4.299-4.299v-1.985c.964 9.009 2.327 18.795 3.821 20.37 2.866 3.022 16.24-3.885 20.539-12.951 3.506-7.393-10.459-17.944-15.731-21.585h20.03c5.732-.863-2.388-13.383 3.344-16.836 3.895-2.347 5.584-7.884 6.267-11.192.285-1.373-.938-2.626-2.484-2.548z" fill="#596c76"/><g fill="#465a61"><path d="m104.951 375.413c-2.386-5.032 3.322-11.527 8.873-16.311 2.111-1.819.834-5.274-1.952-5.274h-2.808c-5.272 3.642-19.237 14.192-15.731 21.585 4.299 9.066 17.673 15.973 20.539 12.951.36-.379.712-1.244 1.052-2.449-3.974-2.501-7.965-6.266-9.973-10.502z"/><path d="m97.308 336.991c-3.895-2.347-5.584-7.884-6.267-11.192-.089-.433-.016-.848.156-1.219-2.829-.69-5.915-1.16-9.289-1.331-1.546-.078-2.768 1.175-2.485 2.55.683 3.307 2.372 8.845 6.267 11.192 5.732 3.454-2.388 15.973 3.344 16.836h11.617c-5.731-.863 2.389-13.382-3.343-16.836z"/></g><g><g><g><path d="m425.283 204.564h-32.63c-.943 0-1.708-.765-1.708-1.708v-11.736c0-.943.765-1.708 1.708-1.708h32.63c.943 0 1.708.765 1.708 1.708v11.736c.001.943-.764 1.708-1.708 1.708z" fill="#596c76"/></g><path d="m407 202.856v-11.736c0-.943.765-1.708 1.708-1.708h-16.055c-.944 0-1.708.765-1.708 1.708v11.736c0 .943.765 1.708 1.708 1.708h16.055c-.943 0-1.708-.765-1.708-1.708z" fill="#465a61"/><g><path d="m417.206 164.369-6.743-14.829c-.607-1.335-2.503-1.335-3.11 0l-6.743 14.829c-.427.939-1.583 1.289-2.459.743l-12.731-7.938c-1.336-.833-2.993.432-2.54 1.94l7.699 25.664c.217.723.882 1.217 1.636 1.217h33.5c.757 0 1.423-.498 1.638-1.223l7.604-25.677c.446-1.507-1.208-2.766-2.542-1.935l-12.751 7.951c-.875.547-2.031.198-2.458-.742z" fill="#596c76"/></g><g><path d="m407.547 184.778-6.446-21.488-.491 1.079c-.427.939-1.583 1.289-2.459.742l-12.731-7.938c-1.336-.833-2.993.432-2.54 1.94l7.699 25.664c.217.723.882 1.217 1.636 1.217h16.968c-.754.001-1.419-.494-1.636-1.216z" fill="#465a61"/></g></g></g><g><g><g><path d="m219.309 178.78 6.304-11.99c.973-1.85.814-4.05-.415-5.741s-3.272-2.522-5.331-2.168l-13.352 2.289-9.456-9.7c-1.458-1.497-3.601-2.026-5.588-1.379-1.988.646-3.41 2.333-3.71 4.401l-1.948 13.406-12.147 5.995c-1.874.924-3.039 2.798-3.039 4.888 0 2.091 1.165 3.965 3.039 4.888l12.147 5.995 1.948 13.405c.3 2.069 1.722 3.756 3.71 4.402.561.182 1.133.271 1.7.271 1.441 0 2.841-.576 3.888-1.65l9.456-9.7 13.35 2.289c2.059.354 4.103-.477 5.333-2.168 1.229-1.691 1.388-3.891.415-5.742zm-6.565 2.538 5.228 9.944-11.075-1.899c-1.772-.302-3.572.284-4.824 1.568l-7.843 8.046-1.616-11.117c-.257-1.778-1.372-3.313-2.982-4.107l-10.075-4.972 10.074-4.972c1.611-.794 2.726-2.329 2.984-4.105l1.616-11.119 7.843 8.046c1.251 1.284 3.054 1.871 4.825 1.568l11.074-1.899-5.228 9.944c-.836 1.588-.836 3.485-.001 5.074z" fill="#596c76"/></g><g><path d="m211.583 170.942-4.096.703c-.497.085-1.005.128-1.509.128-2.398 0-4.733-.984-6.407-2.702l-2.899-2.974-.597 4.105c-.422 2.919-2.253 5.439-4.895 6.741l-3.724 1.839 3.72 1.836c2.645 1.303 4.476 3.824 4.898 6.738l.597 4.11 2.899-2.974c1.674-1.717 4.01-2.702 6.407-2.702.504 0 1.012.043 1.512.128l4.093.702-1.933-3.675c-1.37-2.607-1.37-5.72 0-8.327z" fill="#596c76"/></g></g></g><path d="m103.26 175.352c-13.51 0-24.501 10.991-24.501 24.501v41.503h15v-17.02h19.002v17.02h15v-41.503c0-13.51-10.991-24.501-24.501-24.501zm-9.501 33.984v-9.483c0-5.239 4.262-9.501 9.501-9.501s9.501 4.262 9.501 9.501v9.483z" fill="#596c76"/><g><path d="m107.38 175.705c-1.34-.228-2.715-.353-4.119-.353-13.51 0-24.501 10.991-24.501 24.501v41.503h8.239v-41.503c-.001-12.106 8.826-22.183 20.381-24.148z" fill="#465a61"/></g><g><path d="m446.833 238.375h-75.831c-1.664 0-3.013 1.349-3.013 3.013v124.612h31.909c1.71 0 3.102 1.392 3.102 3.102v33.49h43.833c1.664 0 3.013-1.349 3.013-3.013v-158.191c0-1.664-1.349-3.013-3.013-3.013z" fill="#fff"/><g><g><path d="m437.794 267.924h-57.752l-4.455 7.27 19.735 38.74h8.91l4.686-9.199 4.686 9.199h8.91l19.735-38.74zm-38.018 32.724-11.576-22.724h7.06l8.046 15.795zm9.142-17.945-2.435-4.78h4.87zm9.141 17.945-3.53-6.929 8.046-15.795h7.06z" fill="#596c76"/><g><path d="m402.54 295.222-2.764 5.426-11.576-22.724h5.528l-1.391-2.731 4.455-7.269h-16.75l-4.456 7.269 19.735 38.741h8.91l3.921-7.696z" fill="#465a61"/></g><path d="m412.879 320.23h-8.535l-23.648 38.74 3.944 7.03h15.259c.667 0 1.282.216 1.788.576h30.573l4.268-7.605zm-19.006 36.346 14.738-24.144 14.738 24.144z" fill="#596c76"/><path d="m392.944 366-3.944-7.029 23.648-38.741h-8.304l-23.649 38.741 3.945 7.029z" fill="#465a61"/></g></g><g><path d="m424.593 260.004h-31.35c-1.657 0-3-1.343-3-3v-4c0-1.657 1.343-3 3-3h31.35c1.657 0 3 1.343 3 3v4c0 1.657-1.343 3-3 3z" fill="#596c76"/></g><path d="m407 257.004v-4c0-1.657 1.343-3 3-3h-16.757c-1.657 0-3 1.343-3 3v4c0 1.657 1.343 3 3 3h16.757c-1.657 0-3-1.343-3-3z" fill="#465a61"/><path d="m424.593 375.438h-21.593v10h21.593c1.657 0 3-1.343 3-3v-4c0-1.656-1.343-3-3-3z" fill="#596c76"/></g><g><path d="m219.855 338.311h-41.206c-1.657 0-3-1.343-3-3v-6.053c0-1.657 1.343-3 3-3h41.206c1.657 0 3 1.343 3 3v6.053c0 1.657-1.343 3-3 3z" fill="#596c76"/></g><path d="m192 335.311v-6.053c0-1.657 1.343-3 3-3h-16.351c-1.657 0-3 1.343-3 3v6.053c0 1.657 1.343 3 3 3h16.351c-1.657 0-3-1.343-3-3z" fill="#465a61"/><g><path d="m219.855 358.399h-41.206c-1.657 0-3-1.343-3-3v-6.053c0-1.657 1.343-3 3-3h41.206c1.657 0 3 1.343 3 3v6.053c0 1.657-1.343 3-3 3z" fill="#596c76"/></g><path d="m192 355.399v-6.053c0-1.657 1.343-3 3-3h-16.351c-1.657 0-3 1.343-3 3v6.053c0 1.657 1.343 3 3 3h16.351c-1.657 0-3-1.343-3-3z" fill="#465a61"/><g><path d="m219.855 378.487h-41.206c-1.657 0-3-1.343-3-3v-6.053c0-1.657 1.343-3 3-3h41.206c1.657 0 3 1.343 3 3v6.053c0 1.657-1.343 3-3 3z" fill="#596c76"/></g><path d="m192 375.487v-6.053c0-1.657 1.343-3 3-3h-16.351c-1.657 0-3 1.343-3 3v6.053c0 1.657 1.343 3 3 3h16.351c-1.657 0-3-1.343-3-3z" fill="#465a61"/><g><path d="m213.646 206.68 4.367 8.849c.248.502.726.849 1.28.93l9.765 1.419c1.394.203 1.951 1.916.942 2.899l-7.066 6.888c-.401.39-.583.953-.489 1.504l1.668 9.726c.238 1.388-1.219 2.447-2.466 1.792l-8.734-4.592c-.495-.26-1.087-.26-1.582 0l-8.734 4.592c-1.247.656-2.704-.403-2.466-1.792l1.668-9.726c.095-.551-.088-1.114-.489-1.504l-7.066-6.888c-1.009-.983-.452-2.697.942-2.899l9.765-1.419c.554-.08 1.032-.428 1.28-.93l4.367-8.849c.623-1.263 2.424-1.263 3.048 0z" fill="#596c76"/></g><g><path d="m208.402 236.163 1.668-9.726c.095-.551-.088-1.114-.489-1.504l-7.066-6.888c-.34-.332-.489-.747-.501-1.159l-6.829.992c-1.394.203-1.951 1.916-.942 2.899l7.066 6.888c.401.39.583.953.489 1.504l-1.668 9.726c-.238 1.388 1.219 2.447 2.466 1.792l6.125-3.22c-.265-.35-.405-.804-.319-1.304z" fill="#465a61"/></g><g><path d="m189.654 240.667 3.619 7.332c.205.416.602.704 1.06.77l8.091 1.176c1.155.168 1.616 1.587.781 2.402l-5.855 5.707c-.332.324-.483.79-.405 1.247l1.382 8.059c.197 1.15-1.01 2.028-2.043 1.485l-7.237-3.805c-.41-.216-.9-.216-1.311 0l-7.237 3.805c-1.033.543-2.241-.334-2.043-1.485l1.382-8.059c.078-.457-.073-.923-.405-1.247l-5.855-5.707c-.836-.815-.375-2.234.78-2.402l8.091-1.176c.459-.067.855-.355 1.06-.77l3.619-7.332c.517-1.047 2.01-1.047 2.526 0z" fill="#596c76"/></g><g><path d="m185.824 264.351 1.382-8.059c.078-.457-.073-.923-.405-1.246l-5.855-5.707c-.1-.097-.179-.204-.242-.315l-6.345.922c-1.155.168-1.616 1.587-.78 2.402l5.855 5.707c.332.324.483.79.405 1.246l-1.382 8.059c-.197 1.151 1.01 2.028 2.043 1.485l5.906-3.105c-.419-.294-.683-.805-.582-1.389z" fill="#465a61"/></g><g><path d="m216.535 272.316c0-6.657 5.396-12.053 12.053-12.053 1.41 0 2.763.244 4.019.69-1.661-4.668-6.106-8.014-11.344-8.014-6.656 0-12.053 5.396-12.053 12.053 0 5.238 3.346 9.683 8.014 11.344-.445-1.258-.689-2.61-.689-4.02z" fill="#596c76"/></g><g><path d="m181.173 215.862c0 6.657-5.396 12.053-12.053 12.053-1.073 0-2.108-.154-3.098-.417 1.369 5.152 6.052 8.954 11.636 8.954 6.656 0 12.053-5.396 12.053-12.053 0-5.583-3.802-10.266-8.954-11.636.262.99.416 2.025.416 3.099z" fill="#596c76"/></g></g><g><path d="m399.899 365h-103.217c-2.265 0-4.101 1.836-4.101 4.101v116.888c0 2.265 1.836 4.101 4.101 4.101h60.716c16.612-7.562 32.225-16.931 46.602-27.846v-93.143c0-2.265-1.836-4.101-4.101-4.101z" fill="#e8edf2"/><path d="m326.58 485.989v-116.888c0-2.265 1.836-4.101 4.101-4.101h-34c-2.265 0-4.101 1.836-4.101 4.101v116.888c0 2.265 1.836 4.101 4.101 4.101h34c-2.264.001-4.101-1.836-4.101-4.101z" fill="#d9e7ec"/><path d="m370.689 418.18v-20.432l-7.5-7.5h-36.608l-7.5 7.5v59.595l7.5 7.5h43.419l7.5-7.5v-32.352zm-36.608-12.932h21.608v12.243h-21.608zm28.419 44.595h-28.419v-17.352h28.419z" fill="#596c76"/></g></g><g><g><path d="m99 4.748v133.748c0 2.622 2.126 4.748 4.748 4.748h119.503c2.622 0 4.748-2.126 4.748-4.748v-133.748c.001-2.622-2.125-4.748-4.747-4.748h-119.504c-2.622 0-4.748 2.126-4.748 4.748z" fill="#f2fbff"/></g></g><g><path d="m131 138.497v-56.207l-18.248-26.54c-2.133-3.104-1.917-7.273.527-10.139l15.702-18.402c.584-.684 1.268-1.259 2.019-1.714v-20.746c0-2.623 2.126-4.749 4.748-4.749h-32c-2.622 0-4.748 2.126-4.748 4.749v133.748c0 2.623 2.126 4.749 4.748 4.749h32c-2.622-.001-4.748-2.127-4.748-4.749z" fill="#dff6fd"/></g><path d="m213.72 45.61-15.703-18.403c-1.587-1.858-3.899-2.925-6.343-2.925h-56.348c-2.443 0-4.755 1.066-6.345 2.927l-15.702 18.402c-2.443 2.865-2.66 7.034-.527 10.139l43.875 63.813c1.557 2.264 4.126 3.615 6.873 3.615s5.316-1.352 6.873-3.615l43.875-63.814c2.133-3.103 1.916-7.272-.528-10.139zm-43.164-11.328 3.556 11.522h-21.223l3.556-11.522zm3.935 21.523-10.991 44.207-10.991-44.207zm26.249-10h-16.164l-3.555-11.522h9.887zm1.334 10-27.067 39.368 9.788-39.368zm-65.983-21.523h9.887l-3.555 11.522h-16.163zm15.902 60.89-27.067-39.368h17.279z" fill="#596c76"/></g></svg>