<svg id="Capa_1" enable-background="new 0 0 512 512" height="512" viewBox="0 0 512 512" width="512" xmlns="http://www.w3.org/2000/svg"><g><path d="m256 22c-73.197 0-138.884 32.11-183.778 83l-.082 1h70.86v290h-94.602l-.082 1c43.326 69.069 120.135 115 207.684 115 135.31 0 245-109.69 245-245s-109.69-245-245-245z" fill="#01c0fa"/><g><path d="m301.998 396h-109v45.449c0 2.761 2.239 5 5 5h104z" fill="#08a9f1"/></g><g><g><path d="m367 198.449h42v78.551h-42z" fill="#08a9f1"/></g><g><path d="m334.662 106v-40h-90.732c-3.08 0-5.577 2.497-5.577 5.577v34.423z" fill="#08a9f1"/></g></g><g><g><path d="m481.665 0h-143.003c-2.761 0-5 2.239-5 5v101h29.338c2.206 0 4 1.794 4 4v89.449h114.665c2.761 0 5-2.239 5-5v-189.449c0-2.761-2.239-5-5-5z" fill="#f5f8f9"/></g><g><path d="m358.665 106v-101c0-2.761 2.239-5 5-5h-25.002c-2.761 0-5 2.239-5 5v101z" fill="#e8edf2"/></g><path d="m301.998 281c0-2.206 1.794-4 4-4h62.002v-167c0-2.761-2.239-5-5-5h-219l-1 6.375v279.833l1 5.792h157.998z" fill="#fff"/><g><path d="m180 105h-36l-1 6.375v279.833l1 5.792h31v-287c0-2.761 2.239-5 5-5z" fill="#f5f8f9"/></g><g><path d="m442.02 91.725h-19.864c-1.277 0-2.227-1.181-1.954-2.428l10.114-46.145c.454-2.07-2.201-3.332-3.52-1.672l-50.056 63.001c-1.041 1.311-.108 3.244 1.566 3.244h19.864c1.277 0 2.227 1.181 1.954 2.428l-10.114 46.145c-.454 2.07 2.201 3.332 3.52 1.672l50.056-63.001c1.041-1.311.108-3.244-1.566-3.244z" fill="#596c76"/></g><g><g><path d="m389.438 104.481 37.889-47.688 2.99-13.641c.454-2.07-2.201-3.332-3.52-1.672l-50.056 63.001c-1.041 1.311-.108 3.244 1.566 3.244h12.697c-1.674 0-2.607-1.934-1.566-3.244z" fill="#465a61"/></g><g><path d="m412.821 110.153c.273-1.247-.677-2.428-1.954-2.428h-12.697c1.277 0 2.227 1.181 1.954 2.428l-10.114 46.145c-.454 2.07 2.201 3.332 3.52 1.672l12.167-15.314z" fill="#465a61"/></g></g></g><g><path d="m11 267c0 47.761 13.681 92.32 37.316 130h95.684v-292h-71.778c-38.096 43.184-61.222 99.887-61.222 162z" fill="#e8edf2"/></g><path d="m301.998 281c0-2.206 1.794-4 4-4h8.025c.73-1.186 1.395-2.394 1.978-3.622 7.34-15.479-21.896-37.567-32.934-45.191h41.933c12-1.808-5-28.018 7-35.249 8.155-4.914 11.692-16.507 13.121-23.431.595-2.881-1.965-5.503-5.202-5.339-47.029 2.382-67.842 32.124-74.919 45.649v-1.817c0-2.921-1.416-5.52-3.589-7.167l15.636-27.083c.415-.717.168-1.635-.549-2.049-.717-.415-1.634-.168-2.049.549l-15.697 27.187c-.868-.281-1.792-.437-2.752-.437s-1.884.156-2.753.437l-15.697-27.187c-.414-.717-1.33-.964-2.049-.549-.717.414-.963 1.332-.549 2.049l15.636 27.083c-2.172 1.647-3.588 4.246-3.588 7.167v1.816c-7.077-13.525-27.89-43.267-74.919-45.649-3.237-.164-5.796 2.459-5.202 5.339 1.429 6.924 4.966 18.517 13.121 23.431 12 7.231-5 33.441 7 35.249h41.934c-11.038 7.624-40.274 29.712-32.934 45.191 9 18.98 37 33.442 43 27.115 3.127-3.298 5.983-23.781 8-42.64v4.148c0 4.95 4.05 9 9 9s9-4.05 9-9v-4.148c2.017 18.859 4.873 39.343 8 42.64 3.978 4.195 17.627-.754 28.998-10.096z" fill="#596c76"/><g fill="#465a61"><path d="m221.207 273.378c-5.309-11.195 8.517-25.849 20.751-35.986 3.755-3.112 1.581-9.205-3.297-9.205h-9.727c-11.038 7.624-40.274 29.712-32.934 45.191 9 18.98 37 33.442 43 27.115.802-.845 1.585-2.825 2.341-5.612-8.069-5.232-16.054-12.899-20.134-21.503z"/><path d="m205.207 192.938c-8.155-4.914-11.692-16.507-13.121-23.431-.172-.833-.073-1.641.222-2.37-6.131-1.55-12.857-2.596-20.228-2.969-3.237-.164-5.796 2.459-5.202 5.339 1.429 6.924 4.966 18.517 13.121 23.431 12 7.231-5 33.441 7 35.249h25.207c-11.999-1.808 5.001-28.019-6.999-35.249z"/></g><path d="m301.998 329.5h-107.998c-1.657 0-3 1.343-3 3v9c0 1.657 1.343 3 3 3h107.998z" fill="#596c76"/><path d="m225 341.5v-9c0-1.657 1.343-3 3-3h-34c-1.657 0-3 1.343-3 3v9c0 1.657 1.343 3 3 3h34c-1.657 0-3-1.343-3-3z" fill="#465a61"/><g><g><path d="m11 267c0 25.793 3.997 50.651 11.386 74h96.888c2.761 0 5-2.239 5-5v-152c0-2.761-2.239-5-5-5h-91.978c-10.517 27.314-16.296 56.98-16.296 88z" fill="#f5f8f9"/></g><g><g><path d="m63.869 295.496 14.927-25.855c.77-1.333-.192-3-1.732-3h-29.854c-1.54 0-2.502 1.667-1.732 3l14.927 25.855c.77 1.333 2.694 1.333 3.464 0z" fill="#596c76"/></g><g><g><path d="m84.341 259.742 14.927-25.855c.77-1.333-.192-3-1.732-3h-29.854c-1.54 0-2.502 1.667-1.732 3l14.927 25.855c.769 1.333 2.694 1.333 3.464 0z" fill="#596c76"/></g><g><path d="m43.397 259.742 14.927-25.855c.77-1.333-.192-3-1.732-3h-29.854c-1.54 0-2.502 1.667-1.732 3l14.927 25.855c.77 1.333 2.694 1.333 3.464 0z" fill="#596c76"/></g></g></g><g fill="#465a61"><path d="m57.939 269.641c-.77-1.333.192-3 1.732-3h-12.461c-1.54 0-2.502 1.667-1.732 3l14.927 25.855c.77 1.333 2.694 1.333 3.464 0l4.499-7.792z"/><g><path d="m78.411 233.887c-.77-1.333.192-3 1.732-3h-12.461c-1.54 0-2.502 1.667-1.732 3l14.927 25.855c.77 1.333 2.694 1.333 3.464 0l4.499-7.792z"/><path d="m37.467 233.887c-.77-1.333.193-3 1.732-3h-12.461c-1.54 0-2.502 1.667-1.732 3l14.927 25.855c.77 1.333 2.694 1.333 3.464 0l4.499-7.792z"/></g></g></g><g><g><path d="m449 475.449h-143.002c-2.761 0-5-2.239-5-5v-189.449c0-2.761 2.239-5 5-5h143.002c2.761 0 5 2.239 5 5v189.449c0 2.762-2.239 5-5 5z" fill="#f5f8f9"/></g><g><path d="m326 470.449v-189.449c0-2.761 2.239-5 5-5h-25.002c-2.761 0-5 2.239-5 5v189.449c0 2.761 2.239 5 5 5h25.002c-2.761 0-5-2.238-5-5z" fill="#e8edf2"/></g><g><g><path d="m407.915 429.725h-60.611c-1.657 0-3-1.343-3-3v-22c0-1.657 1.343-3 3-3h60.611c1.657 0 3 1.343 3 3v22c0 1.657-1.343 3-3 3z" fill="#596c76"/></g><g><path d="m392.906 355.611-12.677-27.88c-1.066-2.344-4.396-2.344-5.462 0l-12.677 27.88c-.75 1.65-2.781 2.263-4.318 1.304l-24.029-14.984c-2.347-1.463-5.256.759-4.461 3.408l14.38 47.935c.381 1.269 1.549 2.138 2.873 2.138h62.138c1.329 0 2.499-.874 2.876-2.148l14.202-47.957c.784-2.647-2.121-4.858-4.464-3.397l-24.065 15.006c-1.535.958-3.566.345-4.316-1.305z" fill="#596c76"/></g></g><g><path d="m369.42 426.725v-22c0-1.657 1.343-3 3-3h-25.116c-1.657 0-3 1.343-3 3v22c0 1.657 1.343 3 3 3h25.116c-1.657 0-3-1.343-3-3z" fill="#465a61"/><g><path d="m368.779 393.273-10.891-36.303c-.038-.021-.078-.032-.115-.055l-24.029-14.984c-2.347-1.463-5.256.759-4.461 3.408l14.38 47.935c.381 1.269 1.549 2.138 2.873 2.138h25.116c-1.325-.001-2.493-.87-2.873-2.139z" fill="#465a61"/></g></g></g></g></svg>