<svg id="Capa_1" enable-background="new 0 0 512 512" height="512" viewBox="0 0 512 512" width="512" xmlns="http://www.w3.org/2000/svg"><g><g><path d="m164.546 249.462c.578 1.275 1.859 2.1 3.262 2.1h184.864c8.47 0 16.603 4.013 21.755 10.736l95.361 124.417c19.868-35.402 31.212-76.23 31.212-119.715 0-135.31-109.69-245-245-245-63.835 0-121.96 24.421-165.564 64.42z" fill="#c8effe"/></g><path d="m355.516 276.793c-.673-.878-1.735-1.403-2.844-1.403h-184.864c-10.722 0-20.517-6.307-24.954-16.068l-70.311-154.684c-38.287 43.229-61.543 100.075-61.543 162.362 0 67.534 27.327 128.683 71.523 173l3.614 1h339.711l3.614-1c9.787-9.814 18.752-20.449 26.771-31.801z" fill="#99e6fc"/><g><path d="m102.603 113.188 27.13-12.384c10.381-4.739 14.955-16.995 10.217-27.377l-27.999-61.34c-4.739-10.381-16.995-14.955-27.377-10.216l-26.973 12.312z" fill="#7a8c98"/><path d="m86.912 32.084c-2.283-5.022-.067-10.944 4.951-13.235l17.89-8.166c.402-.183.81-.327 1.217-.483-5.292-9.031-16.667-12.77-26.396-8.329l-26.973 12.312 45.002 99.005 17.535-8.004z" fill="#596c76"/><g><path d="m203.285 301.734h86.782v103.266h-86.782z" fill="#8d9ca8"/></g><path d="m203.285 301.734h33.933v103.266h-33.933z" fill="#7a8c98"/><g><path d="m257.007 379h-20.662c-2.853 0-5.166-2.313-5.166-5.166v-42.063c0-2.853 2.313-5.166 5.166-5.166h20.662c2.853 0 5.166 2.313 5.166 5.166v42.063c0 2.853-2.313 5.166-5.166 5.166z" fill="#c5d3dd"/></g><path d="m243.007 373.835v-42.063c0-2.853 2.313-5.166 5.166-5.166h-11.827c-2.853 0-5.166 2.313-5.166 5.166v42.063c0 2.853 2.313 5.166 5.166 5.166h11.827c-2.854-.001-5.166-2.314-5.166-5.166z" fill="#b6c4cf"/><path d="m164.546 249.462c.578 1.275 1.859 2.1 3.262 2.1h174.948v-14.947c0-11.411-9.251-20.662-20.662-20.662h-118.052l-41.712-91.383c-4.739-10.381-16.995-14.955-27.377-10.217l-26.352 12.029z" fill="#7a8c98"/><g><path d="m137.976 143.909c-2.283-5.022-.067-10.944 4.951-13.235l17.27-7.883c.32-.146.647-.257.971-.385-5.362-8.824-16.59-12.446-26.215-8.053l-26.352 12.029 55.945 123.08c.578 1.275 1.859 2.1 3.262 2.1h19.101z" fill="#596c76"/></g><g><path d="m192.954 194.291h25.828v57.271h-25.828z" fill="#c5d3dd"/><path d="m192.954 194.291h11.046v57.271h-11.046z" fill="#b6c4cf"/><path d="m241.511 194.291h25.828v57.271h-25.828z" fill="#c5d3dd"/><path d="m241.511 194.291h11.046v57.271h-11.046z" fill="#b6c4cf"/></g><g><path d="m289.034 195.29h-117.775c-2.853 0-5.166-2.313-5.166-5.166v-18.596c0-2.853 2.313-5.166 5.166-5.166h117.775c2.853 0 5.166 2.313 5.166 5.166v18.596c0 2.854-2.313 5.166-5.166 5.166z" fill="#596c76"/></g><path d="m200 190.125v-18.596c0-2.853 2.313-5.166 5.166-5.166h-33.907c-2.853 0-5.166 2.313-5.166 5.166v18.596c0 2.853 2.313 5.166 5.166 5.166h33.907c-2.853-.001-5.166-2.313-5.166-5.166z" fill="#465a61"/><path d="m176.424 275.39v17.013c0 5.706 4.625 10.331 10.331 10.331h119.841c5.706 0 10.331-4.625 10.331-10.331v-17.013z" fill="#596c76"/><path d="m227 292.403v-17.013h-50.576v17.013c0 5.706 4.625 10.331 10.331 10.331h50.576c-5.705.001-10.331-4.625-10.331-10.331z" fill="#465a61"/><g><path d="m476.024 435.663-121.302-158.262c-.489-.638-1.246-1.011-2.05-1.011h-184.865c-11.113 0-21.265-6.537-25.864-16.653l-101.756-223.864c-4.544-9.997-.123-21.784 9.873-26.328 2.989-1.359 6.514-.037 7.873 2.952l107.522 236.551c.418.919 1.341 1.514 2.352 1.514h184.864c8.778 0 17.208 4.16 22.549 11.127l121.302 158.262c3.471 4.529 2.614 11.013-1.915 14.484l-4.1 3.142c-4.527 3.472-11.012 2.614-14.483-1.914z" fill="#8d9ca8"/></g><path d="m364 441v-22c0-8.284-6.716-15-15-15h-205.588c-8.284 0-15 6.716-15 15v22z" fill="#596c76"/><path d="m194.412 404h-51c-8.284 0-15 6.716-15 15v22h51v-22c0-8.284 6.716-15 15-15z" fill="#465a61"/></g><path d="m82.523 440c44.355 44.476 105.7 72 173.477 72s129.122-27.524 173.477-72z" fill="#8d9ca8"/><path d="m401.656 464c9.865-7.306 19.17-15.326 27.821-24h-346.954c8.651 8.674 17.956 16.694 27.821 24z" fill="#7a8c98"/></g></svg>