<svg id="Capa_1" enable-background="new 0 0 512 512" height="512" viewBox="0 0 512 512" width="512" xmlns="http://www.w3.org/2000/svg"><g><path d="m356 38.677-1 .685v117.648l-130.334-130.334-2.06-.646c.112-.021.224-.05.336-.071-114.282 20.753-200.942 120.773-200.942 241.041 0 104.29 65.169 193.346 157 228.704l1-.688v-117.026l33.747 33.747c3.778 3.778 8.8 5.858 14.143 5.858 5.342 0 10.364-2.08 14.142-5.858l112.968-112.968v195.87l1 .685c91.305-35.617 156-124.412 156-228.324s-64.695-192.707-156-228.323z" fill="#fe93bb"/><g fill="#fed2a4"><path d="m356 159.424v-120.747c-27.588-10.762-57.602-16.677-89-16.677-15.161 0-29.996 1.39-44.394 4.03z"/><path d="m241.325 411.03c-3.589 3.589-8.36 5.565-13.435 5.565s-9.847-1.977-13.436-5.565l-35.454-35.454v120.127c27.314 10.517 56.98 16.297 88 16.297 31.398 0 61.412-5.915 89-16.677v-198.968z"/></g><path d="m278.635 82.059 1.613-.234c3.636-.53 6.777-2.814 8.398-6.105l5.96-12.076 5.959 12.074c1.625 3.294 4.765 5.577 8.404 6.107l13.327 1.937-9.645 9.4c-2.63 2.565-3.83 6.258-3.209 9.877l2.035 11.864 14.631 14.631c1.564-2.331 2.206-5.2 1.711-8.086l-3.251-18.953 13.771-13.423c3.064-2.986 4.146-7.37 2.824-11.439s-4.774-6.98-9.009-7.596l-19.029-2.765-8.511-17.244c-1.894-3.837-5.728-6.22-10.006-6.221-.001 0 0 0-.001 0-4.278 0-8.113 2.384-10.008 6.221l-8.511 17.244-10.688 1.551z" fill="#596c76"/><path d="m334.315 364.147-.707.707c-1.7 1.699-3.96 2.636-6.364 2.636-2.403 0-4.664-.937-6.364-2.636-3.509-3.509-3.509-9.219 0-12.729l.707-.707-8.722-8.722v33.337l-18.272-18.273-40.095 40.095v85.145l26.134-16v-86.24l36.059 36.06 22.309-9.82v-38.168z" fill="#596c76"/><g><path d="m265.499 386.856-11 11v85.144l11-6.734z" fill="#465a61"/></g><g><path d="m196.866 472-17.866-12v35.704c14.085 5.423 28.8 9.575 44 12.336v-65.04l-26.134-24z" fill="#596c76"/></g><g><path d="m411.737 242.032-169.705 169.705c-7.81 7.81-20.474 7.81-28.284 0l-207.89-207.889c-7.81-7.81-7.81-20.474 0-28.284l169.705-169.706c7.81-7.81 20.474-7.81 28.284 0l207.889 207.889c7.812 7.811 7.812 20.474.001 28.285z" fill="#e8edf2"/></g><path d="m255.828 377.413-212.654-212.654c-5.932-5.932-7.449-14.597-4.573-21.938l-32.743 32.742c-7.81 7.811-7.81 20.474 0 28.284l207.889 207.889c7.81 7.811 20.474 7.811 28.284 0l28.335-28.335c-5.259.019-10.525-1.975-14.538-5.988z" fill="#d9e7ec"/><g fill="#fff"><g><path d="m209.619 168.765-9.945 1.045.896 8.528 11.235 11.235z"/><path d="m193.064 95.632h10v22h-10z" transform="matrix(.995 -.105 .105 .995 -10.058 21.28)"/><path d="m213.075 227.727-8.175-8.175.939 8.935z"/><path d="m189.198 58.835h10v21.999h-10z" transform="matrix(.995 -.105 .105 .995 -6.234 20.674)"/><path d="m220.125 353.215h10v21.999h-10z" transform="matrix(.995 -.105 .105 .995 -36.825 25.518)"/><path d="m215.676 322.126 1.761 16.754 9.945-1.045-1.662-15.82z"/></g><g><path d="m242.361 217.352 9.009.947 1.292-1.292c1.559-1.56 1.559-4.097 0-5.656l-3.32-3.32-5.936-.624z"/><path d="m359.216 214.126h10v22h-10z" transform="matrix(.105 -.995 .995 .105 102.265 563.825)"/><path d="m169.444 203.168 7.288 7.289 13.914 1.461.629-5.991-4.467-4.467-16.997-1.785z"/><path d="m101.634 187.065h10v22h-10z" transform="matrix(.105 -.995 .995 .105 -101.489 283.418)"/><path d="m64.836 183.199h10v22h-10z" transform="matrix(.105 -.995 .995 .105 -130.597 243.361)"/><path d="m144.255 197.26c.079-.086.167-.16.247-.244l-11.489-1.207-1.045 9.945 9.039.95c-.2-3.408.865-6.842 3.248-9.444z"/></g></g><g><g><path d="m31.313 201.021-7.777-7.78v-7.07l7.777-7.779 7.072 7.071-4.243 4.243 4.243 4.243z" fill="#fff"/></g><g><path d="m49.665 174.184-7.071-7.071 15.88-15.88 7.071 7.071zm27.16-27.161-7.071-7.071 15.88-15.88 7.071 7.071zm27.159-27.159-7.071-7.071 15.879-15.88 7.071 7.071zm27.16-27.16-7.071-7.071 15.88-15.88 7.071 7.071zm27.159-27.16-7.071-7.071 15.88-15.88 7.071 7.071z" fill="#fff"/></g><g><path d="m193.949 38.384-4.243-4.243-4.244 4.243-7.07-7.072 7.778-7.778h7.071l7.779 7.778z" fill="#fff"/></g><g><path d="m369.351 213.788-15.198-15.198 7.071-7.071 15.198 15.198zm-25.058-25.058-15.198-15.198 7.071-7.071 15.198 15.198zm-25.057-25.057-15.198-15.198 7.071-7.071 15.198 15.198zm-25.058-25.058-15.198-15.198 7.071-7.071 15.198 15.198zm-25.057-25.057-15.198-15.198 7.071-7.071 15.198 15.198zm-25.058-25.058-15.198-15.198 7.071-7.071 15.198 15.198zm-25.057-25.058-15.198-15.198 7.071-7.071 15.198 15.198z" fill="#fff"/></g><g><path d="m386.282 239.204-7.072-7.071 4.243-4.243-4.243-4.244 7.072-7.071 7.778 7.779v7.071z" fill="#fff"/></g><g><path d="m250.483 375.002-7.071-7.071 15.88-15.88 7.071 7.071zm27.16-27.16-7.071-7.071 15.88-15.879 7.071 7.071zm81.479-81.479-7.071-7.071 15.88-15.88 7.071 7.071z" fill="#fff"/></g><g><path d="m231.425 394.06h-7.071l-7.778-7.779 7.071-7.071 4.243 4.243 4.242-4.243 7.072 7.071z" fill="#fff"/></g><g><path d="m206.716 376.423-15.198-15.198 7.071-7.071 15.198 15.198zm-25.057-25.058-15.198-15.198 7.071-7.071 15.198 15.198zm-25.057-25.057-15.198-15.198 7.071-7.071 15.198 15.198zm-25.058-25.058-15.199-15.197 7.071-7.071 15.199 15.197zm-25.058-25.058-15.198-15.197 7.071-7.071 15.198 15.197zm-25.057-25.056-15.198-15.198 7.071-7.071 15.198 15.197zm-25.057-25.058-15.198-15.198 7.071-7.071 15.198 15.198z" fill="#fff"/></g></g><g><path d="m400.916 297.547c0 .001 0 .001 0 0l-67.308 67.307 90.299 90.299c24.614-20.549 45.128-45.837 60.153-74.462z" fill="#fed2a4"/></g><path d="m377.071 357.783 42.041-42.04-18.196-18.196-67.308 67.307 90.299 90.299c6.596-5.507 12.887-11.364 18.867-17.524l-65.704-65.704c-3.904-3.905-3.904-10.236.001-14.142z" fill="#ffbd86"/><g><path d="m416.898 110.368c-21.727 7.059-29.51 14.842-36.569 36.569-.894 2.75-4.804 2.75-5.697 0-7.059-21.727-14.842-29.51-36.569-36.569-2.75-.894-2.75-4.804 0-5.697 21.727-7.059 29.51-14.842 36.569-36.569.894-2.75 4.804-2.75 5.697 0 7.059 21.727 14.842 29.51 36.569 36.569 2.751.893 2.751 4.803 0 5.697z" fill="#fee97d"/></g><g><path d="m358.763 94.629c-5.146 4.089-11.734 7.129-20.701 10.042-2.75.894-2.75 4.804 0 5.697 21.727 7.059 29.51 14.842 36.569 36.57.894 2.75 4.804 2.75 5.697 0 2.913-8.967 5.953-15.555 10.042-20.701-6.341-17.751-13.856-25.266-31.607-31.608z" fill="#fedf30"/></g><g><path d="m140.474 378.354c-14.353 4.977-20.143 10.767-25.12 25.12-.933 2.692-4.736 2.692-5.669 0-4.977-14.353-10.767-20.143-25.12-25.12-2.692-.933-2.692-4.736 0-5.669 14.353-4.977 20.143-10.767 25.12-25.12.933-2.692 4.736-2.692 5.669 0 4.977 14.353 10.767 20.143 25.12 25.12 2.692.933 2.692 4.736 0 5.669z" fill="#fee97d"/></g><g><path d="m98.957 365.179c-3.624 3.064-8.211 5.363-14.392 7.506-2.692.933-2.692 4.735 0 5.669 14.353 4.977 20.143 10.767 25.12 25.12.933 2.692 4.736 2.692 5.669 0 2.143-6.181 4.442-10.768 7.506-14.392-4.8-13.387-10.516-19.103-23.903-23.903z" fill="#fedf30"/></g><g><path d="m440.602 165.862c-9.565 3.317-13.423 7.175-16.739 16.739-.622 1.794-3.156 1.794-3.778 0-3.317-9.565-7.175-13.423-16.739-16.739-1.794-.622-1.794-3.156 0-3.778 9.565-3.317 13.423-7.175 16.739-16.739.622-1.794 3.156-1.794 3.778 0 3.317 9.565 7.175 13.423 16.739 16.739 1.794.623 1.794 3.156 0 3.778z" fill="#fee97d"/></g><g><path d="m428.138 173.655c-3.173-9.15-6.855-13.075-15.54-16.302-2.362 1.906-5.32 3.369-9.253 4.732-1.794.622-1.794 3.156 0 3.778 9.565 3.317 13.423 7.175 16.74 16.74.622 1.793 3.156 1.793 3.778 0 1.275-3.676 2.633-6.504 4.361-8.787-.026-.058-.065-.1-.086-.161z" fill="#fedf30"/></g><g><path d="m308.736 420.954 4.985 10.101c.283.573.829.969 1.461 1.061l11.147 1.62c1.591.231 2.227 2.187 1.075 3.309l-8.066 7.863c-.457.446-.666 1.088-.558 1.717l1.904 11.102c.272 1.585-1.392 2.794-2.815 2.045l-9.97-5.242c-.565-.297-1.24-.297-1.806 0l-9.97 5.242c-1.423.748-3.087-.46-2.815-2.045l1.904-11.102c.108-.629-.101-1.272-.558-1.717l-8.066-7.863c-1.151-1.122-.516-3.078 1.075-3.309l11.147-1.62c.632-.092 1.178-.489 1.461-1.061l4.985-10.101c.712-1.442 2.768-1.442 3.48 0z" fill="#596c76"/></g><g><path d="m308.736 420.954 4.985 10.101c.283.573.829.969 1.461 1.061l11.147 1.62c1.591.231 2.227 2.187 1.075 3.309l-8.066 7.863c-.457.446-.666 1.088-.558 1.717l1.904 11.102c.272 1.585-1.392 2.794-2.815 2.045l-9.97-5.242c-.565-.297-1.24-.297-1.806 0l-9.97 5.242c-1.423.748-3.087-.46-2.815-2.045l1.904-11.102c.108-.629-.101-1.272-.558-1.717l-8.066-7.863c-1.151-1.122-.516-3.078 1.075-3.309l11.147-1.62c.632-.092 1.178-.489 1.461-1.061l4.985-10.101c.712-1.442 2.768-1.442 3.48 0z" fill="#596c76"/></g><g><path d="m303.308 453.728 1.904-11.102c.108-.629-.101-1.271-.558-1.717l-8.066-7.863c-.171-.167-.291-.355-.386-.55l-8.539 1.241c-1.591.231-2.227 2.187-1.075 3.309l8.066 7.863c.457.446.666 1.088.558 1.717l-1.904 11.102c-.272 1.585 1.392 2.793 2.815 2.045l7.933-4.171c-.544-.409-.882-1.095-.748-1.874z" fill="#465a61"/></g><path d="m320.88 352.126 67.307-67.307-28.902-28.902c-2.575-2.575-4.125-5.993-4.359-9.627-.89-13.837-3.049-29.985-11.599-38.536l-95.571-95.571c-5.852-5.852-15.584-5.457-20.911 1.176-4.522 5.63-3.77 13.858 1.337 18.964l51.753 51.753c1.172 1.172 1.172 3.071 0 4.242l-3.88 3.88c-1.172 1.172-3.071 1.172-4.243 0l-70.088-70.088c-5.851-5.852-15.583-5.457-20.912 1.176-4.523 5.63-3.771 13.857 1.336 18.964l69.806 69.806c1.172 1.172 1.172 3.071 0 4.243l-3.883 3.883c-1.172 1.172-3.071 1.172-4.243 0l-70.088-70.088c-5.633-5.634-14.86-5.48-20.297.458-5.121 5.595-4.612 14.346.752 19.709l69.776 69.777c1.172 1.172 1.172 3.071 0 4.242l-3.88 3.88c-1.172 1.172-3.071 1.172-4.243 0l-52.036-52.036c-5.632-5.633-14.858-5.479-20.296.458-5.124 5.594-4.615 14.346.749 19.711l74.501 74.5h-29.139c-9.364 0-16.884 7.894-16.273 17.392.558 8.667 8.14 15.224 16.825 15.224l94.55-1.053c4.036-.045 7.92 1.539 10.774 4.393z" fill="#01c0fa"/><g><path d="m312.559 313.624c-2.854-2.854-6.738-4.438-10.774-4.393l-94.55 1.053c-8.685 0-16.267-6.556-16.825-15.224-.095-1.471.027-2.896.298-4.266h-1.08c-9.364 0-16.884 7.894-16.273 17.392.558 8.667 8.14 15.224 16.825 15.224l94.55-1.053c4.036-.045 7.92 1.539 10.774 4.393l25.376 25.376 15.09-15.09z" fill="#08a9f1"/></g><g><g><path d="m327.245 368.49c-2.56 0-5.118-.977-7.071-2.929-3.905-3.905-3.905-10.237 0-14.143l67.307-67.307c3.906-3.903 10.237-3.903 14.143 0 3.905 3.905 3.905 10.237 0 14.143l-67.308 67.307c-1.953 1.953-4.512 2.929-7.071 2.929z" fill="#08a9f1"/></g></g><path d="m352.19 343.998c-2.676 0-5.35-1.021-7.392-3.061-3.333-3.333-3.942-8.357-1.831-12.311l-22.793 22.793c-3.905 3.905-3.905 10.237 0 14.143 1.953 1.952 4.512 2.929 7.071 2.929s5.119-.977 7.071-2.929l22.794-22.794c-1.533.818-3.226 1.23-4.92 1.23z" fill="#0290cf"/></g></svg>