<svg id="Capa_1" enable-background="new 0 0 512 512" height="512" viewBox="0 0 512 512" width="512" xmlns="http://www.w3.org/2000/svg"><g><path d="m256 22c-135.31 0-245 109.69-245 245 0 41.163 10.167 79.946 28.103 114l6.778 1h420.239l6.778-1c17.935-34.054 28.102-72.837 28.102-114 0-135.31-109.69-245-245-245z" fill="#fee97d"/><g><g><path d="m129 139c0-1.83.552-3.533 1.494-4.955-6.409-11.931-19.002-20.045-33.494-20.045-20.987 0-38 17.013-38 38s17.013 38 38 38c13.442 0 25.244-6.986 32-17.518z" fill="#b6c4cf"/><path d="m93 152c0-14.871 8.547-27.738 20.992-33.979-5.115-2.564-10.881-4.021-16.992-4.021-20.987 0-38 17.013-38 38s17.013 38 38 38c6.111 0 11.877-1.457 16.99-4.021-12.444-6.242-20.99-19.109-20.99-33.979z" fill="#9facba"/><path d="m415 114c-14.492 0-27.085 8.114-33.494 20.045.942 1.422 1.494 3.125 1.494 4.955v33.482c6.756 10.532 18.558 17.518 32 17.518 20.987 0 38-17.013 38-38s-17.013-38-38-38z" fill="#b6c4cf"/><path d="m407 152c0-15.659 9.474-29.101 23-34.919-4.602-1.98-9.672-3.081-15-3.081-14.492 0-27.085 8.114-33.494 20.045.942 1.422 1.494 3.125 1.494 4.955v33.482c6.756 10.532 18.558 17.518 32 17.518 5.328 0 10.398-1.101 15-3.081-13.526-5.818-23-19.26-23-34.919z" fill="#9facba"/></g><g fill="#e8edf2"><path d="m129 139.5h-31.5c-6.904 0-12.5 5.596-12.5 12.5s5.596 12.5 12.5 12.5h31.5z"/><path d="m414.5 139.5h-31.5v25h31.5c6.904 0 12.5-5.596 12.5-12.5s-5.596-12.5-12.5-12.5z"/></g><path d="m384 382v-243c0-5.523-4.477-10-10-10h-236c-5.523 0-10 4.477-10 10v243z" fill="#fff"/><path d="m170 129h-32c-5.523 0-10 4.477-10 10v243h32v-243c0-5.523 4.477-10 10-10z" fill="#f5f8f9"/><path d="m39.103 381c41.022 77.888 122.75 131 216.897 131s175.875-53.112 216.897-131z" fill="#dff6fd"/><path d="m39.103 381c41.022 77.888 122.75 131 216.897 131s175.875-53.112 216.897-131z" fill="#fed2a4"/><path d="m364 468h-216c-10.77 0-19.5-8.73-19.5-19.5 0-10.77 8.73-19.5 19.5-19.5h216c10.77 0 19.5 8.73 19.5 19.5 0 10.77-8.73 19.5-19.5 19.5z" fill="#ffbd86"/><g><g><path d="m348.114 82.297c-22.514-2.798-40.523-20.286-44.139-42.539h-9.784l-9.76 24.363c11.173 23.909 34.22 41.202 61.519 44.206 6.065.667 11.037-3.852 11.037-9.953v-6.146c0-5.087-3.826-9.304-8.873-9.931z" fill="#fe76a8"/><path d="m228.991 68.164-.479-.597v36.292h54.976v-37.384l-.676 1.689z" fill="#fe5694"/><path d="m228.991 68.164-.479-.597v36.292h20.683v-35.695z" fill="#fd3581"/><path d="m337.578 0h-26.383l-3.061 4.951-14.344 35.806h43.788c4.897 0 8.867-3.97 8.867-8.867v-23.023c0-4.897-3.97-8.867-8.867-8.867z" fill="#fe5694"/><path d="m206.451 8.867v29.69c0 2.018.688 3.976 1.952 5.55l20.109 25.056h54.977l27.706-69.163h-95.877c-4.897 0-8.867 3.97-8.867 8.867z" fill="#fe93bb"/><path d="m232 38.558v-29.691c0-4.897 3.97-8.867 8.867-8.867h-25.549c-4.897 0-8.867 3.97-8.867 8.867v29.69c0 2.018.688 3.976 1.952 5.55l20.109 25.056h25.549l-20.109-25.056c-1.264-1.573-1.952-3.531-1.952-5.549z" fill="#fe76a8"/><path d="m343.337 241.015-47.308-38.812c-5.132-4.211-8.108-10.5-8.108-17.138v-21.135h-63.844v21.135c0 6.639-2.975 12.928-8.108 17.138l-47.308 38.812c-10.265 8.421-16.215 21-16.215 34.277v163.708c0 8.284 6.716 15 15 15h177.105c8.284 0 15-6.716 15-15v-163.708c.002-13.277-5.949-25.856-16.214-34.277z" fill="#dff6fd"/><path d="m186 439v-163.708c0-13.277 5.95-25.855 16.215-34.277l47.308-38.812c5.132-4.211 8.108-10.5 8.108-17.138v-21.135h-33.553v21.135c0 6.639-2.975 12.928-8.108 17.138l-47.308 38.812c-10.265 8.421-16.215 21-16.215 34.277v163.708c0 8.284 6.716 15 15 15h33.553c-8.284 0-15-6.716-15-15z" fill="#c8effe"/><g><path d="m255.195 265c3.64 0 7.174.452 10.559 1.29v-102.36h-19.508v101.987c2.891-.6 5.883-.917 8.949-.917z" fill="#99e6fc"/></g><g><path d="m173.748 437.699c-2.761 0-5-2.239-5-5v-149.407c0-2.761 2.239-5 5-5h164.503c2.761 0 5 2.239 5 5v149.407c0 2.761-2.239 5-5 5z" fill="#01c0fa"/></g><path d="m338.252 278.292h-51.587c7.745 7.935 12.53 18.771 12.53 30.708 0 24.262-19.738 44-44 44s-44-19.738-44-44c0-11.937 4.785-22.773 12.53-30.708h-49.976c-2.761 0-5 2.239-5 5v149.407c0 2.761 2.239 5 5 5h164.503c2.761 0 5-2.239 5-5v-149.407c0-2.761-2.239-5-5-5z" fill="#01c0fa"/><path d="m194 432.699v-149.407c0-2.761 2.239-5 5-5h-25.252c-2.761 0-5 2.239-5 5v149.407c0 2.761 2.239 5 5 5h25.252c-2.761 0-5-2.238-5-5z" fill="#08a9f1"/><path d="m255.195 353c-3.066 0-6.058-.317-8.949-.917v62.422c0 1.657 1.343 3 3 3h13.508c1.657 0 3-1.343 3-3v-62.795c-3.385.838-6.92 1.29-10.559 1.29z" fill="#08a9f1"/><path d="m288.809 164.93h-65.617c-4.897 0-8.867-3.97-8.867-8.867v-44.336c0-4.897 3.97-8.867 8.867-8.867h65.617c4.897 0 8.867 3.97 8.867 8.867v44.336c0 4.897-3.97 8.867-8.867 8.867z" fill="#fe93bb"/><path d="m248.71 142c-4.897 0-8.867-3.97-8.867-8.867v-30.273h-16.652c-4.897 0-8.867 3.97-8.867 8.867v44.336c0 4.897 3.97 8.867 8.867 8.867h65.617c4.897 0 8.867-3.97 8.867-8.867v-14.063z" fill="#fe76a8"/></g><circle cx="255.195" cy="309" fill="#fff" r="45"/><path d="m239.141 309c0-19.788 12.777-36.58 30.527-42.608-4.544-1.543-9.408-2.392-14.473-2.392-24.853 0-45 20.147-45 45s20.147 45 45 45c5.065 0 9.929-.849 14.473-2.392-17.75-6.028-30.527-22.82-30.527-42.608z" fill="#f2fbff"/><path d="m294.695 398h-79c-2.761 0-5-2.239-5-5v-13c0-2.761 2.239-5 5-5h79c2.761 0 5 2.239 5 5v13c0 2.761-2.239 5-5 5z" fill="#dff6fd"/><path d="m243 393v-13c0-2.761 2.239-5 5-5h-32.305c-2.761 0-5 2.239-5 5v13c0 2.761 2.239 5 5 5h32.305c-2.761 0-5-2.239-5-5z" fill="#c8effe"/></g></g></g></svg>