<svg id="Capa_1" enable-background="new 0 0 512 512" height="512" viewBox="0 0 512 512" width="512" xmlns="http://www.w3.org/2000/svg"><g><path d="m256 11c-122.559 0-224.096 89.991-242.146 207.5l1.086 1h29.06v13h-30.633l-1.328 1c-.676 7.411-1.039 14.913-1.039 22.5 0 22.551 3.062 44.384 8.767 65.122h472.467c5.704-20.738 8.766-42.571 8.766-65.122 0-135.31-109.69-245-245-245z" fill="#fedf30"/><path d="m34.536 360.878c1.137 2.396 2.316 4.769 3.528 7.122l1.936 1h157v13h-149.027l-1.503 1c33.123 54.535 86.927 95.101 150.53 110.831l1-.784v-99.282l2.821-.765h110.358l2.821.765v99.282l1 .784c71.938-17.789 131.344-67.35 162.464-132.953z" fill="#f6a96c"/><path d="m311.312 392h-110.624l-3.688 1v100.831c18.899 4.673 38.657 7.169 59 7.169s40.101-2.496 59-7.169v-100.831z" fill="#8d9ca8"/><g fill="#7a8c98"><path d="m237 393 3.688-1h-40l-3.688 1v100.831c12.959 3.204 26.322 5.384 40 6.438z"/><path d="m198 368h-159.936c2.63 5.108 5.436 10.109 8.407 15h151.529z"/><path d="m45 218.5h-31.146c-.76 4.951-1.356 9.956-1.816 15h32.962z"/></g><g><g><path d="m62.643 293h85.226v28.122h-85.226z" fill="#8d9ca8"/><path d="m62.643 293h25.131v28.122h-25.131z" fill="#7a8c98"/><path d="m364.131 293h85.226v28.122h-85.226z" fill="#8d9ca8"/><path d="m364.131 293h25.643v28.122h-25.643z" fill="#7a8c98"/><path d="m461.499 111.608h-410.998l-6.501 1v171.392c0 5.523 4.477 10 10 10h404c5.523 0 10-4.477 10-10v-171.392z" fill="#596c76"/></g><g><path d="m468 112.608h-424v-34.608c0-8.284 6.716-15 15-15h394c8.284 0 15 6.716 15 15z" fill="#7a8c98"/></g><path d="m96 284v-171.392h-52v171.392c0 5.523 4.477 10 10 10h52c-5.523 0-10-4.477-10-10z" fill="#465a61"/><path d="m111 63h-52c-8.284 0-15 6.716-15 15v34.608h52v-34.608c0-8.284 6.716-15 15-15z" fill="#596c76"/><g><path d="m363.5 218.75h-215c-2.761 0-5-2.239-5-5v-70c0-2.761 2.239-5 5-5h215c2.761 0 5 2.239 5 5v70c0 2.761-2.239 5-5 5z" fill="#01c0fa"/></g><path d="m176 213.75v-70c0-2.761 2.239-5 5-5h-32.5c-2.761 0-5 2.239-5 5v70c0 2.761 2.239 5 5 5h32.5c-2.761 0-5-2.239-5-5z" fill="#08a9f1"/><g><g><circle cx="102" cy="179" fill="#8d9ca8" r="27"/></g><path d="m91 179c0-12.126 7.994-22.385 19-25.794-2.528-.783-5.215-1.206-8-1.206-14.912 0-27 12.088-27 27s12.088 27 27 27c2.785 0 5.472-.422 8-1.206-11.006-3.409-19-13.668-19-25.794z" fill="#7a8c98"/><g><circle cx="410" cy="179" fill="#8d9ca8" r="27"/></g><path d="m399 179c0-12.126 7.994-22.385 19-25.794-2.528-.783-5.215-1.206-8-1.206-14.912 0-27 12.088-27 27s12.088 27 27 27c2.785 0 5.472-.422 8-1.206-11.006-3.409-19-13.668-19-25.794z" fill="#7a8c98"/></g><g><g><circle cx="189" cy="259.75" fill="#fac600" r="14"/></g><path d="m186 259.75c0-5.779 3.503-10.738 8.5-12.875-1.689-.722-3.547-1.125-5.5-1.125-7.732 0-14 6.268-14 14s6.268 14 14 14c1.953 0 3.811-.402 5.5-1.125-4.997-2.137-8.5-7.096-8.5-12.875z" fill="#e8b800"/><g><circle cx="256" cy="259.75" fill="#fac600" r="14"/></g><g><circle cx="323" cy="259.75" fill="#fac600" r="14"/></g></g><g><g><path d="m138 273.25h-58c-2.761 0-5-2.239-5-5v-17c0-2.761 2.239-5 5-5h58c2.761 0 5 2.239 5 5v17c0 2.761-2.239 5-5 5z" fill="#d9e7ec"/></g><path d="m99 268.25v-17c0-2.761 2.239-5 5-5h-24c-2.761 0-5 2.239-5 5v17c0 2.761 2.239 5 5 5h24c-2.761 0-5-2.239-5-5z" fill="#c5d3dd"/><g><path d="m432 273.25h-58c-2.761 0-5-2.239-5-5v-17c0-2.761 2.239-5 5-5h58c2.761 0 5 2.239 5 5v17c0 2.761-2.239 5-5 5z" fill="#d9e7ec"/></g><path d="m393 268.25v-17c0-2.761 2.239-5 5-5h-24c-2.761 0-5 2.239-5 5v17c0 2.761 2.239 5 5 5h24c-2.761 0-5-2.239-5-5z" fill="#c5d3dd"/></g><g fill="#596c76"><path d="m177 148.75h-10c-4.142 0-7.5 3.357-7.5 7.5s3.358 7.5 7.5 7.5h2.5v37.5c0 4.143 3.358 7.5 7.5 7.5s7.5-3.357 7.5-7.5v-45c0-4.143-3.358-7.5-7.5-7.5z"/><path d="m225 163.75c4.142 0 7.5-3.357 7.5-7.5s-3.358-7.5-7.5-7.5h-26c-4.142 0-7.5 3.357-7.5 7.5v45c0 4.143 3.358 7.5 7.5 7.5h26c4.142 0 7.5-3.357 7.5-7.5v-23.25c0-4.143-3.358-7.5-7.5-7.5h-16c-.876 0-1.718.15-2.5.427v-7.177zm-16 21.75h8.5v8.25h-11v-8.677c.782.277 1.624.427 2.5.427z"/><path d="m297 148.75h-26c-4.142 0-7.5 3.357-7.5 7.5v45c0 4.143 3.358 7.5 7.5 7.5h26c4.142 0 7.5-3.357 7.5-7.5v-45c0-4.143-3.358-7.5-7.5-7.5zm-7.5 45h-11v-30h11z"/><path d="m345 148.75c-4.142 0-7.5 3.357-7.5 7.5v17.25h-11v-17.25c0-4.143-3.358-7.5-7.5-7.5s-7.5 3.357-7.5 7.5v24.75c0 4.143 3.358 7.5 7.5 7.5h18.5v12.75c0 4.143 3.358 7.5 7.5 7.5s7.5-3.357 7.5-7.5v-45c0-4.143-3.358-7.5-7.5-7.5z"/><path d="m247 185.5c-4.142 0-7.5 3.357-7.5 7.5v6c0 4.143 3.358 7.5 7.5 7.5s7.5-3.357 7.5-7.5v-6c0-4.143-3.358-7.5-7.5-7.5z"/></g></g><g><g><path d="m502 361.878h-492c-5.523 0-10-4.477-10-10v-21.755c0-5.523 4.477-10 10-10h492c5.523 0 10 4.477 10 10v21.755c0 5.523-4.477 10-10 10z" fill="#fed2a4"/></g></g><g><path d="m74 345c-5.523 0-10-4.477-10-10v-14.878h-54c-5.523 0-10 4.477-10 10v21.755c0 5.523 4.477 10 10 10h492c5.523 0 10-4.477 10-10v-6.877z" fill="#ffbd86"/></g><g><g><path d="m315 393h-118v-66c0-5.523 4.477-10 10-10h98c5.523 0 10 4.477 10 10z" fill="#596c76"/></g><path d="m247 317h-40c-5.523 0-10 4.477-10 10v66h40v-66c0-5.523 4.477-10 10-10z" fill="#465a61"/><g><g><path d="m216.5 466.5c-4.142 0-7.5-3.357-7.5-7.5v-50c0-4.143 3.358-7.5 7.5-7.5s7.5 3.357 7.5 7.5v50c0 4.143-3.358 7.5-7.5 7.5z" fill="#596c76"/></g><g><path d="m242.833 466.5c-4.142 0-7.5-3.357-7.5-7.5v-50c0-4.143 3.358-7.5 7.5-7.5s7.5 3.357 7.5 7.5v50c0 4.143-3.357 7.5-7.5 7.5z" fill="#596c76"/></g><g><path d="m269.167 466.5c-4.142 0-7.5-3.357-7.5-7.5v-50c0-4.143 3.358-7.5 7.5-7.5s7.5 3.357 7.5 7.5v50c0 4.143-3.358 7.5-7.5 7.5z" fill="#596c76"/></g><g><path d="m295.5 466.5c-4.142 0-7.5-3.357-7.5-7.5v-50c0-4.143 3.358-7.5 7.5-7.5s7.5 3.357 7.5 7.5v50c0 4.143-3.358 7.5-7.5 7.5z" fill="#596c76"/></g></g><g><g><path d="m291 349.5h-70c-4.142 0-7.5-3.357-7.5-7.5s3.358-7.5 7.5-7.5h70c4.142 0 7.5 3.357 7.5 7.5s-3.358 7.5-7.5 7.5z" fill="#7a8c98"/></g><g><path d="m291 375.5h-70c-4.142 0-7.5-3.357-7.5-7.5s3.358-7.5 7.5-7.5h70c4.142 0 7.5 3.357 7.5 7.5s-3.358 7.5-7.5 7.5z" fill="#7a8c98"/></g></g></g><path d="m253 259.75c0-5.779 3.503-10.738 8.5-12.875-1.689-.722-3.547-1.125-5.5-1.125-7.732 0-14 6.268-14 14s6.268 14 14 14c1.953 0 3.811-.402 5.5-1.125-4.997-2.137-8.5-7.096-8.5-12.875z" fill="#e8b800"/><path d="m320 259.75c0-5.779 3.503-10.738 8.5-12.875-1.689-.722-3.547-1.125-5.5-1.125-7.732 0-14 6.268-14 14s6.268 14 14 14c1.953 0 3.811-.402 5.5-1.125-4.997-2.137-8.5-7.096-8.5-12.875z" fill="#e8b800"/></g></svg>