<svg id="Capa_1" enable-background="new 0 0 512 512" height="512" viewBox="0 0 512 512" width="512" xmlns="http://www.w3.org/2000/svg"><g><path d="m490 256c0-83.887-42.169-157.915-106.456-202.075v404.15c38.682-26.572 69.35-63.96 87.648-107.8l1.808-12.275 6.076-9.448-.004-.002c7.099-22.926 10.928-47.29 10.928-72.55z" fill="#c8effe"/><g><g><g><g><g><g><path d="m106.456 53.925c-64.287 44.16-106.456 118.188-106.456 202.075s42.169 157.915 106.456 202.075z" fill="#c8effe"/></g><g fill="#dff6fd"><path d="m383.544 118.788v274.424c34.897-35.234 56.456-83.703 56.456-137.212s-21.559-101.978-56.456-137.212z"/><path d="m106.456 118.788c-34.897 35.234-56.456 83.703-56.456 137.212s21.559 101.978 56.456 137.212z"/></g><g><path d="m105.456 457.382c39.6 27.492 87.685 43.618 139.544 43.618s99.944-16.126 139.544-43.618v-402.764c-39.6-27.492-87.685-43.618-139.544-43.618s-99.944 16.126-139.544 43.618z" fill="#fed2a4"/></g><path d="m156 27.689c-17.974 7.016-34.922 16.083-50.544 26.929v402.764c15.622 10.846 32.57 19.913 50.544 26.929z" fill="#ffbd86"/><path d="m287.928 140.354-36.433-63.104h-12.99l-36.474 63.175c-37.866 16.723-64.261 54.811-64.029 98.542.168 31.504 13.963 59.77 35.778 79.244 2.683 2.395 4.184 5.844 4.184 9.441v30.372c0 9.365 7.325 17.311 16.686 17.582 3.067.089 5.964-.639 8.49-1.98l35.365 61.253h12.99l35.365-61.253c2.527 1.341 5.423 2.069 8.49 1.98 9.362-.271 16.686-8.217 16.686-17.582v-30.375c0-3.618 1.534-7.07 4.232-9.481 21.921-19.592 35.732-48.067 35.732-79.782 0-43.825-26.352-81.491-64.072-98.032zm-28.847 183.931c-2.842 0-5.469-1.516-6.89-3.978l-2.087-3.615c-2.268-3.929-7.939-3.929-10.208 0l-2.087 3.615c-1.421 2.461-4.048 3.978-6.89 3.978-6.125 0-9.952-6.63-6.89-11.934l15.867-27.483c2.268-3.929 7.939-3.929 10.208 0l15.867 27.483c3.062 5.304-.766 11.934-6.89 11.934zm-10.414-100.199c-1.883 2.344-5.451 2.344-7.334 0l-21.235-26.438c-2.472-3.078-.281-7.648 3.667-7.648h42.469c3.948 0 6.139 4.57 3.667 7.648zm-3.667-128.086 21.702 37.589c-7.957-1.639-16.236-2.395-24.73-2.161-6.383.176-12.626.919-18.682 2.175zm-73.186 132.61c.849-1.953 3.192-2.757 5.037-1.693l53.743 31.028c1.827 1.055 2.336 3.471 1.083 5.169-10.368 14.049-29.861 18.365-45.339 9.429-15.465-8.928-21.476-27.94-14.524-43.933zm73.186 187.52-24.522-42.473c2.37 1.243 5.056 1.957 7.906 1.957 7.963 0 14.687-5.496 16.616-12.877 1.928 7.381 8.652 12.877 16.616 12.877 2.85 0 5.536-.714 7.906-1.957zm58.663-143.587c-15.478 8.936-34.971 4.62-45.339-9.429-1.253-1.698-.744-4.114 1.083-5.169l53.743-31.028c1.844-1.065 4.188-.261 5.037 1.693 6.951 15.993.939 35.005-14.524 43.933z" fill="#596c76"/><g><path d="m252.34 403.417-7.34 12.713-24.099-41.741c-6.44-2.591-10.937-9.034-10.937-16.365v-30.372c0-3.597-1.501-7.046-4.184-9.441-18.054-16.117-30.606-38.259-34.496-63.271-2.604-6.766-3.086-14.299-1.152-21.504 1.915-41.39 27.639-76.998 63.898-93.011l5.113-8.855c-5.399.292-10.697.964-15.854 2.034l21.711-37.604 7.34 12.713 8.66-15-9.505-16.463h-12.99l-36.474 63.175c-37.866 16.723-64.261 54.811-64.029 98.542.168 31.504 13.963 59.77 35.778 79.244 2.683 2.395 4.184 5.844 4.184 9.441v30.372c0 9.365 7.325 17.311 16.686 17.582 3.067.089 5.964-.639 8.49-1.98l35.365 61.253h12.99l9.505-16.462z" fill="#465a61"/></g></g><g><g><g><path d="m183.848 129.5 17.47-30.259c1.155-2-.289-4.5-2.598-4.5h-34.94c-2.309 0-3.753 2.5-2.598 4.5l17.47 30.259c1.155 2 4.041 2 5.196 0z" fill="#596c76"/></g><g><path d="m311.348 129.5 17.47-30.259c1.155-2-.289-4.5-2.598-4.5h-34.94c-2.309 0-3.753 2.5-2.598 4.5l17.47 30.259c1.155 2 4.041 2 5.196 0z" fill="#596c76"/></g></g><g><g><path d="m306.152 382.5-17.47 30.259c-1.155 2 .289 4.5 2.598 4.5h34.94c2.309 0 3.753-2.5 2.598-4.5l-17.47-30.259c-1.155-2-4.041-2-5.196 0z" fill="#596c76"/></g><g><path d="m178.652 382.5-17.47 30.259c-1.155 2 .289 4.5 2.598 4.5h34.94c2.309 0 3.753-2.5 2.598-4.5l-17.47-30.259c-1.155-2-4.041-2-5.196 0z" fill="#596c76"/></g></g></g></g></g></g><g><path d="m105.456 99 36.443 63.122c1.924 3.333-.481 7.5-4.33 7.5h-32.113z" fill="#596c76"/></g><g><path d="m384.544 315-36.443 63.122c-1.924 3.333.481 7.5 4.33 7.5h32.113z" fill="#596c76"/></g><g><path d="m105.456 315 36.443 63.122c1.924 3.333-.481 7.5-4.33 7.5h-32.113z" fill="#596c76"/></g></g><g><g><g><path d="m424.202 296.205c-10.806-6.239-14.522-20.106-8.283-30.912l36.011-62.373-19.684-11.364-36.011 62.372c-12.505 21.66-5.058 49.455 16.602 61.961l58.354 34.386c2.955-7.08 5.593-14.325 7.884-21.724z" fill="#08a9f1"/></g></g><g><path d="m403.243 261.845 39.97-63.958-10.967-6.332-36.011 62.372c-10.928 18.927-6.618 42.538 9.096 56.539-9.725-13.987-11.156-32.915-2.088-48.621z" fill="#0290cf"/></g><g><path d="m434.943 174.839-6.14 10.634c-1.255 2.174-.51 4.954 1.664 6.209l23.62 13.637c2.174 1.255 4.954.51 6.21-1.664l6.14-10.635z" fill="#c5d3dd"/></g><g><path d="m306.323 270.56-22.833-13.183c-.001-.001-.002-.001-.003-.002l-8.987 34.203-7.081 12.264c-.502.87-.204 1.982.666 2.484l3.551 2.05c.87.502 1.982.204 2.484-.666l7.081-12.265 25.127-24.885c-.002.001-.004 0-.005 0z" fill="#c5d3dd"/></g><g><g><path d="m428.359 68.279 2.319-4.016c2.761-4.783 1.123-10.899-3.66-13.66l-13.386-7.729c-4.783-2.761-10.899-1.123-13.66 3.66l-2.319 4.016z" fill="#b6c4cf"/></g><g><path d="m377.22 81.664h25.411v35.457h-25.411z" fill="#b6c4cf" transform="matrix(.5 -.866 .866 .5 108.885 387.38)"/></g></g><g><g><path d="m410.039 57.702 2.714-4.7c2.069-3.584 6.023-5.402 9.887-4.927l-9.008-5.201c-4.783-2.761-10.899-1.123-13.66 3.66l-2.319 4.016z" fill="#9facba"/></g><g><path d="m368.809 86.52h24.411v14.302h-24.411z" fill="#9facba" transform="matrix(.5 -.866 .866 .5 109.385 376.803)"/></g></g><g><path d="m305.124 210.816-23.797 41.218c-1.255 2.174-.51 4.954 1.664 6.21l22.833 13.183c2.174 1.255 4.954.51 6.21-1.664l23.797-41.218z" fill="#9facba"/></g><path d="m302.274 252.428c-2.174-1.255-2.919-4.036-1.664-6.21l16.458-28.506-11.944-6.896-23.797 41.218c-1.255 2.174-.51 4.954 1.664 6.21l22.833 13.183c2.174 1.255 4.954.51 6.21-1.664l5.066-8.775z" fill="#8d9ca8"/><g><path d="m289.664 203.045 60.626 35.002c4.348 2.511 9.909 1.021 12.419-3.328l55.004-95.269c2.511-4.348 1.021-9.909-3.328-12.419l-60.626-35.002c-4.348-2.511-9.909-1.021-12.419 3.328l-55.004 95.269c-2.51 4.348-1.02 9.908 3.328 12.419z" fill="#f5f8f9"/></g><path d="m323.547 194.778c-4.349-2.511-5.838-8.071-3.328-12.419l47.499-82.271-13.959-8.059c-4.348-2.51-9.909-1.021-12.419 3.328l-55.004 95.269c-2.51 4.348-1.021 9.909 3.328 12.419l60.626 35.002c4.348 2.511 9.909 1.021 12.419-3.328l7.505-12.999z" fill="#e8edf2"/><g><path d="m507.733 149.678-27.32 47.319c-1.255 2.174-4.035 2.919-6.21 1.664l-48.028-27.729c-2.174-1.255-2.919-4.035-1.664-6.21l18.676-32.348c3.766-6.523 1.531-14.863-4.992-18.629l-76.373-44.094c-2.174-1.255-2.919-4.035-1.664-6.21l13.183-22.833c1.255-2.174 4.035-2.919 6.21-1.664l116.54 67.284c15.213 8.785 20.426 28.237 11.642 43.45z" fill="#978ecb"/></g><g><path d="m444.176 167.597c-2.174-1.255-2.919-4.036-1.664-6.21l18.676-32.348c3.766-6.523 1.531-14.863-4.991-18.629l-76.373-44.094c-2.174-1.255-2.919-4.035-1.664-6.21l9.511-16.474-8.119-4.688c-2.174-1.255-4.955-.51-6.21 1.664l-13.183 22.833c-1.255 2.174-.51 4.954 1.664 6.21l76.373 44.094c6.522 3.766 8.757 12.106 4.991 18.629l-18.676 32.348c-1.255 2.174-.51 4.954 1.664 6.21l48.029 27.729c2.174 1.255 4.954.51 6.209-1.664l3.671-6.359z" fill="#8379c1"/></g></g></g></svg>