<svg id="Capa_1" enable-background="new 0 0 512 512" height="512" viewBox="0 0 512 512" width="512" xmlns="http://www.w3.org/2000/svg"><g><g><path d="m459.145 404c26.425-39.106 41.855-86.251 41.855-137 0-135.31-109.69-245-245-245s-245 109.69-245 245c0 50.749 15.43 97.894 41.855 137z" fill="#c8effe"/></g><g><g><g><path d="m175.232 30.286h37.533v31.714h-37.533z" fill="#a2e62e"/><path d="m175.232 30.286h16.768v31.714h-16.768z" fill="#97d729"/><path d="m226.77 108.829v-37.829c0-5.523-4.477-10-10-10h-45.543c-5.523 0-10 4.477-10 10v37.829z" fill="#f5f8f9"/><path d="m196.457 61h-25.23c-5.523 0-10 4.477-10 10v37.829h25.23v-37.829c0-5.523 4.477-10 10-10z" fill="#e8edf2"/><path d="m294.427 404v-200.958c0-8.809-3.664-17.222-10.115-23.222l-48.924-45.506h-82.78l-48.924 45.506c-6.451 6-10.115 14.412-10.115 23.222v200.958z" fill="#fff"/><path d="m140.646 179.82 48.924-45.506h-36.962l-48.924 45.506c-6.451 6-10.115 14.412-10.115 23.222v200.958h36.962v-200.958c0-8.809 3.665-17.222 10.115-23.222z" fill="#f5f8f9"/><path d="m235.798 135.314h-83.6c-5.523 0-10-4.477-10-10v-7.486c0-5.523 4.477-10 10-10h83.6c5.523 0 10 4.477 10 10v7.486c0 5.523-4.477 10-10 10z" fill="#c5d3dd"/><path d="m176 125.314v-7.486c0-5.523 4.477-10 10-10h-33.802c-5.523 0-10 4.477-10 10v7.486c0 5.523 4.477 10 10 10h33.802c-5.523 0-10-4.477-10-10z" fill="#b6c4cf"/><path d="m244.741 354.143h-101.486c-2.919 0-5.286-2.366-5.286-5.286v-27.486c0-2.919 2.366-5.286 5.286-5.286h101.486c2.919 0 5.286 2.366 5.286 5.286v27.486c0 2.919-2.367 5.286-5.286 5.286z" fill="#a2e62e"/><path d="m180 348.857v-27.486c0-2.919 2.367-5.286 5.286-5.286h-42.03c-2.919 0-5.286 2.367-5.286 5.286v27.486c0 2.919 2.367 5.286 5.286 5.286h42.03c-2.919 0-5.286-2.367-5.286-5.286z" fill="#97d729"/><circle cx="193.998" cy="244.2" fill="#a2e62e" r="46.514"/><path d="m181 244.2c0-19.779 12.351-36.663 29.756-43.39-5.201-2.01-10.848-3.124-16.758-3.124-25.689 0-46.514 20.825-46.514 46.514s20.825 46.514 46.514 46.514c5.91 0 11.557-1.114 16.758-3.124-17.405-6.727-29.756-23.611-29.756-43.39z" fill="#97d729"/><path d="m236.855 31.286h-71.443c-5.523 0-10-4.477-10-10v-11.286c0-5.523 4.477-10 10-10h71.443c5.523 0 10 4.477 10 10v11.286c0 5.523-4.477 10-10 10z" fill="#97d729"/><path d="m189 21.286v-11.286c0-5.523 4.477-10 10-10h-33.587c-5.523 0-10 4.477-10 10v11.286c0 5.523 4.477 10 10 10h33.587c-5.523 0-10-4.477-10-10z" fill="#8bc727"/></g></g><g><g><path d="m315.384 132.677h50.917v23.822h-50.917z" fill="#f5f8f9"/><path d="m315.384 132.677h25.616v23.822h-25.616z" fill="#e8edf2"/><path d="m371.248 101.157h-60.487l-5.075 1v25.458c0 3.348 2.714 6.062 6.062 6.062h58.191c3.348 0 6.062-2.714 6.062-6.062v-25.458z" fill="#01c0fa"/><path d="m322 127.615v-25.458h-16.314v25.458c0 3.348 2.714 6.062 6.062 6.062h16.314c-3.348 0-6.062-2.714-6.062-6.062z" fill="#08a9f1"/><path d="m328.719 101.157v7.877c0 6.695 5.428 12.123 12.123 12.123 6.695 0 12.123-5.428 12.123-12.123v-7.877z" fill="#0290cf"/><path d="m375.999 102.157h-70.314v-16.972c0-10.043 8.142-18.185 18.185-18.185h33.945c10.043 0 18.185 8.142 18.185 18.185v16.972z" fill="#08a9f1"/><path d="m340.185 67h-16.315c-10.043 0-18.185 8.142-18.185 18.185v16.972h16.315v-16.972c0-10.043 8.142-18.185 18.185-18.185z" fill="#0290cf"/><g><path d="m418.43 404v-198.016c0-27.883-22.603-50.486-50.486-50.486h-54.203c-27.883 0-50.486 22.603-50.486 50.486v198.016z" fill="#fff"/></g><path d="m349.486 155.498h-35.745c-27.883 0-50.486 22.603-50.486 50.486v198.016h35.745v-198.016c0-27.882 22.603-50.486 50.486-50.486z" fill="#f5f8f9"/></g><path d="m338 328c0-18.748 15.252-34 34-34 1.832 0 3.629.15 5.383.43v-69.914c0-2.761-2.239-5-5-5h-63.081c-2.761 0-5 2.239-5 5v122.393c0 2.761 2.239 5 5 5h38.551c-6.086-6.147-9.853-14.596-9.853-23.909z" fill="#01c0fa"/><path d="m329.919 346.909v-122.393c0-2.761 2.239-5 5-5h-25.617c-2.761 0-5 2.239-5 5v122.393c0 2.761 2.239 5 5 5h25.617c-2.761 0-5-2.239-5-5z" fill="#08a9f1"/><circle cx="372" cy="328" fill="#fee97d" r="24"/><path d="m364 328c0-10.449 6.68-19.334 16-22.629-2.503-.885-5.194-1.371-8-1.371-13.255 0-24 10.745-24 24s10.745 24 24 24c2.806 0 5.497-.486 8-1.371-9.32-3.295-16-12.18-16-22.629z" fill="#fedf30"/></g></g><path d="m86.636 444c43.996 42.114 103.651 68 169.364 68s125.368-25.886 169.364-68z" fill="#8d9ca8"/><path d="m476 445h-440c-5.523 0-10-4.477-10-10v-22c0-5.523 4.477-10 10-10h440c5.523 0 10 4.477 10 10v22c0 5.523-4.477 10-10 10z" fill="#c5d3dd"/><path d="m118 429c-5.523 0-10-4.477-10-10v-16h-72c-5.523 0-10 4.477-10 10v22c0 5.523 4.477 10 10 10h440c5.523 0 10-4.477 10-10v-6z" fill="#b6c4cf"/></g></svg>