<svg id="Capa_1" enable-background="new 0 0 512 512" height="512" viewBox="0 0 512 512" width="512" xmlns="http://www.w3.org/2000/svg"><g><path d="m256 22c-135.31 0-245 109.69-245 245 0 77.752 36.226 147.035 92.712 191.917l95.187 46.377c18.323 4.375 37.439 6.706 57.101 6.706s38.778-2.331 57.1-6.706l95.187-46.377c56.487-44.882 92.713-114.165 92.713-191.917 0-135.31-109.69-245-245-245z" fill="#fef0ae"/><g><circle cx="256" cy="267" fill="#fee97d" r="185"/></g><g><path d="m431.06 132.358c0-8.276-7.16-14.878-15.618-13.955-7.179.784-12.464 7.133-12.464 14.355v73.19c0 1.657-1.343 3-3 3h-5.487c-1.657 0-3-1.343-3-3v-99.119c0-8.275-7.161-14.878-15.619-13.955-7.179.783-12.465 7.132-12.465 14.354v98.721c0 1.657-1.343 3-3 3h-5.492c-1.657 0-3-1.343-3-3v-99.119c0-7.967-6.633-14.383-14.676-14.028-7.578.335-13.405 6.883-13.405 14.468v98.679c0 1.657-1.343 3-3 3h-5.487c-1.657 0-3-1.343-3-3v-73.59c0-7.965-6.632-14.38-14.676-14.027-7.579.333-13.408 6.881-13.408 14.467v105.36l-20.604-20.604c-6.622-6.621-17.521-6.358-23.805.791-5.734 6.523-5.009 16.521 1.132 22.662l67.601 66.113c2.886 2.822 4.512 6.688 4.512 10.724v187.451c35.313-8.431 67.656-24.502 95.187-46.377v-146.062c0-3.641 1.321-7.154 3.725-9.889 9.155-10.414 19.047-23.359 19.047-35.451v-135.159z" fill="#fed2a4"/><g><path d="m330.04 500.573v-182.73c0-4.036-1.627-7.902-4.512-10.724l-67.601-66.113c-6.141-6.141-6.867-16.138-1.132-22.662 1.132-1.287 2.417-2.343 3.796-3.184-6.569-3.998-15.346-2.947-20.736 3.184-5.734 6.523-5.009 16.521 1.132 22.662l67.601 66.113c2.886 2.822 4.512 6.688 4.512 10.724v187.451c5.731-1.368 11.374-2.958 16.94-4.721z" fill="#ffbd86"/></g><g><path d="m272.146 125.557c-6.284-7.148-17.183-7.412-23.805-.791l-20.604 20.604v-105.36c0-7.586-5.829-14.134-13.408-14.467-8.044-.353-14.676 6.062-14.676 14.027v73.59c0 1.657-1.343 3-3 3h-5.487c-1.657 0-3-1.343-3-3v-98.677c0-7.585-5.827-14.133-13.405-14.468-8.043-.356-14.676 6.061-14.676 14.027v99.12c0 1.657-1.343 3-3 3h-5.492c-1.657 0-3-1.343-3-3v-98.721c0-7.221-5.286-13.571-12.465-14.354-8.458-.922-15.619 5.68-15.619 13.955v99.12c0 1.657-1.343 3-3 3h-5.487c-1.657 0-3-1.343-3-3v-73.19c0-7.221-5.286-13.571-12.464-14.355-8.458-.924-15.618 5.678-15.618 13.954v135.157c0 12.092 9.892 25.038 19.047 35.451 2.404 2.735 3.725 6.248 3.725 9.889v238.848c27.531 21.875 59.874 37.946 95.187 46.377v-280.237c0-4.036 1.627-7.902 4.512-10.724l67.601-66.113c6.143-6.141 6.868-16.138 1.134-22.662z" fill="#fed2a4"/></g><g><path d="m120.653 471.222v-251.153c0-3.641-1.321-7.154-3.725-9.889-9.155-10.414-19.047-23.359-19.047-35.451v-135.158c0-4.552 2.174-8.589 5.531-11.154-1.935-1.506-4.268-2.518-6.853-2.801-8.459-.923-15.619 5.679-15.619 13.955v135.157c0 12.093 9.892 25.037 19.047 35.451 2.404 2.735 3.725 6.248 3.725 9.889v238.848c5.46 4.339 11.117 8.439 16.941 12.306z" fill="#ffbd86"/></g><g><path d="m164.973 380.467c0-5.653 3.848-7.338 7.699-7.338 3.369 0 5.654 3.127 5.654 6.977 0 6.135-5.413 13.112-15.037 13.112h-33.231c-4.678 0-7.716-4.928-5.615-9.108l38.245-76.058c-2.766-.12-9.264-.241-12.03-.241-3.729 0-9.862.481-9.862 2.647 1.082 0 2.044 1.443 2.044 3.488 0 5.653-3.729 7.217-7.579 7.217-3.367 0-5.652-3.127-5.652-6.977 0-6.135 4.449-11.188 14.073-11.188h31.065c4.678 0 7.716 4.928 5.614 9.108l-37.28 74.134c2.766.12 14.554.241 17.442.241 3.729 0 6.617-.481 6.617-2.647-1.085.001-2.167-1.321-2.167-3.367z" fill="#596c76"/></g><g fill="#596c76"><path d="m103.712 406h95.187v21h-95.187z"/><path d="m198.9 260.08h-9.625l-16.337 16.741-16.338-16.741h-10.871l-16.337 16.741-16.337-16.741h-9.343v20.182l3.907-4.003 16.337 16.741h10.872l16.337-16.741 16.337 16.741h10.871l16.337-16.741 4.19 4.293z"/><path d="m198.9 306.454-29.825 51.659c-1.155 2 .289 4.5 2.598 4.5h27.227z"/></g><path d="m134.534 339.66c1.155-2-.289-4.5-2.598-4.5h-28.223v57.884z" fill="#465a61"/></g><g><path d="m365 329.5h-51.9v15h33.794l-20.697 20.696 5.303 12.804h76.788v-15h-58.682l20.697-20.696z" fill="#465a61"/><path d="m313.1 435.5h95.187v15h-95.187z" fill="#465a61"/><path d="m345.697 429.304h10.606l23.803-23.804h28.182v-15h-31.288l-5.303 2.196-20.697 20.698-19.697-19.698-5.303-2.196h-12.9v15h9.794z" fill="#596c76"/></g><path d="m396 355h-11c-1.657 0-3-1.343-3-3v-11c0-1.657 1.343-3 3-3h11c1.657 0 3 1.343 3 3v11c0 1.657-1.343 3-3 3z" fill="#596c76"/><path d="m340 477h-11c-1.657 0-3-1.343-3-3v-11c0-1.657 1.343-3 3-3h11c1.657 0 3 1.343 3 3v11c0 1.657-1.343 3-3 3z" fill="#596c76"/><path d="m185 453h-11c-1.657 0-3-1.343-3-3v-11c0-1.657 1.343-3 3-3h11c1.657 0 3 1.343 3 3v11c0 1.657-1.343 3-3 3z" fill="#465a61"/><path d="m158 453h-11c-1.657 0-3-1.343-3-3v-11c0-1.657 1.343-3 3-3h11c1.657 0 3 1.343 3 3v11c0 1.657-1.343 3-3 3z" fill="#596c76"/><g><g><path d="m306.611 280.147 6.956-29.033c.359-1.497-1.038-2.821-2.514-2.383l-28.621 8.492c-1.476.438-1.924 2.309-.807 3.369l21.665 20.541c1.117 1.059 2.962.511 3.321-.986z" fill="#596c76"/></g></g><g><g fill="#596c76"><path d="m212.096 162 7.184-13.662c1.109-2.108.927-4.615-.473-6.542s-3.729-2.874-6.075-2.47l-15.214 2.608-10.775-11.053c-1.662-1.705-4.104-2.309-6.368-1.571-2.265.736-3.885 2.658-4.227 5.015l-2.22 15.275-13.841 6.831c-2.135 1.053-3.463 3.188-3.463 5.569 0 2.383 1.327 4.518 3.463 5.57l13.841 6.831 2.22 15.274c.342 2.357 1.962 4.28 4.227 5.015.639.208 1.291.309 1.937.309 1.642 0 3.237-.656 4.43-1.88l10.775-11.053 15.212 2.608c2.346.403 4.676-.543 6.077-2.47 1.4-1.927 1.582-4.434.473-6.543zm-7.48 2.891 5.958 11.331-12.62-2.164c-2.019-.345-4.07.324-5.496 1.787l-8.936 9.168-1.841-12.667c-.293-2.026-1.564-3.775-3.398-4.679l-11.48-5.666 11.479-5.666c1.836-.905 3.106-2.654 3.4-4.678l1.841-12.67 8.936 9.168c1.426 1.463 3.48 2.132 5.498 1.786l12.618-2.163-5.958 11.331c-.952 1.81-.952 3.972-.001 5.782z"/><path d="m203.293 153.068-4.668.801c-.566.096-1.145.145-1.719.145-2.732 0-5.394-1.122-7.301-3.078l-3.303-3.389-.68 4.678c-.481 3.326-2.567 6.197-5.577 7.681l-4.243 2.095 4.239 2.092c3.014 1.485 5.1 4.357 5.581 7.678l.68 4.683 3.303-3.389c1.908-1.957 4.569-3.078 7.301-3.078.574 0 1.153.049 1.723.146l4.664.8-2.202-4.188c-1.561-2.971-1.561-6.518 0-9.489z"/></g></g><path d="m170.98 193.153 5.137 7.274c.38.538 1 .854 1.658.846l8.904-.108c1.658-.02 2.619 1.869 1.626 3.197l-5.33 7.133c-.394.527-.503 1.215-.292 1.838l2.854 8.435c.531 1.57-.969 3.068-2.538 2.535l-8.431-2.865c-.623-.212-1.311-.103-1.839.29l-7.14 5.321c-1.329.991-3.217.027-3.195-1.631l.12-8.904c.009-.658-.307-1.279-.844-1.659l-7.267-5.146c-1.353-.958-1.02-3.051.564-3.542l8.505-2.637c.629-.195 1.121-.687 1.317-1.315l2.649-8.501c.492-1.585 2.586-1.915 3.542-.561z" fill="#596c76"/><path d="m157.48 225.879 3.752 5.313c.277.393.73.624 1.211.618l6.504-.079c1.211-.015 1.913 1.365 1.188 2.335l-3.894 5.21c-.288.385-.368.887-.214 1.343l2.085 6.161c.388 1.147-.707 2.241-1.854 1.851l-6.158-2.093c-.455-.155-.957-.076-1.343.212l-5.215 3.886c-.971.724-2.35.02-2.334-1.191l.088-6.504c.006-.481-.224-.934-.616-1.212l-5.308-3.759c-.988-.7-.745-2.229.412-2.588l6.212-1.926c.459-.142.819-.502.962-.961l1.935-6.21c.359-1.154 1.889-1.395 2.587-.406z" fill="#596c76"/><g><path d="m142.655 210.65c0-30.542-30.817-31.775-30.817-53.279 0-7.533 5.205-11.916 12.737-11.916 7.26 0 9.999 4.383 9.999 9.177 0 4.52-2.465 9.587-6.163 11.779 1.78 2.055 3.972 2.877 6.163 2.877 7.123 0 11.368-6.026 11.368-13.834 0-15.34-15.751-18.248-23.01-18.248-16.298 0-32.597 12.906-32.597 27.287 0 20.407 29.584 26.023 29.584 51.772 0 10.135-4.245 19.585-15.066 19.585-.378 0-.759-.016-1.14-.044v10.61c.588.033 1.165.055 1.718.055 22.051.001 37.224-16.509 37.224-35.821z" fill="#465a61"/></g><g><path d="m431.06 258.034c-1.979 1.149-4.36 1.817-7.208 1.817-6.437 0-13.558-3.972-13.558-13.148 0-9.45 4.93-14.107 16.025-15.066-1.096-4.931-4.931-6.985-11.094-6.985-10.546 0-20.134 6.848-20.134 19.723 0 2.982.426 5.654 1.177 8.05-7.951-2.87-16.989-2.09-22.272 3.194-10.877 10.877 1.898 29.638-11.826 43.363-5.402 5.402-12.702 8.176-18.469 2.409-3.431-3.431-5.11-9.344-.219-14.235 5.037-5.037 10.147-4.891 16.571.511 2.044-3.212 1.095-6.352-2.19-9.636-5.621-5.621-14.382-7.081-21.243-.219-10.512 10.512-4.112 23.708 1.728 29.548 11.753 11.753 28.641 11.04 38.934.747 16.279-16.279.511-33.362 11.972-44.823 4.015-4.015 9.126-3.577 13.14.438 3.87 3.869 2.993 7.665.438 10.22-2.409 2.409-6.424 3.796-9.563 2.993-.146 2.044.584 3.65 1.752 4.818 3.796 3.797 9.271 2.847 13.433-1.314 4.028-4.028 4.407-8.485 3.295-12.434 4.411 1.733 8.973 2.467 12.683 2.467 2.24 0 4.405-.179 6.495-.505.086-.821.135-1.638.135-2.452v-9.481z" fill="#596c76"/></g></g></svg>