<svg id="Capa_1" enable-background="new 0 0 512 512" height="512" viewBox="0 0 512 512" width="512" xmlns="http://www.w3.org/2000/svg"><g><path d="m254.429 22c-135.31 0-245 109.69-245 245 0 63.076 23.844 120.579 63 164.004l50.423 42.696c8.514 5.431 17.39 10.345 26.577 14.709l1-.633v-82.465c9.191 5.036 19.536 7.689 30.031 7.689h147.938c10.494 0 20.839-2.653 30.031-7.689v82.465l1 .633c3.23-1.535 6.419-3.142 9.57-4.812l50.424-35.486c49.156-44.808 80.006-109.355 80.006-181.11 0-135.311-109.69-245.001-245-245.001z" fill="#c8effe"/><g><g><circle cx="254.429" cy="267" fill="#99e6fc" r="195"/></g></g><g><path d="m328.398 412h-147.938c-11.309 0-21.907-3.072-31.031-8.404v84.813c31.826 15.12 67.422 23.591 105 23.591s73.174-8.471 105-23.591v-84.813c-9.124 5.332-19.722 8.404-31.031 8.404z" fill="#fed2a4"/></g><g><path d="m149.429 461.409v27c10.911 5.184 22.275 9.565 34 13.112v-40.112z" fill="#ffbd86"/></g><g><path d="m266.837 461.409-12.408 21.492-12.408-21.492h-13.856l21.068 36.492h10.392l21.069-36.492z" fill="#596c76"/></g><g><g><path d="m225.199 468.13c-3.85 0-7.699 1.685-7.699 7.338 0 2.045 1.082 3.368 2.166 3.368 0 2.166-2.888 2.647-6.617 2.647-2.888 0-14.675-.12-17.442-.241l9.973-19.832h-19.71l-9.837 19.563c-1.672 3.325.745 7.246 4.467 7.246h35.314c9.624 0 15.037-6.977 15.037-13.112.002-3.85-2.283-6.977-5.652-6.977z" fill="#596c76"/></g><g><path d="m322.987 461.409h-19.71l9.973 19.832c-2.766.12-14.554.241-17.441.241-3.729 0-6.617-.481-6.617-2.647 1.084 0 2.166-1.323 2.166-3.368 0-5.653-3.848-7.338-7.699-7.338-3.369 0-5.654 3.127-5.654 6.977 0 6.135 5.414 13.112 15.037 13.112h35.314c3.722 0 6.139-3.921 4.467-7.246z" fill="#596c76"/></g></g><g><path d="m328.398 412h-147.938c-11.309 0-21.907-3.072-31.031-8.404v58.813h210v-58.813c-9.124 5.332-19.722 8.404-31.031 8.404z" fill="#978ecb"/></g><g><path d="m180.46 412c-11.309 0-21.907-3.072-31.031-8.404v58.813h34v-50.409z" fill="#8379c1"/></g><g><path d="m289.096 61.669v183.331h53.005v-182.664c0-25.038-20.298-45.336-45.336-45.336-7.955 0-15.428 2.055-21.927 5.654 8.889 10.556 14.258 24.168 14.258 39.015z" fill="#fe76a8"/><path d="m219.429 245c6.065 0 11-4.935 11-11v-12.237c7.676 2.953 15.743 4.449 24 4.449s16.324-1.496 24-4.449v12.237c0 6.065 4.935 11 11 11h.667v-183.331c0-34.059-27.61-61.669-61.669-61.669-34.059 0-61.669 27.61-61.669 61.669v183.331z" fill="#fe5694"/><path d="m193.757 245v-183.331c0-29.414 20.599-54.001 48.153-60.165-4.34-.974-8.848-1.504-13.483-1.504-34.059 0-61.669 27.61-61.669 61.669v183.331z" fill="#fe0364"/><path d="m249.321 370.622c1.101 1.785 3.011 2.851 5.107 2.851 2.098 0 4.008-1.066 5.108-2.851l68.122-110.491 8.77-16.131h-47c-5.523 0-10-4.477-10-10v-13.71c-7.718 3.164-16.156 4.922-25 4.922s-17.282-1.758-25-4.922v13.71c0 5.523-4.477 10-10 10h-47l8.763 16.119z" fill="#fed2a4"/><g><g><path d="m196.429 244h-24l77.744 126.097c1.953 3.168 6.559 3.168 8.512 0l7.744-12.56z" fill="#ffbd86"/></g></g><g><g><path d="m222.622 293.213c0-18.317-18.482-19.056-18.482-31.952 0-4.518 3.121-7.146 7.639-7.146 4.354 0 5.996 2.628 5.996 5.503 0 2.711-1.478 5.75-3.696 7.064 1.068 1.232 2.382 1.725 3.696 1.725 4.272 0 6.818-3.614 6.818-8.296 0-9.2-9.446-10.943-13.799-10.943-9.774 0-19.55 7.74-19.55 16.365 0 12.239 17.742 15.606 17.742 31.049 0 1.904-.25 3.767-.792 5.428l5.353 8.682c5.668-3.948 9.075-10.397 9.075-17.479z" fill="#596c76"/></g></g><g><path d="m283.184 269.204-11.224-3.991c-1.046-.372-1.541-1.567-1.064-2.569l5.114-10.759c.757-1.592-.904-3.253-2.496-2.496l-10.759 5.114c-1.002.477-2.197-.018-2.569-1.064l-3.991-11.224c-.59-1.661-2.939-1.661-3.53 0l-3.991 11.224c-.372 1.046-1.567 1.541-2.569 1.064l-10.759-5.114c-1.592-.757-3.253.904-2.496 2.496l5.114 10.759c.477 1.003-.018 2.197-1.064 2.569l-11.224 3.991c-1.661.591-1.661 2.939 0 3.53l11.224 3.991c1.046.372 1.541 1.567 1.064 2.569l-5.114 10.759c-.757 1.592.904 3.253 2.496 2.496l10.759-5.114c1.002-.477 2.197.018 2.569 1.064l3.991 11.224c.59 1.661 2.939 1.661 3.53 0l3.991-11.224c.372-1.046 1.567-1.541 2.569-1.064l10.759 5.114c1.592.757 3.253-.904 2.496-2.496l-5.114-10.759c-.477-1.003.018-2.197 1.064-2.569l11.224-3.991c1.66-.591 1.66-2.939 0-3.53zm-19.789 5.477c-.598 1.443-.841 2.993-.731 4.521-.237-.017-.474-.026-.711-.026-2.941 0-5.669 1.303-7.524 3.441-1.855-2.139-4.583-3.441-7.524-3.441-.237 0-.474.008-.711.026.109-1.529-.133-3.079-.731-4.521-.597-1.442-1.522-2.709-2.68-3.712 1.158-1.004 2.083-2.272 2.681-3.715.597-1.442.839-2.991.73-4.518.237.017.474.026.711.026 2.94 0 5.669-1.302 7.524-3.44 1.855 2.138 4.583 3.44 7.523 3.44.238 0 .474-.008.712-.026-.109 1.527.133 3.076.73 4.518.597 1.443 1.522 2.711 2.681 3.715-1.158 1.003-2.083 2.27-2.68 3.712z" fill="#596c76"/></g><g><path d="m283.759 306.5h-8.66l-8.17 14.15-8.17-14.15h-8.66l-8.17 14.15-8.17-14.15h-8.66l-6.836 11.84 5.963 9.672 5.203-9.012 8.17 14.15h8.66l8.17-14.15 8.17 14.15h8.66l8.17-14.15 5.203 9.012 5.963-9.672z" fill="#596c76"/></g><g><path d="m252.683 336.123-6.094 10.901c-.339.606-.339 1.345 0 1.952l6.094 10.901c.763 1.365 2.728 1.365 3.492 0l6.094-10.901c.339-.606.339-1.345 0-1.952l-6.094-10.901c-.763-1.366-2.728-1.366-3.492 0z" fill="#596c76"/></g><g><g><g><path d="m299.872 296.581c0-15.443 17.742-18.81 17.742-31.049 0-8.625-9.775-16.365-19.55-16.365-4.353 0-13.8 1.744-13.8 10.943 0 4.682 2.546 8.296 6.818 8.296 1.314 0 2.628-.493 3.696-1.725-2.218-1.314-3.696-4.353-3.696-7.064 0-2.875 1.643-5.503 5.996-5.503 4.518 0 7.639 2.628 7.639 7.146 0 12.896-18.482 13.635-18.482 31.952 0 7.082 3.407 13.532 9.075 17.478l5.353-8.682c-.541-1.661-.791-3.524-.791-5.427z" fill="#596c76"/></g></g></g></g><path d="m367.965 370.902v-20.47l-.428-.298c-2.55-1.78-4.072-4.692-4.072-7.79v-9.961h-1.356c-2.6 0-4.715-2.115-4.715-4.714v-61.039c0-2.599 2.115-4.714 4.715-4.714h2.714v-10.935h-16.536c-3.781 0-6.857-3.076-6.857-6.857v-.124h-5l-77.744 126.097c-1.953 3.168-6.559 3.168-8.512 0l-77.745-126.097h-12.83c.269 2.247-.489 4.629-2.243 6.383l-24.013 24.013-.075.222c-1.548 4.605-4.238 8.87-7.779 12.333l-.301.294v32.354c0 1.677-1.072 3.185-2.669 3.752l-.666.236v49.013c8.994 23.615 31.835 40.4 58.608 40.4h147.937c15.967 0 30.531-5.978 41.602-15.804v-24.261z" fill="#8379c1"/><g fill="#6e61b6"><path d="m134.897 244v8.045l8.046-8.045z"/><path d="m160.078 350.293v-106.293h-.479c.269 2.247-.489 4.629-2.243 6.383l-24.013 24.013-.075.222c-1.548 4.605-4.238 8.87-7.779 12.333l-.301.294v32.354c0 1.677-1.072 3.185-2.669 3.752l-.666.236v49.013c8.994 23.615 31.835 40.4 58.608 40.4h42.324c-34.632 0-62.707-28.075-62.707-62.707z"/></g><g><g><path d="m188.293 159.075v-34.075h-11.774c-12.371 0-22.399 10.029-22.399 22.399v7.331c0 12.371 10.028 22.399 22.399 22.399h14.3c-1.633-5.743-2.526-11.794-2.526-18.054z" fill="#f6a96c"/></g><g><path d="m332.339 125h-11.774v34.075c0 6.26-.893 12.311-2.525 18.054h14.3c12.371 0 22.399-10.029 22.399-22.399v-7.331c-.001-12.37-10.029-22.399-22.4-22.399z" fill="#ffbd86"/></g></g><g><g><path d="m254.429 226.211c-37.078 0-67.136-30.058-67.136-67.136v-43.075c0-24.748 20.062-44.81 44.81-44.81h44.652c24.748 0 44.81 20.062 44.81 44.81v43.075c0 37.078-30.058 67.136-67.136 67.136z" fill="#fed2a4"/></g><path d="m212.308 159.075v-43.075c0-24.748 20.062-44.81 44.81-44.81h-25.015c-24.748 0-44.81 20.062-44.81 44.81v43.075c0 37.078 30.058 67.136 67.136 67.136 4.265 0 8.428-.425 12.472-1.188-31.081-5.876-54.593-33.158-54.593-65.948z" fill="#ffbd86"/><g><g><path d="m217.584 151.185c-4.143 0-7.5-3.358-7.5-7.5v-11.058c0-4.142 3.357-7.5 7.5-7.5s7.5 3.358 7.5 7.5v11.058c0 4.142-3.357 7.5-7.5 7.5z" fill="#d78878"/></g><g><path d="m291.273 151.185c-4.143 0-7.5-3.358-7.5-7.5v-11.058c0-4.142 3.357-7.5 7.5-7.5s7.5 3.358 7.5 7.5v11.058c0 4.142-3.357 7.5-7.5 7.5z" fill="#d78878"/></g></g><g><path d="m254.422 172.501c-1.181 0-2.38-.28-3.497-.87l-12.815-6.771c-1.924-1.017-3.312-2.818-3.803-4.938s-.037-4.348 1.243-6.107l12.815-17.604c2.438-3.35 7.131-4.087 10.478-1.649 3.349 2.438 4.087 7.129 1.649 10.478l-7.72 10.604 5.16 2.726c3.662 1.935 5.062 6.473 3.127 10.135-1.344 2.544-3.945 3.996-6.637 3.996z" fill="#d78878"/></g><g><path d="m254.429 201.043c-10.801 0-21.603-4.111-29.825-12.334-2.929-2.929-2.929-7.678 0-10.606 2.93-2.929 7.678-2.929 10.607 0 10.596 10.597 27.84 10.597 38.436 0 2.93-2.929 7.678-2.929 10.607 0s2.929 7.678 0 10.606c-8.222 8.223-19.024 12.334-29.825 12.334z" fill="#d78878"/></g></g><g><path d="m121.188 323.599h-47.251c-.534 0-1.042-.109-1.508-.3v107.705c14.779 16.39 31.737 30.776 50.423 42.696v-150.475c-.508.235-1.068.374-1.664.374z" fill="#fed2a4"/><g><path d="m104.999 461.152 17.853-10.308v-16.166l-29.421 16.986c3.757 3.278 7.616 6.441 11.568 9.488z" fill="#596c76"/></g><path d="m73.937 323.599c-.534 0-1.042-.109-1.508-.3v107.705c5.384 5.971 11.06 11.672 17 17.088v-124.493z" fill="#ffbd86"/><g><path d="m126.188 319.599v-31.933c3.596-3.518 6.389-7.853 8.028-12.729l23.847-23.847c3.146-3.146 3.517-8.266.58-11.607-3.219-3.661-8.801-3.797-12.193-.405l-10.553 10.553v-53.889c0-3.938-3.035-7.371-6.971-7.489-4.073-.122-7.413 3.143-7.413 7.188v39.228h-5.883v-52.002c0-3.938-3.034-7.372-6.97-7.49-4.073-.123-7.413 3.143-7.413 7.189v52.304h-5.887v-52.064c0-3.656-2.627-6.914-6.255-7.373-4.388-.555-8.129 2.852-8.129 7.133v52.304h-5.883v-38.987c0-3.657-2.627-6.915-6.255-7.374-4.388-.555-8.129 2.851-8.129 7.132v69.226c0 8.259 3.118 15.782 8.228 21.483v33.448c0 2.761 2.239 5 5 5h47.251c2.761.001 5-2.237 5-4.999z" fill="#8d9ca8"/></g><g><g><path d="m83.657 312c-2.761 0-5-2.239-5-5v-23.689c0-1.118-.364-2.212-1.067-3.081-4.473-5.53-7.161-12.563-7.161-20.231v-71.282c-.504-.194-1.034-.337-1.591-.408-4.388-.555-8.129 2.851-8.129 7.132v69.226c0 8.259 3.118 15.782 8.228 21.483v33.448c0 2.761 2.239 5 5 5h47.251c2.761 0 5-2.239 5-5v-7.598z" fill="#7a8c98"/></g></g></g><g><g><path d="m305.042 117c-.504 0-1.016-.051-1.529-.157-8.866-1.836-17.935-3.188-26.953-4.016-4.125-.379-7.162-4.03-6.783-8.155.379-4.124 4.034-7.162 8.154-6.783 9.578.88 19.208 2.314 28.624 4.265 4.057.84 6.664 4.809 5.823 8.865-.733 3.543-3.854 5.981-7.336 5.981z" fill="#d78878"/></g><g><path d="m203.815 117c-3.481 0-6.603-2.438-7.336-5.98-.841-4.056 1.767-8.025 5.823-8.865 9.415-1.95 19.046-3.385 28.625-4.265 4.104-.372 7.775 2.658 8.154 6.783s-2.658 7.776-6.783 8.155c-9.02.828-18.088 2.179-26.954 4.016-.513.104-1.025.156-1.529.156z" fill="#d78878"/></g></g><g><path d="m122.853 397.289v-37.099c-4.868-4.315-9.768-7.886-9.768-14.679 0-4.728 3.266-7.478 7.994-7.478.65 0 1.236.062 1.774.167v-5.141c-1.044-.144-2.007-.202-2.806-.202-10.228 0-20.457 8.1-20.457 17.125 0 12.807 18.566 16.331 18.566 32.491 0 6.36-2.664 12.291-9.455 12.291-4.04 0-8.509-2.493-8.509-8.252 0-5.931 3.094-8.853 10.057-9.455-.688-3.094-3.095-4.384-6.963-4.384-6.618 0-12.635 4.298-12.635 12.377 0 1.871.267 3.548.739 5.052-4.99-1.801-10.662-1.312-13.978 2.004-6.004 6.004-.53 15.834-4.983 23.976v13.203c2.603-.789 5.026-2.221 7.044-4.239 10.216-10.216.321-20.937 7.513-28.13 2.52-2.52 5.727-2.245 8.246.275 2.428 2.428 1.878 4.811.275 6.414-1.512 1.512-4.031 2.382-6.001 1.878-.092 1.283.366 2.291 1.099 3.024 2.382 2.383 5.818 1.787 8.43-.825 2.528-2.528 2.766-5.325 2.068-7.803 2.768 1.088 5.631 1.549 7.96 1.549 5.341 0 10.034-1.547 13.79-4.139z" fill="#596c76"/></g><g><circle cx="101.929" cy="425.5" fill="#596c76" r="10.5"/></g><g><g><path d="m172.9 163.546-8.187 14.18c-.77 1.333.192 3 1.732 3h16.374c1.54 0 2.502-1.667 1.732-3l-8.187-14.18c-.77-1.333-2.695-1.333-3.464 0z" fill="#e8edf2"/></g><g><path d="m332.495 163.546-8.187 14.18c-.77 1.333.192 3 1.732 3h16.374c1.54 0 2.502-1.667 1.732-3l-8.187-14.18c-.77-1.333-2.695-1.333-3.464 0z" fill="#e8edf2"/></g></g><g><circle cx="156.429" cy="160" fill="#e8edf2" r="7"/></g><g><circle cx="156.429" cy="140" fill="#e8edf2" r="7"/></g><g><path d="m414.772 329.364h-26.563c-.684 1.762-2.385 3.019-4.386 3.019h-14.823v151.214c18.306-9.703 35.241-21.647 50.424-35.486v-119.544c-1.461.507-3.022.797-4.652.797z" fill="#fed2a4"/><path d="m383.823 332.382h-14.823v151.214c5.807-3.078 11.482-6.373 17-9.893v-141.878c-.655.344-1.388.557-2.177.557z" fill="#ffbd86"/><g><path d="m368.999 390.651 50.424-29.112v-16.166l-50.424 29.112z" fill="#596c76"/></g><g><g><path d="m372.965 351.844c-2.274 0-4.363-.805-6-2.142v21.201c0 .265.105.52.293.707l10 10c.63.63 1.707.184 1.707-.707v-31.201c-1.637 1.337-3.725 2.142-6 2.142z" fill="#b6c4cf"/><g><g><path d="m376.053 207c.323 0 .631.066.912.182v-62.401c-.282.116-.589.182-.912.182h-6.175c-.323 0-.631-.066-.913-.182v62.401c.282-.116.59-.182.913-.182z" fill="#b6c4cf"/></g><g fill="#f5f8f9"><path d="m402.572 134.231h17.143v9.751h-17.143z"/><path d="m402.572 214.553h17.143v7.573h-17.143z"/></g><g fill="#e8edf2"><path d="m402.572 134.231h8.714v9.751h-8.714z"/><path d="m402.572 214.553h8.714v7.573h-8.714z"/></g><g fill="#f5f8f9"><path d="m449.572 134.231h17.143v9.751h-17.143z"/><path d="m449.572 214.553h17.143v7.573h-17.143z"/></g><g fill="#e8edf2"><path d="m449.572 134.231h8.715v9.751h-8.715z"/><path d="m449.572 214.553h8.715v7.573h-8.715z"/></g><path d="m425.429 150.268v-4.429c0-1.578-1.279-2.857-2.857-2.857h-22.857c-1.578 0-2.857 1.279-2.857 2.857v4.429z" fill="#d9e7ec"/><path d="m408.286 142.982h-8.571c-1.578 0-2.857 1.279-2.857 2.857v4.429h8.571v-4.429c0-1.577 1.279-2.857 2.857-2.857z" fill="#c5d3dd"/><path d="m472.428 150.268v-4.429c0-1.578-1.279-2.857-2.857-2.857h-22.857c-1.578 0-2.857 1.279-2.857 2.857v4.429z" fill="#d9e7ec"/><path d="m454.715 142.982h-8.001c-1.578 0-2.857 1.279-2.857 2.857v4.429h8.001v-4.429c0-1.577 1.279-2.857 2.857-2.857z" fill="#c5d3dd"/><g><path d="m426.572 215.553h-30.857c-3.156 0-5.714-2.558-5.714-5.714v-54.856c0-3.156 2.558-5.714 5.714-5.714h30.857c3.156 0 5.714 2.558 5.714 5.714v54.856c0 3.155-2.558 5.714-5.714 5.714z" fill="#b6c4cf"/></g><path d="m406.429 209.839v-54.856c0-3.156 2.558-5.714 5.714-5.714h-16.428c-3.156 0-5.714 2.558-5.714 5.714v54.856c0 3.156 2.559 5.714 5.714 5.714h16.428c-3.155 0-5.714-2.558-5.714-5.714z" fill="#9facba"/><g><path d="m473.571 215.553h-30.857c-3.156 0-5.714-2.558-5.714-5.714v-54.856c0-3.156 2.558-5.714 5.714-5.714h30.857c3.156 0 5.714 2.558 5.714 5.714v54.856c.001 3.155-2.558 5.714-5.714 5.714z" fill="#b6c4cf"/></g><path d="m453.429 209.839v-54.856c0-3.156 2.558-5.714 5.714-5.714h-16.428c-3.156 0-5.714 2.558-5.714 5.714v54.856c0 3.156 2.559 5.714 5.714 5.714h16.428c-3.156 0-5.714-2.558-5.714-5.714z" fill="#9facba"/><g fill="#fedf30"><path d="m369.001 162.554c-2.209 0-4 1.791-4 4s1.791 4 4 4h124.569v-8z"/><path d="m369.001 182.268c-2.209 0-4 1.791-4 4s1.791 4 4 4h124.569v-8z"/></g><g fill="#7a8c98"><path d="m376.053 206h-6.175c-1.885 0-3.413 1.528-3.413 3.413v12.713h13v-12.713c.001-1.885-1.527-3.413-3.412-3.413z"/><path d="m369.878 145.963h6.175c1.885 0 3.412-1.528 3.412-3.413v-8.32h-13v8.32c.001 1.885 1.528 3.413 3.413 3.413z"/><path d="m362.466 332.382v9.961c0 5.799 4.701 10.5 10.5 10.5s10.5-4.701 10.5-10.5v-9.961z"/></g><path d="m371.429 342.344v-9.961h-8.964v9.961c0 5.799 4.701 10.5 10.5 10.5 1.606 0 3.121-.371 4.482-1.015-3.554-1.683-6.018-5.292-6.018-9.485z" fill="#596c76"/><g fill="#596c76"><path d="m363.823 230.126h18.286v12.855h-18.286z"/><path d="m371.782 254.227c0-1.118.143-2.202.388-3.246h-8.347v10.935h10.265c-1.492-2.292-2.306-4.951-2.306-7.689z"/></g><path d="m386.009 329.364c-7.845 0-14.228-6.382-14.228-14.228 0-3.485 1.303-6.853 3.669-9.482l.602-.669-.602-.669c-2.366-2.63-3.669-5.998-3.669-9.482 0-3.485 1.303-6.853 3.669-9.483l.602-.669-.602-.669c-2.366-2.629-3.669-5.997-3.669-9.482s1.303-6.853 3.669-9.482l.602-.669-.602-.669c-.772-.858-1.418-1.801-1.955-2.794h-11.387c-3.156 0-5.714 2.558-5.714 5.714v61.038c0 3.156 2.558 5.714 5.714 5.714h21.714c2.565 0 4.736-1.691 5.458-4.018h-3.271z" fill="#b6c4cf"/><path d="m489 125.231h-124.999c-1.657 0-3 1.343-3 3v4c0 1.657 1.343 3 3 3h124.999c1.972 0 3.571 1.599 3.571 3.571v78.752c0 1.972-1.599 3.571-3.571 3.571h-140.714c-4.339 0-7.857 3.518-7.857 7.857v15.141c0 4.34 3.518 7.857 7.857 7.857h23.69c.68-4.259 3.249-7.887 6.827-10h-28.375v-10.855h138.572c7.495 0 13.571-6.076 13.571-13.571v-78.752c0-7.495-6.076-13.571-13.571-13.571z" fill="#b6c4cf"/></g></g><g><g><g><g><path d="m429.999 315.136v-60.909c0-8.375-6.852-15.227-15.227-15.227h-28.762c-8.375 0-15.227 6.852-15.227 15.227 0 3.896 1.496 7.451 3.925 10.152-2.429 2.7-3.925 6.255-3.925 10.151s1.496 7.451 3.925 10.152c-2.429 2.7-3.925 6.255-3.925 10.152 0 3.896 1.496 7.451 3.925 10.151-2.429 2.701-3.925 6.255-3.925 10.152 0 8.375 6.852 15.227 15.227 15.227h28.763c8.374 0 15.226-6.853 15.226-15.228z" fill="#8d9ca8"/></g></g></g></g><g><path d="m390.782 315.136v-60.909c0-8.375 6.852-15.227 15.227-15.227h-20c-8.375 0-15.227 6.852-15.227 15.227 0 3.896 1.496 7.451 3.925 10.151-2.429 2.7-3.925 6.255-3.925 10.152 0 3.896 1.496 7.451 3.925 10.151-2.429 2.7-3.925 6.255-3.925 10.152 0 3.896 1.496 7.451 3.925 10.151-2.429 2.701-3.925 6.255-3.925 10.152 0 8.375 6.852 15.227 15.227 15.227h20c-8.374.001-15.227-6.852-15.227-15.227z" fill="#7a8c98"/></g></g><g><g><path d="m402.434 450.913 10.377-17.973c.535-.927-.134-2.085-1.204-2.085h-20.753c-1.07 0-1.739 1.159-1.204 2.085l10.377 17.973c.534.927 1.872.927 2.407 0z" fill="#596c76"/></g><g><path d="m384.791 468.85 8.817-15.271c.455-.788-.114-1.772-1.023-1.772h-17.634c-.909 0-1.478.984-1.023 1.772l8.817 15.271c.455.787 1.592.787 2.046 0z" fill="#596c76"/></g><g><g><path d="m388.022 424.603 8.817-15.271c.455-.788-.114-1.772-1.023-1.772h-17.634c-.909 0-1.478.984-1.023 1.772l8.817 15.271c.455.788 1.592.788 2.046 0z" fill="#596c76"/></g></g></g><g><path d="m419.423 367.729-7.032 14.249c-.404.818-1.184 1.385-2.087 1.516l-15.927 2.314c-2.274.33-3.182 3.125-1.536 4.728l11.525 11.234c.654.637.952 1.554.797 2.454l-2.721 15.863c-.388 2.265 1.989 3.991 4.022 2.922l12.959-6.813z" fill="#596c76"/></g></g><g><path d="m85.589 341.024-6.094 10.901c-.339.606-.339 1.345 0 1.952l6.094 10.901c.763 1.365 2.728 1.365 3.491 0l6.094-10.901c.339-.606.339-1.345 0-1.952l-6.094-10.901c-.762-1.365-2.727-1.365-3.491 0z" fill="#596c76"/></g></g></svg>