<svg id="Capa_1" enable-background="new 0 0 512 512" height="512" viewBox="0 0 512 512" width="512" xmlns="http://www.w3.org/2000/svg"><g><g><g><circle cx="256" cy="267" fill="#ffe5c2" r="245"/></g></g><g><g><circle cx="256" cy="267" fill="#fed2a4" r="208"/></g></g><g><path d="m305 243.5h-35v15h35c12.958 0 23.5 10.542 23.5 23.5s-10.542 23.5-23.5 23.5h-27v15h27c21.229 0 38.5-17.271 38.5-38.5s-17.271-38.5-38.5-38.5z" fill="#7a8c98"/></g><path d="m218.5 220v-26h-15v26c0 21.229 17.271 38.5 38.5 38.5v-15c-12.958 0-23.5-10.542-23.5-23.5z" fill="#7a8c98"/><g fill="#465a61"><path d="m271 91.17v-17.17c0-2.761-2.239-5-5-5h-20c-2.761 0-5 2.239-5 5v17.17c4.502 2.317 9.598 3.633 15 3.633s10.498-1.316 15-3.633z"/><g><path d="m241 194h30v112.5h-30z"/><path d="m241 319.5v92.971c4.961.497 9.966.758 15 .758s10.039-.26 15-.758v-92.971z"/></g><path d="m271 138.077v-17.147c-4.801 1.22-9.825 1.874-15 1.874s-10.199-.653-15-1.874v17.147z"/></g><g><path d="m319.215 182.128h20.785c2.761 0 5-2.239 5-5v-22.179c0-2.761-2.239-5-5-5h-20.785z" fill="#596c76"/><path d="m172 182.128h20.785v-32.179h-20.785c-2.761 0-5 2.239-5 5v22.179c0 2.762 2.239 5 5 5z" fill="#465a61"/></g><g><path d="m256 123.804c-34.133 0-61.902-27.77-61.902-61.902s27.769-61.902 61.902-61.902 61.902 27.769 61.902 61.901-27.769 61.903-61.902 61.903zm0-93.804c-17.591 0-31.902 14.311-31.902 31.901s14.311 31.903 31.902 31.903 31.902-14.312 31.902-31.902-14.311-31.902-31.902-31.902z" fill="#596c76"/></g><g><path d="m211 61.901c0-31.265 23.304-57.174 53.451-61.31-2.765-.379-5.583-.591-8.451-.591-34.133 0-61.902 27.769-61.902 61.901s27.769 61.902 61.902 61.902c2.868 0 5.686-.212 8.451-.592-30.147-4.135-53.451-30.044-53.451-61.31z" fill="#465a61"/></g><path d="m449.198 273.101-27.799-59.87c-1.075-2.315-4.367-2.315-5.442 0l-27.799 59.87c-.923 1.989.529 4.264 2.721 4.264h13.365c-7.103 75.546-70.872 134.864-148.244 134.864s-141.141-59.318-148.242-134.864h13.365c2.192 0 3.644-2.275 2.721-4.264l-27.799-59.87c-1.075-2.315-4.367-2.315-5.442 0l-27.799 59.87c-.923 1.989.529 4.264 2.721 4.264h12.115c6.064 77.709 61.996 141.629 135.734 159.721 6.481 1.59 12.008 5.808 15.389 11.561l22.926 39.017c1.933 3.289 6.689 3.289 8.622 0l22.926-39.017c3.381-5.753 8.908-9.971 15.389-11.561 73.739-18.091 129.671-82.012 135.735-159.721h12.116c2.192 0 3.644-2.275 2.721-4.264z" fill="#596c76"/><g><path d="m264.209 479.578-22.926-39.017c-3.436-5.848-9.111-10.011-15.696-11.637-72.166-17.82-127.21-71.818-135.02-147.089-.264-2.542-2.409-4.471-4.965-4.471h-7.558c-2.192 0-3.644-2.275-2.721-4.264l24.26-52.249-3.539-7.622c-1.075-2.315-4.367-2.315-5.442 0l-27.799 59.87c-.923 1.989.529 4.264 2.721 4.264h12.116c6.064 77.709 61.995 141.629 135.734 159.721 6.481 1.59 12.008 5.808 15.389 11.562l22.926 39.017c1.933 3.289 6.689 3.289 8.622 0l4.325-7.361c-.154-.259-.297-.503-.427-.724z" fill="#465a61"/></g><g><path d="m310.215 195h-108.43c-5.523 0-10-4.477-10-10v-37.923c0-5.523 4.477-10 10-10h108.429c5.523 0 10 4.477 10 10v37.923c.001 5.523-4.476 10-9.999 10z" fill="#7a8c98"/></g><path d="m225.571 185v-37.923c0-5.523 4.477-10 10-10h-33.785c-5.523 0-10 4.477-10 10v37.923c0 5.523 4.477 10 10 10h33.785c-5.523 0-10-4.477-10-10z" fill="#596c76"/><path d="m222.746 305.5c-27.154 0-49.246 22.092-49.246 49.246v99.254c0 4.143 3.358 7.5 7.5 7.5s7.5-3.357 7.5-7.5v-99.254c0-18.884 15.363-34.246 34.246-34.246h56.254v-15z" fill="#7a8c98"/></g></svg>