<svg id="Capa_1" enable-background="new 0 0 512 512" height="512" viewBox="0 0 512 512" width="512" xmlns="http://www.w3.org/2000/svg"><g><path d="m255.714 22c-135.31 0-245 109.69-245 245 0 63.076 23.844 120.579 63 164.004l1 .056v-106.487c.168.018.338.026.508.026h47.251c.593 0 1.184-.12 1.807-.367 1.907-.742 3.193-2.604 3.193-4.633v-31.933c3.654-3.574 6.43-7.976 8.028-12.729l23.847-23.847c3.218-3.218 3.473-8.317.58-11.607-1.146-1.303-2.653-2.207-4.303-2.611h211.418c4.273 0 8.408 1.103 12.077 3.207-5.761 2.264-9.623 7.804-9.623 14.148 0 2.334.53 4.585 1.575 6.689h-10.248c-3.151 0-5.714 2.563-5.714 5.714v61.038c0 3.151 2.563 5.714 5.714 5.714h21.714c2.133 0 4.039-1.164 5.026-3.019h25.923c1.224 0 2.447-.153 3.65-.455v120.437l1 .056c50.644-44.884 82.577-110.409 82.577-183.402 0-135.309-109.69-244.999-245-244.999zm-107.979 217.078-10.553 10.553v-11.669c2.335-.724 4.755-1.09 7.203-1.09h7.255c-1.466.358-2.811 1.111-3.905 2.206z" fill="#97d729"/><g><g><circle cx="255.714" cy="267" fill="#a2e62e" r="198"/></g></g><g fill="#08a9f1"><path d="m144.385 235.872c-2.872 0-5.629.485-8.203 1.365v14.809l12.26-12.26c1.389-1.389 3.235-2.153 5.199-2.153 2.115 0 4.133.916 5.536 2.511 2.546 2.896 2.31 7.394-.536 10.24l-24.013 24.013-.075.223c-1.548 4.604-4.238 8.869-7.779 12.333l-.301.294v32.354c0 1.677-1.073 3.185-2.67 3.752l-.666.236v149.468c27.286 17.592 58.293 29.902 91.577 35.51l1-9.403v-258.292c0-2.206 1.794-4 4-4v-1z"/><path d="m381.479 240.388c-4.097-2.845-9.07-4.516-14.435-4.516h-75.329v1c2.206 0 4 1.794 4 4v258.291l1 9.403c25.559-4.309 49.781-12.565 72-24.137v-152.047h-7.891c-2.6 0-4.714-2.115-4.714-4.714v-61.038c0-2.599 2.115-4.714 4.714-4.714h11.861l-.717-1.445c-.976-1.965-1.47-4.066-1.47-6.244-.001-6.727 4.697-12.365 10.981-13.839z"/></g><path d="m347.961 296.733h-39.928l30.079-20.446c2.272-1.545 2.968-4.581 1.594-6.961l-33.8-58.543c-8.115 7.052-18.697 11.336-30.267 11.336h-39.85c-11.57 0-22.152-4.284-30.267-11.336l-33.8 58.543c-1.374 2.38-.679 5.416 1.594 6.961l30.079 20.446h-39.928c-4.038 0-6.562 4.371-4.543 7.868l56.789 98.362v-162.091c0-2.206 1.794-4 4-4h72c2.206 0 4 1.794 4 4v162.092l56.789-98.362c2.021-3.498-.503-7.869-4.541-7.869z" fill="#01c0fa"/><g><path d="m291.714 235.872h-72c-2.761 0-5 2.239-5 5v267.694c13.334 2.247 27.027 3.434 41 3.434s27.666-1.187 41-3.434v-267.694c0-2.762-2.238-5-5-5z" fill="#f5f8f9"/></g><path d="m225.714 244v-8.128h-6c-2.761 0-5 2.239-5 5v267.694c7.879 1.328 15.886 2.275 24 2.836v-242.687c-7.851-5.41-13-14.459-13-24.715z" fill="#e8edf2"/><path d="m275.639 222.12h-39.85c-3.461 0-6.83-.395-10.075-1.12v23c0 16.569 13.431 30 30 30 16.568 0 30-13.431 30-30v-22.999c-3.245.724-6.614 1.119-10.075 1.119z" fill="#ffbd86"/><g><path d="m249.714 244v-21.88h-13.925c-3.461 0-6.83-.395-10.075-1.12v23c0 16.569 13.431 30 30 30 4.268 0 8.324-.897 12-2.503-10.594-4.63-18-15.196-18-27.497z" fill="#f6a96c"/></g><g><path d="m189.578 126.331h-28.564c-3.488 3.949-5.609 9.135-5.609 14.818v7.331c0 12.371 10.029 22.399 22.399 22.399h11.774z" fill="#f6a96c"/><path d="m321.85 126.331v44.548h11.774c12.371 0 22.399-10.028 22.399-22.399v-7.331c0-5.683-2.121-10.869-5.609-14.818z" fill="#ffbd86"/></g><path d="m189.578 175.909v-16.4c-2.323-2.17-5.434-3.509-8.864-3.509-7.18 0-13 5.82-13 13s5.82 13 13 13c3.465 0 6.605-1.364 8.935-3.574-.045-.834-.071-1.672-.071-2.517z" fill="#596c76"/><g><g><path d="m188.578 126.331v49.578c0 26.074 21.137 47.211 47.211 47.211h39.85c26.074 0 47.211-21.137 47.211-47.211v-49.578z" fill="#fed2a4"/></g><path d="m216.714 175.909v-49.578h-28.136v49.578c0 26.074 21.137 47.211 47.211 47.211h28.136c-26.074 0-47.211-21.137-47.211-47.211z" fill="#ffbd86"/><g fill="#d78878"><path d="m222.935 126.331h-8.132c-2.064 1.336-3.434 3.654-3.434 6.296v11.058c0 4.142 3.358 7.5 7.5 7.5s7.5-3.358 7.5-7.5v-11.058c0-2.642-1.37-4.96-3.434-6.296z"/><path d="m296.624 126.331h-8.132c-2.064 1.336-3.434 3.654-3.434 6.296v11.058c0 4.142 3.358 7.5 7.5 7.5s7.5-3.358 7.5-7.5v-11.058c0-2.642-1.37-4.96-3.434-6.296z"/></g><g><path d="m255.708 172.501c-1.182 0-2.38-.28-3.497-.87l-12.815-6.771c-1.924-1.017-3.312-2.818-3.803-4.938-.492-2.12-.038-4.348 1.243-6.107l12.815-17.604c2.438-3.348 7.128-4.088 10.478-1.649 3.349 2.438 4.087 7.129 1.649 10.478l-7.719 10.604 5.159 2.726c3.663 1.935 5.063 6.473 3.128 10.135-1.345 2.544-3.947 3.996-6.638 3.996z" fill="#d78878"/></g><g><path d="m255.714 201.043c-10.801 0-21.603-4.111-29.825-12.334-2.929-2.929-2.929-7.677 0-10.606s7.678-2.93 10.606 0c10.598 10.597 27.84 10.597 38.438 0 2.929-2.929 7.678-2.929 10.606 0 2.929 2.929 2.929 7.678 0 10.606-8.222 8.223-19.024 12.334-29.825 12.334z" fill="#d78878"/></g></g><path d="m346.831 96.79v-20.147c0-42.329-34.314-76.643-76.643-76.643h-28.948c-42.329 0-76.643 34.314-76.643 76.643v20.147z" fill="#fedf30"/><path d="m276.773.3c-2.172-.185-4.364-.3-6.584-.3h-28.949c-42.329 0-76.643 34.314-76.643 76.643v20.147h42.117v-20.147c0-40.109 30.815-73 70.059-76.343z" fill="#fed402"/><g><path d="m351.504 127.33h-191.58c-3.226 0-5.841-2.615-5.841-5.841v-19.859c0-3.226 2.615-5.841 5.841-5.841h191.58c3.226 0 5.841 2.615 5.841 5.841v19.859c0 3.226-2.615 5.841-5.841 5.841z" fill="#fac600"/></g><path d="m190.424 113.671c-3.226 0-5.841-2.615-5.841-5.841v-12.04h-24.659c-3.226 0-5.841 2.615-5.841 5.841v19.859c0 3.226 2.615 5.841 5.841 5.841h191.58c3.226 0 5.841-2.615 5.841-5.841v-7.818h-166.921z" fill="#e8b800"/><path d="m413.487 329.364h-26.564c-.684 1.762-2.386 3.019-4.386 3.019h-14.823v152.57c18.266-9.405 35.187-21.047 50.423-34.55v-121.836c-1.459.508-3.02.797-4.65.797z" fill="#fed2a4"/><path d="m382.537 332.382h-14.823v152.57c5.812-2.993 11.471-6.237 17-9.67v-143.457c-.654.344-1.387.557-2.177.557z" fill="#ffbd86"/><g><g><path d="m371.68 351.844c-2.274 0-4.363-.805-6-2.143v20.372c0 .796.316 1.559.879 2.121l9.414 9.414c.63.63 1.707.184 1.707-.707v-31.201c-1.637 1.339-3.725 2.144-6 2.144z" fill="#b6c4cf"/><g><g><path d="m374.93 205.413c.264 0 .514.054.75.138v-60.726c-.236.084-.486.138-.75.138h-6.5c-.264 0-.514-.054-.75-.138v60.726c.236-.084.486-.138.75-.138z" fill="#b6c4cf"/></g><g fill="#7a8c98"><path d="m401.287 214.553h17.143v7.573h-17.143z"/><path d="m401.287 134.231h17.143v9.751h-17.143z"/></g><g fill="#596c76"><path d="m401.287 134.231h8.284v9.751h-8.284z"/><path d="m401.287 214.553h8.284v7.573h-8.284z"/></g><g fill="#7a8c98"><path d="m448.286 134.231h17.143v9.751h-17.143z"/><path d="m448.286 214.553h17.143v7.573h-17.143z"/></g><g fill="#596c76"><path d="m448.286 134.231h8.285v9.751h-8.285z"/><path d="m448.286 214.553h8.285v7.573h-8.285z"/></g><path d="m424.144 150.268v-4.429c0-1.578-1.279-2.857-2.857-2.857h-22.857c-1.578 0-2.857 1.279-2.857 2.857v4.429z" fill="#d9e7ec"/><path d="m406.571 142.982h-8.141c-1.578 0-2.857 1.279-2.857 2.857v4.429h8.141v-4.429c0-1.577 1.279-2.857 2.857-2.857z" fill="#c5d3dd"/><path d="m471.143 150.268v-4.429c0-1.578-1.279-2.857-2.857-2.857h-22.857c-1.578 0-2.857 1.279-2.857 2.857v4.429z" fill="#d9e7ec"/><path d="m453.571 142.982h-8.142c-1.578 0-2.857 1.279-2.857 2.857v4.429h8.142v-4.429c0-1.577 1.279-2.857 2.857-2.857z" fill="#c5d3dd"/><g><path d="m425.287 215.553h-30.857c-3.156 0-5.714-2.558-5.714-5.714v-54.856c0-3.156 2.558-5.714 5.714-5.714h30.857c3.156 0 5.714 2.558 5.714 5.714v54.856c0 3.155-2.558 5.714-5.714 5.714z" fill="#c5d3dd"/></g><path d="m405.714 209.839v-54.856c0-3.156 2.558-5.714 5.714-5.714h-16.998c-3.156 0-5.714 2.558-5.714 5.714v54.856c0 3.156 2.558 5.714 5.714 5.714h16.998c-3.156 0-5.714-2.558-5.714-5.714z" fill="#b6c4cf"/><g><path d="m472.286 215.553h-30.857c-3.156 0-5.714-2.558-5.714-5.714v-54.856c0-3.156 2.558-5.714 5.714-5.714h30.857c3.156 0 5.714 2.558 5.714 5.714v54.856c0 3.155-2.558 5.714-5.714 5.714z" fill="#c5d3dd"/></g><path d="m452.714 209.839v-54.856c0-3.156 2.558-5.714 5.714-5.714h-16.999c-3.156 0-5.714 2.558-5.714 5.714v54.856c0 3.156 2.558 5.714 5.714 5.714h16.999c-3.156 0-5.714-2.558-5.714-5.714z" fill="#b6c4cf"/><g fill="#01c0fa"><path d="m367.716 162.554c-2.209 0-4 1.791-4 4s1.791 4 4 4h124.57v-8z"/><path d="m367.716 182.268c-2.209 0-4 1.791-4 4s1.791 4 4 4h124.57v-8z"/></g><g><path d="m374.93 228.002h-6.5c-1.795 0-3.25-1.455-3.25-3.25v-17.089c0-1.795 1.455-3.25 3.25-3.25h6.5c1.795 0 3.25 1.455 3.25 3.25v17.089c0 1.795-1.455 3.25-3.25 3.25z" fill="#7a8c98"/></g><path d="m368.43 145.963h6.5c1.795 0 3.25-1.455 3.25-3.25v-8.482h-13v8.482c0 1.795 1.455 3.25 3.25 3.25z" fill="#7a8c98"/><path d="m361.18 332.382v9.961c0 5.799 4.701 10.5 10.5 10.5s10.5-4.701 10.5-10.5v-9.961z" fill="#7a8c98"/><path d="m369.714 342.344v-9.961h-8.534v9.961c0 5.799 4.701 10.5 10.5 10.5 1.521 0 2.962-.33 4.267-.912-3.67-1.636-6.233-5.31-6.233-9.588z" fill="#596c76"/><g fill="#7a8c98"><path d="m370.497 254.227c0-1.118.143-2.202.388-3.246h-8.347v10.935h10.265c-1.492-2.292-2.306-4.951-2.306-7.689z"/><path d="m380.823 240.557v-10.431h-18.285v12.855h13.505c1.409-1.09 3.024-1.922 4.78-2.424z"/></g><g fill="#b6c4cf"><path d="m384.724 329.364c-7.845 0-14.228-6.382-14.228-14.228 0-3.486 1.303-6.854 3.668-9.482l.602-.669-.602-.669c-2.366-2.629-3.669-5.997-3.669-9.482s1.303-6.854 3.669-9.483l.602-.669-.602-.669c-2.366-2.629-3.668-5.997-3.668-9.482s1.303-6.854 3.668-9.482l.602-.669-.602-.669c-.772-.858-1.418-1.801-1.956-2.794h-11.387c-3.156 0-5.714 2.558-5.714 5.714v61.038c0 3.156 2.558 5.714 5.714 5.714h21.714c2.565 0 4.736-1.691 5.458-4.018h-3.269z"/><path d="m487.715 125.231h-124.998c-1.657 0-3 1.343-3 3v4c0 1.657 1.343 3 3 3h124.998c1.972 0 3.571 1.599 3.571 3.571v78.752c0 1.972-1.599 3.571-3.571 3.571h-138.856c-4.339 0-7.857 3.518-7.857 7.857v15.141c0 4.339 3.518 7.857 7.857 7.857h21.833c.68-4.259 3.249-7.887 6.827-10h-26.516v-10.855h136.712c7.495 0 13.571-6.076 13.571-13.571v-78.752c0-7.495-6.076-13.571-13.571-13.571z"/></g></g></g><g><g><g><g><path d="m428.714 315.136v-60.909c0-8.375-6.852-15.227-15.227-15.227h-28.763c-8.375 0-15.227 6.852-15.227 15.227 0 3.896 1.496 7.451 3.925 10.152-2.429 2.7-3.925 6.255-3.925 10.151s1.496 7.451 3.925 10.152c-2.429 2.7-3.925 6.255-3.925 10.152 0 3.896 1.496 7.451 3.925 10.151-2.429 2.701-3.925 6.255-3.925 10.152 0 8.375 6.852 15.227 15.227 15.227h28.763c8.375 0 15.227-6.853 15.227-15.228z" fill="#596c76"/></g></g></g></g><g><path d="m389.497 315.136v-60.909c0-8.375 6.852-15.227 15.227-15.227h-20c-8.375 0-15.227 6.852-15.227 15.227 0 3.896 1.496 7.451 3.925 10.151-2.429 2.7-3.925 6.255-3.925 10.152 0 3.896 1.496 7.451 3.925 10.151-2.429 2.7-3.925 6.255-3.925 10.152 0 3.896 1.496 7.451 3.925 10.151-2.429 2.701-3.925 6.255-3.925 10.152 0 8.375 6.852 15.227 15.227 15.227h20c-8.375.001-15.227-6.852-15.227-15.227z" fill="#465a61"/></g></g><g><path d="m395.378 418.008 22.76 23.015v-21.332l-6.175-6.244 6.175-4.836v-30.135l-12.563-9.841 12.563-9.841v-19.054l-29.35 22.99v11.809l24.261 19.004-17.671 13.288z" fill="#596c76"/></g><g><path d="m400.11 391.426-15.161-11.89c-1.313-1.029-3.234-.094-3.234 1.574v23.78c0 1.668 1.922 2.603 3.234 1.574l15.161-11.89c1.021-.801 1.021-2.347 0-3.148z" fill="#596c76"/></g><g><path d="m400.11 431.32-15.161-11.89c-1.313-1.029-3.234-.094-3.234 1.574v23.78c0 1.668 1.922 2.603 3.234 1.574l15.161-11.89c1.021-.801 1.021-2.347 0-3.148z" fill="#596c76"/></g><g><path d="m122.473 323.599h-47.251c-.534 0-1.042-.109-1.508-.3v107.705c14.779 16.39 31.737 30.776 50.423 42.696v-150.475c-.508.235-1.068.374-1.664.374z" fill="#fed2a4"/><path d="m75.222 323.599c-.534 0-1.042-.109-1.508-.3v107.705c5.384 5.971 11.06 11.672 17 17.088v-124.493z" fill="#ffbd86"/><g><path d="m127.473 319.599v-31.933c3.596-3.518 6.389-7.853 8.028-12.729l23.847-23.847c3.146-3.146 3.517-8.266.58-11.607-3.219-3.661-8.801-3.797-12.193-.405l-10.553 10.553v-53.889c0-3.938-3.035-7.371-6.971-7.489-4.073-.122-7.413 3.143-7.413 7.188v39.228h-5.883v-52.002c0-3.938-3.034-7.372-6.97-7.49-4.073-.123-7.413 3.143-7.413 7.189v52.304h-5.886v-52.064c0-3.656-2.627-6.914-6.255-7.373-4.388-.555-8.129 2.852-8.129 7.133v52.304h-5.883v-38.987c0-3.657-2.627-6.915-6.255-7.374-4.388-.555-8.129 2.851-8.129 7.132v69.226c0 8.259 3.118 15.782 8.228 21.483v33.448c0 2.761 2.239 5 5 5h47.251c2.76.001 4.999-2.237 4.999-4.999z" fill="#596c76"/></g><g><g><path d="m84.942 312c-2.761 0-5-2.239-5-5v-23.689c0-1.118-.364-2.212-1.067-3.081-4.473-5.53-7.161-12.563-7.161-20.231v-71.282c-.504-.194-1.034-.337-1.591-.408-4.388-.555-8.129 2.851-8.129 7.132v69.226c0 8.259 3.118 15.782 8.228 21.483v33.448c0 2.761 2.239 5 5 5h47.251c2.761 0 5-2.239 5-5v-7.598z" fill="#465a61"/></g></g><g><g><path d="m92.37 360.962c1.417 1.635 3.161 2.29 4.906 2.29 5.669 0 9.048-4.797 9.048-11.011 0-12.21-12.537-14.524-18.314-14.524-5.016 0-10.029 1.541-14.295 4.086v36.523c5.928 5.742 11.897 11.998 11.897 22.317 0 8.036-3.357 15.526-11.897 15.583v8.45c.121.002.246.009.365.009 17.552 0 29.628-13.141 29.628-28.512 0-24.31-24.529-25.291-24.529-42.406 0-5.996 4.143-9.484 10.138-9.484 5.778 0 7.958 3.488 7.958 7.304 0 3.598-1.962 7.631-4.905 9.375z" fill="#596c76"/></g></g><g><path d="m99.382 372.617 5.236-2.584c.235-.116.397-.34.435-.599l.84-5.778c.095-.652.897-.913 1.357-.441l4.075 4.181c.183.188.446.273.704.229l5.754-.987c.65-.111 1.145.571.839 1.154l-2.717 5.168c-.122.232-.122.509 0 .74l2.717 5.168c.307.584-.189 1.266-.839 1.154l-5.754-.987c-.258-.044-.521.041-.704.229l-4.075 4.181c-.46.472-1.262.212-1.357-.441l-.84-5.778c-.038-.259-.2-.483-.435-.599l-5.236-2.584c-.592-.291-.592-1.134 0-1.426z" fill="#596c76"/></g></g><g><path d="m124.138 427.971c-6.358-.303-11.423-5.538-11.423-11.971s5.066-11.668 11.423-11.971v-8c-10.777.308-19.423 9.12-19.423 19.971s8.647 19.663 19.423 19.971z" fill="#596c76"/></g><g><path d="m114.825 346.317 4.513-7.817c.385-.667-.096-1.5-.866-1.5h-9.026c-.77 0-1.251.833-.866 1.5l4.513 7.817c.385.666 1.347.666 1.732 0z" fill="#596c76"/></g><g><path d="m94.95 424.366-6.511 11.277c-.555.962.139 2.164 1.249 2.164h13.022c1.111 0 1.805-1.202 1.249-2.164l-6.511-11.277c-.554-.962-1.942-.962-2.498 0z" fill="#596c76"/></g><g><circle cx="314.214" cy="421.5" fill="#01c0fa" r="7.5"/></g><g><circle cx="314.214" cy="461.5" fill="#01c0fa" r="7.5"/></g><g><ellipse cx="255.714" cy="60" fill="#01c0fa" rx="34.5" ry="21"/></g><path d="m245.714 60c0-8.971 9.245-16.624 22.25-19.633-3.808-.881-7.935-1.367-12.25-1.367-19.054 0-34.5 9.402-34.5 21s15.446 21 34.5 21c4.315 0 8.442-.487 12.25-1.367-13.005-3.009-22.25-10.662-22.25-19.633z" fill="#08a9f1"/></g></svg>