<svg id="Capa_1" enable-background="new 0 0 512 512" height="512" viewBox="0 0 512 512" width="512" xmlns="http://www.w3.org/2000/svg"><g><path d="m256 22c-135.31 0-245 109.69-245 245 0 42.446 10.798 82.368 29.791 117.177l4.408 1h421.601l4.408-1c18.994-34.809 29.792-74.731 29.792-117.177 0-135.31-109.69-245-245-245z" fill="#ffe5c2"/><g><g><g><g><path d="m470.635 385.177c2.248-4.072 4.4-8.205 6.417-12.415v-12.958l-4.425-.863h-131.142l-4.318.863v25.373z" fill="#fff"/><g><path d="m450.453 177.609h-12.257v-12.089h-62.171v12.089h-12.257c-14.69 0-26.599 11.909-26.599 26.599v34.708l4.479.863h131.142l4.263-.863v-34.708c0-14.69-11.909-26.599-26.6-26.599z" fill="#fff"/></g><g><path d="m376.025 177.609h-12.257c-14.69 0-26.599 11.909-26.599 26.599v34.708l4.479.863h16.244v-30.222c0-10.015 8.119-18.133 18.133-18.133h16.406c2.384 0 4.317-1.933 4.317-4.317v-21.587h-20.724v12.089z" fill="#f5f8f9"/></g><g><path d="m337.168 238.916v41.448l4.425.863h131.142l4.318-.863v-41.448z" fill="#596c76"/></g></g><g><g><path d="m424.032 61.038-8.436-40.599c-.416-2.003-2.181-3.439-4.227-3.439h-8.518c-2.046 0-3.811 1.436-4.227 3.439l-8.436 40.599z" fill="#596c76"/></g><g><path d="m414.276 18.144c-.775-.709-1.795-1.144-2.907-1.144h-8.518c-2.046 0-3.811 1.436-4.227 3.439l-8.436 40.599h14.332l8.436-40.599c.19-.914.67-1.7 1.32-2.295z" fill="#465a61"/></g><g><path d="m434.742 107.666v-41.447c0-3.338-2.706-6.044-6.044-6.044h-43.174c-3.338 0-6.044 2.706-6.044 6.044v41.447z" fill="#7a8c98"/></g><g><path d="m406.247 60.174h-20.724c-3.338 0-6.044 2.706-6.044 6.044v41.447h20.724v-41.446c-.001-3.338 2.706-6.045 6.044-6.045z" fill="#596c76"/></g><g><path d="m442.513 166.383h-70.806c-4.769 0-8.635-3.866-8.635-8.635v-42.311c0-4.769 3.866-8.635 8.635-8.635h70.806c4.769 0 8.635 3.866 8.635 8.635v42.311c0 4.769-3.866 8.635-8.635 8.635z" fill="#596c76"/></g><g><path d="m399.339 148.25c-4.769 0-8.635-3.866-8.635-8.635v-32.813h-18.997c-4.769 0-8.635 3.866-8.635 8.635v42.311c0 4.769 3.866 8.635 8.635 8.635h70.806c4.769 0 8.635-3.866 8.635-8.635v-9.498z" fill="#465a61"/></g><path d="m458.056 253.164h-83.463v12.952h83.463c1.431 0 2.59-1.16 2.59-2.591v-7.771c0-1.43-1.159-2.59-2.59-2.59z" fill="#8d9ca8"/><g><path d="m337.168 280.364h139.885v79.441h-139.885z" fill="#d9e7ec"/></g><g><g><path d="m458.056 339.081h-51.809c-1.431 0-2.59-1.16-2.59-2.59v-7.771c0-1.431 1.16-2.59 2.59-2.59h51.809c1.431 0 2.59 1.16 2.59 2.59v7.771c.001 1.43-1.159 2.59-2.59 2.59z" fill="#596c76"/></g><path d="m424.38 336.49v-7.771c0-1.431 1.16-2.59 2.59-2.59h-20.724c-1.431 0-2.59 1.16-2.59 2.59v7.771c0 1.431 1.16 2.59 2.59 2.59h20.724c-1.43.001-2.59-1.159-2.59-2.59z" fill="#465a61"/><g><path d="m458.056 311.449h-51.809c-1.431 0-2.59-1.16-2.59-2.59v-7.771c0-1.431 1.16-2.59 2.59-2.59h51.809c1.431 0 2.59 1.16 2.59 2.59v7.771c.001 1.43-1.159 2.59-2.59 2.59z" fill="#596c76"/></g><path d="m424.38 308.859v-7.771c0-1.431 1.16-2.59 2.59-2.59h-20.724c-1.431 0-2.59 1.16-2.59 2.59v7.771c0 1.431 1.16 2.59 2.59 2.59h20.724c-1.43 0-2.59-1.16-2.59-2.59z" fill="#465a61"/></g></g></g><g><g><path d="m325.943 385.177v-42.373l-4.426-.863h-131.142l-4.318.863v42.373z" fill="#a2e62e"/><g><path d="m299.343 160.609h-12.257v-12.089h-62.171v12.089h-12.257c-14.69 0-26.599 11.909-26.599 26.599v34.708l4.479.863h131.142l4.263-.863v-34.708c-.001-14.69-11.91-26.599-26.6-26.599z" fill="#a2e62e"/></g><g><path d="m224.914 160.609h-12.257c-14.69 0-26.599 11.909-26.599 26.599v34.708l4.479.863h16.244v-30.222c0-10.015 8.119-18.133 18.133-18.133h16.406c2.384 0 4.317-1.933 4.317-4.317v-21.587h-20.724v12.089z" fill="#97d729"/></g><g><path d="m186.058 221.916v41.448l4.425.863h131.142l4.317-.863v-41.448z" fill="#7a8c98"/></g></g><g><g><path d="m272.922 44.038-8.436-40.599c-.416-2.003-2.181-3.439-4.227-3.439h-8.518c-2.046 0-3.811 1.436-4.227 3.439l-8.436 40.599z" fill="#596c76"/></g><g><path d="m263.166 1.144c-.775-.709-1.795-1.144-2.907-1.144h-8.518c-2.046 0-3.811 1.436-4.227 3.439l-8.436 40.599h14.332l8.436-40.599c.19-.914.67-1.7 1.32-2.295z" fill="#465a61"/></g><g><path d="m283.632 90.666v-41.447c0-3.338-2.706-6.044-6.044-6.044h-43.174c-3.338 0-6.044 2.706-6.044 6.044v41.447z" fill="#7a8c98"/></g><g><path d="m255.137 43.174h-20.724c-3.338 0-6.044 2.706-6.044 6.044v41.447h20.724v-41.446c-.001-3.338 2.705-6.045 6.044-6.045z" fill="#596c76"/></g><g><path d="m291.403 149.383h-70.806c-4.769 0-8.635-3.866-8.635-8.635v-42.31c0-4.769 3.866-8.635 8.635-8.635h70.806c4.769 0 8.635 3.866 8.635 8.635v42.311c0 4.768-3.866 8.634-8.635 8.634z" fill="#596c76"/></g><g><path d="m248.229 131.25c-4.769 0-8.635-3.866-8.635-8.635v-32.812h-18.997c-4.769 0-8.635 3.866-8.635 8.635v42.311c0 4.769 3.866 8.635 8.635 8.635h70.806c4.769 0 8.635-3.866 8.635-8.635v-9.498h-51.809z" fill="#465a61"/></g><path d="m223.482 236.164h65.035v12.952h-65.035z" fill="#8d9ca8"/><g><path d="m186.058 263.364h139.885v79.441h-139.885z" fill="#fff"/></g><g><path d="m210.53 294.608h13.258c7.673 0 14.563 3.398 19.26 8.763v-19.284c0-1.431-1.16-2.59-2.59-2.59h-29.928z" fill="#a2e62e"/><path d="m218.87 281.497h-8.34v13.111h5.749v-10.521c.001-1.43 1.16-2.59 2.591-2.59z" fill="#97d729"/><path d="m262.612 320.208c0-3.966.907-7.725 2.524-11.079h-10c-1.431 0-2.59 1.16-2.59 2.59v7.771c0 1.431 1.16 2.59 2.59 2.59h7.476z" fill="#465a61"/><path d="m301.47 281.497h-46.333c-1.431 0-2.59 1.16-2.59 2.59v7.771c0 1.431 1.16 2.59 2.59 2.59h46.333z" fill="#596c76"/><path d="m273.27 291.859v-7.771c0-1.431 1.16-2.59 2.59-2.59h-20.724c-1.431 0-2.59 1.16-2.59 2.59v7.771c0 1.431 1.16 2.59 2.59 2.59h20.724c-1.43 0-2.59-1.16-2.59-2.59z" fill="#465a61"/></g></g></g><g><g><path d="m174.832 385.177v-25.373l-4.425-.863h-131.142l-4.317.863v12.958c2.018 4.21 4.17 8.343 6.417 12.415z" fill="#01c0fa"/><g><path d="m68.403 424.566h.22c-.078 0-.153-.01-.23-.012.004.004.007.008.01.012z" fill="#e8b800"/><path d="m55.671 385.177v-25.373h-20.724v12.958c2.017 4.208 4.16 8.344 6.407 12.415z" fill="#08a9f1"/></g><g><path d="m148.233 177.609h-12.257v-12.089h-62.172v12.089h-12.257c-14.69 0-26.599 11.909-26.599 26.599v34.708l4.479.863h131.142l4.263-.863v-34.708c0-14.69-11.909-26.599-26.599-26.599z" fill="#01c0fa"/></g><g><path d="m73.804 177.609h-12.257c-14.69 0-26.599 11.909-26.599 26.599v34.708l4.479.863h16.244v-30.222c0-10.015 8.119-18.133 18.133-18.133h16.406c2.384 0 4.317-1.933 4.317-4.317v-21.587h-20.723z" fill="#08a9f1"/></g><g><path d="m34.947 238.916v41.448l4.426.863h131.142l4.317-.863v-41.448z" fill="#596c76"/></g><path d="m34.947 238.916h20.724v41.447h-20.724z" fill="#465a61"/></g><g><g><path d="m121.812 61.038-8.436-40.599c-.416-2.003-2.181-3.439-4.227-3.439h-8.518c-2.046 0-3.811 1.436-4.227 3.439l-8.436 40.599z" fill="#596c76"/></g><g><path d="m112.056 18.144c-.775-.709-1.795-1.144-2.907-1.144h-8.518c-2.046 0-3.811 1.436-4.227 3.439l-8.436 40.599h14.332l8.436-40.599c.189-.914.669-1.7 1.32-2.295z" fill="#465a61"/></g><g><path d="m132.521 107.666v-41.447c0-3.338-2.706-6.044-6.044-6.044h-43.174c-3.338 0-6.044 2.706-6.044 6.044v41.447z" fill="#7a8c98"/></g><g><path d="m104.026 60.174h-20.723c-3.338 0-6.044 2.706-6.044 6.044v41.447h20.724v-41.446c-.001-3.338 2.705-6.045 6.043-6.045z" fill="#596c76"/></g><g><path d="m140.293 166.383h-70.806c-4.769 0-8.635-3.866-8.635-8.635v-42.311c0-4.769 3.866-8.635 8.635-8.635h70.806c4.769 0 8.635 3.866 8.635 8.635v42.311c0 4.769-3.866 8.635-8.635 8.635z" fill="#596c76"/></g><g><path d="m97.118 148.25c-4.769 0-8.635-3.866-8.635-8.635v-32.813h-18.996c-4.769 0-8.635 3.866-8.635 8.635v42.311c0 4.769 3.866 8.635 8.635 8.635h70.806c4.769 0 8.635-3.866 8.635-8.635v-9.498z" fill="#465a61"/></g><path d="m137.407 253.164h-83.463c-1.431 0-2.59 1.16-2.59 2.59v7.771c0 1.431 1.16 2.591 2.59 2.591h83.463z" fill="#8d9ca8"/><g><path d="m34.947 280.364h139.885v79.441h-139.885z" fill="#fff"/></g><path d="m34.947 280.364h20.724v79.441h-20.724z" fill="#f5f8f9"/><g><g><path d="m89.347 339.081h-35.403c-1.431 0-2.59-1.16-2.59-2.59v-35.403c0-1.431 1.16-2.59 2.59-2.59h35.403c1.431 0 2.59 1.16 2.59 2.59v35.403c0 1.43-1.159 2.59-2.59 2.59z" fill="#01c0fa"/></g><path d="m65.169 336.49v-35.403c0-1.431 1.16-2.59 2.59-2.59h-13.815c-1.431 0-2.59 1.16-2.59 2.59v35.403c0 1.431 1.16 2.59 2.59 2.59h13.816c-1.431.001-2.591-1.159-2.591-2.59z" fill="#08a9f1"/><g><path d="m155.835 339.081h-51.809c-1.431 0-2.59-1.16-2.59-2.59v-7.771c0-1.431 1.16-2.59 2.59-2.59h51.809c1.431 0 2.59 1.16 2.59 2.59v7.771c.001 1.43-1.159 2.59-2.59 2.59z" fill="#596c76"/></g><path d="m111.502 326.129h-7.476c-1.431 0-2.59 1.16-2.59 2.59v7.771c0 1.431 1.16 2.59 2.59 2.59h7.476z" fill="#465a61"/><g><path d="m155.835 311.449h-51.809c-1.431 0-2.59-1.16-2.59-2.59v-7.771c0-1.431 1.16-2.59 2.59-2.59h51.809c1.431 0 2.59 1.16 2.59 2.59v7.771c.001 1.43-1.159 2.59-2.59 2.59z" fill="#596c76"/></g><path d="m123.562 298.497h-19.536c-1.431 0-2.59 1.16-2.59 2.59v7.771c0 1.431 1.16 2.59 2.59 2.59h9.02c1.972-5.396 5.714-9.945 10.516-12.951z" fill="#465a61"/></g></g></g></g><path d="m40.791 384.177c17.173 31.473 41.052 58.755 69.711 79.945l1 .342v-67.1h137.886v114.224l1 .342c1.866.042 3.736.071 5.613.071s3.746-.029 5.613-.071l1-.342v-114.224h137.886v67.101l1-.342c28.659-21.19 52.538-48.474 69.711-79.947h-430.42z" fill="#978ecb"/><g><g><g><path d="m385.588 474.941h-119.658l-4.318.863v36.125c45.466-1.022 87.866-14.437 123.976-36.988z" fill="#fe5694"/><path d="m261.613 511.929c6.984-.157 13.895-.611 20.724-1.341v-34.784h-20.724z" fill="#fe0364"/><g><path d="m374.898 293.609h-12.257v-12.089h-62.171v12.089h-12.257c-14.69 0-26.599 11.909-26.599 26.599v34.708l4.479.863h131.142l4.263-.863v-34.708c0-14.69-11.909-26.599-26.6-26.599z" fill="#fe5694"/></g><g><path d="m300.47 293.609h-12.257c-14.69 0-26.599 11.909-26.599 26.599v34.708l4.479.863h16.244v-30.222c0-10.015 8.119-18.133 18.133-18.133h16.406c2.384 0 4.317-1.933 4.317-4.317v-21.587h-20.723z" fill="#fe0364"/></g><g><path d="m261.613 354.916v41.448l4.425.863h131.142l4.318-.863v-41.448z" fill="#596c76"/></g><path d="m261.613 354.916h20.724v41.447h-20.724z" fill="#465a61"/></g><g><g><path d="m348.477 177.038-8.436-40.599c-.416-2.003-2.181-3.439-4.227-3.439h-8.518c-2.046 0-3.811 1.436-4.227 3.439l-8.436 40.599z" fill="#596c76"/></g><g><path d="m338.721 134.144c-.775-.709-1.795-1.144-2.907-1.144h-8.518c-2.046 0-3.811 1.436-4.227 3.439l-8.436 40.599h14.332l8.436-40.599c.19-.914.67-1.7 1.32-2.295z" fill="#465a61"/></g><g><path d="m359.187 223.666v-41.447c0-3.338-2.706-6.044-6.044-6.044h-43.174c-3.338 0-6.044 2.706-6.044 6.044v41.447z" fill="#7a8c98"/></g><g><path d="m330.692 176.174h-20.724c-3.338 0-6.044 2.706-6.044 6.044v41.447h20.724v-41.447c-.001-3.337 2.705-6.044 6.044-6.044z" fill="#596c76"/></g><g><path d="m366.958 282.383h-70.806c-4.769 0-8.635-3.866-8.635-8.635v-42.311c0-4.769 3.866-8.635 8.635-8.635h70.806c4.769 0 8.635 3.866 8.635 8.635v42.311c0 4.769-3.866 8.635-8.635 8.635z" fill="#596c76"/></g><g><path d="m323.784 264.25c-4.769 0-8.635-3.866-8.635-8.635v-32.813h-18.997c-4.769 0-8.635 3.866-8.635 8.635v42.311c0 4.769 3.866 8.635 8.635 8.635h70.806c4.769 0 8.635-3.866 8.635-8.635v-9.498z" fill="#465a61"/></g><g><path d="m382.501 382.116h-101.892c-1.431 0-2.59-1.16-2.59-2.59v-7.771c0-1.431 1.16-2.59 2.59-2.59h101.892c1.431 0 2.59 1.16 2.59 2.59v7.771c0 1.43-1.159 2.59-2.59 2.59z" fill="#8d9ca8"/></g><path d="m261.613 475.804h122.592c5.937-3.653 11.706-7.552 17.293-11.682v-67.758h-139.885z" fill="#fff"/><path d="m261.613 396.364h20.724v79.441h-20.724z" fill="#f5f8f9"/><g><g><path d="m316.012 455.081h-35.403c-1.431 0-2.59-1.16-2.59-2.59v-35.403c0-1.431 1.16-2.59 2.59-2.59h35.403c1.431 0 2.59 1.16 2.59 2.59v35.403c.001 1.43-1.159 2.59-2.59 2.59z" fill="#fe5694"/></g><path d="m291.835 452.49v-35.403c0-1.431 1.16-2.59 2.59-2.59h-13.816c-1.431 0-2.59 1.16-2.59 2.59v35.403c0 1.431 1.16 2.59 2.59 2.59h13.816c-1.43.001-2.59-1.159-2.59-2.59z" fill="#fe0364"/><g><path d="m382.501 455.081h-51.809c-1.431 0-2.59-1.16-2.59-2.59v-7.771c0-1.431 1.16-2.59 2.59-2.59h51.809c1.431 0 2.59 1.16 2.59 2.59v7.771c0 1.43-1.159 2.59-2.59 2.59z" fill="#596c76"/></g><path d="m348.825 452.49v-7.771c0-1.431 1.16-2.59 2.59-2.59h-20.724c-1.431 0-2.59 1.16-2.59 2.59v7.771c0 1.431 1.16 2.59 2.59 2.59h20.724c-1.43.001-2.59-1.159-2.59-2.59z" fill="#465a61"/><g><path d="m382.501 427.449h-51.809c-1.431 0-2.59-1.16-2.59-2.59v-7.771c0-1.431 1.16-2.59 2.59-2.59h51.809c1.431 0 2.59 1.16 2.59 2.59v7.771c0 1.43-1.159 2.59-2.59 2.59z" fill="#596c76"/></g><path d="m348.825 424.859v-7.771c0-1.431 1.16-2.59 2.59-2.59h-20.724c-1.431 0-2.59 1.16-2.59 2.59v7.771c0 1.431 1.16 2.59 2.59 2.59h20.724c-1.43 0-2.59-1.16-2.59-2.59z" fill="#465a61"/></g></g></g><g><g><path d="m126.412 474.941c36.11 22.551 78.51 35.966 123.975 36.988v-36.125l-4.425-.863z" fill="#fac600"/><g><path d="m223.788 293.609h-12.258v-12.089h-62.171v12.089h-12.257c-14.69 0-26.599 11.909-26.599 26.599v34.708l4.479.863h131.142l4.263-.863v-34.708c0-14.69-11.909-26.599-26.599-26.599z" fill="#fac600"/></g><g><path d="m149.359 293.609h-12.257c-14.69 0-26.599 11.909-26.599 26.599v34.708l4.479.863h16.244v-30.222c0-10.015 8.119-18.133 18.133-18.133h16.406c2.384 0 4.317-1.933 4.317-4.317v-21.587h-20.724v12.089z" fill="#e8b800"/></g><g><path d="m110.502 354.916v41.448l4.426.863h131.142l4.317-.863v-41.448z" fill="#596c76"/></g><path d="m110.502 354.916h20.724v41.447h-20.724z" fill="#465a61"/></g><g><g><path d="m197.367 177.038-8.436-40.599c-.416-2.003-2.181-3.439-4.227-3.439h-8.518c-2.046 0-3.811 1.436-4.227 3.439l-8.436 40.599z" fill="#596c76"/></g><g><path d="m187.611 134.144c-.775-.709-1.795-1.144-2.907-1.144h-8.518c-2.046 0-3.811 1.436-4.227 3.439l-8.436 40.599h14.332l8.436-40.599c.189-.914.669-1.7 1.32-2.295z" fill="#465a61"/></g><g><path d="m208.076 223.666v-41.447c0-3.338-2.706-6.044-6.044-6.044h-43.174c-3.338 0-6.044 2.706-6.044 6.044v41.447z" fill="#7a8c98"/></g><g><path d="m179.581 176.174h-20.724c-3.338 0-6.044 2.706-6.044 6.044v41.447h20.724v-41.447c0-3.337 2.706-6.044 6.044-6.044z" fill="#596c76"/></g><g><path d="m215.848 282.383h-70.806c-4.769 0-8.635-3.866-8.635-8.635v-42.311c0-4.769 3.866-8.635 8.635-8.635h70.806c4.769 0 8.635 3.866 8.635 8.635v42.311c0 4.769-3.866 8.635-8.635 8.635z" fill="#596c76"/></g><g><path d="m172.673 264.25c-4.769 0-8.635-3.866-8.635-8.635v-32.813h-18.997c-4.769 0-8.635 3.866-8.635 8.635v42.311c0 4.769 3.866 8.635 8.635 8.635h70.806c4.769 0 8.635-3.866 8.635-8.635v-9.498z" fill="#465a61"/></g><g><path d="m231.391 382.116h-101.892c-1.431 0-2.59-1.16-2.59-2.59v-7.771c0-1.431 1.16-2.59 2.59-2.59h101.892c1.431 0 2.59 1.16 2.59 2.59v7.771c0 1.43-1.16 2.59-2.59 2.59z" fill="#8d9ca8"/></g><path d="m110.502 464.122c5.587 4.131 11.356 8.03 17.293 11.682h122.592v-79.441h-139.885z" fill="#fff"/><path d="m110.502 464.122c5.587 4.131 11.356 8.03 17.293 11.682h3.43v-79.441h-20.724v67.759z" fill="#f5f8f9"/><g><g><path d="m164.902 455.081h-35.403c-1.431 0-2.59-1.16-2.59-2.59v-35.403c0-1.431 1.16-2.59 2.59-2.59h35.403c1.431 0 2.59 1.16 2.59 2.59v35.403c.001 1.43-1.159 2.59-2.59 2.59z" fill="#fac600"/></g><path d="m140.724 452.49v-35.403c0-1.431 1.16-2.59 2.59-2.59h-13.816c-1.431 0-2.59 1.16-2.59 2.59v35.403c0 1.431 1.16 2.59 2.59 2.59h13.816c-1.43.001-2.59-1.159-2.59-2.59z" fill="#e8b800"/><g><path d="m231.391 455.081h-51.809c-1.431 0-2.59-1.16-2.59-2.59v-7.771c0-1.431 1.16-2.59 2.59-2.59h51.809c1.431 0 2.59 1.16 2.59 2.59v7.771c0 1.43-1.16 2.59-2.59 2.59z" fill="#596c76"/></g><path d="m197.715 452.49v-7.771c0-1.431 1.16-2.59 2.59-2.59h-20.724c-1.431 0-2.59 1.16-2.59 2.59v7.771c0 1.431 1.16 2.59 2.59 2.59h20.724c-1.431.001-2.59-1.159-2.59-2.59z" fill="#465a61"/><g><path d="m231.391 427.449h-51.809c-1.431 0-2.59-1.16-2.59-2.59v-7.771c0-1.431 1.16-2.59 2.59-2.59h51.809c1.431 0 2.59 1.16 2.59 2.59v7.771c0 1.43-1.16 2.59-2.59 2.59z" fill="#596c76"/></g><path d="m197.715 424.859v-7.771c0-1.431 1.16-2.59 2.59-2.59h-20.724c-1.431 0-2.59 1.16-2.59 2.59v7.771c0 1.431 1.16 2.59 2.59 2.59h20.724c-1.431 0-2.59-1.16-2.59-2.59z" fill="#465a61"/></g></g></g></g></g></g></svg>