<svg id="Capa_1" enable-background="new 0 0 512 512" height="512" viewBox="0 0 512 512" width="512" xmlns="http://www.w3.org/2000/svg"><g><path d="m255.5 22c-135.31 0-245 109.69-245 245 0 30.725 5.672 60.122 16 87.221h1v-92.768c0-7.141 5.809-12.951 12.949-12.951.482 0 .974.027 1.46.08 6.552.716 11.493 6.42 11.493 13.269v69.993c0 3.698 3.009 6.706 6.706 6.706l.206-.003c3.585-.107 6.501-3.222 6.501-6.942l-.001-95.517c0-7.142 5.811-12.952 12.952-12.952.482 0 .973.027 1.458.08 6.552.714 11.493 6.418 11.493 13.267v95.359c0 3.699 3.01 6.708 6.709 6.708l.206-.003c3.586-.107 6.503-3.223 6.503-6.945v-95.514c0-7.142 5.809-12.952 12.949-12.952.195 0 .392.004.589.013 6.817.302 12.363 6.302 12.363 13.376v95.318c0 3.698 3.008 6.706 6.706 6.706l.206-.003c3.585-.107 6.501-3.222 6.501-6.942l-.001-70.152c0-7.141 5.811-12.951 12.953-12.951.194 0 .389.004.585.013 6.818.299 12.365 6.299 12.365 13.375v97.44c0 2.209 1.804 4.006 4.021 4.006 1.051 0 2.048-.418 2.807-1.178l15.352-15.351c2.871-2.871 6.688-4.452 10.749-4.452 4.315 0 8.302 1.757 11.227 4.949 5.32 5.807 4.94 15.588-.831 21.36l-58.22 66.799c-2.54 2.914-3.938 6.647-3.938 10.512v42.279l1 1.564c31.052 14.237 65.587 22.183 101.982 22.183 135.31 0 245-109.69 245-245s-109.69-245-245-245z" fill="#fee97d"/><g fill="#fedf30"><path d="m60.108 338.55.206-.003c3.585-.107 6.501-3.222 6.501-6.942l-.001-95.517c0-7.142 5.811-12.952 12.952-12.952.482 0 .973.027 1.458.08 5.751.627 10.258 5.099 11.275 10.814v-149.922c-14.479 12.916-27.416 27.526-38.499 43.519v206.97c1.053 2.327 3.392 3.953 6.108 3.953z"/><path d="m178.65 410-22.193 25.463c-2.54 2.914-3.938 6.647-3.938 10.512v7.525h224.481c2.761 0 5-2.239 5-5v-38.5z"/></g><path d="m414.5 0h-256l-1 4.818v57.182c0 2.206-1.794 4-4 4h-58l-4 1v339c0 2.761 2.239 5 5 5h318c2.761 0 5-2.239 5-5v-401c0-2.761-2.239-5-5-5z" fill="#f5f8f9"/><g><path d="m123.5 406v-339h-32v339c0 2.761 2.239 5 5 5h32c-2.761 0-5-2.239-5-5z" fill="#e8edf2"/></g><g><path d="m367.096 114.748h-23.458c-1.508 0-2.63-1.394-2.307-2.868l11.944-54.495c.536-2.445-2.599-3.934-4.156-1.975l-59.114 74.402c-1.23 1.548-.127 3.831 1.849 3.831h23.458c1.508 0 2.63 1.394 2.307 2.868l-7.979 36.406 8.354 9.79 50.951-64.128c1.23-1.547.127-3.831-1.849-3.831z" fill="#596c76"/><g fill="#465a61"><path d="m306.042 129.812 43.303-54.503 3.929-17.924c.536-2.445-2.599-3.934-4.156-1.975l-59.114 74.402c-1.23 1.548-.127 3.831 1.849 3.831h16.038c-1.976 0-3.079-2.283-1.849-3.831z"/><path d="m331.35 133.643h-16.038c1.508 0 2.63 1.394 2.307 2.868l-7.979 36.406 8.354 9.79 7.648-9.626 8.016-36.571c.322-1.472-.8-2.867-2.308-2.867z"/></g><path d="m201.36 172.917-7.979-36.406c-.323-1.473.799-2.868 2.307-2.868h23.458c1.977 0 3.079-2.283 1.849-3.831l-59.113-74.402c-1.557-1.959-4.692-.47-4.156 1.975l11.944 54.495c.323 1.473-.799 2.868-2.307 2.868h-23.458c-1.977 0-3.079 2.283-1.849 3.831l50.951 64.128z" fill="#596c76"/><g fill="#465a61"><path d="m201.36 172.917-.325-1.484-41.993-52.853c-1.23-1.548-.127-3.831 1.849-3.831h-16.987c-1.977 0-3.079 2.283-1.849 3.831l50.951 64.128z"/><path d="m169.67 111.881c.323 1.473-.799 2.868-2.307 2.868h16.987c1.508 0 2.63-1.394 2.307-2.868l-7.654-34.921-17.121-21.55c-1.557-1.959-4.692-.47-4.156 1.975z"/></g></g><g fill="#465a61"><g><path d="m220.498 253.836h-76.414l16.503-15.573c1.001-.945 1.568-2.26 1.568-3.637s-.567-2.692-1.568-3.637l-16.503-15.573h50l-6.875-10h-55.709c-2.049 0-3.89 1.25-4.646 3.154s-.275 4.077 1.215 5.483l21.802 20.573-21.803 20.574c-1.49 1.406-1.972 3.579-1.215 5.483s2.598 3.154 4.646 3.154h95.874z"/><g><path d="m323.791 205.417-6.875 10h43.947l10-10z"/><path d="m283.626 263.836h28.817l10-10h-31.942z"/></g></g><path d="m326.5 229.627h-19.354l-6.875 10h26.229c2.762 0 5-2.239 5-5s-2.238-5-5-5z"/><path d="m203.854 229.627h-19.354c-2.762 0-5 2.239-5 5s2.238 5 5 5h26.229z"/></g><g><g><path d="m326.223 190.811-22.637-26.528c-1.867-2.189-4.589-3.445-7.468-3.445h-81.236c-2.879 0-5.601 1.256-7.468 3.444l-22.637 26.53c-2.877 3.373-3.132 8.279-.621 11.932l63.255 92.003c1.832 2.664 4.856 4.254 8.089 4.254s6.257-1.59 8.089-4.254c0 0 0 0 0-.001l63.255-92.002c2.51-3.654 2.256-8.56-.621-11.933zm-58.92-19.974 6.488 21.029h-36.582l6.488-21.029zm6.868 31.029-18.671 75.097-18.671-75.097zm-30.18 70.255-48.302-70.255h30.835zm40.485-70.255h30.835l-48.302 70.254zm29.502-10h-29.722l-6.489-21.029h18.267zm-99.012-21.029h18.267l-6.489 21.029h-29.722z" fill="#596c76"/></g></g><g><path d="m268.797 121h-26.594c-1.786 0-3.437-.953-4.33-2.5l-13.298-23.032c-.894-1.547-.894-3.453 0-5l13.298-23.032c.894-1.547 2.544-2.5 4.33-2.5h26.594c1.786 0 3.437.953 4.33 2.5l13.298 23.032c.894 1.547.894 3.453 0 5l-13.298 23.032c-.894 1.547-2.544 2.5-4.33 2.5zm-23.707-10h20.82l10.411-18.032-10.411-18.031h-20.82l-10.411 18.032z" fill="#596c76"/></g><g><path d="m257.5 334h-94.456c-2.762 0-5-2.239-5-5s2.238-5 5-5h94.456c2.762 0 5 2.239 5 5s-2.238 5-5 5z" fill="#596c76"/></g><g><g><path d="m322.885 307.517-26.902-26.902-1.661-.071-16.305 32.826.392 2.393 9.328 9.328 2.393.392 32.826-16.305z" fill="#c5d3dd"/></g><g><path d="m278.017 313.37-5.349 10.77c-2.128 4.285 2.407 8.82 6.692 6.692l10.77-5.349z" fill="#596c76"/></g><g><path d="m478.384 150.369-25.054-25.054-2.685-1.094-156.323 156.323 28.634 28.634 156.323-156.323z" fill="#7a8c98"/></g><g><path d="m325.807 276.562 139.385-139.385-11.862-11.862-2.685-1.094-156.323 156.323 28.634 28.634 13.751-13.751-10.901-10.901c-2.199-2.199-2.199-5.765.001-7.964z" fill="#596c76"/></g><g><path d="m467.206 107.66-16.561 16.561 28.634 28.634 16.561-16.561c7.546-7.546 7.546-19.781 0-27.328l-1.307-1.307c-7.546-7.546-19.781-7.546-27.327.001z" fill="#596c76"/></g><g><path d="m473.596 120.239 16.102-16.102c-7.267-3.734-16.403-2.565-22.49 3.522l-16.562 16.562 28.634 28.634 9.484-9.484-15.168-15.168c-2.2-2.199-2.2-5.765 0-7.964z" fill="#465a61"/></g></g><g><g><path d="m216.245 346.629c5.766 6.292 5.173 16.708-.861 22.742l-58.173 66.749c-2.38 2.731-3.692 6.232-3.692 9.855v43.843c-58.18-26.671-104.099-75.456-127.019-135.597v-92.768c0-8.223 7.115-14.783 15.518-13.865 7.132.779 12.384 7.088 12.384 14.263v69.993c0 3.21 2.65 5.801 5.882 5.704 3.123-.094 5.531-2.819 5.531-5.943v-95.517c0-8.222 7.115-14.782 15.518-13.866 7.133.778 12.385 7.086 12.385 14.261v95.359c0 3.211 2.652 5.803 5.885 5.706 3.125-.094 5.533-2.82 5.533-5.946v-95.514c0-7.916 6.59-14.291 14.582-13.938 7.529.333 13.319 6.839 13.319 14.375v95.318c0 3.21 2.65 5.801 5.882 5.704 3.123-.094 5.531-2.819 5.531-5.943v-70.152c0-7.914 6.589-14.288 14.581-13.937 7.53.33 13.322 6.836 13.322 14.374v97.441c0 2.673 3.231 4.011 5.121 2.121l15.351-15.351c6.498-6.497 17.143-6.321 23.42.529z" fill="#01c0fa"/></g><g><path d="m42.269 247.618c-8.512-1.077-15.769 5.531-15.769 13.836v92.768c5.257 13.793 11.711 26.995 19.259 39.464-.257-2.298-.404-4.63-.404-6.998v-138.279c-.978-.376-2.006-.655-3.086-.791z" fill="#08a9f1"/></g></g><g><path d="m91.5 67h62c2.761 0 5-2.239 5-5v-62z" fill="#c5d3dd"/></g><g><g><path d="m164.5 191c-1.279 0-2.56-.488-3.535-1.464l-27-27c-1.953-1.953-1.953-5.119 0-7.071 1.951-1.952 5.119-1.952 7.07 0l27 27c1.953 1.953 1.953 5.119 0 7.071-.975.976-2.256 1.464-3.535 1.464z" fill="#596c76"/></g><g><path d="m346.5 191c-1.279 0-2.56-.488-3.535-1.464-1.953-1.953-1.953-5.119 0-7.071l27-27c1.951-1.952 5.119-1.952 7.07 0 1.953 1.953 1.953 5.119 0 7.071l-27 27c-.975.976-2.256 1.464-3.535 1.464z" fill="#596c76"/></g></g></g></svg>