<svg id="Capa_1" enable-background="new 0 0 512 512" height="512" viewBox="0 0 512 512" width="512" xmlns="http://www.w3.org/2000/svg"><g><path d="m146.171 292.759.379 1.37 1.161-.82c31.797-22.445 69.243-34.309 108.289-34.309 42.412 0 82.444 13.786 115.77 39.868l1.221.955.367-1.506c13.703-56.205 53.397-103.621 106.348-127.172l1.128-1.598c-37.683-86.817-124.16-147.547-224.834-147.547-99.472 0-185.096 59.282-223.475 144.443l1.027 1.478c54.869 21.516 96.915 68.076 112.619 124.838z" fill="#dff6fd"/><path d="m480.834 169.548c-53.625 23.275-94.345 70.688-108.448 128.533-32.084-25.111-72.486-40.081-116.386-40.081-40.537 0-78.088 12.767-108.865 34.492-16.041-57.978-59.016-104.762-114.61-126.049-13.827 30.681-21.525 64.72-21.525 100.557 0 72.476 31.479 137.591 81.5 182.447l72 44.879c17.582 7.084 36.173 12.188 55.5 15.035h72c19.328-2.846 37.917-7.951 55.5-15.035l72-44.879c50.021-44.856 81.5-109.971 81.5-182.447 0-34.635-7.202-67.584-20.166-97.452z" fill="#c8effe"/><path d="m222.25 244-2.25 1v264.361c11.751 1.73 23.769 2.639 36 2.639s24.249-.909 36-2.639v-264.361l-2.25-1z" fill="#c5d3dd"/><path d="m417.344 244h-67.5l-2.344 1v249.326c26.642-10.734 50.961-26.012 72-44.879v-204.447z" fill="#c5d3dd"/><path d="m422 43.5h-3.5v15h3.5c4.142 0 7.5 3.358 7.5 7.5v158c0 2.761 2.239 5 5 5h5c2.761 0 5-2.239 5-5v-158c0-12.426-10.074-22.5-22.5-22.5z" fill="#e8b800"/><g><path d="m295.5 43.5h-4.5v15h4.5c4.142 0 7.5 3.358 7.5 7.5v158c0 2.761 2.239 5 5 5h5c2.761 0 5-2.239 5-5v-158c0-12.426-10.074-22.5-22.5-22.5z" fill="#08a9f1"/><g><path d="m244 245h-24v264.361c7.884 1.161 15.891 1.943 24 2.338z" fill="#b6c4cf"/><path d="m263.5 384.806h-15c-2.761 0-5-2.239-5-5v-101.806c0-2.761 2.239-5 5-5h15c2.761 0 5 2.239 5 5v101.806c0 2.761-2.239 5-5 5z" fill="#8d9ca8"/><path d="m270.973 0h-29.947c-3.682 0-7.066 2.023-8.808 5.266l-9.239 17.191c-1.956 3.639-2.979 7.705-2.979 11.835v210.708h72v-210.708c0-4.131-1.023-8.197-2.979-11.835l-9.239-17.191c-1.743-3.243-5.127-5.266-8.809-5.266z" fill="#01c0fa"/><path d="m246.979 22.457 9.239-17.191c1.743-3.243 5.127-5.266 8.809-5.266h-24c-3.682 0-7.065 2.023-8.808 5.266l-9.239 17.191c-1.957 3.639-2.98 7.705-2.98 11.835v210.708h24v-210.708c0-4.13 1.023-8.196 2.979-11.835z" fill="#08a9f1"/><circle cx="256" cy="415.306" fill="#01c0fa" r="12.5"/><circle cx="256" cy="453.306" fill="#8d9ca8" r="12.5"/></g></g><g><g><path d="m111.5 138h34c.169 0 .333.016.5.025v-44.013c0-7.286-7.543-12.127-14.167-9.091l-15 6.875c-3.555 1.629-5.833 5.181-5.833 9.091v37.139c.167-.01.331-.026.5-.026z" fill="#a2e62e"/></g><g><path d="m111.5 138h15.5v-28.18c0-3.91 2.279-7.462 5.833-9.091l13.167-6.035v-.683c0-7.286-7.543-12.127-14.167-9.091l-15 6.875c-3.555 1.629-5.833 5.181-5.833 9.091v37.139c.167-.009.331-.025.5-.025z" fill="#97d729"/></g><path d="m102.5 198h52c.338 0 .671.022 1 .059v-51.059c0-5.523-4.477-10-10-10h-34c-5.523 0-10 4.477-10 10v51.059c.329-.037.662-.059 1-.059z" fill="#b6c4cf"/><g><path d="m126 147c0-5.523 4.477-10 10-10h-24.5c-5.523 0-10 4.477-10 10v51.059c.329-.037.662-.059 1-.059h23.5z" fill="#9facba"/></g><g><g><g><path d="m154.5 197h-52c-5.523 0-10 4.477-10 10v242.447c21.039 18.867 45.358 34.145 72 44.879v-287.326c0-5.523-4.477-10-10-10z" fill="#c5d3dd"/><path d="m117 207c0-5.523 4.477-10 10-10h-24.5c-5.523 0-10 4.477-10 10v242.447c7.738 6.939 15.923 13.388 24.5 19.308z" fill="#b6c4cf"/><path d="m136 384.806h-15c-2.761 0-5-2.239-5-5v-101.806c0-2.761 2.239-5 5-5h15c2.761 0 5 2.239 5 5v101.806c0 2.761-2.239 5-5 5z" fill="#8d9ca8"/><circle cx="128.5" cy="415.306" fill="#a2e62e" r="12.5"/><circle cx="128.5" cy="453.306" fill="#8d9ca8" r="12.5"/></g></g><g><g><path d="m372 245h-24.5v249.326c8.409-3.388 16.584-7.23 24.5-11.494z" fill="#b6c4cf"/><path d="m391 384.806h-15c-2.761 0-5-2.239-5-5v-101.806c0-2.761 2.239-5 5-5h15c2.761 0 5 2.239 5 5v101.806c0 2.761-2.239 5-5 5z" fill="#8d9ca8"/><path d="m398.473 0h-29.947c-3.682 0-7.066 2.023-8.808 5.266l-9.239 17.191c-1.955 3.638-2.979 7.705-2.979 11.835v210.708h72v-210.708c0-4.131-1.023-8.197-2.979-11.835l-9.239-17.191c-1.743-3.243-5.127-5.266-8.809-5.266z" fill="#fac600"/><path d="m374.979 22.457 9.239-17.191c1.743-3.243 5.127-5.266 8.809-5.266h-24.5c-3.682 0-7.065 2.023-8.808 5.266l-9.239 17.191c-1.955 3.638-2.979 7.705-2.979 11.835v210.708h24.499v-210.708c0-4.13 1.023-8.196 2.979-11.835z" fill="#e8b800"/><circle cx="383.5" cy="415.306" fill="#fac600" r="12.5"/><circle cx="383.5" cy="453.306" fill="#8d9ca8" r="12.5"/></g></g></g></g></g></svg>