<svg id="Capa_1" enable-background="new 0 0 512 512" height="512" viewBox="0 0 512 512" width="512" xmlns="http://www.w3.org/2000/svg"><g><path d="m256 22c-135.31 0-245 109.69-245 245 0 33.437 6.708 65.305 18.836 94.344l75.802 99.089c11.066 8.614 22.896 16.296 35.362 22.936l1-.601v-80.768h228v80.769l1 .601c12.465-6.641 24.296-14.322 35.362-22.936l75.802-99.089c12.128-29.04 18.836-60.908 18.836-94.345 0-135.31-109.69-245-245-245z" fill="#a2e62e"/><g><path d="m482.164 149.974c0-44.183-35.817-80-80-80h-76.502c-7.166 0-13.332-5.069-14.717-12.1l-10.075-51.12c-.774-3.925-4.215-6.754-8.215-6.754h-73.31c-4 0-7.441 2.829-8.215 6.754l-10.074 51.121c-1.386 7.031-7.551 12.1-14.717 12.1h-76.503c-44.183 0-80 35.817-80 80v61.143c0 9.099 3.413 17.396 9.023 23.696-5.623 6.612-9.023 15.174-9.023 24.534v101.998c16.393 39.251 42.703 73.323 75.802 99.089v-234.704c-4.448-9.67-6.948-20.415-6.948-31.738v-53.321c0-3.584 2.916-6.5 6.5-6.5l.199.003c3.475.104 6.301 3.159 6.301 6.811v53.007c0 34.866 28.365 63.231 63.231 63.231h36.021c8.318 0 16.469-2.874 22.948-8.091l5.149-4.146c6.646-5.352 10.459-13.315 10.459-21.849v-23.453c0-3.584 2.916-6.5 6.5-6.5l.199.003c3.475.104 6.301 3.159 6.301 6.811v23.139c0 8.533 3.812 16.497 10.458 21.849l5.149 4.147c6.479 5.217 14.629 8.091 22.947 8.091h35.702c35.043 0 63.553-28.51 63.553-63.553v-52.686c0-3.652 2.826-6.708 6.301-6.811l.199-.003c3.584 0 6.5 2.916 6.5 6.5v53c0 11.346-2.5 22.112-6.948 31.807v234.955c33.1-25.766 59.409-59.838 75.802-99.089v-101.998c0-9.36-3.4-17.922-9.023-24.534 5.61-6.299 9.023-14.597 9.023-23.696v-61.143z" fill="#ffe5c2"/></g><g><path d="m406.58 133.176c-4.105.123-7.27 3.704-7.27 7.811v52.685c0 34.547-28.006 62.553-62.553 62.553h-35.702c-8.12 0-15.996-2.777-22.32-7.87l-5.15-4.147c-6.377-5.135-10.085-12.882-10.085-21.07v-16.345l-5.768-9.99c-.361-.626-1.009-1-1.732-1s-1.371.374-1.732 1l-5.768 9.99v16.345c0 8.188-3.708 15.935-10.086 21.071l-5.149 4.146c-6.325 5.093-14.201 7.87-22.321 7.87h-36.021c-34.37 0-62.231-27.862-62.231-62.231v-53.007c0-4.107-3.165-7.688-7.27-7.811-4.248-.127-7.73 3.278-7.73 7.497v53.321c0 21.611 8.886 41.138 23.192 55.155l20.116 151.851 3.594 1h222.812l3.594-1 20.146-152.062c14.293-14.067 23.164-33.627 23.164-55.266v-53c0-4.218-3.483-7.623-7.73-7.496z" fill="#fed2a4"/></g><g fill="#fed2a4"><path d="m59.673 259.347c0-8.035 2.505-15.481 6.772-21.611 1.219-1.752 1.192-4.068-.057-5.8-4.224-5.857-6.715-13.046-6.715-20.819v-61.143c0-44.183 35.817-80 80-80h-29.836c-44.183 0-80 35.817-80 80v61.143c0 9.099 3.413 17.396 9.023 23.696-5.623 6.612-9.023 15.174-9.023 24.534v101.998c7.807 18.694 17.868 36.209 29.836 52.215z"/><path d="m230.892 57.875 10.074-51.121c.774-3.925 4.216-6.754 8.216-6.754h-29.836c-4 0-7.441 2.829-8.215 6.754l-10.074 51.121c-1.386 7.031-7.551 12.1-14.717 12.1h29.836c7.166-.001 13.331-5.069 14.716-12.1z"/></g><g><path d="m112.69 193.994v-53.007c0-4.107-3.165-7.688-7.27-7.811-4.248-.127-7.73 3.278-7.73 7.497v53.321c0 21.611 8.886 41.138 23.192 55.155l20.118 151.851h34.31l-19.582-147.806c-24.974-8.092-43.038-31.531-43.038-59.2z" fill="#ffbd86"/></g><path d="m254.206 312.115c.345-.698 1.016-1.115 1.794-1.115s1.449.417 1.794 1.115l5.706 11.562v-59.177c0-4.142-3.357-7.5-7.5-7.5s-7.5 3.358-7.5 7.5v59.178z" fill="#ffbd86"/><path d="m380.366 117.76c-.126-.548-.698-.873-1.24-.724l-101.999 29.505c-2.193.602-4.516-.352-5.653-2.322l-14.608-25.301c-.385-.667-1.347-.667-1.732 0l-14.608 25.301c-1.137 1.969-3.46 2.924-5.653 2.322l-101.998-29.505c-.542-.149-1.114.176-1.24.724-2.962 12.828 4.709 25.82 17.522 29.336l30.217 9.811h-37.367c-.562 0-1.028.465-1.005 1.026.538 13.155 11.373 23.655 24.66 23.655h22.292c1.188 0 1.385 1.703.227 1.974l-26.094 6.095c-1.134.265-1.82 1.445-1.458 2.552 3.933 12.043 16.5 19.28 29.067 16.344l44.081-10.296c.852-.199 1.531.716 1.093 1.474l-8.608 14.91c-.385.667.096 1.5.866 1.5h16.553c.357 0 .687-.191.866-.5l10.587-18.337c.385-.667 1.347-.667 1.732 0l10.587 18.337c.179.309.509.5.866.5h16.553c.77 0 1.251-.833.866-1.5l-8.608-14.91c-.438-.758.241-1.673 1.094-1.474l44.081 10.296c12.583 2.939 25.167-3.541 29.083-15.531.355-1.086-.297-2.25-1.402-2.542l-26.167-6.918c-1.157-.27-.961-1.974.227-1.974h22.292c13.287 0 24.122-10.5 24.66-23.655.023-.562-.442-1.026-1.005-1.026h-37.367l30.218-9.811c12.813-3.515 20.483-16.507 17.522-29.336zm-149.536 43.358-15.631 23.437c-.396.594-1.268.594-1.664 0l-15.631-23.437c-.443-.665.033-1.555.832-1.555h31.262c.799 0 1.275.89.832 1.555zm40.801 23.882h-31.262c-.799 0-1.275-.89-.832-1.555l15.631-23.437c.396-.594 1.268-.594 1.664 0l15.631 23.437c.443.665-.033 1.555-.832 1.555zm42.465-23.882-15.631 23.437c-.396.594-1.268.594-1.664 0l-15.631-23.437c-.443-.665.033-1.555.832-1.555h31.262c.798 0 1.275.89.832 1.555z" fill="#596c76"/><g fill="#465a61"><path d="m179.374 156.907h17l-30.218-9.811c-11.589-3.18-18.97-14.112-18.083-25.664l-15.199-4.396c-.542-.149-1.114.176-1.24.724-2.962 12.828 4.709 25.82 17.522 29.336z"/><path d="m177.629 192.209c-.362-1.107.325-2.287 1.458-2.552l26.094-6.095c1.157-.27.961-1.974-.228-1.974h-17c1.188 0 1.385 1.703.227 1.974l-26.094 6.095c-1.134.265-1.82 1.445-1.458 2.552 3.933 12.043 16.5 19.28 29.067 16.344l3.204-.748c-7.043-2.482-12.825-8.109-15.27-15.596z"/><path d="m182.662 181.588c-13.287 0-24.122-10.5-24.66-23.655-.023-.562.442-1.026 1.005-1.026h-17c-.562 0-1.028.465-1.005 1.026.538 13.155 11.373 23.655 24.66 23.655z"/></g><g><g><path d="m236.5 117.5c-1.919 0-3.839-.732-5.304-2.197l-8.071-8.071c-.465-.465-1.109-.732-1.768-.732h-93.857c-4.143 0-7.5-3.358-7.5-7.5s3.357-7.5 7.5-7.5h93.857c4.675 0 9.069 1.82 12.375 5.125l8.071 8.071c2.929 2.929 2.929 7.678 0 10.606-1.464 1.466-3.384 2.198-5.303 2.198z" fill="#fed2a4"/></g><g><path d="m275.5 117.5c-1.919 0-3.839-.732-5.304-2.197-2.929-2.929-2.929-7.678 0-10.606l8.071-8.071c3.306-3.305 7.7-5.125 12.375-5.125h93.858c4.143 0 7.5 3.358 7.5 7.5s-3.357 7.5-7.5 7.5h-93.857c-.658 0-1.303.267-1.768.732l-8.071 8.071c-1.465 1.464-3.385 2.196-5.304 2.196z" fill="#fed2a4"/></g></g><g><path d="m275.145 402h15.842c-.472-6.893-.862-13.232 4.324-18.418 4.015-4.015 9.125-3.577 13.14.438 3.87 3.87 2.993 7.665.438 10.22-2.409 2.409-6.424 3.796-9.563 2.993-.144 2.015.566 3.603 1.705 4.767h12.041c.492-.382.974-.799 1.438-1.263 4.028-4.028 4.407-8.485 3.295-12.434 4.411 1.733 8.973 2.467 12.683 2.467 22.052 0 37.224-16.511 37.224-35.822 0-30.542-30.817-31.775-30.817-53.278 0-7.533 5.205-11.916 12.738-11.916 7.26 0 9.999 4.383 9.999 9.177 0 4.52-2.465 9.587-6.163 11.779 1.78 2.055 3.972 2.877 6.163 2.877 7.123 0 11.368-6.026 11.368-13.834 0-15.34-15.751-18.248-23.01-18.248-16.298 0-32.597 12.906-32.597 27.287 0 20.407 29.584 26.023 29.584 51.772 0 10.135-4.246 19.585-15.066 19.585-6.437 0-13.559-3.972-13.559-13.148 0-9.45 4.93-14.107 16.025-15.066-1.096-4.931-4.931-6.985-11.094-6.985-10.546 0-20.134 6.848-20.134 19.723 0 2.982.426 5.654 1.177 8.05-7.951-2.869-16.989-2.09-22.272 3.194-6.707 6.707-4.429 16.41-4.909 26.083z" fill="#596c76"/><g fill="#465a61"><path d="m344.977 360.564c0 8.6-3.075 16.684-10.612 18.942 1.444.426 2.942.643 4.406.643 10.821 0 15.066-9.45 15.066-19.585 0-25.75-29.584-31.365-29.584-51.772 0-13.071 13.465-24.921 28.156-26.972-1.643-.225-3.161-.315-4.42-.315-16.298 0-32.597 12.906-32.597 27.287.001 20.407 29.585 26.023 29.585 51.772z"/><path d="m288.915 375.917c2.329-2.328 5.387-3.78 8.759-4.432-6.622-1.165-13.348.16-17.62 4.432-6.707 6.707-4.428 16.411-4.909 26.083h8.861c.481-9.673-1.798-19.376 4.909-26.083z"/></g><path d="m152.368 313.586c2.191 0 4.383-.822 6.163-2.877-3.698-2.191-6.163-7.259-6.163-11.779 0-4.794 2.739-9.177 9.999-9.177 7.533 0 12.738 4.383 12.738 11.916 0 21.503-30.817 22.736-30.817 53.278 0 19.312 15.173 35.822 37.224 35.822 3.71 0 8.272-.735 12.683-2.467-1.112 3.949-.733 8.405 3.295 12.434.464.464.946.881 1.438 1.263h12.041c1.139-1.164 1.849-2.751 1.705-4.767-3.139.803-7.154-.584-9.563-2.993-2.555-2.555-3.431-6.351.438-10.22 4.015-4.015 9.125-4.453 13.14-.438 5.186 5.186 4.797 11.525 4.324 18.418h15.842c-.481-9.673 1.798-19.376-4.909-26.083-5.284-5.284-14.321-6.063-22.272-3.194.751-2.396 1.177-5.068 1.177-8.05 0-12.874-9.588-19.723-20.134-19.723-6.163 0-9.999 2.054-11.094 6.985 11.094.959 16.025 5.615 16.025 15.066 0 9.177-7.122 13.148-13.559 13.148-10.821 0-15.066-9.45-15.066-19.585 0-25.75 29.584-31.365 29.584-51.772 0-14.381-16.299-27.287-32.597-27.287-7.259 0-23.01 2.908-23.01 18.248 0 7.808 4.245 13.834 11.368 13.834z" fill="#596c76"/><g fill="#465a61"><path d="m203.787 367.001c0-9.45-4.93-14.107-16.025-15.066.833-3.75 3.256-5.833 7.079-6.617-1.345-.239-2.724-.368-4.123-.368-6.163 0-9.999 2.054-11.094 6.985 11.094.959 16.025 5.615 16.025 15.066 0 7.27-4.472 11.262-9.53 12.612 1.252.339 2.612.536 4.11.536 6.436.001 13.558-3.971 13.558-13.148z"/><path d="m152.368 313.586c1.266 0 2.529-.286 3.716-.914-4.416-1.958-6.945-6.904-6.945-12.92 0-12.863 11.073-16.983 18.929-17.978-1.347-.172-2.702-.269-4.059-.269-7.259 0-23.01 2.908-23.01 18.248.001 7.807 4.246 13.833 11.369 13.833z"/><path d="m152.426 354.948c0-30.542 30.817-31.775 30.817-53.278 0-7.533-5.205-11.916-12.738-11.916-1.492 0-2.783.194-3.908.529 5.178 1.368 8.507 5.368 8.507 11.387 0 21.503-30.817 22.736-30.817 53.278 0 19.312 15.173 35.822 37.224 35.822 1.163 0 2.417-.082 3.716-.234-19.629-2.044-32.801-17.597-32.801-35.588z"/></g></g><path d="m141 483.37c34.294 18.265 73.434 28.63 115 28.63s80.706-10.365 115-28.63v-82.37h-230z" fill="#b6c4cf"/><path d="m175.31 401h-34.31v82.37c10.967 5.841 22.431 10.869 34.31 15.014z" fill="#9facba"/><path d="m141 401h230v31h-230z" fill="#8d9ca8"/><path d="m141 401h34.31v31h-34.31z" fill="#7a8c98"/><g fill="#596c76"><g><path d="m299.949 210.329 13.455 29.812c.288.637 1.124.79 1.619.296l16.356-16.356c.495-.495.342-1.331-.296-1.619l-29.812-13.455c-.839-.379-1.701.483-1.322 1.322z"/><path d="m212.051 210.329-13.455 29.812c-.288.637-1.124.79-1.619.296l-16.356-16.356c-.495-.495-.342-1.331.296-1.619l29.812-13.455c.839-.379 1.701.483 1.322 1.322z"/></g><g><path d="m152.28 193.248 9.538 14.74c.406.628.004 1.464-.74 1.538l-34.682 3.468c-1.016.102-1.513-1.206-.686-1.805l25.145-18.208c.463-.336 1.114-.214 1.425.267z"/><path d="m359.72 193.248-9.538 14.74c-.406.628-.004 1.464.74 1.538l34.682 3.468c1.016.102 1.513-1.206.686-1.805l-25.145-18.208c-.463-.336-1.114-.214-1.425.267z"/></g><g><path d="m173.5 228.435-9.192 9.192c-.781.781-2.047.781-2.828 0l-9.192-9.192c-.781-.781-.781-2.047 0-2.828l9.192-9.192c.781-.781 2.047-.781 2.828 0l9.192 9.192c.781.781.781 2.047 0 2.828z"/><path d="m359.713 228.435-9.192 9.192c-.781.781-2.047.781-2.828 0l-9.192-9.192c-.781-.781-.781-2.047 0-2.828l9.192-9.192c.781-.781 2.047-.781 2.828 0l9.192 9.192c.781.781.781 2.047 0 2.828z"/></g><g><path d="m142.808 182.222-9.192 9.192c-.781.781-2.047.781-2.828 0l-9.192-9.192c-.781-.781-.781-2.047 0-2.828l9.192-9.192c.781-.781 2.047-.781 2.828 0l9.192 9.192c.781.78.781 2.047 0 2.828z"/><path d="m390.406 182.222-9.192 9.192c-.781.781-2.047.781-2.828 0l-9.192-9.192c-.781-.781-.781-2.047 0-2.828l9.192-9.192c.781-.781 2.047-.781 2.828 0l9.192 9.192c.781.78.781 2.047 0 2.828z"/></g><path d="m258.69 311.672 7.708 15.619c.437.885 1.282 1.499 2.259 1.641l17.237 2.505c2.461.358 3.443 3.381 1.663 5.117l-12.473 12.158c-.707.689-1.03 1.682-.863 2.655l2.944 17.167c.42 2.451-2.152 4.32-4.353 3.163l-15.417-8.105c-.874-.459-1.918-.459-2.792 0l-15.417 8.105c-2.201 1.157-4.773-.712-4.353-3.163l2.944-17.167c.167-.973-.156-1.966-.863-2.655l-12.473-12.158c-1.781-1.736-.798-4.76 1.663-5.117l17.237-2.505c.977-.142 1.822-.756 2.259-1.641l7.708-15.619c1.102-2.229 4.282-2.229 5.382 0z"/></g><g><path d="m250.3 364.534 2.944-17.167c.167-.973-.156-1.966-.863-2.655l-12.473-12.158c-.872-.85-1.078-2.007-.776-3.01l-13.028 1.893c-2.461.358-3.443 3.381-1.663 5.117l12.473 12.158c.707.689 1.03 1.682.863 2.655l-2.944 17.167c-.42 2.451 2.152 4.32 4.353 3.162l11.168-5.871c-.106-.399-.132-.835-.054-1.291z" fill="#465a61"/></g></g></svg>