<svg id="Capa_1" enable-background="new 0 0 512 512" height="512" viewBox="0 0 512 512" width="512" xmlns="http://www.w3.org/2000/svg"><g><g><path d="m479.719 356c13.671-30.537 21.281-64.378 21.281-100 0-135.31-109.69-245-245-245s-245 109.69-245 245c0 35.622 7.61 69.463 21.281 100z" fill="#99e6fc"/></g><path d="m54.944 396c44.271 63.467 117.806 105 201.056 105s156.785-41.533 201.056-105z" fill="#978ecb"/><g><path d="m171.977 75.553h13.27c9.223 0 18.096 3.89 24.346 10.672 2.245 2.436 5.433 3.833 8.745 3.833s6.5-1.397 8.745-3.833c6.25-6.782 15.123-10.672 24.346-10.672h9.143c9.223 0 18.096 3.89 24.346 10.672 2.245 2.436 5.433 3.833 8.745 3.833s6.5-1.397 8.745-3.833c6.25-6.782 15.123-10.672 24.346-10.672h13.676c2.839 0 5.64.729 8.098 2.11 6.091 3.418 9.235 10.508 7.825 17.642l-12.923 99.695h29.547l17.647-136.178c1.586-8.026-1.927-16.379-9.061-20.383-2.767-1.553-5.958-2.438-9.357-2.438h-14.901c-10.382 0-20.291 4.343-27.327 11.978-4.7 5.1-12.754 5.1-17.454 0-7.035-7.636-16.944-11.979-27.327-11.979h-9.962c-10.382 0-20.291 4.343-27.327 11.978-4.7 5.1-12.754 5.1-17.454 0-7.035-7.635-16.944-11.978-27.326-11.978h-14.901c-3.399 0-6.59.885-9.357 2.438-7.134 4.004-10.647 12.357-9.061 20.383z" fill="#dff6fd"/><g><path d="m203.809 58.822c-1.586-8.026 1.927-16.379 9.061-20.383.463-.26.942-.494 1.428-.715-3.579-1.128-7.342-1.723-11.17-1.723h-14.901c-3.399 0-6.59.885-9.357 2.438-7.134 4.004-10.647 12.357-9.061 20.383l2.168 16.731h13.27c8.353 0 16.412 3.199 22.502 8.839z" fill="#c8effe"/></g><path d="m167.561 195h176.877l12.894-99.501c1.456-7.366-1.768-15.033-8.316-18.708-2.539-1.425-5.469-2.238-8.588-2.238h-13.676c-9.529 0-18.624 3.986-25.081 10.994-4.314 4.681-11.705 4.681-16.019 0-6.457-7.008-15.552-10.994-25.081-10.994h-9.143c-9.529 0-18.624 3.986-25.081 10.994-4.314 4.681-11.705 4.681-16.019 0-6.458-7.008-15.552-10.994-25.081-10.994h-13.676c-3.119 0-6.049.813-8.588 2.238-6.548 3.675-9.772 11.342-8.316 18.708z" fill="#fff"/><g><path d="m196.661 76.791c.098-.055.2-.103.299-.156-3.715-1.359-7.674-2.082-11.713-2.082h-13.676c-3.119 0-6.049.813-8.588 2.238-6.548 3.675-9.772 11.342-8.316 18.708l12.894 99.501h33.678l-12.894-99.501c-1.456-7.367 1.768-15.033 8.316-18.708z" fill="#f5f8f9"/></g><path d="m417 194h-322c-11.046 0-20 8.954-20 20v133c0 3.241.788 6.292 2.157 9h357.686c1.369-2.708 2.157-5.759 2.157-9v-133c0-11.046-8.954-20-20-20z" fill="#01c0fa"/><path d="m123 347v-133c0-11.046 8.954-20 20-20h-48c-11.046 0-20 8.954-20 20v133c0 3.241.788 6.292 2.157 9h48c-1.369-2.708-2.157-5.759-2.157-9z" fill="#08a9f1"/><path d="m359 311h-206c-5.523 0-10-4.477-10-10v-44c0-5.523 4.477-10 10-10h206c5.523 0 10 4.477 10 10v44c0 5.523-4.477 10-10 10z" fill="#fee97d"/><path d="m193 287c-5.523 0-10-4.477-10-10v-30h-30c-5.523 0-10 4.477-10 10v44c0 5.523 4.477 10 10 10h206c5.523 0 10-4.477 10-10v-14z" fill="#fedf30"/></g><path d="m502 397h-492c-5.523 0-10-4.477-10-10v-22c0-5.523 4.477-10 10-10h492c5.523 0 10 4.477 10 10v22c0 5.523-4.477 10-10 10z" fill="#8379c1"/><path d="m67 381c-5.523 0-10-4.477-10-10v-16h-47c-5.523 0-10 4.477-10 10v22c0 5.523 4.477 10 10 10h492c5.523 0 10-4.477 10-10v-6z" fill="#6e61b6"/></g></svg>