<svg id="Capa_1" enable-background="new 0 0 512 512" height="512" viewBox="0 0 512 512" width="512" xmlns="http://www.w3.org/2000/svg"><g><path d="m256 22c-135.31 0-245 109.69-245 245 0 29.136 5.097 57.079 14.43 83l4.804 1h451.533l4.804-1c9.333-25.921 14.43-53.864 14.43-83-.001-135.31-109.691-245-245.001-245z" fill="#c8effe"/><path d="m256 81c-102.725 0-186 83.275-186 186 0 30.228 7.217 58.767 20.012 84h331.976c12.795-25.233 20.012-53.772 20.012-84 0-102.725-83.275-186-186-186z" fill="#dff6fd"/><g><path d="m350 257h-51.101l-8.493 15h59.594z" fill="#7a8c98"/><g><path d="m407 281h-53c-2.761 0-5-2.239-5-5v-23c0-2.761 2.239-5 5-5h53c2.761 0 5 2.239 5 5v23c0 2.761-2.239 5-5 5z" fill="#c5d3dd"/></g><path d="m373 276v-23c0-2.761 2.239-5 5-5h-24c-2.761 0-5 2.239-5 5v23c0 2.761 2.239 5 5 5h24c-2.761 0-5-2.239-5-5z" fill="#b6c4cf"/><g><path d="m25.43 350c34.008 94.457 124.396 162 230.57 162s196.562-67.543 230.57-162z" fill="#ffe5c2"/></g><g><path d="m399.75 456h-287.5c-5.523 0-10-4.477-10-10 0-5.523 4.477-10 10-10h287.5c5.523 0 10 4.477 10 10 0 5.523-4.477 10-10 10z" fill="#fed2a4"/></g><g><path d="m246 406.352c3.015-1.502 6.409-2.352 10-2.352s6.985.85 10 2.352v-22.352h-20z" fill="#465a61"/></g><g><path d="m231 114.716h50v73.284h-50z" fill="#596c76"/></g><g><path d="m231 114.716h22v73.284h-22z" fill="#465a61"/></g><path d="m238 283.459h36v38.541h-36z" fill="#c5d3dd"/><path d="m238 283.459h16v38.541h-16z" fill="#b6c4cf"/><path d="m284 366v-35c0-5.523-4.477-10-10-10h-36c-5.523 0-10 4.477-10 10v35z" fill="#8d9ca8"/><path d="m262 321h-24c-5.523 0-10 4.477-10 10v35h24v-35c0-5.523 4.477-10 10-10z" fill="#7a8c98"/><g><path d="m198.927 234 25.7 45.387c1.775 3.135 5.099 5.073 8.702 5.073h45.341c3.603 0 6.927-1.938 8.702-5.073l25.7-45.387z" fill="#596c76"/></g><g><path d="m258.555 279.387-25.7-45.387h-33.927l25.7 45.387c1.775 3.135 5.099 5.073 8.702 5.073h33.927c-3.603-.001-6.927-1.939-8.702-5.073z" fill="#465a61"/></g><g><path d="m354 235h-196c-8.284 0-15-6.716-15-15v-18c0-8.284 6.716-15 15-15h196c8.284 0 15 6.716 15 15v18c0 8.284-6.716 15-15 15z" fill="#8d9ca8"/></g><path d="m198 219c-8.284 0-15-6.716-15-15v-17h-25c-8.284 0-15 6.716-15 15v18c0 8.284 6.716 15 15 15h196c8.284 0 15-6.716 15-15v-1z" fill="#7a8c98"/><path d="m371.036 404.951-35.061-30.24c-7.26-6.262-16.538-9.71-26.125-9.71h-107.7c-9.587 0-18.866 3.449-26.125 9.71l-35.061 30.24c6.775 2.036 12.215 7.182 14.65 13.775l33.474-28.871c3.629-3.131 8.268-4.855 13.062-4.855h107.7c4.793 0 9.433 1.724 13.062 4.855l33.473 28.871c2.436-6.593 7.876-11.739 14.651-13.775z" fill="#596c76"/><g><circle cx="256" cy="426.5" fill="#8d9ca8" r="23.5"/></g><path d="m249 426.5c0-10.075 6.342-18.666 15.25-22.007-2.567-.963-5.346-1.493-8.25-1.493-12.979 0-23.5 10.521-23.5 23.5s10.521 23.5 23.5 23.5c2.904 0 5.683-.53 8.25-1.493-8.908-3.341-15.25-11.932-15.25-22.007z" fill="#7a8c98"/><g><g><circle cx="134.5" cy="426.5" fill="#8d9ca8" r="23.5"/></g><path d="m127 426.5c0-10.169 6.46-18.828 15.5-22.101-2.497-.904-5.191-1.399-8-1.399-12.979 0-23.5 10.521-23.5 23.5s10.521 23.5 23.5 23.5c2.809 0 5.503-.495 8-1.399-9.04-3.273-15.5-11.932-15.5-22.101z" fill="#7a8c98"/><g><circle cx="377.5" cy="426.5" fill="#8d9ca8" r="23.5"/></g><path d="m370 426.5c0-10.169 6.46-18.828 15.5-22.101-2.497-.904-5.191-1.399-8-1.399-12.979 0-23.5 10.521-23.5 23.5s10.521 23.5 23.5 23.5c2.809 0 5.503-.495 8-1.399-9.04-3.273-15.5-11.932-15.5-22.101z" fill="#7a8c98"/></g><g><g><path d="m310.27 115.716h-108.54c-20.285 0-36.73-16.444-36.73-36.73v-62.134c0-9.307 7.545-16.852 16.852-16.852h148.296c9.307 0 16.852 7.545 16.852 16.852v62.134c0 20.286-16.444 36.73-36.73 36.73z" fill="#8d9ca8"/></g><g><path d="m197 78.986v-18.296c-6.244 4.906-14.111 7.841-22.668 7.841h-9.332v10.455c0 20.285 16.444 36.73 36.73 36.73h32c-20.286 0-36.73-16.445-36.73-36.73z" fill="#7a8c98"/></g><g><path d="m174.332 68.531h-9.332v-51.679c0-9.307 7.545-16.852 16.852-16.852h29.21v31.801c0 20.285-16.445 36.73-36.73 36.73z" fill="#596c76"/></g><g><path d="m347 68.531h-9.332c-20.285 0-36.73-16.444-36.73-36.73v-31.801h29.21c9.307 0 16.852 7.545 16.852 16.852z" fill="#7a8c98"/></g></g></g><g fill="#b6c4cf"><circle cx="256" cy="426.5" r="8.5"/><circle cx="134.5" cy="426.5" r="8.5"/><circle cx="377.5" cy="426.5" r="8.5"/></g><path d="m165 16.852v51.679h9.332c8.557 0 16.424-2.934 22.668-7.841v-43.838c0-8.354 6.086-15.27 14.062-16.602v-.25h-29.21c-9.307 0-16.852 7.545-16.852 16.852z" fill="#465a61"/></g></svg>