<svg id="Capa_1" enable-background="new 0 0 512 512" height="512" viewBox="0 0 512 512" width="512" xmlns="http://www.w3.org/2000/svg"><g><g><g><circle cx="256" cy="267" fill="#99e6fc" r="245"/></g></g><path d="m96 440v12.539c10.083 8.703 20.885 16.596 32.302 23.582h255.396c11.417-6.987 22.219-14.879 32.302-23.582v-12.539z" fill="#c8effe"/><path d="m96 440v12.539c2.381 2.055 4.809 4.058 7.269 6.022h305.461c2.46-1.964 4.888-3.966 7.269-6.022v-12.539z" fill="#dff6fd"/><g><path d="m411.073 63.44h-310.146l-4.927 1.066v376.494h320v-376.494z" fill="#fff"/></g><path d="m96 64.506h64v376.494h-64z" fill="#f5f8f9"/><g><path d="m190 93.851c0-5.523-4.477-10-10-10h-51.809c-5.523 0-10 4.477-10 10s4.477 10 10 10h51.809c5.523 0 10-4.477 10-10z" fill="#c8effe"/></g><g><path d="m400 0h-288c-8.837 0-16 7.163-16 16v48.506h320v-48.506c0-8.837-7.163-16-16-16z" fill="#fe76a8"/></g><g><path d="m176 0h-64c-8.837 0-16 7.163-16 16v48.506h64v-48.506c0-8.837 7.163-16 16-16z" fill="#fe5694"/></g><path d="m405.7 242.455-26.322-15.197v-29.507c0-2.761-2.239-5-5-5s-5 2.239-5 5v23.733l-10.646-6.147c-1.547-.894-3.453-.894-5 0-1.547.893-2.5 2.544-2.5 4.33v54.234c0 1.786.953 3.437 2.5 4.33s3.453.893 5 0l10.646-6.147v21.662l-66.416 66.416h-13.65l28.819-49.915c4.499-4.644 8.344-9.83 10.93-15.284 7.633-16.099-10.036-35.146-27.025-48.768h32.789c3.739-.138 6.805-2.559 7.861-4.176 3.465-4.754 2.338-11.666 1.146-18.983-1.466-9-2.212-15.548 1.57-17.827 10.483-6.316 15.197-19.822 17.306-30.039.613-2.972-.188-6.022-2.2-8.367-2.155-2.513-5.481-3.915-8.892-3.737-15.74.797-28.976 4.225-40.01 8.952l-22.292-38.612h15.721c2.761 0 5-2.239 5-5s-2.239-5-5-5h-21.494l-23.209-40.2c-.893-1.547-2.544-2.5-4.33-2.5s-3.437.953-4.33 2.5l-23.209 40.2h-21.494c-1.326 0-2.598.527-3.536 1.464l-38.511 38.511c-1.491-.127-2.997-.239-4.535-.317-3.414-.173-6.737 1.225-8.892 3.737-2.012 2.345-2.813 5.395-2.2 8.367.209 1.011.451 2.061.714 3.126l-15.919 15.919c-.938.938-1.464 2.209-1.464 3.536v29.507l-26.326 15.199c-1.547.893-2.5 2.544-2.5 4.33s.953 3.437 2.5 4.33l26.322 15.197v29.507c0 1.326.527 2.598 1.464 3.536l20.378 20.378c.977.976 2.256 1.464 3.536 1.464s2.559-.488 3.536-1.464c1.953-1.953 1.953-5.119 0-7.071l-18.914-18.914v-21.662l10.646 6.147c.773.447 1.637.67 2.5.67s1.727-.223 2.5-.67c1.547-.893 2.5-2.544 2.5-4.33v-54.234c0-1.786-.953-3.437-2.5-4.33-1.547-.894-3.453-.894-5 0l-10.646 6.147v-21.662l10.91-10.91c2.817 6.49 6.957 12.615 13.066 16.296 3.782 2.279 3.036 8.826 1.57 17.827-1.192 7.317-2.319 14.229 1.146 18.983 1.139 1.562 3.298 3.545 7.116 4.121.247.037.496.056.745.056h32.739c-31.306 24.965-30.646 41.025-26.975 48.768 2.586 5.455 6.431 10.64 10.93 15.284l28.819 49.915h-13.65l-19.502-19.502c-1.953-1.952-5.118-1.952-7.071 0-1.953 1.953-1.953 5.119 0 7.071l20.966 20.966c.938.938 2.209 1.464 3.536 1.464h21.494l23.209 40.199c.893 1.547 2.544 2.5 4.33 2.5s3.437-.953 4.33-2.5l23.209-40.199h21.494c1.326 0 2.598-.527 3.536-1.464l69.344-69.344c.938-.938 1.464-2.209 1.464-3.536v-29.507l26.322-15.197c1.547-.893 2.5-2.544 2.5-4.33s-.952-3.437-2.499-4.33zm-286.9 4.33 13.822-7.98v15.96zm31.969-18.457v36.914l-8.146-4.703v-27.507zm201.353-55.274c.41-.027.664.132.765.228-1.414 6.788-4.921 18.709-12.646 23.363-9.872 5.949-7.795 18.694-6.278 28 .581 3.562 1.661 10.192.676 11.454-.025.017-.113.057-.274.097h-47.445c-2.188 0-4.122 1.423-4.773 3.512s.131 4.359 1.932 5.603c19.967 13.791 41.363 33.949 35.947 45.37-6.373 13.441-22.851 25.496-34.463 28.957-3.938 1.174-5.962.918-6.509.69-1.911-3.066-4.837-18.178-7.771-45.393v-53.446c2.773-5.117 7.237-12.105 13.889-19.154 17.02-18.043 39.545-27.894 66.95-29.281zm-96.122 122.05c2.681 0 5.2-.699 7.392-1.916.324 2.451.641 4.704.952 6.802h-16.688c.311-2.099.628-4.351.952-6.802 2.192 1.218 4.711 1.916 7.392 1.916zm-5.282-15.281v-61.689c0-2.912 2.369-5.281 5.282-5.281s5.282 2.369 5.282 5.281v61.689c0 2.912-2.369 5.281-5.282 5.281s-5.282-2.369-5.282-5.281zm16.92-71.568c-2.805-3.299-6.978-5.402-11.638-5.402s-8.833 2.103-11.638 5.402c-2.649-3.9-5.917-8.141-9.924-12.428-.692-.74-1.42-1.491-2.172-2.246h47.468c-.752.755-1.48 1.506-2.172 2.246-4.007 4.287-7.275 8.528-9.924 12.428zm34.953-31.849c-4.117 2.261-7.859 4.684-11.243 7.174h-70.696c-3.384-2.49-7.126-4.913-11.243-7.174l24.826-42.999h43.532zm-46.591-80.698 15.992 27.7h-31.985zm-46.962 37.699h13.649l-22.292 38.612c-6.809-2.918-14.456-5.339-23.016-6.953zm18.884 111.903c1.801-1.244 2.583-3.514 1.932-5.603s-2.585-3.512-4.773-3.512h-47.449c-.158-.038-.236-.074-.236-.065-1.02-1.294.061-7.924.641-11.486 1.517-9.307 3.593-22.052-6.278-28-7.725-4.654-11.231-16.575-12.646-23.363.102-.096.355-.253.765-.228 27.404 1.388 49.93 11.239 66.951 29.279 6.652 7.05 11.116 14.038 13.889 19.154v53.447c-2.935 27.214-5.86 42.326-7.771 45.393-.546.228-2.57.485-6.509-.69-11.612-3.461-28.09-15.516-34.463-28.957-5.416-11.421 15.98-31.578 35.947-45.369zm-13.789 80.037c4.874 2.51 9.622 4.214 13.751 4.872 1.287.205 2.46.296 3.531.296 4.6 0 7.285-1.688 8.792-3.277 1.229-1.296 3.214-3.416 5.798-17.247h19.991c2.584 13.831 4.569 15.951 5.798 17.247 1.508 1.59 4.192 3.277 8.792 3.277 1.07 0 2.244-.091 3.531-.296 4.129-.658 8.878-2.361 13.751-4.872l-20.102 34.817h-43.532zm41.867 72.515-15.992-27.699h31.985zm105.231-132.62v-36.914l8.146 4.703v27.507zm18.147-10.477v-15.96l13.822 7.98z" fill="#7a8c98"/><g><g><path d="m77.649 307.772h-39.381l-1.268 1.165 12.093 35.96 2.037 1.465h13.656l2.038-1.465 12.093-35.96z" fill="#fff3de"/></g><g><path d="m49.093 344.897 6.089 18.107c.895 2.661 4.658 2.661 5.553 0l6.089-18.107z" fill="#7a8c98"/></g><g><path d="m76.442 78.936h-36.677l-2.765 1.164v228.837h41.917v-228.837z" fill="#fed402"/></g><g><path d="m57.13 282.977v-204.041h-17.365l-2.765 1.164v228.837h41.917v-20.13h-15.957c-3.22 0-5.83-2.61-5.83-5.83z" fill="#fac600"/></g><g><path d="m37 43.178v36.922h41.917v-36.922c0-4.045-3.279-7.323-7.323-7.323h-27.27c-4.045 0-7.324 3.279-7.324 7.323z" fill="#fea3c6"/></g><g><path d="m50.884 60.387v-24.532h-6.56c-4.045 0-7.323 3.279-7.323 7.323v36.922h41.917v-13.884h-22.204c-3.221.001-5.83-2.609-5.83-5.829z" fill="#fe93bb"/></g></g><g><g><path d="m443.785 205h-22.477c-15.082 0-27.308 12.226-27.308 27.308v23.463l2.219 1h72.341l2.532-1v-23.463c0-15.082-12.226-27.308-27.307-27.308z" fill="#fff"/></g><g><path d="m419.908 232.308c0-14.505 11.31-26.362 25.592-27.248-.568-.035-1.139-.059-1.715-.059h-22.477c-15.082-.001-27.308 12.225-27.308 27.307v23.463l2.219 1h25.908l-2.219-1z" fill="#f5f8f9"/></g><g><g><path d="m465.802 369h-66.512c-2.922 0-5.29-2.369-5.29-5.29v-107.939h77.092v107.939c0 2.921-2.368 5.29-5.29 5.29z" fill="#01c0fa"/></g><g><path d="m419.908 363.71v-107.939h-25.908v107.939c0 2.922 2.369 5.29 5.29 5.29h25.908c-2.922 0-5.29-2.369-5.29-5.29z" fill="#08a9f1"/></g><g><path d="m438.439 255.771h16.929v113.229h-16.929z" fill="#fac600"/></g></g></g><g><g><path d="m381 39.5h-31.667c-2.761 0-5-2.239-5-5v-5c0-2.761 2.239-5 5-5h31.667c2.761 0 5 2.239 5 5v5c0 2.761-2.239 5-5 5z" fill="#fea3c6"/></g><g><path d="m162.667 39.5h-31.667c-2.761 0-5-2.239-5-5v-5c0-2.761 2.239-5 5-5h31.667c2.761 0 5 2.239 5 5v5c0 2.761-2.239 5-5 5z" fill="#fea3c6"/></g></g></g></svg>