<svg id="Capa_1" enable-background="new 0 0 512 512" height="512" viewBox="0 0 512 512" width="512" xmlns="http://www.w3.org/2000/svg"><g><g><path d="m478.076 370.571c14.698-31.461 22.924-66.553 22.924-103.571 0-135.31-109.69-245-245-245s-245 109.69-245 245c0 37.018 8.226 72.11 22.924 103.571z" fill="#a2e62e"/></g><path d="m415.302 370.571c19.41-29.793 30.698-65.361 30.698-103.571 0-104.934-85.066-190-190-190s-190 85.066-190 190c0 38.21 11.288 73.778 30.698 103.571z" fill="#97d729"/><path d="m292 58v-3.141c0-7.102-5.757-12.859-12.859-12.859h-46.281c-7.103 0-12.86 5.757-12.86 12.859v3.141z" fill="#7a8c98"/><path d="m256.859 42h-24c-7.102 0-12.859 5.757-12.859 12.859v3.141h24v-3.141c0-7.102 5.757-12.859 12.859-12.859z" fill="#596c76"/><g><g><path d="m154.737 61.58c4.265-2.342 9.091-3.58 13.956-3.58h1.307v-15.586c0-2.99-2.424-5.414-5.414-5.414h-16.241c-2.99 0-5.414 2.424-5.414 5.414v25.648z" fill="#c5d3dd"/></g><g><path d="m343.307 58c4.865 0 9.691 1.238 13.956 3.58l11.806 6.482v-25.648c0-2.99-2.424-5.414-5.414-5.414h-16.241c-2.99 0-5.414 2.424-5.414 5.414v15.586z" fill="#b6c4cf"/></g></g><g><path d="m200.656 58 13.74-30.783c.601-1.347 1.941-2.217 3.416-2.217h76.375c1.475 0 2.815.87 3.416 2.217l13.741 30.783h27.378l-18.289-40.973c-4.617-10.343-14.918-17.027-26.245-17.027h-76.375c-11.327 0-21.629 6.684-26.246 17.027l-18.289 40.973z" fill="#7a8c98"/></g><g><path d="m234.534 0h-16.722c-11.327 0-21.629 6.684-26.246 17.027l-18.288 40.973h16.722l18.288-40.973c4.617-10.343 14.919-17.027 26.246-17.027z" fill="#596c76"/></g><path d="m400.415 84.13-42.671-23.427c-4.424-2.43-9.39-3.703-14.438-3.703h-174.612c-5.047 0-10.013 1.273-14.438 3.703l-42.671 23.427z" fill="#c5d3dd"/><path d="m211.109 57h-42.415c-5.047 0-10.013 1.273-14.438 3.703l-42.671 23.427h42.415l42.671-23.427c4.425-2.43 9.39-3.703 14.438-3.703z" fill="#b6c4cf"/><path d="m33.457 369.571c2.103 4.555 4.331 9.03 6.701 13.429l2.11 1h62.732v18h-52.186l-.619 1c43.94 65.718 118.816 109 203.805 109 98.684 0 183.726-58.352 222.543-142.429z" fill="#fff5c6"/><g><path d="m218.5 455.5c0-7.7-6.3-14-14-14h-63c-7.7 0-14 6.3-14 14s6.3 14 14 14h63c7.7 0 14-6.3 14-14z" fill="#fef0ae"/></g><g><path d="m382 455.5c0-7.7-6.3-14-14-14h-63c-7.7 0-14 6.3-14 14s6.3 14 14 14h63c7.7 0 14-6.3 14-14z" fill="#fef0ae"/></g><g><path d="m40.158 383c3.7 6.871 7.721 13.543 12.038 20h53.804v-20z" fill="#596c76"/></g><path d="m121.655 378h-11.655c-2.761 0-5 2.239-5 5v20c0 2.761 2.239 5 5 5h11.655z" fill="#c5d3dd"/><g><path d="m144 434.026v8.974c0 8.284 6.716 15 15 15h29c8.284 0 15-6.716 15-15v-8.974z" fill="#596c76"/><path d="m168 443v-8.974h-24v8.974c0 8.284 6.716 15 15 15h24c-8.284 0-15-6.716-15-15z" fill="#465a61"/><path d="m309 434.026v8.974c0 8.284 6.716 15 15 15h29c8.284 0 15-6.716 15-15v-8.974z" fill="#596c76"/><path d="m333 443v-8.974h-24v8.974c0 8.284 6.716 15 15 15h24c-8.284 0-15-6.716-15-15z" fill="#465a61"/></g><path d="m135.655 434.026c-7.72 0-14-6.28-14-14v-265.434h268.689v265.435c0 7.72-6.28 14-14 14h-240.689z" fill="#b6c4cf"/><path d="m390.345 356.5h15.655v33h-15.655z" fill="#c5d3dd"/><g><path d="m444 398h-34c-2.761 0-5-2.239-5-5v-40c0-2.761 2.239-5 5-5h34c2.761 0 5 2.239 5 5v40c0 2.761-2.239 5-5 5z" fill="#b6c4cf"/></g><g><g><path d="m120.655 113.53h270.69v10.662h-270.69z" fill="#b6c4cf"/><path d="m120.655 153.592v266.435c0 8.284 6.716 15 15 15h240.69c8.284 0 15-6.716 15-15v-266.435z" fill="#b6c4cf"/><g fill="#9facba"><path d="m120.655 153.592h33.655v127.683h-33.655z"/><path d="m154.31 420.026v-66.207h-33.655v66.207c0 8.284 6.716 15 15 15h33.655c-8.284 0-15-6.715-15-15z"/></g></g><path d="m269.534 84.13v-12.91c0-2.99-2.424-5.414-5.414-5.414h-16.241c-2.99 0-5.414 2.424-5.414 5.414v12.91z" fill="#fff"/><path d="m260.345 65.806h-12.466c-2.99 0-5.414 2.424-5.414 5.414v12.91h12.466v-12.91c0-2.991 2.424-5.414 5.414-5.414z" fill="#f5f8f9"/><g fill="#e8edf2"><path d="m134.731 153.592v13.993c0 2.99 2.424 5.414 5.414 5.414h16.241c2.99 0 5.414-2.424 5.414-5.414v-13.993z"/><path d="m350.2 153.592v13.993c0 2.99 2.424 5.414 5.414 5.414h16.241c2.99 0 5.414-2.424 5.414-5.414v-13.993z"/><path d="m242.466 153.592v13.993c0 2.99 2.424 5.414 5.414 5.414h16.241c2.99 0 5.414-2.424 5.414-5.414v-13.993z"/></g><g><path d="m406 154.592h-300c-3.866 0-7-3.134-7-7v-17.4c0-3.866 3.134-7 7-7h300c3.866 0 7 3.134 7 7v17.4c0 3.866-3.134 7-7 7z" fill="#596c76"/></g><path d="m147 147.592v-11.407h-7.269c-2.761 0-5-2.239-5-5v-7.993h-28.731c-3.866 0-7 3.134-7 7v17.4c0 3.866 3.134 7 7 7h48c-3.866 0-7-3.134-7-7z" fill="#465a61"/><g><path d="m406 114.53h-300c-3.866 0-7-3.134-7-7v-17.4c0-3.866 3.134-7 7-7h300c3.866 0 7 3.134 7 7v17.4c0 3.866-3.134 7-7 7z" fill="#596c76"/></g><path d="m134.731 101.123c0-2.761 2.239-5 5-5h7.269v-5.993c0-3.866 3.134-7 7-7h-48c-3.866 0-7 3.134-7 7v17.4c0 3.866 3.134 7 7 7h28.731z" fill="#465a61"/><g><g><path d="m156.8 136.185h-17.069c-2.761 0-5-2.239-5-5v-30.062c0-2.761 2.239-5 5-5h17.069c2.761 0 5 2.239 5 5v30.062c0 2.761-2.239 5-5 5z" fill="#fff"/></g><g><path d="m372.269 136.185h-17.069c-2.761 0-5-2.239-5-5v-30.062c0-2.761 2.239-5 5-5h17.069c2.761 0 5 2.239 5 5v30.062c0 2.761-2.239 5-5 5z" fill="#fff"/></g><g><path d="m264.534 136.185h-17.069c-2.761 0-5-2.239-5-5v-30.062c0-2.761 2.239-5 5-5h17.069c2.761 0 5 2.239 5 5v30.062c0 2.761-2.238 5-5 5z" fill="#fff"/></g></g><g><path d="m163.71 353.819h-47.131c-5.523 0-10-4.477-10-10v-52.545c0-5.523 4.477-10 10-10h47.131c5.523 0 10 4.477 10 10v52.545c0 5.523-4.477 10-10 10z" fill="#7a8c98"/></g><path d="m134 343.819v-52.545c0-5.523 4.477-10 10-10h-27.421c-5.523 0-10 4.477-10 10v52.545c0 5.523 4.477 10 10 10h27.421c-5.523 0-10-4.477-10-10z" fill="#596c76"/><g><path d="m397.841 337.234h-71.462c-2.99 0-5.414-2.424-5.414-5.414v-18.407c0-2.99 2.424-5.414 5.414-5.414h71.462c2.99 0 5.414 2.424 5.414 5.414v18.407c0 2.991-2.424 5.414-5.414 5.414z" fill="#fed402"/></g><path d="m354.71 331.821v-18.407c0-2.99 2.424-5.414 5.414-5.414h-33.745c-2.99 0-5.414 2.424-5.414 5.414v18.407c0 2.99 2.424 5.414 5.414 5.414h33.745c-2.99-.001-5.414-2.424-5.414-5.414z" fill="#fac600"/></g><g><circle cx="256" cy="255.5" fill="#e8edf2" r="67"/></g><g><circle cx="256" cy="255.5" fill="#7a8c98" r="50.5"/></g><path d="m230 255.5c0-23.621 16.306-43.5 38.25-48.99-3.924-.982-8.026-1.51-12.25-1.51-27.845 0-50.5 22.655-50.5 50.5s22.655 50.5 50.5 50.5c4.224 0 8.326-.529 12.25-1.51-21.944-5.49-38.25-25.369-38.25-48.99z" fill="#596c76"/><g><path d="m288.5 260.5c-2.762 0-5-2.238-5-5 0-15.163-12.337-27.5-27.5-27.5s-27.5 12.337-27.5 27.5c0 2.762-2.238 5-5 5s-5-2.238-5-5c0-20.678 16.822-37.5 37.5-37.5s37.5 16.822 37.5 37.5c0 2.762-2.238 5-5 5z" fill="#fed402"/></g><path d="m256 245c1.809 0 3.513.46 5 1.269v-27.269c0-2.762-2.238-5-5-5s-5 2.238-5 5v27.269c1.487-.809 3.191-1.269 5-1.269z" fill="#fff"/><g><circle cx="256" cy="255.5" fill="#e8edf2" r="11.5"/></g><g><path d="m326.5 402h-141c-2.761 0-5-2.239-5-5v-19c0-2.761 2.239-5 5-5h141c2.761 0 5 2.239 5 5v19c0 2.761-2.239 5-5 5z" fill="#f5f8f9"/></g><path d="m221 397v-19c0-2.761 2.239-5 5-5h-40.5c-2.761 0-5 2.239-5 5v19c0 2.761 2.239 5 5 5h40.5c-2.761 0-5-2.239-5-5z" fill="#e8edf2"/><g fill="#f5f8f9"><path d="m146.462 131.185v-30.062c0-2.761 2.239-5 5-5h-11.731c-2.761 0-5 2.239-5 5v30.062c0 2.761 2.239 5 5 5h11.731c-2.761 0-5-2.239-5-5z"/><path d="m361.931 131.185v-30.062c0-2.761 2.239-5 5-5h-11.731c-2.761 0-5 2.239-5 5v30.062c0 2.761 2.239 5 5 5h11.731c-2.761 0-5-2.239-5-5z"/><path d="m254.197 131.185v-30.062c0-2.761 2.239-5 5-5h-11.731c-2.761 0-5 2.239-5 5v30.062c0 2.761 2.239 5 5 5h11.731c-2.762 0-5-2.239-5-5z"/></g></g></svg>