<svg id="Capa_1" enable-background="new 0 0 512 512" height="512" viewBox="0 0 512 512" width="512" xmlns="http://www.w3.org/2000/svg"><g><path d="m80.571 438c44.499 45.644 106.648 74 175.429 74s130.931-28.356 175.429-74z" fill="#9facba"/><path d="m256 22c-21.596 0-42.535 2.806-62.485 8.053l-1 1.937v118.01c0 4.963-4.037 9-9 9h-77c-4.963 0-9-4.037-9-9v-68.515l-1-.46c-52.347 44.933-85.515 111.578-85.515 185.975 0 49.033 14.413 94.696 39.221 133h411.558c24.808-38.304 39.221-83.967 39.221-133 0-135.31-109.69-245-245-245z" fill="#a2e62e"/><g><g><g><g><path d="m436.758 359.518h-52.242v29.482h8c2.206 0 4 1.794 4 4v7h43.295c.124-.612.19-1.244.19-1.892v-37.957z" fill="#7a8c98"/><path d="m420.512 226.667h-8.98v-8.856h-45.549v8.856h-8.98c-4.753 0-9.105 1.706-12.487 4.533v41.016h92.361l3.124-.633v-25.428c-.001-10.762-8.726-19.488-19.489-19.488z" fill="#596c76"/><path d="m344.516 272.216h8.742v-24.504c0-7.1 5.756-12.855 12.856-12.855h10.612c2.761 0 5-2.239 5-5v-12.046h-15.742v8.856h-8.98c-4.753 0-9.105 1.706-12.487 4.533v41.016z" fill="#465a61"/><path d="m344.516 271.584v30.998h92.321l3.163-.632v-30.366z" fill="#7a8c98"/><path d="m344.516 271.584h8.742v30.366h-8.742z" fill="#596c76"/></g><g><g><path d="m401.155 141.264-6.181-29.744c-.305-1.468-1.598-2.52-3.097-2.52h-6.24c-1.499 0-2.792 1.052-3.097 2.52l-6.181 29.744z" fill="#596c76"/></g><g><path d="m394.008 109.838c-.568-.52-1.315-.838-2.13-.838h-6.24c-1.499 0-2.792 1.052-3.097 2.52l-6.181 29.744h10.5l6.181-29.744c.139-.67.49-1.246.967-1.682z" fill="#465a61"/></g><g><path d="m409.002 175.425v-30.366c0-2.446-1.983-4.428-4.428-4.428h-31.631c-2.446 0-4.428 1.983-4.428 4.428v30.366z" fill="#7a8c98"/></g><g><path d="m388.125 140.631h-15.183c-2.446 0-4.428 1.983-4.428 4.428v30.366h15.183v-30.366c0-2.445 1.982-4.428 4.428-4.428z" fill="#596c76"/></g><g><path d="m414.695 218.444h-51.875c-3.494 0-6.326-2.832-6.326-6.326v-30.998c0-3.494 2.832-6.326 6.326-6.326h51.875c3.494 0 6.326 2.832 6.326 6.326v30.998c0 3.493-2.832 6.326-6.326 6.326z" fill="#596c76"/></g><g><path d="m383.064 205.158c-3.494 0-6.326-2.832-6.326-6.326v-24.04h-13.918c-3.494 0-6.326 2.832-6.326 6.326v30.998c0 3.494 2.832 6.326 6.326 6.326h51.875c3.494 0 6.326-2.832 6.326-6.326v-6.959h-37.957z" fill="#465a61"/></g><path d="m344.516 301.95v43.05h38c1.103 0 2 .897 2 2v13.151h55.484v-58.201z" fill="#596c76"/><path d="m344.516 301.95h8.742v43.05h-8.742z" fill="#465a61"/></g></g><path d="m413.258 257.597h-49c-2.761 0-5 2.239-5 5v82.403h23.258c1.103 0 2 .897 2 2v37.597h28.742c2.761 0 5-2.239 5-5v-117c0-2.761-2.239-5-5-5z" fill="#c5d3dd"/><path d="m375.258 345v-82.403c0-2.761 2.239-5 5-5h-16c-2.761 0-5 2.239-5 5v82.403z" fill="#b6c4cf"/><g fill="#596c76"><path d="m401 320.597h-26c-1.657 0-3-1.343-3-3v-39c0-1.657 1.343-3 3-3h26c1.657 0 3 1.343 3 3v39c0 1.657-1.343 3-3 3z"/><path d="m401 343.597h-26c-1.657 0-3-1.343-3-3v-6c0-1.657 1.343-3 3-3h26c1.657 0 3 1.343 3 3v6c0 1.657-1.343 3-3 3z"/><path d="m401 351.597h-16.484v12h16.484c1.657 0 3-1.343 3-3v-6c0-1.657-1.343-3-3-3z"/></g></g></g><g><path d="m280.604 32.812-7.306-30.511c-.323-1.349-1.529-2.301-2.917-2.301h-4.731c-1.388 0-2.594.952-2.917 2.301l-7.306 30.511z" fill="#c5d3dd"/><path d="m273.298 2.301c-.323-1.349-1.529-2.301-2.917-2.301h-4.731c-1.388 0-2.594.952-2.917 2.301l-7.306 30.511h11.396l6.891-28.78z" fill="#b6c4cf"/><path d="m290.015 64v-27.187c0-2.761-2.239-5-5-5h-34c-2.761 0-5 2.239-5 5v27.187z" fill="#7a8c98"/><path d="m268 31.813h-16.985c-2.761 0-5 2.239-5 5v27.187h16.985v-27.187c0-2.761 2.239-5 5-5z" fill="#596c76"/><path d="m312.515 103v-35c0-2.761-2.239-5-5-5h-79c-2.761 0-5 2.239-5 5v35z" fill="#c5d3dd"/><path d="m261 63h-32.485c-2.761 0-5 2.239-5 5v35h32.485v-35c0-2.761 2.239-5 5-5z" fill="#b6c4cf"/><path d="m345.515 400v-288c0-5.523-4.477-10-10-10h-135c-5.523 0-10 4.477-10 10v288z" fill="#596c76"/><path d="m249 102h-48.485c-5.523 0-10 4.477-10 10v288h48.485v-288c0-5.523 4.477-10 10-10z" fill="#465a61"/><path d="m307.515 344h-79c-2.761 0-5-2.239-5-5v-177.187c0-2.761 2.239-5 5-5h79c2.761 0 5 2.239 5 5v177.187c0 2.761-2.238 5-5 5z" fill="#8d9ca8"/><path d="m256 339v-177.187c0-2.761 2.239-5 5-5h-32.485c-2.761 0-5 2.239-5 5v177.187c0 2.761 2.239 5 5 5h32.485c-2.761 0-5-2.239-5-5z" fill="#7a8c98"/></g><g><path d="m385.515 389v-42c0-1.657-1.343-3-3-3h-53c-1.657 0-3 1.343-3 3v42z" fill="#01c0fa"/><g><path d="m376.015 389v-21c0-1.657-1.343-3-3-3h-34c-1.657 0-3 1.343-3 3v21z" fill="#fe5694"/></g><path d="m397.515 400v-7c0-2.761-2.239-5-5-5h-73c-2.761 0-5 2.239-5 5v7z" fill="#08a9f1"/></g><g><path d="m56.589 223.079 26.187 176.921h129.179l26.186-176.921z" fill="#dff6fd"/><path d="m79.004 248.579h6.77l-3.774-25.5h-25.411l26.187 176.921h15.164l-21.903-147.982c-.269-1.812 1.135-3.439 2.967-3.439z" fill="#c8effe"/><path d="m186.605 266c-1.023 0-1.984.398-2.707 1.122-.74.741-1.147 1.733-1.146 2.794 0 9.343-6.165 19.367-19.7 19.367-6.632 0-10.57-2.593-11.706-7.707-.125-.562-.002-1.151.34-1.616.341-.465.866-.761 1.441-.811 8.707-.752 12.259-4.012 12.259-11.252 0-.338-.022-.657-.047-.975l-.071-.922h-16.905c-1.897 0-3.495 1.341-3.799 3.188-.284 1.736-.344 3.334-.344 4.368 0 11.126 6.569 17.464 13.524 24.173 6.139 5.92 12.485 12.041 12.485 21.343 0 14.329-15.473 28.928-30.658 28.928-7.509 0-22.229-6.335-22.229-20.98 0-8.339 4.933-14.162 11.994-14.162 2.709 0 5.105 1.113 6.931 3.22.389.448.558 1.043.462 1.63-.095.587-.443 1.098-.954 1.4-2.53 1.499-4.438 5.211-4.438 8.635 0 2.768 1.178 6.067 6.791 6.067 2.798 0 5.128-.772 6.737-2.234 1.633-1.483 2.46-3.583 2.46-6.241 0-7.716-4.893-11.98-11.087-17.38-7.131-6.215-16.006-13.95-16.006-29.461 0-.249.002-.497.008-.744.067-3.121-1.096-6.066-3.276-8.295-2.18-2.228-5.098-3.454-8.216-3.454h-23.819l-6.675 1 19.686 132.999h98.851l19.686-133-7.148-1z" fill="#c8effe"/><path d="m167.016 349c-4.212 0-8.115-2.106-10.44-5.635l-.542-.823-.831.53c-3.531 2.255-7.237 3.748-10.918 4.453-.825 1.996-1.285 4.181-1.285 6.475 0 9.389 7.611 17 17 17s17-7.611 17-17c0-2.863-.715-5.557-1.965-7.924-2.173 1.822-4.969 2.924-8.019 2.924z" fill="#99e6fc"/><path d="m186.605 266c-1.023 0-1.984.398-2.707 1.122-.74.741-1.147 1.733-1.146 2.794 0 5.078-1.826 10.353-5.661 14.115 2.953 2.475 6.755 3.969 10.91 3.969 9.389 0 17-7.611 17-17 0-1.74-.264-3.419-.75-5z" fill="#99e6fc"/><g><path d="m101.675 266h-16.746l-6.675 1 19.686 133h16.746l-19.686-133z" fill="#99e6fc"/></g><g><path d="m96 248.579h-16.996c-1.832 0-3.236 1.627-2.968 3.439l2.218 14.982h16.996l-2.217-14.982c-.268-1.812 1.136-3.439 2.967-3.439z" fill="#fd3581"/></g><g><path d="m125.515 159h39v51.079h-39z" fill="#8d9ca8"/><path d="m125.515 159h16.485v51.079h-16.485z" fill="#7a8c98"/><path d="m96.515 81.026v68.974c0 5.523 4.477 10 10 10h77c5.523 0 10-4.477 10-10v-119.947c-36.317 9.551-69.337 27.228-97 50.973z" fill="#fe5694"/><path d="m131 143c-5.523 0-10-4.477-10-10v-70.441c-8.547 5.655-16.733 11.813-24.485 18.467v68.974c0 5.523 4.477 10 10 10h77c5.523 0 10-4.477 10-10v-7z" fill="#fd3581"/></g></g><path d="m81.547 439h348.906c11.99-12.16 22.728-25.558 31.982-40h-412.87c9.254 14.442 19.992 27.84 31.982 40z" fill="#c5d3dd"/><path d="m128.06 419.85c-6.291-6.611-12.218-13.571-17.747-20.85h-60.748c9.254 14.442 19.992 27.84 31.982 40h348.906c5.043-5.115 9.851-10.461 14.434-16h-309.537c-2.76 0-5.387-1.151-7.29-3.15z" fill="#b6c4cf"/><g fill="#fe5694"><circle cx="111.515" cy="305" r="8"/><circle cx="185.515" cy="303" r="11"/><circle cx="127.515" cy="381" r="11"/><path d="m215.726 248.579h-136.722c-1.832 0-3.236 1.627-2.968 3.439l2.218 14.982h30.493c5.889 0 10.621 4.838 10.493 10.726-.005.255-.008.511-.008.767 0 15.965 9.064 23.866 16.349 30.215 6.003 5.232 10.744 9.365 10.744 16.626 0 2.364-.717 4.215-2.132 5.501-1.423 1.292-3.52 1.975-6.065 1.975-3.896 0-5.791-1.657-5.791-5.067 0-3.048 1.734-6.463 3.948-7.774.765-.453 1.289-1.223 1.432-2.101.143-.877-.111-1.773-.693-2.445-2.021-2.332-4.679-3.564-7.687-3.564-7.65 0-12.994 6.235-12.994 15.162 0 15.343 15.383 21.98 23.229 21.98 5.6 0 11.235-1.933 16.169-5.085 2.414 3.664 6.56 6.085 11.275 6.085 7.456 0 13.5-6.044 13.5-13.5 0-6.157-4.126-11.341-9.761-12.964.307-1.481.475-2.973.475-4.464 0-9.725-6.502-15.997-12.791-22.062-6.798-6.558-13.219-12.752-13.219-23.453 0-1.111.069-2.604.331-4.206.224-1.364 1.429-2.351 2.811-2.351h15.98c.023.292.043.586.043.897 0 5.567-1.93 9.442-11.346 10.256-.862.075-1.649.518-2.161 1.215s-.697 1.581-.51 2.425c.86 3.873 3.759 8.49 12.683 8.49 14.223 0 20.7-10.543 20.7-20.338 0-.01 0-.02 0-.03-.001-1.6 1.253-2.915 2.854-2.915h29.871l2.218-14.982c.268-1.813-1.136-3.44-2.968-3.44z"/></g><path d="m129.741 223.079 11.02 40.344v15.577c0 1.104.895 2 2 2h4.51c1.104 0 2-.896 2-2v-15.577l11.02-40.344z" fill="#c5d3dd"/><path d="m141.451 223.079h-11.71l11.02 40.344v15.577c0 1.104.895 2 2 2h4.51c1.104 0 2-.896 2-2v-15.577l1.6-5.859z" fill="#b6c4cf"/><g><path d="m243.515 224.079h-192.3c-4.142 0-7.5-3.358-7.5-7.5 0-4.142 3.358-7.5 7.5-7.5h192.3c4.142 0 7.5 3.358 7.5 7.5 0 4.142-3.358 7.5-7.5 7.5z" fill="#c8effe"/></g><path d="m86 216.579c0-4.142 3.358-7.5 7.5-7.5h-42.285c-4.142 0-7.5 3.358-7.5 7.5s3.358 7.5 7.5 7.5h42.285c-4.142 0-7.5-3.358-7.5-7.5z" fill="#99e6fc"/></g></svg>