<svg id="Capa_1" enable-background="new 0 0 512 512" height="512" viewBox="0 0 512 512" width="512" xmlns="http://www.w3.org/2000/svg"><g><g><g><circle cx="256" cy="267" fill="#fff5c6" r="245"/></g></g><path d="m339.5 158c-16.238 0-31.884 2.53-46.574 7.202-.416.516-.855 1.019-1.334 1.498l-76.345 74.663c-3.43 3.354-5.397 8.03-5.397 12.827v139.513c27.23 42.856 75.116 71.297 129.65 71.297 40.698 0 77.69-15.844 105.162-41.693 20.852-25.14 36.762-54.518 46.274-86.646 1.35-8.188 2.064-16.59 2.064-25.16 0-84.777-68.724-153.501-153.5-153.501zm0 198.57c-24.892 0-45.07-20.179-45.07-45.07 0-24.892 20.179-45.07 45.07-45.07s45.07 20.179 45.07 45.07-20.178 45.07-45.07 45.07z" fill="#fef0ae"/><g><path d="m293.579 141.811c-7.097-8.074-19.407-8.372-26.886-.894l-23.272 23.272v-119c0-8.568-6.584-15.964-15.144-16.34-9.085-.399-16.575 6.847-16.575 15.843v83.116c0 1.871-1.517 3.388-3.388 3.388h-6.197c-1.871 0-3.388-1.517-3.388-3.388v-111.45c0-8.567-6.582-15.963-15.14-16.342-9.085-.402-16.576 6.845-16.576 15.843v111.951c0 1.871-1.517 3.388-3.388 3.388h-6.203c-1.871 0-3.388-1.517-3.388-3.388v-111.501c0-8.156-5.971-15.328-14.079-16.212-9.553-1.042-17.64 6.416-17.64 15.762v111.951c0 1.871-1.517 3.388-3.388 3.388h-6.197c-1.871 0-3.388-1.517-3.388-3.388v-82.664c0-8.156-5.97-15.328-14.078-16.213-9.553-1.043-17.64 6.414-17.64 15.761v152.654c0 13.658 11.172 28.279 21.513 40.041 2.716 3.089 4.207 7.057 4.207 11.169v210.061c30.684 24.478 67.374 41.736 107.51 49.214v-253.642c0-4.559 1.837-8.925 5.096-12.113l76.353-74.671c6.933-6.936 7.752-18.228 1.276-25.596z" fill="#fed2a4"/></g><g fill="#ffbd86"><path d="m103.341 248.558v29.442h16.379v-29.442c0-4.113-1.492-8.081-4.207-11.169-10.341-11.762-21.513-26.383-21.513-40.041v-152.654c0-5.744 3.06-10.764 7.631-13.547-1.888-1.17-4.036-1.96-6.371-2.215-9.553-1.043-17.64 6.414-17.64 15.761v152.654c0 13.658 11.172 28.279 21.513 40.041 2.716 3.089 4.208 7.057 4.208 11.17z"/><path d="m103.341 446.5v12.118c5.285 4.216 10.751 8.212 16.379 11.986v-24.104z"/><path d="m103.341 318h16.379v88.5h-16.379z"/></g><path d="m116.133 445.5 7.367 13h26v29.182c4.911 2.374 9.913 4.589 15 6.639v-43.321l-5.5-5.5z" fill="#596c76"/><path d="m187.5 445.5h-15v23.5l7.5 7.5h23.5v-15h-16z" fill="#596c76"/><g><path d="m452 48h-38c-2.761 0-5 2.239-5 5v165.058c28.506 21.257 47 55.23 47 93.442 0 .231-.007.46-.009.69l1.009-.69v-258.5c0-2.761-2.239-5-5-5z" fill="#c8effe"/><g><path d="m433 53c0-2.761 2.239-5 5-5h-24c-2.761 0-5 2.239-5 5v165.058c9.12 6.801 17.208 14.908 24 24.033z" fill="#99e6fc"/></g><g><path d="m339.5 194c-64.893 0-117.5 52.607-117.5 117.5s52.607 117.5 117.5 117.5 117.5-52.606 117.5-117.5-52.607-117.5-117.5-117.5zm0 152c-19.054 0-34.5-15.446-34.5-34.5s15.446-34.5 34.5-34.5 34.5 15.446 34.5 34.5-15.446 34.5-34.5 34.5z" fill="#dff6fd"/></g><g><path d="m339.5 215.599c-52.965 0-95.901 42.936-95.901 95.901 0 52.964 42.936 95.901 95.901 95.901s95.901-42.936 95.901-95.901c0-52.964-42.936-95.901-95.901-95.901zm0 130.401c-19.054 0-34.5-15.446-34.5-34.5s15.446-34.5 34.5-34.5 34.5 15.446 34.5 34.5-15.446 34.5-34.5 34.5z" fill="#c8effe"/></g><g><path d="m277.199 311.5c0-47.233 34.147-86.489 79.101-94.432-5.455-.964-11.068-1.469-16.8-1.469-52.965 0-95.901 42.936-95.901 95.901 0 52.964 42.936 95.901 95.901 95.901 5.731 0 11.345-.505 16.8-1.469-44.954-7.943-79.101-47.199-79.101-94.432z" fill="#99e6fc"/></g><g><g><path d="m339.5 354.423c-23.668 0-42.923-19.255-42.923-42.923s19.255-42.923 42.923-42.923 42.923 19.255 42.923 42.923-19.255 42.923-42.923 42.923zm0-70.846c-15.396 0-27.923 12.526-27.923 27.923s12.526 27.923 27.923 27.923 27.923-12.526 27.923-27.923-12.526-27.923-27.923-27.923z" fill="#fff"/></g></g></g><g><path d="m103.341 278h107.51v40h-107.51z" fill="#dff6fd"/></g><path d="m103.341 278h16.379v40h-16.379z" fill="#c8effe"/><g><path d="m103.341 406.5h107.51v40h-107.51z" fill="#dff6fd"/></g><path d="m103.341 406.5h16.379v40h-16.379z" fill="#c8effe"/><g><path d="m77.621 160v21h43.379l8.813-21z" fill="#596c76"/></g><path d="m77.621 160h16.379v21h-16.379z" fill="#465a61"/><g><path d="m118.192 189h-40.571v8.348c0 4.164 1.043 8.417 2.779 12.652h28.979z" fill="#596c76"/></g><path d="m94 197.348v-8.348h-16.379v8.348c0 4.164 1.043 8.417 2.779 12.652h16.38c-1.737-4.235-2.78-8.488-2.78-12.652z" fill="#465a61"/><g><path d="m206.678 234.647c-18.471-16.69-37.361-13.342-45.051-10.933l.682-.682c1.849-1.849 1.849-4.876 0-6.725-1.849-1.85-4.876-1.85-6.725 0l-.682.682c2.409-7.69 5.757-26.58-10.933-45.051-1.148-1.271-3.084-1.247-3.938.051-2.053 3.121-5.063 8.774-3.852 13.657 1.782 7.185-14.363 10.626-10.555 15.785l15.668 15.668c-6.973-1.276-26.149-3.946-29.19 4.579-3.729 10.454 1.33 26.319 5.935 26.197 2.401-.064 11.123-6.652 18.924-12.946l-1.553 1.553c-1.849 1.849-1.849 4.876 0 6.725 1.849 1.85 4.876 1.85 6.725 0l1.553-1.553c-6.294 7.801-12.882 16.523-12.946 18.924-.122 4.605 15.743 9.664 26.197 5.935 8.526-3.041 5.855-22.217 4.579-29.19l15.668 15.668c5.159 3.808 8.6-12.337 15.785-10.555 4.883 1.211 10.536-1.799 13.657-3.852 1.299-.853 1.322-2.789.052-3.937z" fill="#596c76"/></g><g fill="#465a61"><path d="m141.291 217.099c1.343.101 2.488.079 3.506.026 1.727-.089 2.524-2.189 1.301-3.412l-12.282-12.282c-3.808-5.159 12.337-8.6 10.555-15.785-.891-3.593.504-7.6 2.121-10.711-.788-.999-1.621-1.999-2.523-2.997-1.148-1.271-3.084-1.247-3.938.051-2.053 3.121-5.063 8.774-3.852 13.657 1.782 7.185-14.363 10.626-10.555 15.785z"/><path d="m120.294 221.679c1.356-3.801 5.922-5.374 11.181-5.839-8.013-.56-17.331.114-19.374 5.839-3.729 10.454 1.33 26.319 5.935 26.197.89-.023 2.65-.946 4.907-2.415-3.249-4.818-5.477-15.853-2.649-23.782z"/></g><g><path d="m191.854 165.878 4.858 9.844c.491.994 1.439 1.684 2.537 1.843l10.863 1.579c2.763.402 3.867 3.797 1.867 5.746l-7.861 7.662c-.794.774-1.156 1.889-.969 2.982l1.856 10.819c.472 2.752-2.417 4.851-4.888 3.552l-9.716-5.108c-.981-.516-2.154-.516-3.135 0l-9.716 5.108c-2.472 1.299-5.36-.799-4.888-3.552l1.856-10.819c.187-1.093-.175-2.208-.969-2.982l-7.861-7.662c-2-1.949-.896-5.345 1.867-5.746l10.863-1.579c1.097-.159 2.046-.849 2.537-1.843l4.858-9.844c1.234-2.504 4.805-2.504 6.041 0z" fill="#596c76"/></g><g><path d="m184.995 202.054 1.856-10.819c.187-1.093-.175-2.208-.969-2.982l-7.861-7.662c-.821-.801-1.112-1.844-.986-2.825l-9.482 1.378c-2.763.402-3.867 3.797-1.867 5.746l7.861 7.662c.794.774 1.156 1.889.969 2.982l-1.856 10.819c-.472 2.752 2.417 4.851 4.888 3.552l8.74-4.595c-.943-.711-1.525-1.903-1.293-3.256z" fill="#465a61"/></g></g></svg>