<svg id="Capa_1" enable-background="new 0 0 512 512" height="512" viewBox="0 0 512 512" width="512" xmlns="http://www.w3.org/2000/svg"><g><g><path d="m256 22c-135.31 0-245 109.69-245 245 0 53.82 17.368 103.577 46.786 144l4.129 1h388.169l4.13-1c29.418-40.423 46.786-90.18 46.786-144 0-135.31-109.69-245-245-245z" fill="#8379c1"/><path d="m125 167h-19c-5.523 0-10 4.477-10 10v66c0 5.523 4.477 10 10 10h19z" fill="#9facba"/><path d="m125 287h-19c-5.523 0-10 4.477-10 10v66c0 5.523 4.477 10 10 10h19z" fill="#9facba"/><g><path d="m387 56h16.891v33h-16.891z" fill="#b6c4cf"/><path d="m387 73h16.891v16h-16.891z" fill="#9facba"/><path d="m387 264h16.891v33h-16.891z" fill="#b6c4cf"/><path d="m387 281h16.891v16h-16.891z" fill="#9facba"/></g><g><g><path d="m402.891 316.049v-276.544c0-2.182 1.769-3.951 3.951-3.951h70.408c2.182 0 3.951 1.769 3.951 3.951v276.544c0 2.182-1.769 3.951-3.951 3.951h-70.408c-2.183 0-3.951-1.769-3.951-3.951z" fill="#fe5694"/></g><path d="m433.691 316.049v-276.544c0-2.182 1.769-3.951 3.951-3.951h-30.8c-2.182 0-3.951 1.769-3.951 3.951v276.544c0 2.182 1.769 3.951 3.951 3.951h30.8c-2.182 0-3.951-1.769-3.951-3.951z" fill="#fd3581"/><g fill="#fff"><path d="m464.106 52.664h-4c-1.657 0-3 1.343-3 3v10.374h-37.123c-1.657 0-3 1.343-3 3v4c0 1.657 1.343 3 3 3h37.123v10.375c0 1.657 1.343 3 3 3h4c1.657 0 3-1.343 3-3v-30.749c0-1.657-1.343-3-3-3z"/><path d="m458.156 223.446h-32.223c-4.936 0-8.95 4.015-8.95 8.95v18.849c0 4.936 4.015 8.95 8.95 8.95h32.223c4.936 0 8.95-4.015 8.95-8.95v-18.849c0-4.935-4.014-8.95-8.95-8.95zm-1.05 26.749h-30.123v-16.749h30.123z"/><path d="m464.106 138.055h-4c-1.657 0-3 1.343-3 3v10.375h-37.123c-1.657 0-3 1.343-3 3v4c0 1.657 1.343 3 3 3h37.123v10.374c0 1.657 1.343 3 3 3h4c1.657 0 3-1.343 3-3v-30.749c0-1.657-1.343-3-3-3z"/><path d="m464.106 180.751h-4c-1.657 0-3 1.343-3 3v10.374h-37.123c-1.657 0-3 1.343-3 3v4c0 1.657 1.343 3 3 3h37.123v10.375c0 1.657 1.343 3 3 3h4c1.657 0 3-1.343 3-3v-30.749c0-1.657-1.343-3-3-3z"/><path d="m458.156 266.142h-32.223c-4.936 0-8.95 4.016-8.95 8.951v18.848c0 4.936 4.015 8.95 8.95 8.95h32.223c4.936 0 8.95-4.015 8.95-8.95v-18.848c0-4.936-4.014-8.951-8.95-8.951zm-1.05 26.749h-30.123v-16.749h30.123z"/><path d="m454.206 95.359h-34.223c-1.657 0-3 1.343-3 3v4c0 1.657 1.343 3 3 3h8.809v16.749h-8.809c-1.657 0-3 1.343-3 3v4c0 1.657 1.343 3 3 3h34.222c7.125 0 12.901-5.776 12.901-12.901v-10.947c0-7.125-5.775-12.901-12.9-12.901zm2.9 23.849c0 1.602-1.299 2.9-2.9 2.9h-15.414v-16.749h15.413c1.602 0 2.901 1.299 2.901 2.901z"/></g></g><g><path d="m124 30h264v382h-264z" fill="#c5d3dd"/></g><g><path d="m152 57h20v-27h-48v382h48v-153h-20c-2.761 0-5-2.239-5-5v-129c0-2.761 2.239-5 5-5h20v-25h-20c-2.761 0-5-2.239-5-5v-28c0-2.761 2.239-5 5-5z" fill="#b6c4cf"/></g><g><path d="m205.058 259h-53.058c-2.761 0-5-2.239-5-5v-129c0-2.761 2.239-5 5-5h53.058c2.761 0 5 2.239 5 5v129c0 2.761-2.239 5-5 5z" fill="#dff6fd"/><path d="m172.942 254v-129c0-2.761 2.239-5 5-5h-25.942c-2.761 0-5 2.239-5 5v129c0 2.761 2.239 5 5 5h25.942c-2.761 0-5-2.239-5-5z" fill="#c8effe"/><path d="m282.529 259h-53.058c-2.761 0-5-2.239-5-5v-129c0-2.761 2.239-5 5-5h53.058c2.761 0 5 2.239 5 5v129c0 2.761-2.239 5-5 5z" fill="#dff6fd"/><path d="m249.942 254v-129c0-2.761 2.239-5 5-5h-25.471c-2.761 0-5 2.239-5 5v129c0 2.761 2.239 5 5 5h25.471c-2.761 0-5-2.239-5-5z" fill="#c8effe"/><path d="m360 259h-53.058c-2.761 0-5-2.239-5-5v-129c0-2.761 2.239-5 5-5h53.058c2.761 0 5 2.239 5 5v129c0 2.761-2.239 5-5 5z" fill="#dff6fd"/><path d="m327 254v-129c0-2.761 2.239-5 5-5h-25.058c-2.761 0-5 2.239-5 5v129c0 2.761 2.239 5 5 5h25.058c-2.761 0-5-2.239-5-5z" fill="#c8effe"/></g><g><path d="m205.058 95h-53.058c-2.761 0-5-2.239-5-5v-28c0-2.761 2.239-5 5-5h53.058c2.761 0 5 2.239 5 5v28c0 2.761-2.239 5-5 5z" fill="#dff6fd"/><path d="m172.942 90v-28c0-2.761 2.239-5 5-5h-25.942c-2.761 0-5 2.239-5 5v28c0 2.761 2.239 5 5 5h25.942c-2.761 0-5-2.239-5-5z" fill="#c8effe"/><path d="m282.529 95h-53.058c-2.761 0-5-2.239-5-5v-28c0-2.761 2.239-5 5-5h53.058c2.761 0 5 2.239 5 5v28c0 2.761-2.239 5-5 5z" fill="#dff6fd"/><path d="m249.942 90v-28c0-2.761 2.239-5 5-5h-25.471c-2.761 0-5 2.239-5 5v28c0 2.761 2.239 5 5 5h25.471c-2.761 0-5-2.239-5-5z" fill="#c8effe"/><path d="m360 95h-53.058c-2.761 0-5-2.239-5-5v-28c0-2.761 2.239-5 5-5h53.058c2.761 0 5 2.239 5 5v28c0 2.761-2.239 5-5 5z" fill="#dff6fd"/><path d="m327 90v-28c0-2.761 2.239-5 5-5h-25.058c-2.761 0-5 2.239-5 5v28c0 2.761 2.239 5 5 5h25.058c-2.761 0-5-2.239-5-5z" fill="#c8effe"/></g><path d="m306 412v-111c0-2.761-2.239-5-5-5h-90c-2.761 0-5 2.239-5 5v111z" fill="#dff6fd"/><path d="m256 296h-45c-2.761 0-5 2.239-5 5v111h50z" fill="#c8effe"/><path d="m57.786 411c6.673 9.169 13.97 17.854 21.822 26l2.949 1h63.443c1.103 0 2 .897 2 2v14c0 1.103-.897 2-2 2h-42.957l-1.708 1c42.175 34.38 96.009 55 154.665 55s112.49-20.62 154.665-55l-.451-1h-44.214c-1.103 0-2-.897-2-2v-14c0-1.103.897-2 2-2h64l2.392-1c7.852-8.146 15.15-16.831 21.822-26z" fill="#9facba"/><g fill="#99e6fc"><path d="m248.25 373.667h-4c-1.657 0-3-1.343-3-3v-19.333c0-1.657 1.343-3 3-3h4c1.657 0 3 1.343 3 3v19.333c0 1.657-1.343 3-3 3z"/><path d="m267.75 373.667h-4c-1.657 0-3-1.343-3-3v-19.333c0-1.657 1.343-3 3-3h4c1.657 0 3 1.343 3 3v19.333c0 1.657-1.343 3-3 3z"/></g><g fill="#c5d3dd"><path d="m366 437c-1.657 0-3 1.343-3 3v14c0 1.657 1.343 3 3 3h44.665c7.64-6.228 14.893-12.91 21.727-20z"/><path d="m302.333 457h-92.667c-1.657 0-3-1.343-3-3v-14c0-1.657 1.343-3 3-3h92.667c1.657 0 3 1.343 3 3v14c0 1.657-1.343 3-3 3z"/><path d="m146 437h-66.392c6.834 7.09 14.087 13.772 21.727 20h44.665c1.657 0 3-1.343 3-3v-14c0-1.657-1.343-3-3-3z"/></g></g><path d="m398.201 31h-284.402c-2.761 0-5-2.239-5-5v-21c0-2.761 2.239-5 5-5h284.402c2.761 0 5 2.239 5 5v21c0 2.761-2.238 5-5 5z" fill="#01c0fa"/><path d="m159.598 26v-21c0-2.761 2.239-5 5-5h-50.799c-2.761 0-5 2.239-5 5v21c0 2.761 2.239 5 5 5h50.799c-2.762 0-5-2.239-5-5z" fill="#08a9f1"/><g><g><g fill="#596c76"><path d="m246.414 162.592h-7.471l-7.35 8.614h12.164z"/><path d="m250.831 204.549-7.173-28.852h-12.663z"/><path d="m263.714 175.697h-15.428l7.714 31.027z"/><path d="m273.057 162.592h-7.472l2.658 8.614h12.164z"/><path d="m268.342 175.697-7.174 28.853 19.837-28.853z"/><path d="m251.114 162.592-2.657 8.614h15.086l-2.658-8.614z"/></g></g></g><g fill="#596c76"><g><path d="m270.222 228.908h-28.444c-1.657 0-3-1.343-3-3v-4c0-1.657 1.343-3 3-3h28.444c1.657 0 3 1.343 3 3v4c0 1.657-1.343 3-3 3z"/><path d="m270.222 150.408h-28.444c-1.657 0-3-1.343-3-3v-4c0-1.657 1.343-3 3-3h28.444c1.657 0 3 1.343 3 3v4c0 1.657-1.343 3-3 3z"/></g><g><path d="m193.668 228.908h-28.444c-1.657 0-3-1.343-3-3v-4c0-1.657 1.343-3 3-3h28.444c1.657 0 3 1.343 3 3v4c0 1.657-1.343 3-3 3z"/><path d="m193.668 150.408h-28.444c-1.657 0-3-1.343-3-3v-4c0-1.657 1.343-3 3-3h28.444c1.657 0 3 1.343 3 3v4c0 1.657-1.343 3-3 3z"/></g><g><path d="m348.445 228.908h-28.444c-1.657 0-3-1.343-3-3v-4c0-1.657 1.343-3 3-3h28.444c1.657 0 3 1.343 3 3v4c0 1.657-1.343 3-3 3z"/><path d="m348.445 150.408h-28.444c-1.657 0-3-1.343-3-3v-4c0-1.657 1.343-3 3-3h28.444c1.657 0 3 1.343 3 3v4c0 1.657-1.343 3-3 3z"/></g></g><g><g><path d="m348.948 180.579h-9.182c-.59 0-1.029-.546-.903-1.122l4.675-21.33c.21-.957-1.018-1.54-1.627-.773l-23.138 29.122c-.481.606-.05 1.5.724 1.5h9.182c.59 0 1.029.546.903 1.122l-4.675 21.33c-.21.957 1.018 1.54 1.627.773l23.138-29.122c.482-.606.05-1.5-.724-1.5z" fill="#596c76"/></g></g><g><g><g><path d="m191.424 205.091h-23.883c-.691 0-1.25-.56-1.25-1.25v-8.59c0-.691.56-1.25 1.25-1.25h23.883c.691 0 1.25.56 1.25 1.25v8.59c.001.69-.559 1.25-1.25 1.25z" fill="#596c76"/></g><g><path d="m185.512 173.587-4.935-10.854c-.444-.977-1.832-.977-2.277 0l-4.935 10.854c-.313.688-1.159.943-1.8.543l-9.318-5.811c-.978-.61-2.191.316-1.859 1.42l5.635 18.785c.159.529.645.891 1.198.891h24.52c.554 0 1.042-.364 1.199-.895l5.566-18.794c.327-1.103-.884-2.025-1.861-1.416l-9.333 5.82c-.641.4-1.487.145-1.8-.543z" fill="#596c76"/></g></g></g><g fill="#9facba"><path d="m352.5 376h-23c-2.761 0-5-2.239-5-5v-45c0-2.761 2.239-5 5-5h23c2.761 0 5 2.239 5 5v45c0 2.761-2.239 5-5 5z"/><path d="m182.5 376h-23c-2.761 0-5-2.239-5-5v-45c0-2.761 2.239-5 5-5h23c2.761 0 5 2.239 5 5v45c0 2.761-2.239 5-5 5z"/></g></g></svg>