<svg id="Capa_1" enable-background="new 0 0 512 512" height="512" viewBox="0 0 512 512" width="512" xmlns="http://www.w3.org/2000/svg"><g><g><path d="m89.036 441h344.928c44.788-44.396 72.536-105.954 72.536-174 0-135.31-109.69-245-245-245s-245 109.69-245 245c0 68.046 27.748 129.604 72.536 174z" fill="#a2e62e"/></g><g><g><g><path d="m375.585 86.167c.408 0 .809.028 1.208.061l-63.171-63.171c-.379.634-.829 1.23-1.365 1.766l-9.042 9.042 59.779 59.779c2.439-4.451 7.168-7.477 12.591-7.477z" fill="#e8edf2"/><path d="m292.305 46.19 20.66-20.66c3.905-3.905 3.905-10.237 0-14.142l-8.459-8.459c-3.905-3.905-10.237-3.905-14.142 0l-20.66 20.66z" fill="#978ecb"/><path d="m289.536 20.053 16.047-16.047-1.077-1.077c-3.905-3.905-10.237-3.905-14.142 0l-20.66 20.66 22.601 22.601 8.148-8.148-10.918-10.918c-1.952-1.952-1.952-5.118.001-7.071z" fill="#8379c1"/><path d="m293.012 45.483-22.601-22.601-57.04 20.534c-2.036.733-2.618 3.335-1.088 4.866l55.329 55.329c1.53 1.53 4.133.949 4.866-1.088z" fill="#8379c1"/><path d="m221.144 57.142 46.281-16.661c1.822-.656 3.86-.201 5.229 1.169l15.984 15.984 4.374-12.15-22.601-22.601-57.04 20.534c-2.036.733-2.618 3.335-1.088 4.865z" fill="#6e61b6"/></g></g><g><path d="m383.085 112.718c-2.186 1.348-4.749 2.14-7.5 2.14s-5.314-.792-7.5-2.14v125.9h15z" fill="#e8edf2"/></g><circle cx="375.585" cy="100.512" fill="#8d9ca8" r="15.345"/><path d="m370.81 100.512c0-6.615 4.193-12.235 10.06-14.391-1.65-.606-3.425-.954-5.285-.954-8.475 0-15.345 6.87-15.345 15.345s6.87 15.345 15.345 15.345c1.86 0 3.635-.348 5.285-.954-5.867-2.156-10.06-7.776-10.06-14.391z" fill="#7a8c98"/></g><g><path d="m434.334 282.967h-33.105l-5.503 9.717h38.608z" fill="#7a8c98"/><g><path d="m471.261 298.515h-34.336c-1.789 0-3.239-1.45-3.239-3.239v-14.9c0-1.789 1.45-3.239 3.239-3.239h34.336c1.789 0 3.239 1.45 3.239 3.239v14.9c0 1.789-1.45 3.239-3.239 3.239z" fill="#596c76"/></g><path d="m449.234 295.276v-14.9c0-1.789 1.45-3.239 3.239-3.239h-15.548c-1.789 0-3.239 1.45-3.239 3.239v14.9c0 1.789 1.45 3.239 3.239 3.239h15.548c-1.789 0-3.239-1.45-3.239-3.239z" fill="#465a61"/><path d="m385.098 396v-95.892h-23.322v95.892z" fill="#f5f8f9"/><path d="m361.776 300.108h10.365v95.892h-10.365z" fill="#e8edf2"/><path d="m391.576 417.903v-16.425c0-3.578-2.901-6.478-6.478-6.478h-23.322c-3.578 0-6.478 2.9-6.478 6.478v16.425z" fill="#8d9ca8"/><path d="m370.845 417.903v-16.425c0-3.578 2.901-6.478 6.479-6.478h-15.548c-3.578 0-6.478 2.9-6.478 6.478v16.425z" fill="#7a8c98"/><g><path d="m336.463 268.066 16.65 29.403c1.15 2.031 3.303 3.286 5.637 3.286h29.374c2.334 0 4.487-1.255 5.637-3.286l16.65-29.403z" fill="#596c76"/></g><g><path d="m375.092 297.47-16.65-29.403h-21.98l16.65 29.403c1.15 2.031 3.303 3.286 5.637 3.286h21.98c-2.333 0-4.487-1.255-5.637-3.286z" fill="#465a61"/></g><g><path d="m436.925 268.714h-126.977c-5.367 0-9.718-4.351-9.718-9.718v-11.661c0-5.367 4.351-9.718 9.718-9.718h126.977c5.367 0 9.718 4.351 9.718 9.718v11.661c0 5.368-4.351 9.718-9.718 9.718z" fill="#8d9ca8"/></g><g><path d="m430.5 441v-5.221c0-10.424-8.451-18.875-18.875-18.875h-76.376c-10.424 0-18.875 8.451-18.875 18.875v5.221z" fill="#596c76"/></g><path d="m368.875 416.904h-33.626c-10.424 0-18.875 8.451-18.875 18.875v5.221h33.626v-5.221c0-10.425 8.451-18.875 18.875-18.875z" fill="#465a61"/><path d="m335.862 258.349c-5.367 0-9.718-4.351-9.718-9.718v-11.013h-16.196c-5.367 0-9.718 4.351-9.718 9.718v11.661c0 5.367 4.351 9.718 9.718 9.718h126.977c5.367 0 9.718-4.351 9.718-9.718v-.648z" fill="#7a8c98"/></g><g><path d="m61.603 145.16 23.869-10.895c9.09-4.149 13.095-14.881 8.946-23.971l-24.516-53.71c-4.149-9.09-14.881-13.095-23.971-8.946l-23.732 10.832z" fill="#7a8c98"/><path d="m52.541 65.238 17.636-8.05-.276-.604c-4.148-9.09-14.88-13.095-23.97-8.946l-23.732 10.832 39.404 86.689 18.04-8.234-29.577-65.07c-1.142-2.511-.034-5.472 2.475-6.617z" fill="#596c76"/><path d="m149.874 310.075h75.986v90.668h-75.986z" fill="#8d9ca8"/><path d="m149.874 310.075h20.126v90.668h-20.126z" fill="#7a8c98"/><g><path d="m196.913 379.876h-18.092c-2.498 0-4.523-2.025-4.523-4.523v-36.83c0-2.498 2.025-4.523 4.523-4.523h18.092c2.498 0 4.523 2.025 4.523 4.523v36.83c0 2.498-2.025 4.523-4.523 4.523z" fill="#b6c4cf"/></g><path d="m187 375.353v-36.83c0-2.498 2.025-4.523 4.523-4.523h-12.702c-2.498 0-4.523 2.025-4.523 4.523v36.83c0 2.498 2.025 4.523 4.523 4.523h12.702c-2.498 0-4.523-2.025-4.523-4.523z" fill="#9facba"/><path d="m115.84 264.481c.527 1.161 1.693 1.911 2.969 1.911h153.186v-13.212c0-9.992-8.1-18.092-18.092-18.092h-103.367l-36.523-80.015c-4.149-9.09-14.881-13.095-23.971-8.946l-23.188 10.584z" fill="#7a8c98"/><g><path d="m96.401 163.149 17.626-8.045-.014-.03c-4.136-9.092-14.864-13.103-23.95-8.955l-23.209 10.594 48.986 107.769c.527 1.161 1.693 1.911 2.969 1.911h19.037l-43.921-96.626c-1.141-2.511-.034-5.472 2.476-6.618z" fill="#596c76"/></g><g fill="#b6c4cf"><path d="m140.828 215.997h22.615v50.396h-22.615z"/><path d="m183.344 215.997h22.615v50.396h-22.615z"/></g><g><path d="m224.479 216.997h-102.17c-2.761 0-5-2.239-5-5v-15.329c0-2.761 2.239-5 5-5h102.17c2.761 0 5 2.239 5 5v15.329c0 2.761-2.239 5-5 5z" fill="#596c76"/></g><path d="m147.83 208.329c-2.761 0-5-2.239-5-5v-11.661h-20.521c-2.761 0-5 2.239-5 5v15.329c0 2.761 2.239 5 5 5h102.17c2.761 0 5-2.239 5-5v-3.668z" fill="#465a61"/><path d="m126.354 287.008v15.021c0 4.996 4.05 9.046 9.046 9.046h104.934c4.996 0 9.046-4.05 9.046-9.046v-15.021z" fill="#596c76"/><path d="m168.974 302.029v-15.021h-42.62v15.021c0 4.996 4.05 9.046 9.046 9.046h42.62c-4.995 0-9.046-4.05-9.046-9.046z" fill="#465a61"/><path d="m352.877 405.129-52.456-129.993c-4.677-6.101-12.057-9.743-19.744-9.743h-161.868c-.885 0-1.693-.521-2.059-1.326l-94.147-207.124c-1.174-2.583-4.22-3.784-6.809-2.623-8.813 3.95-12.721 14.31-8.73 23.091l89.098 196.015c4.027 8.858 12.916 14.582 22.647 14.582h157.375c2.01 0 3.824 1.203 4.606 3.055l49.78 117.882c.782 1.852 2.596 3.055 4.606 3.055h13.065c3.543 0 5.962-3.585 4.636-6.871z" fill="#8d9ca8"/><path d="m273.5 414.743c0-8.284-6.716-15-15-15h-142.089c-8.284 0-15 6.716-15 15v26.257h172.089z" fill="#596c76"/><path d="m158.911 399.743h-42.5c-8.284 0-15 6.716-15 15v26.257h42.5v-26.257c0-8.284 6.716-15 15-15z" fill="#465a61"/></g><path d="m88.023 440c44.355 44.476 105.7 72 173.477 72s129.122-27.524 173.477-72z" fill="#978ecb"/><path d="m412.432 459.988c7.919-6.202 15.451-12.876 22.545-19.988h-346.954c7.093 7.113 14.626 13.786 22.545 19.988z" fill="#8379c1"/><path d="m375.585 107.024c-3.591 0-6.513-2.921-6.513-6.512s2.922-6.512 6.513-6.512 6.512 2.922 6.512 6.513-2.921 6.511-6.512 6.511z" fill="#e8edf2"/></g></svg>