<svg id="Capa_1" enable-background="new 0 0 512 512" height="512" viewBox="0 0 512 512" width="512" xmlns="http://www.w3.org/2000/svg"><g><path d="m256 22c-135.31 0-245 109.69-245 245 0 54.554 17.847 104.952 48 145.665h1v-35.971c0-13.233 10.767-24 24-24h53.808l-.83-.442 1.662-1.112-.832 1.555h67.744c8.499 0 15.414-6.914 15.414-15.413v-17.795c11.178 4.359 22.957 6.568 35.034 6.568 12.078 0 23.857-2.209 35.034-6.568v17.795c0 8.499 6.915 15.413 15.414 15.413h121.552c6.119 0 11.707 2.305 15.95 6.088h1v-47.683h13v90.104l1 3.03c26.533-39.152 42.05-86.375 42.05-137.234 0-135.31-109.69-245-245-245z" fill="#fef0ae"/><path d="m75.326 354.322c2.692-1.048 5.616-1.629 8.674-1.629h121.552c8.499 0 15.414-6.914 15.414-15.413v-17.795c11.178 4.359 22.957 6.568 35.034 6.568 12.078 0 23.857-2.209 35.034-6.568v17.795c0 8.499 6.915 15.413 15.414 15.413h121.552c3.058 0 5.982.581 8.674 1.629 7.293-7.256 11.826-17.285 11.826-28.322v-122c0-22-18-40-40-40h-305c-22 0-40 18-40 40v122c0 11.037 4.532 21.066 11.826 28.322z" fill="#fff"/><path d="m129.633 166.695v-2.695h-26.133c-22 0-40 18-40 40v122c0 11.037 4.532 21.066 11.826 28.322 2.692-1.048 5.616-1.629 8.674-1.629h30.28c-6.381-7.093-10.28-16.459-10.28-26.693v-122c0-16.941 10.678-31.5 25.633-37.305z" fill="#f5f8f9"/><g><g><path d="m317.022 21.654h-41.966c19.158 16.135 31.354 40.285 31.354 67.233v17.371l.703.219c26.709 8.318 44.655 32.721 44.655 60.722v62.087c0 39.346-23.593 74.242-60.106 88.902l-.627.252v6.285h76.333c8.284 0 15-6.716 15-15v-222.725c-.001-36.089-29.257-65.346-65.346-65.346z" fill="#fac600"/><g><path d="m160.232 229.286v-62.087c0-35.062 28.525-63.588 63.588-63.588h64.359c6.701 0 13.159 1.049 19.229 2.979v-17.702c.001-49.092-39.796-88.888-88.887-88.888-49.092 0-88.888 39.797-88.888 88.888v220.837c0 8.284 6.716 15 15 15h103.466c-49.124-4.031-87.867-45.293-87.867-95.439z" fill="#fed402"/></g><g fill="#fac600"><path d="m143.703 180.171h15.529v-12.972c0-12.238 3.405-23.68 9.317-33.433v-44.878c0-42.396 29.69-77.835 69.406-86.72-6.256-1.404-12.753-2.168-19.434-2.168-49.092 0-88.888 39.797-88.888 88.888v94.504c4.253-2.062 9.026-3.221 14.07-3.221z"/><path d="m162.776 255.308h-19.073c-5.044 0-9.817-1.158-14.071-3.221v57.638c0 8.284 6.716 15 15 15h23.917v-53.968c-2.343-4.934-4.282-10.098-5.773-15.449z"/></g></g><g><g><path d="m237.927 511.335-87.16-141.367-12.96-18.274h-53.807c-13.807 0-25 11.193-25 25v35.971c41.273 55.726 105.62 93.324 178.927 98.67z" fill="#97d729"/></g><path d="m104 376.694c0-13.807 11.193-25 25-25h-45c-13.807 0-25 11.193-25 25v35.971c12.892 17.406 28.036 33.044 45 46.483z" fill="#8bc727"/><g><path d="m453 412.665v-35.971c0-13.807-11.193-25-25-25h-53.808l-12.96 18.274-87.16 141.367c73.307-5.346 137.655-42.944 178.928-98.67z" fill="#97d729"/></g></g><path d="m306.448 351.694c-7.96 0-14.414-6.453-14.414-14.414v-19.27c-11.129 4.536-23.294 7.044-36.034 7.044s-24.905-2.507-36.034-7.044v19.27c0 7.96-6.453 14.414-14.414 14.414h-67.744l98.34 159.503c6.549.525 13.168.803 19.852.803s13.303-.278 19.852-.803l98.34-159.503z" fill="#fed2a4"/><g><path d="m270.948 511.533-98.547-159.839h-34.593l98.34 159.503c6.549.525 13.168.803 19.852.803 5.021 0 10.002-.169 14.948-.467z" fill="#ffbd86"/></g><g><g><path d="m160.674 229.286v-49.115h-16.971c-17.831 0-32.286 14.455-32.286 32.286v10.566c0 17.831 14.455 32.286 32.286 32.286h20.611c-2.353-8.279-3.64-17.001-3.64-26.023z" fill="#f6a96c"/></g><g><path d="m144.84 237.634-14.397 14.397c-1.547 1.547-1.547 4.056 0 5.603l14.397 14.397c1.547 1.547 4.056 1.547 5.603 0l14.397-14.397c1.547-1.547 1.547-4.056 0-5.603l-14.397-14.397c-1.547-1.547-4.056-1.547-5.603 0z" fill="#596c76"/></g><path d="m143.916 257.634c-1.547-1.547-1.547-4.056 0-5.603l10.462-10.462-3.935-3.935c-1.547-1.547-4.056-1.547-5.603 0l-14.397 14.397c-1.547 1.547-1.547 4.056 0 5.603l14.397 14.397c1.547 1.547 4.056 1.547 5.603 0l3.935-3.935z" fill="#465a61"/><g><path d="m368.297 180.171h-16.971v49.115c0 9.022-1.287 17.744-3.64 26.022h20.611c17.831 0 32.285-14.455 32.285-32.286v-10.566c0-17.83-14.454-32.285-32.285-32.285z" fill="#ffbd86"/></g></g><g><g><path d="m256 326.054c-53.444 0-96.768-43.324-96.768-96.768v-62.087c0-35.671 28.917-64.588 64.588-64.588h64.36c35.671 0 64.588 28.917 64.588 64.588v62.087c0 53.443-43.325 96.768-96.768 96.768z" fill="#fed2a4"/></g><g><path d="m256 326.054c-53.444 0-96.768-43.324-96.768-96.768v-62.087c0-35.671 28.917-64.588 64.588-64.588h64.36c35.671 0 64.588 28.917 64.588 64.588v62.087c0 53.443-43.325 96.768-96.768 96.768z" fill="#fed2a4"/></g><g><path d="m191.29 229.286v-62.087c0-35.671 28.917-64.588 64.588-64.588h-32.058c-35.671 0-64.588 28.917-64.588 64.588v62.087c0 53.443 43.324 96.768 96.768 96.768 5.458 0 10.807-.459 16.017-1.331-45.808-7.643-80.727-47.459-80.727-95.437z" fill="#ffbd86"/></g><g><path d="m255.993 245.328c-1.182 0-2.38-.28-3.497-.871l-18.472-9.76c-1.924-1.016-3.312-2.818-3.803-4.938s-.037-4.349 1.243-6.107l18.472-25.374c2.438-3.35 7.131-4.087 10.478-1.649 3.349 2.438 4.087 7.129 1.649 10.478l-13.376 18.374 10.816 5.715c3.662 1.935 5.062 6.473 3.127 10.135-1.343 2.544-3.945 3.996-6.637 3.997z" fill="#d78878"/></g><g><path d="m256 286.469c-14.723 0-29.444-5.604-40.652-16.811-2.93-2.929-2.93-7.678-.001-10.606 2.929-2.93 7.678-2.93 10.606-.001 16.568 16.568 43.525 16.568 60.094 0 2.929-2.929 7.678-2.928 10.606.001s2.929 7.678-.001 10.606c-11.208 11.207-25.929 16.811-40.652 16.811z" fill="#d78878"/></g></g><g><g><path d="m232.515 176.946c-1.944 0-3.888-.752-5.356-2.25-5.812-5.931-13.521-9.196-21.705-9.196s-15.892 3.266-21.703 9.196c-2.899 2.958-7.648 3.006-10.606.106s-3.006-7.647-.106-10.606c8.656-8.832 20.168-13.696 32.416-13.696s23.761 4.864 32.418 13.696c2.899 2.958 2.852 7.707-.106 10.606-1.462 1.431-3.358 2.144-5.252 2.144z" fill="#d78878"/></g><g><path d="m279.49 176.946c-2.182 0-4.345-.946-5.827-2.772-2.611-3.216-2.121-7.938 1.095-10.55 17.827-14.474 45.753-14.474 63.576 0 3.216 2.611 3.706 7.335 1.095 10.55-2.61 3.216-7.335 3.706-10.55 1.095-12.104-9.828-32.559-9.829-44.666 0-1.39 1.128-3.063 1.677-4.723 1.677z" fill="#d78878"/></g></g><g><g><path d="m328.522 208.83h-34.638c-4.143 0-7.5-3.357-7.5-7.5s3.357-7.5 7.5-7.5h34.638c4.143 0 7.5 3.357 7.5 7.5s-3.357 7.5-7.5 7.5z" fill="#d78878"/></g><g><path d="m218.115 208.83h-34.638c-4.143 0-7.5-3.357-7.5-7.5s3.357-7.5 7.5-7.5h34.638c4.143 0 7.5 3.357 7.5 7.5s-3.357 7.5-7.5 7.5z" fill="#d78878"/></g></g></g><g><g><path d="m331.732 289.522c-3.054-2.529-4.36-7.008-4.36-11.709 0-18.178 20.885-22.143 20.885-36.55 0-10.152-11.507-19.264-23.013-19.264-5.124.001-16.244 2.054-16.244 12.883 0 5.512 2.997 9.766 8.025 9.766 1.547 0 3.094-.58 4.351-2.031-2.611-1.547-4.351-5.125-4.351-8.315 0-3.384 1.934-6.479 7.059-6.479 5.318 0 8.992 3.094 8.992 8.412 0 15.18-21.756 16.051-21.756 37.613 0 9.742 5.472 18.472 14.275 22.663 2.155-2.229 4.203-4.561 6.137-6.989z" fill="#596c76"/></g></g><g><path d="m330.906 118.782c-1.405.706-2.949 1.266-4.567 1.666-17.647 4.363-26.508-14.961-40.494-11.503-9.856 2.437-15.939 15.794-13.178 26.964 1.23 4.975 5.891 15.277 16.404 12.678 5.351-1.323 8.761-5.253 7.554-10.135-.371-1.502-1.306-2.865-3.016-3.737-.875 2.906-3.93 5.454-7.028 6.219-3.285.812-6.753-.322-7.983-5.298-1.276-5.162.846-9.472 6.009-10.748 14.737-3.643 20.803 17.268 41.735 12.093 5.452-1.348 10.133-4.387 13.502-8.544-2.643-3.517-5.645-6.747-8.938-9.655z" fill="#596c76"/></g><g><path d="m314.971 369.843 5.185 10.506c.294.596.862 1.008 1.519 1.104l11.594 1.685c1.655.241 2.316 2.275 1.118 3.442l-8.39 8.178c-.476.464-.693 1.132-.58 1.786l1.981 11.548c.283 1.649-1.448 2.906-2.928 2.127l-10.37-5.452c-.588-.309-1.29-.309-1.878 0l-10.37 5.452c-1.48.778-3.211-.479-2.928-2.127l1.981-11.548c.112-.655-.105-1.323-.58-1.786l-8.39-8.178c-1.198-1.167-.537-3.202 1.118-3.442l11.594-1.685c.657-.096 1.225-.508 1.519-1.104l5.185-10.506c.741-1.5 2.88-1.5 3.62 0z" fill="#596c76"/></g><g><path d="m291.874 412.298 4.04 8.187c.229.464.672.786 1.184.86l9.035 1.313c1.29.187 1.805 1.772.871 2.682l-6.538 6.372c-.371.361-.54.882-.452 1.392l1.543 8.998c.22 1.285-1.128 2.264-2.282 1.658l-8.081-4.248c-.458-.241-1.005-.241-1.463 0l-8.081 4.248c-1.154.606-2.502-.373-2.282-1.658l1.543-8.998c.087-.51-.082-1.031-.452-1.392l-6.538-6.372c-.933-.91-.418-2.495.871-2.682l9.035-1.313c.512-.074.955-.396 1.184-.86l4.04-8.187c.58-1.168 2.247-1.168 2.823 0z" fill="#596c76"/></g><g><path d="m274.61 446.534 3.251 6.588c.184.373.541.632.953.692l7.27 1.056c1.038.151 1.452 1.426.701 2.158l-5.261 5.128c-.298.291-.434.71-.364 1.12l1.242 7.241c.177 1.034-.908 1.822-1.836 1.334l-6.503-3.419c-.369-.194-.809-.194-1.178 0l-6.503 3.419c-.928.488-2.013-.3-1.836-1.334l1.242-7.241c.07-.41-.066-.829-.364-1.12l-5.261-5.128c-.751-.732-.337-2.008.701-2.158l7.27-1.056c.412-.06.768-.319.953-.692l3.251-6.588c.467-.94 1.808-.94 2.272 0z" fill="#596c76"/></g><g><path d="m443.95 310.1v114.048c5.322-6.359 10.335-12.984 15-19.867v-94.181z" fill="#596c76"/><g><g><path d="m369.924 235.55h-26.436c-.883 0-1.662.579-1.916 1.425l-1.8 6c-.385 1.283.576 2.575 1.916 2.575h28.236z" fill="#b6c4cf"/></g><path d="m381.894 227.832h-7.97c-2.761 0-5 2.239-5 5v15.435c0 2.761 2.239 5 5 5h7.97z" fill="#596c76"/><path d="m422.9 221.847h-37.007c-2.761 0-5 2.239-5 5v27.405c0 2.761 2.239 5 5 5h37.007z" fill="#01c0fa"/><path d="m400 247c-2.761 0-5-2.239-5-5v-20.153h-9.107c-2.761 0-5 2.239-5 5v27.405c0 2.761 2.239 5 5 5h37.007v-12.252z" fill="#08a9f1"/><path d="m432.374 269.1v37c0 2.761 2.239 5 5 5h28.153c2.761 0 5-2.239 5-5v-37z" fill="#01c0fa"/><path d="m449 306.1v-37h-16.626v37c0 2.761 2.239 5 5 5h16.626c-2.761 0-5-2.239-5-5z" fill="#08a9f1"/><g><path d="m421.9 260.1v-39.1c0-5.523 4.477-10 10-10h39.1c5.523 0 10 4.477 10 10v39.1c0 5.523-4.477 10-10 10h-39.1c-5.522 0-10-4.478-10-10z" fill="#596c76"/></g><path d="m442.9 260.1v-39.1c0-5.523 4.477-10 10-10h-21c-5.523 0-10 4.477-10 10v39.1c0 5.523 4.477 10 10 10h21c-5.522 0-10-4.478-10-10z" fill="#465a61"/></g></g><g><g><path d="m296.196 284c-8.55 0-17.101 6.771-17.101 14.315 0 8.632 10.086 12.223 13.995 20.37 3.818-1.586 7.515-3.404 11.068-5.447-4.495-7.662-13.782-10.107-13.782-18.659 0-3.952 2.731-6.251 6.682-6.251 3.809 0 5.245 2.299 5.245 4.814 0 2.371-1.293 5.03-3.233 6.179.934 1.078 2.084 1.509 3.233 1.509 3.737 0 5.964-3.161 5.964-7.257 0-8.048-8.263-9.573-12.071-9.573z" fill="#596c76"/></g></g></g></svg>