<svg id="Capa_1" enable-background="new 0 0 512 512" height="512" viewBox="0 0 512 512" width="512" xmlns="http://www.w3.org/2000/svg"><g><g><path d="m76 100.814c-40.341 43.672-65 102.045-65 166.186s24.659 122.514 65 166.186z" fill="#fed402"/><path d="m436 100.814v332.373c40.341-43.672 65-102.046 65-166.186s-24.659-122.515-65-166.187z" fill="#fed402"/><g><path d="m373.565 52c-34.899-19.125-74.962-30-117.565-30s-82.666 10.875-117.565 30z" fill="#fed402"/></g></g><path d="m412 51h-312v404.882c42.375 35.041 96.719 56.118 156 56.118s113.625-21.077 156-56.118z" fill="#9facba"/><path d="m100 455.874c12.419 10.267 25.854 19.348 40.152 27.039v-431.913h-40.152z" fill="#8d9ca8"/><path d="m302.75 287h-22.75v100h26v-99z" fill="#d9e7ec"/><path d="m280 287h12v100h-12z" fill="#c5d3dd"/><g><path d="m365.135 229.79-3.289-13.737c-.288-1.204-1.365-2.053-2.603-2.053h-.076c-1.238 0-2.314.849-2.603 2.053l-3.289 13.737z" fill="#c5d3dd"/><g><path d="m369.198 243.956v-11.49c0-2.217-1.798-4.015-4.015-4.015h-11.958c-2.217 0-4.015 1.797-4.015 4.015v11.49z" fill="#f5f8f9"/></g><path d="m362.723 228.451h-9.497c-2.217 0-4.015 1.797-4.015 4.015v11.49h9.497v-11.49c0-2.218 1.797-4.015 4.015-4.015z" fill="#d9e7ec"/><path d="m379.419 261.672v-15.039c0-2.217-1.798-4.015-4.015-4.015h-32.399c-2.217 0-4.015 1.797-4.015 4.015v15.039z" fill="#fff"/><path d="m359.765 242.618h-16.76c-2.217 0-4.015 1.797-4.015 4.015v15.039h16.76v-15.039c0-2.218 1.798-4.015 4.015-4.015z" fill="#f5f8f9"/><path d="m394.409 387v-119.975c0-3.695-2.996-6.691-6.691-6.691h-57.026c-3.695 0-6.691 2.996-6.691 6.691v119.975z" fill="#596c76"/><path d="m356.282 260.333h-25.591c-3.695 0-6.691 2.996-6.691 6.691v119.976h25.591v-119.975c0-3.696 2.996-6.692 6.691-6.692z" fill="#465a61"/><path d="m377.147 370.262h-35.886c-1.254 0-2.271-1.017-2.271-2.271v-80.487c0-1.254 1.017-2.271 2.271-2.271h35.886c1.254 0 2.271 1.017 2.271 2.271v80.487c0 1.254-1.016 2.271-2.271 2.271z" fill="#8d9ca8"/><path d="m356.032 367.991v-80.487c0-1.255 1.017-2.271 2.271-2.271h-17.042c-1.254 0-2.271 1.017-2.271 2.271v80.487c0 1.254 1.017 2.271 2.271 2.271h17.042c-1.255 0-2.271-1.017-2.271-2.271z" fill="#7a8c98"/></g><g><g><path d="m151.186 210.504v-14.912c0-3.088-2.504-5.592-5.592-5.592h-7.456c-3.088 0-5.592 2.504-5.592 5.592v14.912z" fill="#01c0fa"/><path d="m174.486 210.504v-14.912c0-3.088-2.504-5.592-5.592-5.592h-7.456c-3.088 0-5.592 2.504-5.592 5.592v14.912z" fill="#fedf30"/></g><path d="m188 263v-48.768c0-3.088-2.504-5.592-5.592-5.592h-57.784c-3.088 0-5.592 2.504-5.592 5.592v48.768z" fill="#fff"/><path d="m148.856 263v-48.768c0-3.088 2.504-5.592 5.592-5.592h-29.824c-3.088 0-5.592 2.504-5.592 5.592v48.768z" fill="#f5f8f9"/></g><g><g><path d="m236.186 210.504v-14.912c0-3.088-2.504-5.592-5.592-5.592h-7.456c-3.088 0-5.592 2.504-5.592 5.592v14.912z" fill="#01c0fa"/><path d="m259.486 210.504v-14.912c0-3.088-2.504-5.592-5.592-5.592h-7.456c-3.088 0-5.592 2.504-5.592 5.592v14.912z" fill="#a2e62e"/></g><path d="m273 263v-48.768c0-3.088-2.504-5.592-5.592-5.592h-57.784c-3.088 0-5.592 2.504-5.592 5.592v48.768z" fill="#fff"/><path d="m233.856 263v-48.768c0-3.088 2.504-5.592 5.592-5.592h-29.824c-3.088 0-5.592 2.504-5.592 5.592v48.768z" fill="#f5f8f9"/></g><g><path d="m266 387v-38.736c0-5.147-4.172-9.32-9.32-9.32h-137.651c-5.147 0-9.32 4.173-9.32 9.32v38.736z" fill="#fff"/><path d="m145.32 338.944h-26.291c-5.147 0-9.32 4.173-9.32 9.32v38.736h26.291v-38.736c0-5.147 4.173-9.32 9.32-9.32z" fill="#f5f8f9"/><path d="m226.066 373h-76.424c-3.088 0-5.592-2.504-5.592-5.592v-7.456c0-3.088 2.504-5.592 5.592-5.592h76.424c3.088 0 5.592 2.504 5.592 5.592v7.456c0 3.088-2.503 5.592-5.592 5.592z" fill="#c8effe"/><path d="m169.392 367.408v-7.456c0-3.088 2.504-5.592 5.592-5.592h-25.342c-3.088 0-5.592 2.504-5.592 5.592v7.456c0 3.088 2.504 5.592 5.592 5.592h25.342c-3.088 0-5.592-2.504-5.592-5.592z" fill="#99e6fc"/></g><g><g><path d="m378.42 139v-89.307l-2.896-1h-102.077l-3.055 1v89.307z" fill="#dff6fd"/><path d="m270.392 49.693h35.75v89.307h-35.75z" fill="#c8effe"/><path d="m297.399 117.75h54.014c2.983 0 5.401-2.418 5.401-5.401v-32.408c0-2.983-2.418-5.401-5.401-5.401h-54.014c-2.983 0-5.401 2.418-5.401 5.401v32.408c0 2.983 2.418 5.401 5.401 5.401z" fill="#01c0fa"/><path d="m315.706 112.349v-32.408c0-2.983 2.418-5.401 5.401-5.401h-23.708c-2.983 0-5.402 2.418-5.402 5.401v32.408c0 2.983 2.418 5.401 5.402 5.401h23.708c-2.982 0-5.401-2.418-5.401-5.401z" fill="#08a9f1"/><path d="m378.42 49.693h-108.028v-33.489c0-8.949 7.255-16.204 16.204-16.204h75.619c8.949 0 16.204 7.255 16.204 16.204v33.489z" fill="#01c0fa"/><path d="m322.347 0h-35.75c-8.949 0-16.204 7.255-16.204 16.204v33.488h35.75v-33.488c-.001-8.949 7.254-16.204 16.204-16.204z" fill="#08a9f1"/></g><g><g><g><path d="m185.406 139v-11.994l-1.639-.32h-48.587l-1.6.32v11.994z" fill="#a2e62e"/><path d="m133.58 127.006h7.678v11.994h-7.678z" fill="#97d729"/><g><path d="m175.551 59.504h-4.541v-4.479h-23.034v4.479h-4.541c-5.443 0-9.855 4.412-9.855 9.855v12.859l1.66.32h48.587l1.58-.32v-12.859c-.001-5.443-4.413-9.855-9.856-9.855z" fill="#a2e62e"/></g><g><path d="m147.976 59.504h-4.541c-5.443 0-9.855 4.412-9.855 9.855v12.859l1.66.32h6.018v-11.197c0-3.71 3.008-6.718 6.718-6.718h6.078c.883 0 1.6-.716 1.6-1.6v-7.998h-7.678z" fill="#97d729"/></g><g><path d="m133.58 82.218v15.356l1.639.32h48.588l1.599-.32v-15.356z" fill="#596c76"/></g><path d="m133.58 82.218h7.678v15.356h-7.678z" fill="#465a61"/></g><g><g><path d="m165.763 16.316-3.126-15.042c-.154-.742-.808-1.274-1.566-1.274h-3.156c-.758 0-1.412.532-1.566 1.274l-3.126 15.042z" fill="#596c76"/></g><g><path d="m162.148.424c-.287-.263-.665-.424-1.077-.424h-3.156c-.758 0-1.412.532-1.566 1.274l-3.126 15.042h5.31l3.126-15.042c.07-.339.248-.63.489-.85z" fill="#465a61"/></g><g><path d="m169.73 33.591v-15.356c0-1.237-1.003-2.239-2.239-2.239h-15.996c-1.237 0-2.239 1.003-2.239 2.239v15.356z" fill="#7a8c98"/></g><g><path d="m159.173 15.996h-7.678c-1.237 0-2.239 1.003-2.239 2.239v15.356h7.678v-15.356c0-1.237 1.002-2.239 2.239-2.239z" fill="#596c76"/></g><g><path d="m172.61 55.345h-26.233c-1.767 0-3.199-1.432-3.199-3.199v-15.676c0-1.767 1.432-3.199 3.199-3.199h26.233c1.767 0 3.199 1.432 3.199 3.199v15.676c0 1.767-1.433 3.199-3.199 3.199z" fill="#596c76"/></g><g><path d="m156.614 48.627c-1.767 0-3.199-1.432-3.199-3.199v-12.157h-7.038c-1.767 0-3.199 1.432-3.199 3.199v15.676c0 1.767 1.432 3.199 3.199 3.199h26.233c1.767 0 3.199-1.432 3.199-3.199v-3.519z" fill="#465a61"/></g><g><path d="m133.58 97.574h51.826v29.432h-51.826z" fill="#fff"/></g><path d="m133.58 97.574h7.678v29.432h-7.678z" fill="#f5f8f9"/></g></g><g><g><path d="m176.736 119.328h-34.486c-1.688 0-3.055-1.368-3.055-3.055v-8.925c0-1.688 1.368-3.055 3.055-3.055h34.486c1.688 0 3.055 1.368 3.055 3.055v8.925c0 1.687-1.368 3.055-3.055 3.055z" fill="#a2e62e"/></g></g><path d="m151.564 116.273v-8.925c0-1.688 1.368-3.055 3.055-3.055h-12.369c-1.688 0-3.055 1.368-3.055 3.055v8.925c0 1.688 1.368 3.055 3.055 3.055h12.369c-1.687 0-3.055-1.368-3.055-3.055z" fill="#97d729"/></g><g><g><g><path d="m246.406 139v-11.994l-1.639-.32h-48.587l-1.6.32v11.994z" fill="#fe5694"/><path d="m194.58 127.006h7.678v11.994h-7.678z" fill="#fe0364"/><g><path d="m236.551 59.504h-4.541v-4.479h-23.034v4.479h-4.541c-5.443 0-9.855 4.412-9.855 9.855v12.859l1.66.32h48.587l1.58-.32v-12.859c-.001-5.443-4.413-9.855-9.856-9.855z" fill="#fe5694"/></g><g><path d="m208.976 59.504h-4.541c-5.443 0-9.855 4.412-9.855 9.855v12.859l1.66.32h6.018v-11.197c0-3.71 3.008-6.718 6.718-6.718h6.078c.883 0 1.6-.716 1.6-1.6v-7.998h-7.678z" fill="#fe0364"/></g><g><path d="m194.58 82.218v15.356l1.639.32h48.588l1.599-.32v-15.356z" fill="#596c76"/></g><path d="m194.58 82.218h7.678v15.356h-7.678z" fill="#465a61"/></g><g><g><path d="m226.763 16.316-3.126-15.042c-.154-.742-.808-1.274-1.566-1.274h-3.156c-.758 0-1.412.532-1.566 1.274l-3.126 15.042z" fill="#596c76"/></g><g><path d="m223.148.424c-.287-.263-.665-.424-1.077-.424h-3.156c-.758 0-1.412.532-1.566 1.274l-3.126 15.042h5.31l3.126-15.042c.07-.339.248-.63.489-.85z" fill="#465a61"/></g><g><path d="m230.73 33.591v-15.356c0-1.237-1.003-2.239-2.239-2.239h-15.996c-1.237 0-2.239 1.003-2.239 2.239v15.356z" fill="#7a8c98"/></g><g><path d="m220.173 15.996h-7.678c-1.237 0-2.239 1.003-2.239 2.239v15.356h7.678v-15.356c0-1.237 1.002-2.239 2.239-2.239z" fill="#596c76"/></g><g><path d="m233.61 55.345h-26.233c-1.767 0-3.199-1.432-3.199-3.199v-15.676c0-1.767 1.432-3.199 3.199-3.199h26.233c1.767 0 3.199 1.432 3.199 3.199v15.676c0 1.767-1.433 3.199-3.199 3.199z" fill="#596c76"/></g><g><path d="m217.614 48.627c-1.767 0-3.199-1.432-3.199-3.199v-12.157h-7.038c-1.767 0-3.199 1.432-3.199 3.199v15.676c0 1.767 1.432 3.199 3.199 3.199h26.233c1.767 0 3.199-1.432 3.199-3.199v-3.519z" fill="#465a61"/></g><g><path d="m194.58 97.574h51.826v29.432h-51.826z" fill="#fff"/></g><path d="m194.58 97.574h7.678v29.432h-7.678z" fill="#f5f8f9"/></g></g><g><g><path d="m237.736 119.328h-34.486c-1.688 0-3.055-1.368-3.055-3.055v-8.925c0-1.688 1.368-3.055 3.055-3.055h34.486c1.688 0 3.055 1.368 3.055 3.055v8.925c0 1.687-1.368 3.055-3.055 3.055z" fill="#fe5694"/></g></g><path d="m212.564 116.273v-8.925c0-1.688 1.368-3.055 3.055-3.055h-12.369c-1.688 0-3.055 1.368-3.055 3.055v8.925c0 1.688 1.368 3.055 3.055 3.055h12.369c-1.687 0-3.055-1.368-3.055-3.055z" fill="#fe0364"/></g></g><path d="m100 138h312v26h-312z" fill="#c5d3dd"/><path d="m124 146v-8h-24v26h312v-13h-283c-2.761 0-5-2.239-5-5z" fill="#b6c4cf"/><path d="m100 288h206v-16c0-5.523-4.477-10-10-10h-196z" fill="#c5d3dd"/><path d="m127 269v-7h-27v26h206v-14h-174c-2.761 0-5-2.239-5-5z" fill="#b6c4cf"/><path d="m100 386h312v26h-312z" fill="#c5d3dd"/><path d="m124 394v-8h-24v26h312v-13h-283c-2.761 0-5-2.239-5-5z" fill="#b6c4cf"/><g><path d="m101 456.733v-407.733c0-2.761-2.239-5-5-5h-16c-2.761 0-5 2.239-5 5v383.112c8.053 8.824 16.746 17.052 26 24.621z" fill="#c5d3dd"/><g><path d="m87 49c0-2.761 2.239-5 5-5h-12c-2.761 0-5 2.239-5 5v383.112c3.855 4.224 7.861 8.307 12 12.25z" fill="#b6c4cf"/></g><path d="m437 432.112v-383.112c0-2.761-2.239-5-5-5h-16c-2.761 0-5 2.239-5 5v407.733c9.254-7.569 17.947-15.797 26-24.621z" fill="#d9e7ec"/><path d="m424 49c0-2.761 2.239-5 5-5h-13c-2.761 0-5 2.239-5 5v407.733c4.468-3.655 8.802-7.466 13-11.421z" fill="#c5d3dd"/></g></g></svg>