<svg id="Capa_1" enable-background="new 0 0 512 512" height="512" viewBox="0 0 512 512" width="512" xmlns="http://www.w3.org/2000/svg"><g><path d="m255.545 22c-124.432.227-227.096 93.215-242.535 213.5l1.793 4.49c2.024 5.07 1.665 10.78-.976 15.557l-2.739 4.953c-.057 2.16-.088 4.326-.088 6.5 0 50.749 15.43 97.894 41.855 137h406.291c26.423-39.105 41.854-86.25 41.854-136.998.001-135.116-110.34-245.247-245.455-245.002z" fill="#fff5c6"/><path d="m147.119 404h217.761c40.288-32.061 66.12-81.511 66.12-137 0-96.65-78.35-175-175-175s-175 78.35-175 175c0 55.489 25.832 104.939 66.119 137z" fill="#fef0ae"/><g><g><g><g><path d="m289.991 404h120.039c2.443-2.171 3.991-5.328 3.991-8.854v-47.415l-4.05-.79h-120.02l-3.951.79v47.415c0 3.526 1.548 6.683 3.991 8.854z" fill="#7a8c98"/><g><path d="m389.678 180.987h-11.218v-11.064h-56.898v11.064h-11.218c-13.445 0-24.344 10.899-24.344 24.344v31.765l4.099.79h120.02l3.902-.79v-31.765c0-13.445-10.899-24.344-24.343-24.344z" fill="#596c76"/></g><g><path d="m305.665 207.276c0-8.869 7.19-16.059 16.059-16.059h13.257c3.449 0 6.246-2.796 6.246-6.246v-15.047h-19.665v11.064h-11.218c-13.445 0-24.344 10.899-24.344 24.344v31.764l4.099.79h15.566z" fill="#465a61"/></g><g><path d="m286 237.095v37.933l4.05.79h120.02l3.951-.79v-37.933z" fill="#7a8c98"/></g><path d="m286 237.095h19.665v37.932h-19.665z" fill="#596c76"/></g><g><g><path d="m365.498 74.303-7.721-37.156c-.381-1.833-1.996-3.147-3.869-3.147h-7.795c-1.872 0-3.488 1.314-3.869 3.147l-7.721 37.156z" fill="#596c76"/></g><g><path d="m356.569 35.047c-.709-.649-1.642-1.047-2.66-1.047h-7.795c-1.872 0-3.488 1.314-3.869 3.147l-7.721 37.156h13.116l7.721-37.156c.173-.836.613-1.555 1.208-2.1z" fill="#465a61"/></g><g><path d="m375.299 116.977v-37.933c0-3.055-2.477-5.532-5.532-5.532h-39.513c-3.055 0-5.532 2.477-5.532 5.532v37.932h50.577z" fill="#7a8c98"/></g><g><path d="m349.22 73.513h-18.966c-3.055 0-5.532 2.477-5.532 5.532v37.932h18.966v-37.933c.001-3.055 2.477-5.531 5.532-5.531z" fill="#596c76"/></g><g><path d="m382.411 170.714h-64.801c-4.364 0-7.903-3.538-7.903-7.903v-38.722c0-4.364 3.538-7.903 7.903-7.903h64.801c4.364 0 7.903 3.538 7.903 7.903v38.722c0 4.365-3.538 7.903-7.903 7.903z" fill="#8d9ca8"/></g><g><path d="m342.898 154.119c-4.364 0-7.903-3.538-7.903-7.903v-30.03h-17.385c-4.364 0-7.903 3.538-7.903 7.903v38.722c0 4.364 3.538 7.903 7.903 7.903h64.801c4.364 0 7.903-3.538 7.903-7.903v-8.693h-47.416z" fill="#7a8c98"/></g><g><path d="m286 275.028h128.021v72.703h-128.021z" fill="#596c76"/></g><path d="m286 275.028h19.665v72.703h-19.665z" fill="#465a61"/></g></g><path d="m380.615 378.269h-61.21c-3.449 0-6.246-2.796-6.246-6.246v-146.153c0-3.449 2.796-6.246 6.246-6.246h61.21c3.449 0 6.246 2.796 6.246 6.246v146.153c0 3.45-2.796 6.246-6.246 6.246z" fill="#c5d3dd"/><path d="m333.147 372.023v-146.153c0-3.45 2.796-6.246 6.246-6.246h-19.987c-3.45 0-6.246 2.796-6.246 6.246v146.153c0 3.449 2.796 6.246 6.246 6.246h19.987c-3.45 0-6.246-2.796-6.246-6.246z" fill="#b6c4cf"/><path d="m365.304 298.322h-32.479c-2.07 0-3.748-1.678-3.748-3.747v-48.718c0-2.07 1.678-3.748 3.748-3.748h32.479c2.07 0 3.747 1.678 3.747 3.748v48.718c0 2.069-1.678 3.747-3.747 3.747z" fill="#596c76"/><path d="m346.026 294.574v-48.718c0-2.07 1.678-3.747 3.748-3.747h-16.949c-2.07 0-3.748 1.678-3.748 3.747v48.718c0 2.07 1.678 3.748 3.748 3.748h16.949c-2.07 0-3.748-1.678-3.748-3.748z" fill="#465a61"/><path d="m365.304 327.053h-32.479c-2.07 0-3.748-1.678-3.748-3.748v-7.495c0-2.07 1.678-3.747 3.748-3.747h32.479c2.07 0 3.747 1.678 3.747 3.747v7.495c0 2.07-1.678 3.748-3.747 3.748z" fill="#596c76"/><path d="m346.026 323.305v-7.495c0-2.07 1.678-3.748 3.748-3.748h-16.949c-2.07 0-3.748 1.678-3.748 3.748v7.495c0 2.07 1.678 3.747 3.748 3.747h16.949c-2.07.001-3.748-1.677-3.748-3.747z" fill="#465a61"/><path d="m365.304 352.036h-32.479c-2.07 0-3.748-1.678-3.748-3.748v-7.495c0-2.07 1.678-3.748 3.748-3.748h32.479c2.07 0 3.747 1.678 3.747 3.748v7.495c0 2.071-1.678 3.748-3.747 3.748z" fill="#596c76"/><path d="m346.026 348.289v-7.495c0-2.07 1.678-3.747 3.748-3.747h-16.949c-2.07 0-3.748 1.678-3.748 3.747v7.495c0 2.07 1.678 3.748 3.748 3.748h16.949c-2.07-.001-3.748-1.679-3.748-3.748z" fill="#465a61"/></g></g><g><path d="m83.5 131.49v79.119c0 13.725-11.166 24.891-24.891 24.891h-45.6c-1.054 8.213-1.703 16.553-1.923 25h47.523c27.51 0 49.891-22.381 49.891-49.891v-79.119z" fill="#08a9f1"/></g><path d="m75.125 114.084v13.407c0 2.762 2.239 5 5 5h30c2.761 0 5-2.238 5-5v-13.407z" fill="#c5d3dd"/><path d="m92 127.491v-13.407h-16.875v13.407c0 2.762 2.239 5 5 5h16.875c-2.761 0-5-2.239-5-5z" fill="#b6c4cf"/><path d="m185.023 276 10.222 37.423v15.577c0 1.104.895 2 2 2h4.51c1.105 0 2-.896 2-2v-15.577l10.222-37.423z" fill="#c5d3dd"/><path d="m197 276h-11.977l10.222 37.423v15.577c0 1.104.895 2 2 2h4.51c1.105 0 2-.896 2-2v-15.577l1.734-6.347z" fill="#b6c4cf"/><g fill="#8d9ca8"><path d="m180 53h39v27.75h-39z"/><path d="m219 16v-11c0-2.761-2.239-5-5-5h-29c-2.761 0-5 2.239-5 5v11z"/></g><g fill="#7a8c98"><path d="m180 53h16v27.75h-16z"/><path d="m196 16v-11c0-2.761 2.239-5 5-5h-16c-2.761 0-5 2.239-5 5v11z"/></g><path d="m180 219.75v52.25c0 2.761 2.239 5 5 5h29c2.761 0 5-2.239 5-5v-52.25z" fill="#8d9ca8"/><path d="m196 272v-52.25h-16v52.25c0 2.761 2.239 5 5 5h16c-2.761 0-5-2.239-5-5z" fill="#7a8c98"/><g><path d="m229 389v-42c0-1.657-1.343-3-3-3h-53c-1.657 0-3 1.343-3 3v42z" fill="#01c0fa"/><path d="m189 344h-16c-1.657 0-3 1.343-3 3v42h16v-42c0-1.657 1.343-3 3-3z" fill="#08a9f1"/><path d="m219.5 389v-21c0-1.657-1.343-3-3-3h-34c-1.657 0-3 1.343-3 3v21z" fill="#fed402"/><path d="m199 365h-16.5c-1.657 0-3 1.343-3 3v21h16.5v-21c0-1.657 1.343-3 3-3z" fill="#fac600"/><path d="m241 404v-11c0-2.761-2.239-5-5-5h-73c-2.761 0-5 2.239-5 5v11z" fill="#08a9f1"/><path d="m187 388h-24c-2.761 0-5 2.239-5 5v11h24v-11c0-2.761 2.239-5 5-5z" fill="#0290cf"/></g><g><path d="m330 389v-42c0-1.657-1.343-3-3-3h-53c-1.657 0-3 1.343-3 3v42z" fill="#01c0fa"/><path d="m290 344h-16c-1.657 0-3 1.343-3 3v42h16v-42c0-1.657 1.343-3 3-3z" fill="#08a9f1"/><path d="m320.5 389v-29c0-1.657-1.343-3-3-3h-34c-1.657 0-3 1.343-3 3v29z" fill="#596c76"/><path d="m300 357h-16.5c-1.657 0-3 1.343-3 3v29h16.5v-29c0-1.657 1.343-3 3-3z" fill="#465a61"/><path d="m342 404v-11c0-2.761-2.239-5-5-5h-73c-2.761 0-5 2.239-5 5v11z" fill="#08a9f1"/><path d="m288 388h-24c-2.761 0-5 2.239-5 5v11h24v-11c0-2.761 2.239-5 5-5z" fill="#0290cf"/></g><g><path d="m431 389v-42c0-1.657-1.343-3-3-3h-53c-1.657 0-3 1.343-3 3v42z" fill="#01c0fa"/><path d="m391 344h-16c-1.657 0-3 1.343-3 3v42h16v-42c0-1.657 1.343-3 3-3z" fill="#08a9f1"/><g><path d="m421.5 389v-21c0-1.657-1.343-3-3-3h-34c-1.657 0-3 1.343-3 3v21z" fill="#fe5694"/></g><path d="m401 365h-16.5c-1.657 0-3 1.343-3 3v21h16.5v-21c0-1.657 1.343-3 3-3z" fill="#fd3581"/><path d="m443 404v-11c0-2.761-2.239-5-5-5h-73c-2.761 0-5 2.239-5 5v11z" fill="#08a9f1"/><path d="m389 388h-24c-2.761 0-5 2.239-5 5v11h24v-11c0-2.761 2.239-5 5-5z" fill="#0290cf"/></g><path d="m238 220.75h-77c-5.523 0-10-4.477-10-10v-121c0-5.523 4.477-10 10-10h77c5.523 0 10 4.477 10 10v121c0 5.523-4.477 10-10 10z" fill="#c5d3dd"/><path d="m183 210.75v-121c0-5.523 4.477-10 10-10h-32c-5.523 0-10 4.477-10 10v121c0 5.523 4.477 10 10 10h32c-5.523 0-10-4.477-10-10z" fill="#b6c4cf"/><g><path d="m86.635 444c43.996 42.114 103.651 68 169.365 68s125.368-25.886 169.365-68z" fill="#f6a96c"/><path d="m476 445h-440c-5.523 0-10-4.477-10-10v-22c0-5.523 4.477-10 10-10h440c5.523 0 10 4.477 10 10v22c0 5.523-4.477 10-10 10z" fill="#fed2a4"/><path d="m94 429c-5.523 0-10-4.477-10-10v-16h-48c-5.523 0-10 4.477-10 10v22c0 5.523 4.477 10 10 10h440c5.523 0 10-4.477 10-10v-6z" fill="#ffbd86"/></g><path d="m59.625 30v80.084c0 2.761 2.239 5 5 5h61c2.761 0 5-2.239 5-5v-41.084c0-8.284 6.716-15 15-15h97c2.761 0 5-2.239 5-5v-29c0-2.761-2.239-5-5-5h-168c-8.284 0-15 6.716-15 15z" fill="#fed402"/><path d="m84 110.084v-80.084c0-8.284 6.716-15 15-15h-24.375c-8.284 0-15 6.716-15 15v80.084c0 2.761 2.239 5 5 5h24.375c-2.761 0-5-2.238-5-5z" fill="#fac600"/><g fill="#9facba"><path d="m151 103.25h97v10h-97z"/><path d="m151 131.25h97v10h-97z"/><path d="m151 159.25h97v10h-97z"/><path d="m151 187.25h97v10h-97z"/></g></g></svg>