<svg id="Capa_1" enable-background="new 0 0 512 512" height="512" viewBox="0 0 512 512" width="512" xmlns="http://www.w3.org/2000/svg"><g><g><path d="m453.645 404c26.425-39.106 41.855-86.251 41.855-137 0-135.31-109.69-245-245-245s-245 109.69-245 245c0 50.749 15.43 97.894 41.855 137z" fill="#c8effe"/></g><g><path d="m126.931 404h247.139c37.412-33.766 60.93-82.635 60.93-137 0-101.897-82.604-184.5-184.5-184.5s-184.5 82.603-184.5 184.5c0 54.365 23.518 103.234 60.931 137z" fill="#99e6fc"/></g><path d="m151.006 404h198.988c19.904-10.36 33.506-31.161 33.506-55.152v-113.848l-5.312-1h-254.917l-5.771 1v113.848c0 23.991 13.602 44.792 33.506 55.152z" fill="#fff5c6"/><path d="m151.006 404h48.5c-19.904-10.36-33.506-31.161-33.506-55.152v-113.848h-48.5v113.848c0 23.991 13.602 44.792 33.506 55.152z" fill="#fef0ae"/><path d="m356.5 169v-66c0-5.523-4.477-10-10-10h-192c-5.523 0-10 4.477-10 10v66z" fill="#08a9f1"/><path d="m203 93h-48.5c-5.523 0-10 4.477-10 10v66h48.5v-66c0-5.523 4.477-10 10-10z" fill="#0290cf"/><path d="m259.189 169c-1.939-12.419-12.749-22-25.689-22h-27.5c-12.94 0-23.75 9.581-25.689 22z" fill="#fff5c6"/><path d="m231.689 147h-25.689c-12.94 0-23.75 9.581-25.689 22h25.689c1.939-12.419 12.749-22 25.689-22z" fill="#fef0ae"/><g><path d="m368.5 168h-236c-8.284 0-15 6.716-15 15v52h266v-52c0-8.284-6.716-15-15-15z" fill="#01c0fa"/></g><path d="m181 168h-48.5c-8.284 0-15 6.716-15 15v52h48.5v-52c0-8.284 6.716-15 15-15z" fill="#08a9f1"/><g><path d="m313 366h-125c-5.523 0-10-4.477-10-10v-75c0-5.523 4.477-10 10-10h125c5.523 0 10 4.477 10 10v75c0 5.523-4.477 10-10 10z" fill="#fff"/></g><path d="m218 356v-75c0-5.523 4.477-10 10-10h-40c-5.523 0-10 4.477-10 10v75c0 5.523 4.477 10 10 10h40c-5.523 0-10-4.477-10-10z" fill="#f5f8f9"/><g><path d="m81.135 444c43.996 42.114 103.651 68 169.365 68s125.368-25.886 169.365-68z" fill="#ffbd86"/><g><path d="m46.696 403c10.234 15.305 22.143 29.393 35.469 42h336.67c13.327-12.607 25.236-26.695 35.469-42z" fill="#fed2a4"/></g></g><path d="m481.5 0h-261.94c-13.807 0-25 11.193-25 25 0 .239.011.475.018.712 4.24-4.148 10.036-6.712 16.422-6.712h91c12.958 0 23.5 10.542 23.5 23.5 0 2.622-.438 5.143-1.234 7.5h157.234c13.807 0 25-11.193 25-25 0-13.807-11.193-25-25-25z" fill="#ffe5c2"/><g><path d="m416.112 30h52.388c2.761 0 5-2.239 5-5 0-2.761-2.239-5-5-5h-52.388c-2.761 0-5 2.239-5 5 0 2.761 2.239 5 5 5z" fill="#fff"/></g><g><path d="m405.097 25c0-2.761-2.239-5-5-5h-16c-2.761 0-5 2.239-5 5s2.239 5 5 5h16c2.761 0 5-2.239 5-5z" fill="#fff"/></g><path d="m211 19h35.29c2.688-10.908 12.532-19 24.27-19h-51c-13.807 0-25 11.193-25 25 0 .239.011.475.018.712 4.24-4.148 10.036-6.712 16.422-6.712z" fill="#fed2a4"/><g><path d="m186.5 42.5v51.5c0 16.016 12.984 29 29 29 16.016 0 29-12.984 29-29v-11.091c0-8.787 7.123-15.909 15.909-15.909h41.591c13.531 0 24.5-10.969 24.5-24.5 0-13.531-10.969-24.5-24.5-24.5h-91c-13.531 0-24.5 10.969-24.5 24.5z" fill="#fff5c6"/></g><g><path d="m211.5 94v-51.5c0-13.531 10.969-24.5 24.5-24.5h-25c-13.531 0-24.5 10.969-24.5 24.5v51.5c0 16.016 12.984 29 29 29 4.476 0 8.715-1.016 12.5-2.827-9.759-4.669-16.5-14.633-16.5-26.173z" fill="#fef0ae"/></g><g><path d="m301.5 308.5h-102c-1.657 0-3-1.343-3-3v-9c0-1.657 1.343-3 3-3h102c1.657 0 3 1.343 3 3v9c0 1.657-1.343 3-3 3z" fill="#99e6fc"/></g><g><path d="m256.5 342.5h-57c-1.657 0-3-1.343-3-3v-9c0-1.657 1.343-3 3-3h57c1.657 0 3 1.343 3 3v9c0 1.657-1.343 3-3 3z" fill="#99e6fc"/></g><g><circle cx="290" cy="337.5" fill="#c8effe" r="14.5"/></g></g></svg>