<svg id="Capa_1" enable-background="new 0 0 512 512" height="512" viewBox="0 0 512 512" width="512" xmlns="http://www.w3.org/2000/svg"><g><path d="m256 22c-135.31 0-245 109.69-245 245 0 50.32 15.179 97.09 41.196 136l4.246 1h399.116l4.246-1c26.017-38.91 41.196-85.68 41.196-136 0-135.31-109.69-245-245-245z" fill="#c5d3dd"/><path d="m256 87c-99.411 0-180 80.589-180 180 0 54.863 24.552 103.985 63.26 137h233.48c38.708-33.015 63.26-82.137 63.26-137 0-99.411-80.589-180-180-180z" fill="#b6c4cf"/><path d="m281.534 72.389v3.515h21.772v-3.515c0-26.372-17.792-49.584-43.262-56.435-.284-.076-.573-.14-.863-.192l-86.837-15.674c-2.958-.534-5.789 1.431-6.323 4.39l-1.934 10.713c-.534 2.958 1.431 5.789 4.39 6.323l86.352 15.586c15.745 4.445 26.705 18.894 26.705 35.289z" fill="#e8edf2"/><g><path d="m136.128 103.92h59.745v19.08h-59.745z" fill="#97d729"/><path d="m136.128 103.92h25.128v19.08h-25.128z" fill="#8bc727"/><path d="m241 404v-272c0-5.523-4.477-10-10-10h-130c-5.523 0-10 4.477-10 10v272z" fill="#a2e62e"/><path d="m128 358c-2.761 0-5-2.239-5-5v-183c0-2.761 2.239-5 5-5h3v-33c0-5.523 4.477-10 10-10h-40c-5.523 0-10 4.477-10 10v272h40v-46z" fill="#97d729"/><g><path d="m204 53.92h-76c-2.761 0-5 2.239-5 5v41c0 2.761 2.239 5 5 5h76c2.761 0 5-2.239 5-5v-41c0-2.761-2.239-5-5-5z" fill="#7a8c98"/></g><path d="m155 99.92v-41c0-2.761 2.239-5 5-5h-32c-2.761 0-5 2.239-5 5v41c0 2.761 2.239 5 5 5h32c-2.761 0-5-2.239-5-5z" fill="#596c76"/><g><path d="m204 165h-76c-2.761 0-5 2.239-5 5v183c0 2.761 2.239 5 5 5h76c2.761 0 5-2.239 5-5v-183c0-2.761-2.239-5-5-5z" fill="#7a8c98"/></g><path d="m155 353v-183c0-2.761 2.239-5 5-5h-32c-2.761 0-5 2.239-5 5v183c0 2.761 2.239 5 5 5h32c-2.761 0-5-2.239-5-5z" fill="#596c76"/></g><g><path d="m52.196 403c43.941 65.718 118.814 109 203.804 109s159.863-43.282 203.804-109z" fill="#978ecb"/></g><path d="m419.994 449h-220.994c-7.732 0-14 6.268-14 14s6.268 14 14 14h183.245c13.485-8.125 26.121-17.514 37.749-28z" fill="#8379c1"/><g><g><g><path d="m259.762 141.552h65.315v32.534h-65.315z" fill="#fff"/><path d="m259.762 141.552h16.923v32.534h-16.923z" fill="#f5f8f9"/><path d="m281.534 141.552h21.772v32.534h-21.772z" fill="#c8effe"/><g><path d="m356.61 464.918h-128.38c-13.848 0-25.074-11.226-25.074-25.074v-241.683c0-13.848 11.226-25.074 25.074-25.074h128.38c13.848 0 25.074 11.226 25.074 25.074v241.683c0 13.848-11.226 25.074-25.074 25.074z" fill="#f5f8f9"/></g><g><path d="m356.61 464.918h-128.38c-13.848 0-25.074-11.226-25.074-25.074v-241.683c0-13.848 11.226-25.074 25.074-25.074h128.38c13.848 0 25.074 11.226 25.074 25.074v241.683c0 13.848-11.226 25.074-25.074 25.074z" fill="#f5f8f9"/></g><path d="m245.471 439.844v-241.683c0-13.848 11.226-25.074 25.074-25.074h-42.316c-13.848 0-25.074 11.226-25.074 25.074v241.683c0 13.848 11.226 25.074 25.074 25.074h42.316c-13.848 0-25.074-11.226-25.074-25.074z" fill="#e8edf2"/><path d="m281.534 173.086h21.772v75.187h-21.772z" fill="#dff6fd"/><g><path d="m218.2 250.273v189.571c0 5.539 4.49 10.03 10.03 10.03h128.38c5.539 0 10.03-4.49 10.03-10.03v-189.571c0-1.657-1.343-3-3-3h-142.44c-1.657 0-3 1.343-3 3z" fill="#a2e62e"/></g><g><path d="m218.2 250.273v189.571c0 5.539 4.49 10.03 10.03 10.03h128.38c5.539 0 10.03-4.49 10.03-10.03v-189.571c0-1.657-1.343-3-3-3h-142.44c-1.657 0-3 1.343-3 3z" fill="#a2e62e"/></g><path d="m245.471 247.273h-24.271c-1.657 0-3 1.343-3 3v189.571c0 5.539 4.49 10.03 10.03 10.03h19.334c-1.343-3.072-2.092-6.463-2.092-10.03v-192.571z" fill="#97d729"/><g><path d="m330.52 142.552h-76.201c-6.012 0-10.886-4.874-10.886-10.886v-45.876c0-6.012 4.874-10.886 10.886-10.886h76.201c6.012 0 10.886 4.874 10.886 10.886v45.876c0 6.013-4.873 10.886-10.886 10.886z" fill="#f5f8f9"/></g><g><path d="m330.52 142.552h-76.201c-6.012 0-10.886-4.874-10.886-10.886v-45.876c0-6.012 4.874-10.886 10.886-10.886h76.201c6.012 0 10.886 4.874 10.886 10.886v45.876c0 6.013-4.873 10.886-10.886 10.886z" fill="#f5f8f9"/></g><path d="m269 131.666v-45.876c0-6.012 4.874-10.886 10.886-10.886h-25.567c-6.012 0-10.886 4.874-10.886 10.886v45.876c0 6.012 4.874 10.886 10.886 10.886h25.567c-6.012 0-10.886-4.873-10.886-10.886z" fill="#e8edf2"/><path d="m281.534 74.904h21.772v67.648h-21.772z" fill="#dff6fd"/><g><path d="m281.534 247.273v184.165c0 1.657 1.343 3 3 3h15.772c1.657 0 3-1.343 3-3v-184.165z" fill="#97d729"/></g><g><g><path d="m263.293 220.864h-22.303c-1.657 0-3-1.343-3-3v-9c0-1.657 1.343-3 3-3h22.303c1.657 0 3 1.343 3 3v9c0 1.657-1.343 3-3 3z" fill="#fff"/></g><g><path d="m263.293 268.762h-22.303c-1.657 0-3-1.343-3-3v-9c0-1.657 1.343-3 3-3h22.303c1.657 0 3 1.343 3 3v9c0 1.657-1.343 3-3 3z" fill="#8bc727"/></g><g><path d="m263.293 316.66h-22.303c-1.657 0-3-1.343-3-3v-9c0-1.657 1.343-3 3-3h22.303c1.657 0 3 1.343 3 3v9c0 1.657-1.343 3-3 3z" fill="#8bc727"/></g><g><path d="m263.293 364.558h-22.303c-1.657 0-3-1.343-3-3v-9c0-1.657 1.343-3 3-3h22.303c1.657 0 3 1.343 3 3v9c0 1.657-1.343 3-3 3z" fill="#8bc727"/></g><g><path d="m263.293 412.456h-22.303c-1.657 0-3-1.343-3-3v-9c0-1.657 1.343-3 3-3h22.303c1.657 0 3 1.343 3 3v9c0 1.657-1.343 3-3 3z" fill="#8bc727"/></g></g></g></g></g><circle cx="156" cy="208" fill="#fff" r="20"/><path d="m152 208c0-8.199 4.939-15.237 12-18.325-2.451-1.072-5.154-1.675-8-1.675-11.046 0-20 8.954-20 20s8.954 20 20 20c2.846 0 5.549-.604 8-1.675-7.061-3.088-12-10.126-12-18.325z" fill="#f5f8f9"/><g fill="#c5d3dd"><path d="m183 290h-44c-1.657 0-3-1.343-3-3v-9c0-1.657 1.343-3 3-3h44c1.657 0 3 1.343 3 3v9c0 1.657-1.343 3-3 3z"/><path d="m183 315.5h-44c-1.657 0-3-1.343-3-3v-9c0-1.657 1.343-3 3-3h44c1.657 0 3 1.343 3 3v9c0 1.657-1.343 3-3 3z"/><path d="m183 341h-44c-1.657 0-3-1.343-3-3v-9c0-1.657 1.343-3 3-3h44c1.657 0 3 1.343 3 3v9c0 1.657-1.343 3-3 3z"/></g></g></svg>