<svg id="Capa_1" enable-background="new 0 0 512 512" height="512" viewBox="0 0 512 512" width="512" xmlns="http://www.w3.org/2000/svg"><g><g><path d="m438 367.554c4.963 0 9 4.037 9 9v5.587h33.272c20.19-35.615 31.728-76.778 31.728-120.641 0-135.31-109.69-245-245-245s-245 109.69-245 245c0 37.992 8.649 73.962 24.083 106.054z" fill="#c5d3dd"/></g><g><path d="m387.074 475.089-.726-4.695-18.98-49.596h-282.368l-3.259 1c21.39 24.703 47.642 45.072 77.259 59.648l1-.614v-21.332c0-15.99 13.01-29 29-29 8.724 0 16.903 3.876 22.441 10.634l.3.366h83.518l.3-.366c5.538-6.758 13.718-10.634 22.441-10.634 15.99 0 29 13.01 29 29v32.564l1 .715c13.614-4.77 26.68-10.704 39.076-17.69z" fill="#b6c4cf"/><g><path d="m447 381.14v14.413c0 4.963-4.037 9-9 9h-46.655l19.029 50.281 2.433 3.558c27.767-20.601 51.026-46.935 68.025-77.253h-33.832z" fill="#b6c4cf"/></g></g><path d="m104 340.5v-5.5c0-2.761-2.239-5-5-5h-10c-2.761 0-5 2.239-5 5v5.5z" fill="#f5f8f9"/><path d="m97 330h-8c-2.761 0-5 2.239-5 5v5.5h8v-5.5c0-2.761 2.239-5 5-5z" fill="#e8edf2"/><g><path d="m312.965 133.535c-.1-.1-.204-.193-.305-.293v2.258c0 1.103-.897 2-2 2h-13.176v44.892c0 11.724-7.028 21.832-17.089 26.35 14.734 3.964 29.66 1.242 39.641-8.739 16.402-16.402 13.236-46.161-7.071-66.468z" fill="#e8b800"/></g><g><g><g><path d="m94.667 209.255v-198.755c0-2.761 2.239-5 5-5h143.333c2.761 0 5 2.239 5 5v198.755c0 2.761-2.239 5-5 5h-143.333c-2.762 0-5-2.239-5-5z" fill="#f5f8f9"/></g><path d="m120 209.255v-198.755c0-2.761 2.239-5 5-5h-25.333c-2.761 0-5 2.239-5 5v198.755c0 2.761 2.239 5 5 5h25.333c-2.761 0-5-2.239-5-5z" fill="#e8edf2"/><g><g><g><path d="m209.667 131.5h-76.667l-5.196-9 38.333-66.396h10.393l38.334 66.396zm-66.274-12h55.882l-27.941-48.396z" fill="#978ecb"/></g></g></g></g><g><circle cx="171.333" cy="21.755" fill="#fe76a8" r="8.5"/></g><path d="m171 21.755c0-3.214 1.785-6.01 4.417-7.455-1.212-.665-2.603-1.045-4.083-1.045-4.694 0-8.5 3.806-8.5 8.5s3.806 8.5 8.5 8.5c1.48 0 2.871-.38 4.083-1.045-2.632-1.445-4.417-4.241-4.417-7.455z" fill="#fe5694"/></g><g><g><g><path d="m337.667 284.255v-198.755c0-2.761 2.239-5 5-5h143.333c2.761 0 5 2.239 5 5v198.755c0 2.761-2.239 5-5 5h-143.333c-2.762 0-5-2.239-5-5z" fill="#f5f8f9"/></g><g><path d="m434.229 241.663h-39.791c-.929 0-1.818-.369-2.475-1.025l-28.137-28.137c-.656-.656-1.025-1.546-1.025-2.475v-39.791c0-.929.369-1.818 1.025-2.475l28.137-28.137c.656-.656 1.546-1.025 2.475-1.025h39.791c.929 0 1.818.369 2.475 1.025l28.137 28.137c.656.656 1.025 1.546 1.025 2.475v39.791c0 .929-.369 1.818-1.025 2.475l-28.137 28.137c-.657.656-1.547 1.025-2.475 1.025zm-38.341-7h36.891l26.087-26.087v-36.891l-26.087-26.087h-36.891l-26.087 26.087v36.891z" fill="#c5d3dd"/></g><g><path d="m414.333 162.798c-1.25 0-2.406-.667-3.031-1.75l-20.062-34.75c-.625-1.083-.625-2.417 0-3.5s1.781-1.75 3.031-1.75h40.125c1.25 0 2.406.667 3.031 1.75s.625 2.417 0 3.5l-20.062 34.75c-.626 1.083-1.782 1.75-3.032 1.75zm-14-34.75 14 24.25 14-24.25z" fill="#7a8c98"/></g><path d="m358.667 284.255v-198.755c0-2.761 2.239-5 5-5h-21c-2.761 0-5 2.239-5 5v198.755c0 2.761 2.239 5 5 5h21c-2.762 0-5-2.239-5-5z" fill="#e8edf2"/><g><g><g><path d="m459.965 147.645c-25.586 1.296-36.896 17.478-40.738 24.826v-.992c0-2.692-2.202-4.894-4.894-4.894s-4.894 2.202-4.894 4.894v.992c-3.842-7.349-15.152-23.531-40.738-24.826-1.76-.089-3.152 1.337-2.828 2.903.777 3.765 2.7 10.069 7.135 12.741 6.525 3.932-2.719 18.184 3.806 19.167h22.802c-6.002 4.146-21.899 16.156-17.908 24.573 4.894 10.321 20.119 18.184 23.382 14.744 1.701-1.794 3.253-12.935 4.35-23.191v2.26c0 2.692 2.202 4.894 4.894 4.894s4.894-2.202 4.894-4.894v-2.26c1.097 10.256 2.649 21.397 4.35 23.19 3.262 3.44 18.488-4.423 23.381-14.744 3.991-8.417-11.906-20.427-17.908-24.573h22.802c6.525-.983-2.719-15.235 3.806-19.167 4.434-2.672 6.357-8.976 7.135-12.741.322-1.565-1.069-2.992-2.829-2.902z" fill="#596c76"/></g></g></g><g fill="#465a61"><path d="m385.168 163.289c-4.434-2.672-6.358-8.976-7.135-12.741-.12-.58-.002-1.139.28-1.611-2.956-.662-6.149-1.117-9.611-1.293-1.76-.089-3.152 1.337-2.828 2.903.777 3.765 2.7 10.069 7.135 12.741 6.525 3.932-2.719 18.184 3.806 19.167h12.16c-6.526-.983 2.718-15.235-3.807-19.166z"/><path d="m393.868 207.028c-3.148-6.638 6.076-15.512 13.059-21 1.496-1.175.669-3.573-1.233-3.573h-6.078c-6.002 4.146-21.899 16.156-17.908 24.573 4.894 10.321 20.119 18.184 23.382 14.744.352-.371.697-1.16 1.033-2.24-4.811-2.828-9.816-7.36-12.255-12.504z"/></g></g><g><circle cx="414.333" cy="96.755" fill="#08a9f1" r="8.5"/></g><path d="m414 96.755c0-3.214 1.785-6.01 4.417-7.455-1.212-.665-2.603-1.045-4.083-1.045-4.694 0-8.5 3.806-8.5 8.5s3.806 8.5 8.5 8.5c1.48 0 2.871-.38 4.083-1.045-2.632-1.445-4.417-4.241-4.417-7.455z" fill="#0290cf"/></g><g><path d="m391 266h-24.699c-1.933 0-3.5-1.567-3.5-3.5s1.567-3.5 3.5-3.5h24.699c1.933 0 3.5 1.567 3.5 3.5s-1.567 3.5-3.5 3.5z" fill="#c5d3dd"/></g><path d="m211.711 441.5c3.932 4.949 6.289 11.203 6.289 18v42.076c15.833 3.219 32.216 4.924 49 4.924 7.417 0 14.752-.343 22-.99v-46.01c0-6.797 2.357-13.051 6.289-18z" fill="#596c76"/><g fill="#fed2a4"><path d="m170.51 230.336c0-.564.059-1.114.158-1.649h-2.668c-13.807 0-25 11.193-25 25v113.867h27.51z"/><path d="m344 228.687h-2.668c.1.535.158 1.085.158 1.649v126.164h27.51v-102.813c0-13.807-11.193-25-25-25z"/></g><path d="m341.49 269.5h25.51l-8.573-18.95-5.927 13.1-5.927-13.1-5.083 11.235z" fill="#596c76"/><path d="m151.194 274.415c-.462.582-.048 1.44.695 1.44h8.818c.567 0 .989.524.867 1.078l-4.49 20.485c-.201.919.977 1.479 1.562.742l11.863-14.93v-33.125z" fill="#596c76"/><g><g><path d="m164.106 347.872c0-17.601-17.76-18.312-17.76-30.704 0-4.341 3-6.867 7.34-6.867 4.184 0 5.762 2.526 5.762 5.288 0 2.605-1.421 5.525-3.552 6.788 1.026 1.184 2.289 1.658 3.552 1.658 4.105 0 6.551-3.473 6.551-7.972 0-8.84-9.077-10.516-13.26-10.516-3.397 0-6.787.983-9.74 2.617v27.382c4.081 3.999 8.003 8.446 8.003 15.563 0 5.62-2.276 10.86-8.003 11.249v6.142c12.518-.174 21.107-9.602 21.107-20.628z" fill="#596c76"/></g></g><g fill="#596c76"><path d="m360.339 327.476-5.691-6.348c-.323-.36-.447-.855-.334-1.325l2.003-8.286c.286-1.183-.908-2.18-2.021-1.688l-7.796 3.45c-.442.196-.952.161-1.364-.092l-3.647-2.243v24.391l1.305 3.164c.464 1.125 2.017 1.23 2.627.177l4.279-7.374c.242-.418.675-.69 1.157-.727l8.5-.655c1.215-.093 1.794-1.538.982-2.444z"/><path d="m360.131 277.5h-18.641v12h11.975c.334 0 .646-.167.832-.445l6.667-10c.442-.665-.034-1.555-.833-1.555z"/><path d="m360.964 303.945-6.667-10c-.186-.278-.498-.445-.832-.445h-11.975v12h18.641c.799 0 1.275-.89.833-1.555z"/></g><g fill="#08a9f1"><path d="m342.49 367.554v-137.218c0-5.523-4.477-10-10-10h-152.98c-5.523 0-10 4.477-10 10v137.217h172.98z"/><path d="m189 430.5c9.644 0 18.198 4.736 23.473 12h82.054c5.275-7.264 13.83-12 23.473-12s18.198 4.736 23.473 12h1.017v-36.946h-172.98v32.49c5.153-4.685 11.994-7.544 19.49-7.544z"/></g><g fill="#0290cf"><path d="m195 367.554v-137.218c0-5.523 4.477-10 10-10h-25.49c-5.523 0-10 4.477-10 10v137.217h25.49z"/><path d="m189 429.5c2.055 0 4.061.208 6 .601v-25.548h-25.49v32.15c5.243-4.487 12.048-7.203 19.49-7.203z"/></g><path d="m306 367.554v-95.959c0-2.543-2.062-4.605-4.604-4.605h-90.791c-2.543 0-4.604 2.062-4.604 4.605v95.959z" fill="#01c0fa"/><g><path d="m189 429.5c-16.569 0-30 13.431-30 30v21.955c18.773 9.235 38.897 16.139 60 20.332v-42.287c0-16.569-13.431-30-30-30z" fill="#7a8c98"/></g><g><path d="m183 459.5c0-12.301 7.406-22.866 18-27.497-3.676-1.606-7.732-2.503-12-2.503-16.569 0-30 13.431-30 30v21.955c7.776 3.825 15.787 7.244 24 10.242z" fill="#596c76"/></g><g><path d="m318 429.5c-16.569 0-30 13.431-30 30v46.095c20.855-1.771 40.963-6.153 60-12.82v-33.275c0-16.569-13.431-30-30-30z" fill="#596c76"/></g><path d="m312 459.5c0-12.301 7.406-22.866 18-27.497-3.676-1.606-7.732-2.503-12-2.503-16.569 0-30 13.431-30 30v46.095c8.12-.689 16.125-1.78 24-3.242z" fill="#465a61"/><path d="m68.107 404.554c4.394 6.104 9.053 12.004 13.98 17.667l.165-.423h284.428l20.395 53.291c8.94-5.036 17.534-10.612 25.733-16.693l-20.606-53.842z" fill="#e8edf2"/><g><g><g><g><g><path d="m214.516 137.5h-13.996v11.265c1.844-.984 3.945-1.546 6.177-1.546h7.818v-9.719z" fill="#596c76"/></g></g><g><g><path d="m297.484 137.5v9.72h7.818c2.232 0 4.333.562 6.177 1.546v-11.266z" fill="#596c76"/></g></g></g><g><path d="m268.608 211.267h-25.217c-2.191 0-4.323-.253-6.376-.718v14.932c0 10.485 8.5 18.984 18.984 18.984 10.485 0 18.984-8.5 18.984-18.984v-14.932c-2.051.464-4.183.718-6.375.718z" fill="#ffbd86"/></g><g><g><path d="m254 225.48v-14.214h-10.608c-2.191 0-4.323-.253-6.376-.718v14.932c0 10.485 8.5 18.984 18.984 18.984 3.057 0 5.934-.74 8.492-2.023-6.216-3.118-10.492-9.533-10.492-16.961z" fill="#f6a96c"/></g></g><g><g><path d="m214.516 146.22h-7.818c-7.828 0-14.174 6.346-14.174 14.174v4.639c0 7.828 6.346 14.174 14.174 14.174h7.818z" fill="#f6a96c"/></g><g><path d="m305.302 146.22h-7.818v32.988h7.818c7.829 0 14.175-6.346 14.175-14.174v-4.639c0-7.829-6.346-14.175-14.175-14.175z" fill="#ffbd86"/></g></g><g><g><circle cx="208.539" cy="178.019" fill="#fed402" r="8.227"/></g></g><g><g><path d="m213.515 137.5v44.891c0 16.5 13.376 29.876 29.876 29.876h25.217c16.5 0 29.876-13.376 29.876-29.876v-44.891z" fill="#fed2a4"/></g><g><path d="m230.031 182.391v-44.891h-16.515v44.891c0 16.5 13.376 29.876 29.876 29.876h16.515c-16.5 0-29.876-13.376-29.876-29.876z" fill="#ffbd86"/></g><g><g><g><path d="m232.684 169.498c-2.762 0-5-2.238-5-5v-6.998c0-2.762 2.238-5 5-5s5 2.238 5 5v6.998c0 2.762-2.239 5-5 5z" fill="#d78878"/></g></g><g><g><path d="m279.315 169.498c-2.762 0-5-2.238-5-5v-6.998c0-2.762 2.238-5 5-5s5 2.238 5 5v6.998c0 2.762-2.238 5-5 5z" fill="#d78878"/></g></g></g><g><g><path d="m255.996 182.987c-.788 0-1.587-.187-2.332-.58l-8.109-4.285c-1.282-.678-2.208-1.879-2.535-3.292s-.025-2.898.829-4.071l8.109-11.14c1.626-2.233 4.755-2.726 6.984-1.1 2.232 1.625 2.726 4.752 1.1 6.984l-4.712 6.474 3.006 1.588c2.441 1.29 3.375 4.315 2.085 6.757-.897 1.697-2.631 2.665-4.425 2.665z" fill="#d78878"/></g></g><g><g><path d="m255.979 201.063c-7.119 0-13.937-2.801-19.027-7.893-1.953-1.952-1.953-5.118 0-7.07 1.951-1.953 5.119-1.953 7.07 0 3.602 3.602 8.574 5.381 13.654 4.879 3.936-.389 7.498-2.075 10.303-4.88 1.953-1.952 5.118-1.951 7.071.001 1.952 1.953 1.952 5.119-.001 7.071-4.396 4.395-10.217 7.15-16.392 7.759-.895.09-1.79.133-2.678.133z" fill="#d78878"/></g></g></g><g><g><path d="m310.66 138.5h-109.32c-1.657 0-3-1.343-3-3v-15.926c0-26.786 21.714-48.501 48.501-48.501h18.319c26.786 0 48.501 21.714 48.501 48.501v15.926c-.001 1.657-1.344 3-3.001 3z" fill="#fac600"/></g></g><path d="m223.68 135.5v-15.926c0-25.604 19.845-46.56 44.99-48.36-1.161-.083-2.328-.14-3.51-.14h-18.32c-26.786 0-48.501 21.714-48.501 48.5v15.926c0 1.657 1.343 3 3 3h25.34c-1.656 0-2.999-1.343-2.999-3z" fill="#e8b800"/><g><g><path d="m267.902 128.926h-23.804c-1.657 0-3-1.343-3-3v-1.891c0-6.923 5.612-12.535 12.535-12.535h4.735c6.923 0 12.535 5.612 12.535 12.535v1.891c-.001 1.657-1.344 3-3.001 3z" fill="#596c76"/></g></g><path d="m253 125.926v-1.891c0-5.677 3.776-10.466 8.951-12.008-1.136-.339-2.338-.527-3.584-.527h-4.734c-6.923 0-12.535 5.612-12.535 12.535v1.891c0 1.657 1.343 3 3 3h11.902c-1.657 0-3-1.343-3-3z" fill="#465a61"/><g><g><ellipse cx="256" cy="94.789" fill="#01c0fa" rx="20" ry="9.426"/></g></g><path d="m252 94.789c0-3.864 4.939-7.181 12-8.636-2.451-.505-5.154-.79-8-.79-11.046 0-20 4.22-20 9.426s8.954 9.426 20 9.426c2.846 0 5.549-.284 8-.79-7.061-1.455-12-4.772-12-8.636z" fill="#08a9f1"/></g></g><g><path d="m369 319.5v-16.446l-9.495 16.446z" fill="#596c76"/></g><g><path d="m369 295.946v-16.446l-9.495 16.446z" fill="#596c76"/></g><g><path d="m343.49 356.5v-13.574h-37.064c-1.34 0-2.426-1.086-2.426-2.426 0-5.523-4.477-10-10-10h-12c-5.523 0-10 4.477-10 10v16z" fill="#fed2a4"/></g><path d="m296.5 330.828c-.8-.206-1.635-.328-2.5-.328h-12c-5.523 0-10 4.477-10 10v16h17v-16c0-4.658 3.189-8.56 7.5-9.672z" fill="#ffbd86"/><path d="m360.75 356.5 8.25-3v-16.446l-17.5 19.446z" fill="#596c76"/><path d="m418 355.5h-160v12.054h163v-9.054c0-1.657-1.343-3-3-3z" fill="#fff"/><path d="m258 355.5v12.054h22v-9.054c0-1.657 1.343-3 3-3z" fill="#f5f8f9"/><g><path d="m234.385 331.89c.828-.252 1.705-.39 2.615-.39h9.704l-6.722-25.086c-.858-3.201-4.148-5.1-7.349-4.243-3.201.858-5.1 4.148-4.243 7.348z" fill="#596c76"/></g><path d="m168.51 367.554h90.488c0-.018.003-.036.003-.054v-27c0-5.523-4.477-10-10-10h-12c-5.523 0-10 4.477-10 10 0 1.34-1.086 2.426-2.426 2.426h-56.065z" fill="#fed2a4"/><path d="m194.512 367.554-4.864-5.426c-.323-.36-.447-.855-.334-1.325l2.003-8.286c.286-1.183-.909-2.18-2.021-1.688l-7.796 3.45c-.442.196-.952.161-1.364-.092l-7.262-4.466c-1.037-.638-2.354.19-2.23 1.401l.872 8.481c.05.481-.141.955-.509 1.268l-6.491 5.526c-.368.313-.522.74-.509 1.157z" fill="#596c76"/><g><circle cx="206.5" cy="357" fill="#596c76" r="5.5"/></g><g><path d="m78.181 340.5-45.414-95.37c-2.941 2.719-6.73 4.532-10.933 4.952l43.056 90.418z" fill="#7a8c98"/><path d="m118 367.554v-23.054c0-2.761-2.239-5-5-5h-80c-2.761 0-5 2.239-5 5v23.054z" fill="#596c76"/><path d="m65 339.5h-32c-2.761 0-5 2.239-5 5v23.054h32v-23.054c0-2.761 2.239-5 5-5z" fill="#465a61"/><g><path d="m438 405.553h-428c-5.523 0-10-4.477-10-10v-19c0-5.523 4.477-10 10-10h428c5.523 0 10 4.477 10 10v19c0 5.523-4.477 10-10 10z" fill="#978ecb"/></g><g><path d="m45 389.224c-2.761 0-5-2.239-5-5v-17.67h-30c-5.523 0-10 4.477-10 10v19c0 5.523 4.477 10 10 10h428c5.523 0 10-4.477 10-10v-6.33z" fill="#8379c1"/></g><g><path d="m36.327 221.796 61.355-61.354-8.484-8.485-61.856 61.856c3.791 1.616 6.938 4.443 8.985 7.983z" fill="#7a8c98"/><g><circle cx="19.937" cy="231.24" fill="#596c76" r="19.937"/></g><path d="m17 231.24c0-7.966 4.684-14.821 11.437-18.014-2.581-1.22-5.455-1.923-8.5-1.923-11.011 0-19.937 8.926-19.937 19.937s8.926 19.937 19.937 19.937c3.045 0 5.919-.703 8.5-1.923-6.753-3.193-11.437-10.048-11.437-18.014z" fill="#465a61"/><g><path d="m101.501 125.582-16.511 16.51c-1.953 1.953-1.953 5.118 0 7.071l25.367 25.367 23.582-23.581-25.368-25.368c-1.951-1.952-5.117-1.952-7.07.001z" fill="#596c76"/></g><g><path d="m109.651 173.824 23.582-23.582 59.514 21.425c2.125.765 2.731 3.48 1.135 5.077l-57.729 57.729c-1.597 1.597-4.312.99-5.077-1.135z" fill="#596c76"/></g><path d="m134.866 173.824 16.907-16.907-18.541-6.675-23.582 23.582 21.425 59.514c.765 2.125 3.48 2.732 5.077 1.135l15.109-15.109z" fill="#465a61"/></g><circle cx="19.938" cy="231.24" fill="#7a8c98" r="9.938"/></g><g><path d="m462.365 266h-55.365c-1.933 0-3.5-1.567-3.5-3.5s1.567-3.5 3.5-3.5h55.365c1.933 0 3.5 1.567 3.5 3.5s-1.567 3.5-3.5 3.5z" fill="#c5d3dd"/></g></g></svg>