<svg id="Capa_1" enable-background="new 0 0 512 512" height="512" viewBox="0 0 512 512" width="512" xmlns="http://www.w3.org/2000/svg"><g><g><path d="m457.645 404c26.425-39.106 41.855-86.251 41.855-137 0-135.31-109.69-245-245-245s-245 109.69-245 245c0 50.749 15.43 97.894 41.855 137z" fill="#ffe5c2"/></g><path d="m265.765 136h-192.001l-6.264 1v267h204v-267z" fill="#fff"/><path d="m67.5 137h56.5v267h-56.5z" fill="#f5f8f9"/><path d="m271.5 137h-204v-43c0-8.284 6.716-15 15-15h174c8.284 0 15 6.716 15 15z" fill="#01c0fa"/><circle cx="169.5" cy="230" fill="#c8effe" r="45"/><path d="m157 230c0-19.121 11.931-35.445 28.75-41.963-5.042-1.954-10.518-3.037-16.25-3.037-24.853 0-45 20.147-45 45s20.147 45 45 45c5.732 0 11.208-1.083 16.25-3.037-16.819-6.518-28.75-22.842-28.75-41.963z" fill="#99e6fc"/><path d="m213 318.547h-87c-7.456 0-13.5-6.044-13.5-13.5 0-7.456 6.044-13.5 13.5-13.5h87c7.456 0 13.5 6.044 13.5 13.5 0 7.456-6.044 13.5-13.5 13.5z" fill="#c8effe"/><path d="m153 305.047c0-7.456 6.044-13.5 13.5-13.5h-40.5c-7.456 0-13.5 6.044-13.5 13.5s6.044 13.5 13.5 13.5h40.5c-7.456 0-13.5-6.044-13.5-13.5z" fill="#99e6fc"/><path d="m411.624 229.895h-195.806l-4.318 1v173.105h204v-173.105z" fill="#fff"/><path d="m264.318 229.895h-48.5l-4.318 1v173.105h48.5v-173.105z" fill="#f5f8f9"/><path d="m299.294 120.421c1.575-2.727 4.51-4.421 7.658-4.421h13.096c3.148 0 6.083 1.694 7.658 4.421.734 1.271 1.685 2.35 2.794 3.203v-26.728c-5.303 1.947-11.03 3.011-17 3.011s-11.697-1.064-17-3.011v26.729c1.109-.854 2.06-1.933 2.794-3.204z" fill="#97d729"/><g><path d="m313 99.896c-5.789-.058-11.345-1.107-16.5-3v26.729c1.109-.853 2.06-1.932 2.794-3.203 1.575-2.727 4.51-4.421 7.658-4.421h6.048z" fill="#8bc727"/></g><circle cx="313.5" cy="50.453" fill="#a2e62e" r="50.453"/><circle cx="313.5" cy="50.453" fill="#97d729" r="24.453"/><path d="m309.093 50.453c0-9.932 5.925-18.475 14.43-22.303-3.06-1.377-6.45-2.15-10.023-2.15-13.505 0-24.453 10.948-24.453 24.453s10.948 24.453 24.453 24.453c3.573 0 6.964-.773 10.023-2.15-8.505-3.828-14.43-12.371-14.43-22.303z" fill="#8bc727"/><path d="m283.599 173.895h59.802l25.479-44.131c3.788-6.562-.947-14.764-8.524-14.764h-6.212c-3.516 0-6.766 1.876-8.524 4.921-3.788 6.562-13.26 6.562-17.048 0-1.758-3.045-5.008-4.921-8.524-4.921h-13.095c-3.516 0-6.766 1.876-8.524 4.921-3.788 6.562-13.26 6.562-17.048 0-1.758-3.045-5.008-4.921-8.524-4.921h-6.212c-7.577 0-12.312 8.202-8.524 14.764z" fill="#fff"/><g><path d="m282.593 121.567c-.443-.498-.859-1.034-1.213-1.646-1.758-3.045-5.008-4.921-8.524-4.921h-6.212c-7.577 0-12.312 8.202-8.524 14.764l25.479 44.131h25.214l-25.479-44.131c-1.551-2.685-1.656-5.637-.741-8.197z" fill="#f5f8f9"/></g><path d="m415.5 230.895h-204v-43c0-8.284 6.716-15 15-15h174c8.284 0 15 6.716 15 15z" fill="#a2e62e"/><g><path d="m85.136 444c43.996 42.114 103.651 68 169.364 68s125.368-25.886 169.365-68z" fill="#f6a96c"/><path d="m474.5 445h-440c-5.523 0-10-4.477-10-10v-22c0-5.523 4.477-10 10-10h440c5.523 0 10 4.477 10 10v22c0 5.523-4.477 10-10 10z" fill="#fed2a4"/><path d="m94 429c-5.523 0-10-4.477-10-10v-16h-49.5c-5.523 0-10 4.477-10 10v22c0 5.523 4.477 10 10 10h440c5.523 0 10-4.477 10-10v-6z" fill="#ffbd86"/></g><circle cx="313.5" cy="298.453" fill="#a2e62e" r="45"/><path d="m301 298.453c0-19.121 11.931-35.445 28.75-41.963-5.042-1.954-10.518-3.037-16.25-3.037-24.853 0-45 20.147-45 45s20.147 45 45 45c5.732 0 11.208-1.083 16.25-3.037-16.819-6.518-28.75-22.842-28.75-41.963z" fill="#97d729"/><g><circle cx="433.5" cy="182" fill="#dff6fd" r="69"/><path d="m398 182c0-32.33 22.238-59.456 52.25-66.942-5.364-1.338-10.972-2.058-16.75-2.058-38.108 0-69 30.892-69 69s30.892 69 69 69c5.778 0 11.386-.72 16.75-2.058-30.012-7.486-52.25-34.612-52.25-66.942z" fill="#c8effe"/><path d="m430.533 144.942-20.017 37.65c-9.217 17.337 3.348 38.249 22.983 38.249 19.635 0 32.201-20.911 22.983-38.249l-20.017-37.65c-1.262-2.377-4.668-2.377-5.932 0z" fill="#01c0fa"/><path d="m427.082 182.592 14.701-27.651-5.316-9.999c-1.264-2.377-4.67-2.377-5.934 0l-20.017 37.65c-9.218 17.337 3.348 38.249 22.983 38.249 2.937 0 5.711-.476 8.283-1.33-14.619-4.855-22.539-22.175-14.7-36.919z" fill="#08a9f1"/></g><path d="m357 387h-87c-7.456 0-13.5-6.044-13.5-13.5 0-7.456 6.044-13.5 13.5-13.5h87c7.456 0 13.5 6.044 13.5 13.5 0 7.456-6.044 13.5-13.5 13.5z" fill="#a2e62e"/><path d="m297 373.5c0-7.456 6.044-13.5 13.5-13.5h-40.5c-7.456 0-13.5 6.044-13.5 13.5s6.044 13.5 13.5 13.5h40.5c-7.456 0-13.5-6.044-13.5-13.5z" fill="#97d729"/><path d="m139 79h-56.5c-8.284 0-15 6.716-15 15v43h56.5v-43c0-8.284 6.716-15 15-15z" fill="#08a9f1"/><path d="m275 172.895h-48.5c-8.284 0-15 6.716-15 15v43h48.5v-43c0-8.284 6.716-15 15-15z" fill="#97d729"/></g></svg>