<svg id="Capa_1" enable-background="new 0 0 512 512" height="512" viewBox="0 0 512 512" width="512" xmlns="http://www.w3.org/2000/svg"><g><g><path d="m457.066 407c27.684-39.686 43.934-87.942 43.934-140 0-135.31-109.69-245-245-245s-245 109.69-245 245c0 52.058 16.25 100.314 43.934 140z" fill="#b6c4cf"/></g><path d="m90.888 448c43.552 39.752 101.499 64 165.112 64s121.559-24.248 165.112-64z" fill="#978ecb"/><g><path d="m224.928 0h-139.428c-5.523 0-10 4.477-10 10v125.568h159.428v-125.568c0-5.523-4.478-10-10-10z" fill="#c8effe"/><path d="m119.5 0h-34c-5.523 0-10 4.477-10 10v125.568h34v-125.568c0-5.523 4.477-10 10-10z" fill="#99e6fc"/><path d="m194.752 117v-31.744c0-2.761 2.239-5 5-5h7.4c2.761 0 5-2.239 5-5v-25.79c0-2.761-2.239-5-5-5h-86.476c-2.761 0-5 2.239-5 5v67.534z" fill="#fff"/><path d="m146.024 44.466h-25.348c-2.761 0-5 2.239-5 5v67.534h25.348v-67.534c0-2.761 2.238-5 5-5z" fill="#f5f8f9"/><path d="m220.828 136.568v-15.568c0-2.761-2.239-5-5-5h-121.229c-2.761 0-5 2.239-5 5v15.568z" fill="#c5d3dd"/><path d="m137.271 116h-42.672c-2.761 0-5 2.239-5 5v15.568h42.672v-15.568c0-2.761 2.238-5 5-5z" fill="#b6c4cf"/><path d="m75.5 135.568v207.147l3.623 1h152.864l2.941-1v-207.147z" fill="#fff"/><circle cx="194.5" cy="294.524" fill="#c8effe" r="26.5"/><path d="m186 294.524c0-11.475 7.295-21.245 17.5-24.93-2.81-1.015-5.84-1.57-9-1.57-14.636 0-26.5 11.864-26.5 26.5s11.864 26.5 26.5 26.5c3.16 0 6.19-.556 9-1.57-10.205-3.685-17.5-13.454-17.5-24.93z" fill="#99e6fc"/><g fill="#d9e7ec"><path d="m210 209.5h-35.219c-2.761 0-5-2.239-5-5v-5c0-2.761 2.239-5 5-5h35.219c2.761 0 5 2.239 5 5v5c0 2.761-2.239 5-5 5z"/><path d="m210 185h-35.219c-2.761 0-5-2.239-5-5v-5c0-2.761 2.239-5 5-5h35.219c2.761 0 5 2.239 5 5v5c0 2.761-2.239 5-5 5z"/></g><path d="m109.5 135.568h-34v207.147l3.623 1h34l-3.623-1z" fill="#f5f8f9"/><path d="m138.826 321.024h-32.297c-2.761 0-5-2.239-5-5v-151.596c0-2.761 2.239-5 5-5h32.297c2.761 0 5 2.239 5 5v151.597c0 2.761-2.238 4.999-5 4.999z" fill="#c8effe"/><path d="m118.5 316.024v-151.596c0-2.761 2.239-5 5-5h-16.971c-2.761 0-5 2.239-5 5v151.597c0 2.761 2.239 5 5 5h16.971c-2.761-.001-5-2.239-5-5.001z" fill="#99e6fc"/><path d="m75.5 342.715h159.428v64.285h-159.428z" fill="#01c0fa"/><path d="m75.5 342.715h34v64.285h-34z" fill="#08a9f1"/><g><path d="m387 48v-9c0-2.761-2.239-5-5-5h-41c-2.761 0-5 2.239-5 5v9z" fill="#d9e7ec"/><path d="m361 34h-20c-2.761 0-5 2.239-5 5v9h20v-9c0-2.761 2.239-5 5-5z" fill="#c5d3dd"/><path d="m346.5 120h30v113h-30z" fill="#d9e7ec"/><path d="m346.5 120h13.5v113h-13.5z" fill="#c5d3dd"/><path d="m382 232h-41c-2.761 0-5 2.239-5 5v125l3.125 1h44.625l3.25-1v-125c0-2.761-2.239-5-5-5z" fill="#01c0fa"/><path d="m361 232h-20c-2.761 0-5 2.239-5 5v125h20v-125c0-2.761 2.239-5 5-5z" fill="#08a9f1"/><path d="m382 390h-41c-2.761 0-5-2.239-5-5v-23h51v23c0 2.761-2.239 5-5 5z" fill="#596c76"/><path d="m341 390h15v-28h-20v23c0 2.761 2.239 5 5 5z" fill="#465a61"/><path d="m441 121h-159c-5.523 0-10-4.477-10-10v-54c0-5.523 4.477-10 10-10h159c5.523 0 10 4.477 10 10v54c0 5.523-4.477 10-10 10z" fill="#596c76"/><path d="m305 111v-2h-17c-1.105 0-2-.895-2-2v-6c0-1.105.895-2 2-2h17v-6h-17c-1.105 0-2-.895-2-2v-6c0-1.105.895-2 2-2h17v-6h-17c-1.105 0-2-.895-2-2v-14c0-1.105.895-2 2-2h17v-2c0-5.523 4.477-10 10-10h-33c-5.523 0-10 4.477-10 10v54c0 5.523 4.477 10 10 10h33c-5.523 0-10-4.477-10-10z" fill="#465a61"/><g><path d="m435 77h-147c-1.105 0-2-.895-2-2v-14c0-1.105.895-2 2-2h147c1.105 0 2 .895 2 2v14c0 1.105-.895 2-2 2z" fill="#f5f8f9"/><path d="m305 69c-1.105 0-2-.895-2-2v-8h-15c-1.105 0-2 .895-2 2v14c0 1.105.895 2 2 2h147c1.105 0 2-.895 2-2v-6z" fill="#e8edf2"/><path d="m435 93h-147c-1.105 0-2-.895-2-2v-6c0-1.105.895-2 2-2h147c1.105 0 2 .895 2 2v6c0 1.105-.895 2-2 2z" fill="#f5f8f9"/><path d="m303 91v-6c0-1.105.895-2 2-2h-17c-1.105 0-2 .895-2 2v6c0 1.105.895 2 2 2h17c-1.105 0-2-.895-2-2z" fill="#e8edf2"/><path d="m435 109h-147c-1.105 0-2-.895-2-2v-6c0-1.105.895-2 2-2h147c1.105 0 2 .895 2 2v6c0 1.105-.895 2-2 2z" fill="#f5f8f9"/><path d="m303 107v-6c0-1.105.895-2 2-2h-17c-1.105 0-2 .895-2 2v6c0 1.105.895 2 2 2h17c-1.105 0-2-.895-2-2z" fill="#e8edf2"/></g></g><path d="m327.155 407c.872-2.852 1.345-5.873 1.345-9 0-17.05-13.95-31-31-31h-1.757c.167-1.152.256-2.319.256-3.5 0-14.631-13.096-27.187-31.789-32.62-1.216-.353-2.236-1.185-2.869-2.281l-15.244-26.403c-1.155-2-4.041-2-5.196 0l-15.244 26.403c-.633 1.096-1.654 1.928-2.869 2.281-18.692 5.433-31.788 17.989-31.788 32.62 0 1.181.09 2.348.256 3.5h-1.756c-17.05 0-31 13.95-31 31 0 3.127.473 6.148 1.345 9z" fill="#fff"/><path d="m182.519 407c-.005-.232-.019-.462-.019-.695 0-17.05 13.95-31 31-31h1.757c-.167-1.152-.256-2.319-.256-3.5 0-14.631 13.096-27.187 31.789-32.62 1.216-.353 2.236-1.185 2.869-2.281l8.24-14.271-11.799-20.437c-1.155-2-4.041-2-5.196 0l-15.244 26.403c-.633 1.096-1.654 1.928-2.869 2.281-18.695 5.433-31.791 17.989-31.791 32.62 0 1.181.09 2.348.256 3.5h-1.756c-17.05 0-31 13.95-31 31 0 3.127.473 6.148 1.345 9z" fill="#f5f8f9"/></g><path d="m476 449h-440c-5.523 0-10-4.477-10-10v-23c0-5.523 4.477-10 10-10h440c5.523 0 10 4.477 10 10v23c0 5.523-4.477 10-10 10z" fill="#8379c1"/><path d="m94 433c-5.523 0-10-4.477-10-10v-17h-48c-5.523 0-10 4.477-10 10v23c0 5.523 4.477 10 10 10h440c5.523 0 10-4.477 10-10v-6z" fill="#6e61b6"/></g></svg>