<svg id="Capa_1" enable-background="new 0 0 512 512" height="512" viewBox="0 0 512 512" width="512" xmlns="http://www.w3.org/2000/svg"><g><g><g><g><circle cx="245" cy="256" fill="#dff6fd" r="245"/></g></g><g fill="#c8effe"><path d="m215.997 380.7-.764.133-3.733 47.087v.035c10.49-.21 20.75-1.354 30.698-3.361v-51.321l-1.36.526c-8.023 3.101-16.38 5.422-24.841 6.901z"/><path d="m308.493 116.407c4.806 10.195 7.507 21.57 7.507 33.567v49.688l.073.181c6.465 15.898 9.742 32.722 9.742 50.002s-3.277 34.104-9.742 50.003l-.073.183v89.826c39.031-31.531 64-79.774 64-133.858 0-57.475-28.198-108.358-71.507-139.592z"/></g><g><g><path d="m237 69.974h-76.502c-7.166 0-13.332-5.069-14.717-12.1l-4.689-23.793c-83.357 39.098-141.092 123.76-141.092 221.919 0 2.361.046 4.711.112 7.055l1.258 1.167c2.798.332 5.613.503 8.388.503h36.023c4.153 0 8.259-.585 12.246-1.742l2.575-1.896c0 .002 0 .004.001.006-.318-3.794-.481-7.577-.481-11.247 0-73.251 59.595-132.846 132.847-132.846 56.494 0 104.856 35.45 124.031 85.271v-52.296c0-44.183-35.817-80.001-80-80.001z" fill="#ffe5c2"/><path d="m294.303 335.752c-14.374 16.937-32.701 29.925-53.105 37.892v127.308c1.267.019 2.531.048 3.802.048 25.058 0 49.233-3.771 72-10.76v-192.833c-5.318 13.876-12.955 26.866-22.697 38.345z" fill="#ffe5c2"/><g><path d="m267 360.138c-8.082 5.429-16.735 9.966-25.802 13.507v127.308c1.267.019 2.531.048 3.802.048 7.416 0 14.752-.339 22-.985z" fill="#fed2a4"/></g></g><path d="m192.969 382.694c-69.466 0-126.641-53.596-132.366-121.606-4.715 1.728-9.727 2.638-14.821 2.638h-36.024c-3.275 0-6.495-.233-9.651-.67 1.818 64.233 28.366 122.267 70.449 164.944l3.84 1h133.07l5.03-1 3.755-47.351c-7.561 1.342-15.341 2.045-23.282 2.045z" fill="#fed2a4"/><path d="m83.336 324.785v53.715c0 4.142 3.357 7.5 7.5 7.5s7.5-3.358 7.5-7.5v-35.517c-5.516-5.604-10.539-11.693-15-18.198z" fill="#ffbd86"/><g><g><path d="m68.569 96.625c-1.776-1.776-3.872-3.106-6.151-3.973-4.003 4.471-7.842 9.09-11.512 13.847h5.288c.658 0 1.303.267 1.768.732l8.071 8.071c1.465 1.464 3.385 2.197 5.304 2.197s3.839-.732 5.304-2.197c2.929-2.929 2.929-7.678 0-10.606z" fill="#fed2a4"/></g><g><g><path d="m110.336 117.5c-1.919 0-3.839-.732-5.304-2.197-2.929-2.929-2.929-7.678 0-10.606l8.071-8.071c3.306-3.305 7.7-5.125 12.375-5.125h93.857c4.143 0 7.5 3.358 7.5 7.5s-3.357 7.5-7.5 7.5h-93.857c-.658 0-1.303.267-1.768.732l-8.071 8.071c-1.464 1.464-3.384 2.196-5.303 2.196z" fill="#fed2a4"/></g></g></g></g><path d="m72.548 305.907-15.543-.862 7.615-20.898c-1.669-6.241-2.893-12.661-3.638-19.225l-15.681 43.03c-.541 1.487-.348 3.143.524 4.464.871 1.321 2.316 2.152 3.896 2.24l28.203 1.564c-1.937-3.348-3.729-6.79-5.376-10.313z" fill="#596c76"/><path d="m68.763 202.729-18.109-1.111 10.281-13.149 11.665 5.208c1.42-3.031 2.951-6.001 4.588-8.903l-9.906-4.423.121-.155 13.01-16.639 5.761 7.369c2.041-2.755 4.182-5.432 6.425-8.018l-5.839-7.469 10.281-13.149 3.767 11.972c2.63-2.536 5.362-4.966 8.193-7.281l-4.52-14.363c-1.124-3.565-4.511-5.94-8.249-5.784l-23.705 1.015c-2.425.104-4.673 1.26-6.166 3.171l-34.044 43.54c-1.495 1.911-2.074 4.372-1.59 6.75l4.732 23.251c.746 3.663 3.872 6.38 7.603 6.609l22.398 1.374c.976-3.327 2.079-6.6 3.303-9.815zm4.986-64.922 14.593-.625-9.595 12.272-10.865-4.143zm-12.313 15.748 10.865 4.143-12.662 16.194-6.641-9.545zm-20.751 26.54 5.867-7.503 6.642 9.545-9.595 12.271z" fill="#596c76"/><g><g fill="#b6c4cf"><path d="m428.504 242.464c1.364-7.574 4.781-14.439 9.659-20h-115.192c1.369 6.506 2.26 13.185 2.635 20z"/><path d="m428.504 257.23h-102.897c-.375 6.815-1.267 13.494-2.636 20h115.191c-4.878-5.561-8.295-12.426-9.658-20z"/></g><g><circle cx="192.969" cy="249.847" fill="#7a8c98" r="133.847"/></g><g><circle cx="192.969" cy="249.847" fill="#ffe5c2" r="87.149"/><path d="m243.368 277.014c-1.495-.108-2.947.452-3.98 1.529-1.031 1.078-1.528 2.561-1.354 4.043l4.582 38.844c3.232-2.249 6.307-4.708 9.202-7.363l-3.142-26.635 22.105 1.631c1.587-3.136 2.989-6.38 4.194-9.718z" fill="#596c76"/><path d="m200.128 162.994c-2.362-.193-4.749-.296-7.159-.296-48.055 0-87.149 39.095-87.149 87.149s39.095 87.149 87.149 87.149c2.411 0 4.797-.103 7.159-.296-34.357-13.875-58.608-47.525-58.608-86.853s24.251-72.978 58.608-86.853z" fill="#fed2a4"/></g><g><g fill="#596c76"><path d="m148.174 271.248c-.871-1.321-2.316-2.152-3.896-2.24l-36.765-2.039c.693 3.466 1.594 6.858 2.687 10.164l26.796 1.486-10.17 27.908c2.412 2.811 4.999 5.468 7.746 7.952l14.127-38.767c.54-1.487.347-3.143-.525-4.464z"/><path d="m197.207 176.206-19.427 19.427h-19.206c-2.66 0-5.178 1.161-6.906 3.186l-19.169 22.465c-2.66 3.12-2.896 7.658-.573 11.035l53.562 77.905c1.693 2.464 4.49 3.935 7.48 3.935s5.786-1.471 7.48-3.935l53.562-77.904c2.324-3.377 2.088-7.916-.573-11.037l-19.169-22.465c-1.728-2.024-4.245-3.185-6.905-3.185h-35.441l10.892-10.891h48.02c-4.223-3.758-8.812-7.111-13.707-10h-36.384c-1.327 0-2.598.527-3.536 1.464zm-38.208 29.427h14.077l-5.022 16.275h-22.942zm-15.22 26.275h24.054l13.626 54.806zm60.698 54.806 13.626-54.806h24.054zm22.461-81.081 13.887 16.275h-22.942l-5.022-16.275zm-33.969 85.923-14.83-59.647h29.66zm9.428-85.923 5.021 16.275h-28.9l5.021-16.275z"/></g></g><g><path d="m192.969 350.996c-55.774 0-101.149-45.375-101.149-101.149s45.375-101.149 101.149-101.149 101.149 45.375 101.149 101.149-45.375 101.149-101.149 101.149zm0-187.298c-47.503 0-86.149 38.646-86.149 86.149 0 47.502 38.646 86.149 86.149 86.149s86.149-38.646 86.149-86.149-38.646-86.149-86.149-86.149z" fill="#b6c4cf"/></g></g><g><path d="m212.497 498.85v-70.85h-141.95c37.258 37.786 86.694 63.525 141.95 70.85z" fill="#01c0fa"/></g><g><path d="m469.417 291.43c-6.055 0-11.806-1.312-17-3.649v98.646c18.585-29.493 31.05-63.224 35.623-99.417-5.607 2.821-11.93 4.42-18.623 4.42z" fill="#8d9ca8"/><g><circle cx="469.417" cy="249.847" fill="#596c76" r="42.583"/></g><g><path d="m457 249.847c0-18.206 11.429-33.735 27.5-39.825-4.689-1.777-9.771-2.758-15.083-2.758-23.518 0-42.583 19.065-42.583 42.583s19.065 42.583 42.583 42.583c5.312 0 10.394-.981 15.083-2.758-16.071-6.09-27.5-21.62-27.5-39.825z" fill="#465a61"/></g></g></g><g><circle cx="261" cy="255" fill="#596c76" r="7"/></g><g><circle cx="220" cy="313" fill="#596c76" r="7"/></g><g><circle cx="123" cy="249" fill="#596c76" r="7"/></g></g></svg>