<svg id="Capa_1" enable-background="new 0 0 512 512" height="512" viewBox="0 0 512 512" width="512" xmlns="http://www.w3.org/2000/svg"><g><g><path d="m492.455 191.696c-27.936-102.965-121.31-179.004-232.722-180.668-136.182-2.034-247.319 106.206-248.72 242.396-.424 41.263 9.371 80.192 26.987 114.441l6.179-6.179-3.08-3.079c-3.97-3.97-3.97-10.431 0-14.401l84.465-84.464c1.923-1.923 4.48-2.982 7.2-2.982s5.277 1.059 7.2 2.982l27.676 27.676 12.922-12.923 13.119 13.119c.944.944 2.2 1.464 3.536 1.464s2.591-.52 3.536-1.464l7.064-7.064c.944-.944 1.464-2.2 1.464-3.535 0-1.336-.52-2.591-1.464-3.536l-13.119-13.119 14.724-14.725 93.356 93.355-7.559 7.559c-1.055 1.055-1.636 2.458-1.636 3.954s.581 2.899 1.636 3.954l15.814 15.815c1.056 1.056 2.46 1.638 3.954 1.638s2.898-.582 3.954-1.638l162.1-162.101c1.056-1.056 1.638-2.46 1.638-3.954 0-1.11-.322-2.172-.921-3.077l9.176-7.022z" fill="#fff3de"/></g><g><g><path d="m480.334 200.972c.867.867 1.345 2.021 1.345 3.247 0 1.227-.478 2.379-1.345 3.247l-162.1 162.101c-.867.867-2.021 1.345-3.247 1.345-1.227 0-2.379-.478-3.247-1.345l-15.814-15.815c-1.79-1.79-1.79-4.703 0-6.493l8.266-8.266-94.77-94.77-16.138 16.139 13.826 13.826c.755.755 1.171 1.76 1.171 2.829s-.416 2.073-1.171 2.828l-7.064 7.064c-.755.755-1.76 1.171-2.829 1.171s-2.073-.416-2.829-1.171l-13.826-13.826-13.629 13.63 3.079 3.079c3.97 3.97 3.97 10.43 0 14.4l-84.464 84.465c-1.923 1.923-4.48 2.982-7.2 2.982s-5.277-1.059-7.201-2.982l-3.079-3.08-12.024 12.023c44.388 62.568 117.402 103.4 199.956 103.4 135.31 0 245-109.69 245-245 0-22.255-2.985-43.809-8.545-64.304z" fill="#ffe5c2"/></g><g><path d="m26.237 403.517c-2.324-2.325-3.811-5.167-4.495-8.157l-20.278 20.278c-.937.938-1.464 2.21-1.464 3.536v20.818c0 .891 1.077 1.337 1.707.707l32.678-32.678c-3.06-.7-5.874-2.23-8.148-4.504z" fill="#b6c4cf"/><g><path d="m313.043 108.804-85.793 85.793 7.908 7.907 85.792-85.792z" fill="#b6c4cf"/><g fill="#7a8c98"><g><path d="m261.17 251.124h12.696v33.548h-12.696z" transform="matrix(.707 -.707 .707 .707 -111.079 267.629)"/><path d="m368.532 141.631h16.959v33.548h-16.959z" transform="matrix(.707 -.707 .707 .707 -1.586 312.982)"/></g><path d="m238.447 273.247-8.266 8.266c-2.184 2.183-2.184 5.724 0 7.907l15.815 15.815c2.184 2.183 5.724 2.183 7.907 0l8.266-8.266z"/></g><g><g fill="#7a8c98"><path d="m326.208 316.162h12.696v33.548h-12.696z" transform="matrix(.707 -.707 .707 .707 -138.018 332.669)"/><path d="m433.569 206.669h16.959v33.548h-16.959z" transform="matrix(.707 -.707 .707 .707 -28.524 378.022)"/></g><path d="m472.627 216.586 8.414-8.414c2.184-2.183 2.184-5.724 0-7.907l-15.815-15.815c-2.184-2.184-5.724-2.184-7.907 0l-8.414 8.414z" fill="#7a8c98"/><path d="m467.96 195.092c2.183-2.184 5.723-2.184 7.907 0l-10.641-10.641c-2.184-2.184-5.724-2.184-7.907 0l-8.414 8.414 10.641 10.641z" fill="#596c76"/><path d="m303.485 338.285-8.266 8.266c-2.184 2.183-2.184 5.724 0 7.907l15.815 15.815c2.184 2.184 5.724 2.184 7.907 0l8.266-8.266z" fill="#7a8c98"/></g><path d="m382.086 192.867 5.451-5.451c2.184-2.184 2.184-5.724 0-7.907l-31.629-31.629c-2.184-2.184-5.724-2.184-7.907 0l-5.452 5.452z" fill="#d9e7ec"/><path d="m359.793 159.671c2.183-2.183 5.724-2.183 7.907 0l-11.792-11.792c-2.184-2.184-5.724-2.184-7.907 0l-5.452 5.452 11.792 11.792z" fill="#c5d3dd"/><path d="m452.575 244.546-31.629-31.629c-2.184-2.183-5.724-2.183-7.907 0l-5.451 5.451 39.537 39.537 5.451-5.451c2.182-2.184 2.182-5.724-.001-7.908z" fill="#d9e7ec"/><path d="m420.945 212.917c-2.184-2.183-5.724-2.183-7.907 0l-5.451 5.451 12.754 12.754 5.451-5.451c2.183-2.183 5.723-2.183 7.907 0z" fill="#c5d3dd"/><g><path d="m292.649 285.466-42.7-42.7c-4.367-4.367-4.367-11.448 0-15.815l75.91-75.91c4.367-4.367 11.448-4.367 15.815 0l42.7 42.7c4.367 4.367 4.367 11.448 0 15.815l-75.91 75.91c-4.367 4.367-11.448 4.367-15.815 0z" fill="#b6c4cf"/></g><path d="m283.3 242.767c-4.367-4.367-4.367-11.448 0-15.815l67.142-67.142-8.768-8.768c-4.367-4.367-11.448-4.367-15.815 0l-75.91 75.91c-4.367 4.367-4.367 11.448 0 15.815l42.7 42.699c4.367 4.367 11.448 4.367 15.815 0l8.768-8.768z" fill="#9facba"/><g><path d="m357.687 350.504-42.7-42.7c-4.367-4.367-4.367-11.448 0-15.815l75.91-75.91c4.367-4.367 11.448-4.367 15.815 0l42.699 42.7c4.367 4.367 4.367 11.448 0 15.815l-75.91 75.91c-4.367 4.367-11.447 4.367-15.814 0z" fill="#b6c4cf"/></g><path d="m348.3 307.805c-4.367-4.367-4.367-11.448 0-15.815l67.161-67.161-8.749-8.749c-4.367-4.367-11.448-4.367-15.815 0l-75.91 75.91c-4.367 4.367-4.367 11.448 0 15.815l42.7 42.699c4.367 4.367 11.448 4.367 15.815 0l8.749-8.749z" fill="#9facba"/><g fill="#d9e7ec"><path d="m445.548 295.686-161.226-161.225c-1.952-1.951-5.116-1.951-7.068 0-1.952 1.952-1.952 5.116 0 7.068l161.226 161.225z"/><path d="m418.267 322.967-161.225-161.226c-1.952-1.951-5.116-1.951-7.068 0-1.952 1.952-1.952 5.116 0 7.068l161.226 161.225z"/></g><path d="m468.192 279.536c-2.184-2.183-5.724-2.183-7.907 0l-63.259 63.259c-2.184 2.184-2.184 5.724 0 7.907l7.082 7.082 71.166-71.166z" fill="#7a8c98"/><path d="m424.736 362.597-18.978 18.978 11.035 11.035c2.184 2.184 5.724 2.184 7.907 0l11.07-11.07c2.184-2.183 2.184-5.724 0-7.907z" fill="#b6c4cf"/><path d="m433.927 371.788-9.225 9.225c-2.184 2.184-5.724 2.184-7.907 0l-5.237-5.237-5.799 5.799 11.035 11.035c2.184 2.184 5.724 2.184 7.907 0l11.07-11.07c2.184-2.183 2.184-5.724 0-7.907z" fill="#9facba"/><path d="m452.977 334.178-18.977 18.978 11.036 11.035c2.184 2.184 5.724 2.184 7.907 0l11.07-11.07c2.184-2.183 2.184-5.724 0-7.907z" fill="#b6c4cf"/><path d="m462.168 343.369-9.225 9.225c-2.184 2.184-5.724 2.184-7.907 0l-5.237-5.237-5.799 5.799 11.035 11.035c2.184 2.184 5.724 2.184 7.907 0l11.07-11.07c2.184-2.183 2.184-5.724 0-7.907z" fill="#9facba"/><path d="m413.923 157.883 25.873-25.873c10.049-10.049 10.049-26.341 0-36.39-10.049-10.049-26.341-10.049-36.39 0l-25.873 25.873z" fill="#7a8c98"/><g fill="#596c76"><path d="m419.957 99.016c.702 0 1.389.058 2.069.144l9.21-9.21c-9.283-3.743-20.306-1.853-27.83 5.67l-25.873 25.873 9.458 9.458 16.414-16.414c.053-.053.109-.102.162-.154.558-8.578 7.672-15.367 16.39-15.367z"/><path d="m437.297 112.349c.866.669 1.704 1.393 2.498 2.188 2.572 2.572 4.482 5.555 5.737 8.737 2.415-6.12 2.379-12.974-.079-19.081z"/></g><path d="m457.229 84.51-6.323-6.323c-2.184-2.183-5.724-2.183-7.907 0l-21.888 21.888c7.594.566 13.665 6.637 14.23 14.231l21.888-21.888c2.184-2.184 2.184-5.725 0-7.908z" fill="#d9e7ec"/><path d="m457.229 84.51-6.323-6.323c-2.184-2.183-5.724-2.183-7.907 0l-21.888 21.888c2.851.212 5.487 1.196 7.7 2.751l14.188-14.188c2.184-2.184 5.724-2.184 7.907 0l5.051 5.051 1.272-1.272c2.184-2.183 2.184-5.724 0-7.907z" fill="#c5d3dd"/><g fill="#b6c4cf"><path d="m112.757 180.07-24.429 24.429c-2.184 2.184-2.184 5.724 0 7.907l4.744 4.744c2.184 2.183 5.724 2.183 7.907 0l24.429-24.429z"/><path d="m167.401 142.822-4.744-4.744c-2.184-2.184-5.724-2.184-7.907 0l-24.429 24.429 12.652 12.652 24.429-24.429c2.182-2.184 2.182-5.724-.001-7.908z"/></g><g fill="#9facba"><path d="m100.289 204.499 18.448-18.448-5.981-5.981-24.429 24.429c-2.184 2.184-2.184 5.724 0 7.907l4.744 4.744c2.184 2.183 5.724 2.183 7.907 0l2.027-2.027-2.717-2.717c-2.182-2.183-2.182-5.723.001-7.907z"/><path d="m136.301 168.487 28.383-28.383-2.027-2.027c-2.184-2.184-5.724-2.184-7.907 0l-24.429 24.429z"/></g><path d="m218.106 227.464 17.759-17.759c2.184-2.183 2.184-5.724 0-7.907l-7.907-7.907c-2.184-2.184-5.724-2.184-7.907 0l-17.759 17.759z" fill="#7a8c98"/><path d="m220.05 206.638c2.184-2.184 5.724-2.184 7.907 0l5.487 5.487 2.42-2.42c2.184-2.183 2.184-5.724 0-7.907l-7.907-7.907c-2.184-2.184-5.724-2.184-7.907 0l-17.759 17.759 6.374 6.374z" fill="#596c76"/><path d="m322.269 91.671-9.933 9.933c-2.184 2.184-2.184 5.724 0 7.907l7.907 7.907c2.184 2.183 5.724 2.183 7.907 0l9.933-9.933z" fill="#7a8c98"/><path d="m43.471 360.98-17.941 17.941c-6.987 6.987-6.987 18.316 0 25.303 6.987 6.987 18.316 6.987 25.303 0l17.941-17.941z" fill="#01c0fa"/><path d="m42.241 404.224c-6.987-6.987-6.987-18.316 0-25.303l9.586-9.586-8.355-8.355-17.942 17.941c-6.987 6.987-6.987 18.316 0 25.303 5.687 5.687 14.249 6.744 21.007 3.173-1.545-.816-2.996-1.872-4.296-3.173z" fill="#08a9f1"/><g><path d="m169.736 202.511h22.823v59.149h-22.823z" fill="#7a8c98" transform="matrix(.707 -.707 .707 .707 -111.052 196.062)"/><path d="m156.515 207.987h22.823v21.756h-22.823z" fill="#596c76" transform="matrix(.707 -.707 .707 .707 -105.576 182.842)"/><path d="m157.597 188.369-33.176-33.176c-2.184-2.184-5.724-2.184-7.907 0l-11.07 11.07c-2.184 2.184-2.184 5.724 0 7.907l33.176 33.176z" fill="#7a8c98"/><path d="m121.846 174.171c-2.184-2.183-2.184-5.724 0-7.907l6.822-6.823-4.248-4.248c-2.184-2.184-5.724-2.184-7.907 0l-11.07 11.07c-2.184 2.184-2.184 5.724 0 7.907l33.176 33.176 8.201-8.202z" fill="#596c76"/><path d="m152.165 250.059h19.275v35.784h-19.275z" fill="#7a8c98" transform="matrix(.707 -.707 .707 .707 -142.079 192.893)"/></g><g><path d="m70.44 389.362-30.048-30.048c-4.367-4.367-4.367-11.448 0-15.815l84.465-84.465c4.367-4.367 11.448-4.367 15.815 0l30.048 30.048c4.367 4.367 4.367 11.448 0 15.815l-84.465 84.465c-4.367 4.367-11.448 4.367-15.815 0z" fill="#b6c4cf"/></g><g fill="#9facba"><path d="m44.298 339.594-3.906 3.906c-4.367 4.367-4.367 11.448 0 15.815l30.048 30.048c4.367 4.367 11.448 4.367 15.815 0l3.906-3.906z"/><path d="m64.02 345.18c.398-.592.855-1.156 1.378-1.68l79.869-79.869-4.595-4.595c-4.367-4.367-11.448-4.367-15.815 0l-73.491 73.491z"/></g><g><path d="m375.304 401.376c-6.929-.241-13.459-3.316-18.361-8.219l-188.639-188.639-14.724 14.724 54.237 54.237c1.953 1.953 1.953 5.118 0 7.071l-7.064 7.064c-1.953 1.953-5.118 1.953-7.071 0l-57.351-57.351c-2.944-2.944-4.566-6.858-4.566-11.021s1.621-8.077 4.565-11.021l20.953-20.953c6.076-6.076 15.964-6.076 22.041 0l192.149 192.148c1.426 1.426 3.375 2.139 5.414 1.958 1.654-.146 3.178-.964 4.352-2.138l108.798-108.796c2.643-2.643 2.643-6.944 0-9.587l-173.588-173.588c-1.953-1.953-1.953-5.118 0-7.071l7.064-7.064c1.953-1.953 5.118-1.953 7.071 0l173.589 173.588c10.437 10.438 10.437 27.42 0 37.857l-108.978 108.977c-5.282 5.282-12.383 8.085-19.891 7.824z" fill="#01c0fa"/></g><g><circle cx="419.957" cy="115.459" fill="#b6c4cf" r="16.443"/></g><g><circle cx="419.957" cy="115.459" fill="#d9e7ec" r="7.589"/></g><g><g><path d="m163.329 317.385c-1.279 0-2.558-.488-3.534-1.464l-45.961-45.961c-1.952-1.952-1.952-5.116 0-7.068 1.952-1.951 5.116-1.951 7.068 0l45.961 45.961c1.952 1.952 1.952 5.116 0 7.068-.977.976-2.255 1.464-3.534 1.464z" fill="#c5d3dd"/></g><g><path d="m145.933 334.781c-1.279 0-2.558-.488-3.534-1.464l-45.961-45.961c-1.952-1.952-1.952-5.116 0-7.068 1.952-1.951 5.116-1.951 7.068 0l45.961 45.961c1.952 1.952 1.952 5.116 0 7.068-.977.976-2.255 1.464-3.534 1.464z" fill="#c5d3dd"/></g><g><path d="m128.536 352.177c-1.279 0-2.558-.488-3.534-1.464l-45.961-45.961c-1.952-1.952-1.952-5.116 0-7.068 1.952-1.951 5.116-1.951 7.068 0l45.961 45.961c1.952 1.952 1.952 5.116 0 7.068-.976.976-2.255 1.464-3.534 1.464z" fill="#c5d3dd"/></g><g><path d="m111.14 369.573c-1.279 0-2.558-.488-3.534-1.464l-45.961-45.961c-1.952-1.952-1.952-5.116 0-7.068 1.952-1.951 5.116-1.951 7.068 0l45.961 45.961c1.952 1.952 1.952 5.116 0 7.068-.976.976-2.254 1.464-3.534 1.464z" fill="#c5d3dd"/></g><g><path d="m93.744 386.969c-1.279 0-2.558-.488-3.534-1.464l-45.961-45.961c-1.952-1.952-1.952-5.116 0-7.068 1.952-1.951 5.116-1.951 7.068 0l45.961 45.961c1.952 1.952 1.952 5.116 0 7.068-.976.976-2.255 1.464-3.534 1.464z" fill="#c5d3dd"/></g></g></g></g></g></g></svg>