<svg id="Capa_1" enable-background="new 0 0 512 512" height="512" viewBox="0 0 512 512" width="512" xmlns="http://www.w3.org/2000/svg"><g><g><path d="m256 22c-135.31 0-245 109.69-245 245s109.69 245 245 245c70.278 0 133.635-29.599 178.312-77l60.3-112.2c4.175-17.925 6.388-36.604 6.388-55.8 0-135.31-109.69-245-245-245z" fill="#fef0ae"/></g><g fill="#fee97d"><path d="m150.5 128.575c0-5.54.677-10.921 1.923-16.084-49.709 33.389-82.423 90.127-82.423 154.509 0 63.546 31.875 119.639 80.5 153.19z"/><path d="m342.107 102.103c12.191 16.782 19.393 37.411 19.393 59.694v74.926c0 23.141-8.654 45.241-24.368 62.229-8.146 8.807-12.632 20.263-12.632 32.259v108.766c68.826-27.279 117.5-94.442 117.5-172.977 0-71.652-40.522-133.83-99.893-164.897z"/></g><path d="m361.5 236.723c0 20.284-6.651 39.768-18.877 55.712l59.717 59.718h83.434c3.531-9.52 6.499-19.314 8.837-29.352l-133.111-133.112z" fill="#fed2a4"/><g><path d="m355.065 270.488c-3.095 7.811-7.266 15.197-12.442 21.946l59.717 59.718h34.388z" fill="#ffbd86"/></g><g><path d="m392.424 322.439-10.317-2.765c-.69-.185-1.229-.724-1.414-1.414l-14.656-54.698c-.185-.69.012-1.427.518-1.932l7.553-7.553c.505-.505 1.242-.703 1.932-.518l54.698 14.656c.69.185 1.229.724 1.414 1.414l2.765 10.317c.185.69-.012 1.427-.518 1.932l-40.041 40.041c-.507.508-1.243.705-1.934.52zm-8.387-49.653 7.633 28.487c.199.744 1.129.993 1.673.448l20.854-20.854c.544-.544.295-1.474-.448-1.673l-28.487-7.633c-.743-.199-1.424.482-1.225 1.225z" fill="#596c76"/></g><g><path d="m394.124 315.182c-.69-.185-1.229-.724-1.414-1.414l-14.656-54.698c-.185-.69.012-1.427.518-1.932l2.286-2.286-4.819-1.291c-.69-.185-1.427.012-1.932.518l-7.553 7.553c-.505.505-.703 1.242-.518 1.932l14.656 54.698c.185.69.724 1.229 1.414 1.414l10.317 2.765c.69.185 1.427-.012 1.932-.518l5.266-5.266z" fill="#465a61"/></g><path d="m440.8 307.818-20.506 20.506c-.781.781-2.047.781-2.828 0l-5.657-5.657c-.781-.781-.781-2.047 0-2.828l20.506-20.506c.781-.781 2.047-.781 2.828 0l5.657 5.657c.781.78.781 2.047 0 2.828z" fill="#465a61"/><path d="m219.075 60h40.628c12.592 0 24.655 2.305 35.797 6.504v-56.504c0-5.523-4.477-10-10-10h-76c-5.523 0-10 4.477-10 10v52.862c6.207-1.852 12.774-2.862 19.575-2.862z" fill="#ffe5c2"/><g><path d="m240 10c0-5.523 4.477-10 10-10h-40.5c-5.523 0-10 4.477-10 10v52.862c6.207-1.852 12.774-2.862 19.575-2.862h20.925z" fill="#fed2a4"/></g><path d="m259.703 59h-40.628c-38.425 0-69.575 31.15-69.575 69.575v359.125c32.204 15.569 68.332 24.3 106.5 24.3 24.144 0 47.465-3.509 69.5-10.017v-170.772c0-11.708 4.416-22.985 12.366-31.58 15.837-17.121 24.634-39.586 24.634-62.909v-74.926c0-56.772-46.024-102.796-102.797-102.796z" fill="#f5f8f9"/><path d="m193 397.33-15.121-114.59c-1.251-9.483-1.879-19.038-1.879-28.603v-6.833c0-14.355 5.075-27.576 13.508-37.979-8.376-9.132-13.508-21.28-13.508-34.572v-24.506c0-22.69 14.949-42.048 35.481-48.739 9.671-22.871 31.209-39.502 56.906-42.139-2.864-.24-5.759-.369-8.684-.369h-40.628c-38.425 0-69.575 31.15-69.575 69.575v359.125c17.745 8.579 36.687 15.068 56.5 19.178v-81.093c-7.959-6.907-13-17.089-13-28.455z" fill="#e8edf2"/><g><path d="m280 341.152v-30.733c10.505-10.896 17-25.681 17-41.919v-21.196c0-14.355-5.075-27.576-13.508-37.979 8.376-9.132 13.508-21.281 13.508-34.572v-24.506c0-28.186-23.061-51.247-51.247-51.247h-18.506c-28.186 0-51.247 23.061-51.247 51.247v24.506c0 13.292 5.132 25.441 13.508 34.572-8.433 10.403-13.508 23.625-13.508 37.979v6.833c0 9.565.628 19.12 1.879 28.603l15.121 114.59c0 20.805 16.865 37.67 37.67 37.67h203.642c22.546-23.921 40.34-52.369 51.853-83.848h-196.165c-5.523 0-10-4.477-10-10z" fill="#ffe5c2"/><path d="m227 397.33-15.121-114.59c-1.251-9.483-1.879-19.038-1.879-28.603v-6.833c0-14.355 5.075-27.576 13.508-37.979-8.376-9.132-13.508-21.28-13.508-34.572v-24.506c0-25.554 18.956-46.895 43.5-50.658-2.528-.388-5.115-.589-7.747-.589h-18.506c-28.186 0-51.247 23.061-51.247 51.247v24.506c0 13.292 5.132 25.441 13.508 34.572-8.433 10.403-13.508 23.625-13.508 37.979v6.833c0 9.565.628 19.12 1.879 28.603l15.121 114.59c0 20.805 16.865 37.67 37.67 37.67h34c-20.805 0-37.67-16.865-37.67-37.67z" fill="#fed2a4"/><path d="m315 351.152h24v83.848h-24z" fill="#596c76"/><path d="m352 351.152h14v83.848h-14z" fill="#465a61"/><path d="m377 351.152h14v83.848h-14z" fill="#596c76"/></g><g><g fill="#596c76"><path d="m242.004 371.792 9.207-4.544c.413-.204.699-.598.765-1.053l1.476-10.16c.167-1.147 1.577-1.605 2.386-.775l7.166 7.352c.321.33.784.48 1.238.402l10.119-1.736c1.143-.196 2.014 1.003 1.475 2.03l-4.778 9.088c-.214.408-.214.894 0 1.302l4.778 9.088c.54 1.026-.332 2.226-1.475 2.03l-10.119-1.736c-.454-.078-.917.073-1.238.402l-7.166 7.352c-.809.83-2.219.372-2.386-.775l-1.476-10.16c-.066-.456-.352-.849-.765-1.053l-9.207-4.544c-1.04-.515-1.04-1.997 0-2.51z"/><g><path d="m472.316 325.21 4.509-8.575c.696-1.323.582-2.896-.297-4.106s-2.34-1.804-3.813-1.55l-9.549 1.637-6.763-6.938c-1.043-1.07-2.576-1.449-3.997-.986-1.422.462-2.438 1.668-2.653 3.147l-1.393 9.587-8.688 4.288c-1.34.661-2.173 2.001-2.173 3.496 0 1.496.833 2.835 2.173 3.496l8.688 4.288 1.393 9.587c.215 1.479 1.231 2.686 2.653 3.148.401.13.811.194 1.216.194 1.031 0 2.032-.412 2.781-1.18l6.763-6.938 9.548 1.637c1.473.253 2.935-.341 3.814-1.55s.993-2.783.297-4.106zm-4.694 1.815 3.739 7.112-7.921-1.358c-1.267-.216-2.555.203-3.45 1.122l-5.609 5.754-1.156-7.951c-.184-1.271-.981-2.37-2.133-2.937l-7.206-3.556 7.205-3.556c1.152-.568 1.95-1.666 2.134-2.936l1.156-7.952 5.609 5.754c.895.918 2.184 1.338 3.451 1.121l7.92-1.358-3.739 7.112c-.598 1.136-.598 2.493 0 3.629z"/><path d="m466.791 319.604-2.93.502c-.355.061-.719.091-1.079.091-1.715 0-3.385-.704-4.583-1.932l-2.073-2.127-.427 2.936c-.302 2.087-1.611 3.89-3.5 4.821l-2.663 1.315 2.661 1.313c1.892.932 3.201 2.735 3.503 4.819l.427 2.939 2.073-2.127c1.197-1.228 2.868-1.932 4.583-1.932.36 0 .724.031 1.082.092l2.927.502-1.382-2.628c-.98-1.865-.98-4.091 0-5.956z"/></g><path d="m260.887 404.255 7.072-3.49c.317-.157.537-.459.588-.809l1.134-7.804c.128-.881 1.211-1.233 1.833-.595l5.505 5.647c.247.253.602.369.951.309l7.773-1.333c.878-.151 1.547.771 1.133 1.559l-3.67 6.98c-.165.313-.165.687 0 1l3.67 6.98c.414.788-.255 1.71-1.133 1.559l-7.773-1.333c-.349-.06-.704.056-.951.309l-5.505 5.647c-.622.638-1.705.286-1.833-.595l-1.134-7.804c-.051-.35-.271-.652-.588-.809l-7.072-3.49c-.799-.395-.799-1.534 0-1.928z"/></g><path d="m289.099 420.597-.851 5.853c-.038.262-.203.489-.441.607l-5.304 2.618c-.599.296-.599 1.15 0 1.445l5.304 2.618c.238.117.403.344.441.607l.095.656h13.121l-2.223-4.228c-.123-.235-.123-.515 0-.75l2.752-5.235c.311-.591-.191-1.282-.849-1.169l-5.83 1c-.261.045-.528-.042-.713-.232l-4.129-4.235c-.465-.48-1.277-.216-1.373.445z" fill="#465a61"/></g><g><path d="m254.52 270.342c7.393-1.445 12.693 2.823 14.138 10.216 1.392 7.125-2.384 10.654-7.089 11.573-4.436.867-9.882-.581-12.742-3.79-1.675 2.141-2.061 4.45-1.641 6.6 1.366 6.99 8.095 10.001 15.757 8.504 15.055-2.942 14.888-18.958 13.496-26.082-3.126-15.996-18.919-29.517-33.033-26.759-20.029 3.914-19.865 34.026-45.137 38.965-8.198 1.602-16.48.271-20.305-6.186l2.854 21.632c7.787 5.51 17.574 7.696 27.323 5.791 29.976-5.858 25.275-36.34 46.379-40.464z" fill="#596c76"/></g><path d="m213.475 247.118c-2.973-15.212-17.402-28.175-30.948-27.037-4.167 8.194-6.527 17.445-6.527 27.223v5.087c3.725-5.922 7.974-10.812 15.556-12.294 7.393-1.445 12.693 2.823 14.138 10.216 1.392 7.125-2.384 10.654-7.089 11.573-4.436.867-9.882-.581-12.742-3.79-1.675 2.141-2.061 4.45-1.641 6.6 1.366 6.99 8.095 10.001 15.757 8.504 15.056-2.942 14.888-18.958 13.496-26.082z" fill="#465a61"/><path d="m243.778 233.697c.42-2.151.034-4.459-1.641-6.6-2.86 3.209-8.306 4.656-12.742 3.79-4.705-.919-8.481-4.448-7.089-11.573 1.445-7.393 6.744-11.66 14.138-10.216 21.104 4.124 16.403 34.606 46.379 40.464 4.798.938 9.604.88 14.178-.073v-2.183c0-6.542-1.065-12.845-3.01-18.757-.432-.068-.863-.139-1.295-.224-25.271-4.939-25.108-35.05-45.137-38.965-14.114-2.758-29.907 10.763-33.033 26.759-1.392 7.124-1.56 23.14 13.496 26.082 7.661 1.497 14.389-1.514 15.756-8.504z" fill="#596c76"/><path d="m238.897 124.799 7.123 14.433c.404.818 1.184 1.385 2.087 1.516l15.927 2.314c2.274.33 3.182 3.125 1.536 4.728l-11.525 11.234c-.653.637-.951 1.554-.797 2.454l2.721 15.863c.388 2.265-1.989 3.992-4.022 2.922l-14.246-7.49c-.808-.425-1.772-.425-2.58 0l-14.246 7.49c-2.034 1.069-4.411-.658-4.022-2.922l2.721-15.863c.154-.899-.144-1.817-.797-2.454l-11.525-11.234c-1.645-1.604-.737-4.398 1.536-4.728l15.927-2.314c.903-.131 1.683-.698 2.087-1.516l7.123-14.433c1.017-2.06 3.955-2.06 4.972 0z" fill="#596c76"/><g><path d="m231.442 172.088 2.721-15.863c.154-.899-.144-1.817-.797-2.454l-11.525-11.234c-.382-.372-.62-.809-.742-1.264l-12.31 1.789c-2.274.33-3.182 3.125-1.536 4.728l11.525 11.234c.653.637.951 1.554.797 2.454l-2.721 15.863c-.388 2.265 1.989 3.992 4.022 2.922l11.208-5.892c-.515-.586-.795-1.391-.642-2.283z" fill="#465a61"/></g><path d="m234.468 350.804c-7.672-20.14-30.421-30.111-50.493-21.953-.003.006-.006.01-.009.016l2.336 17.706c14.89-3.11 30.251 4.961 35.839 19.629 3.137 8.234 2.591 16.964-.824 24.381-.918 1.995 1.515 3.846 3.137 2.365 11.326-10.346 15.806-26.939 10.014-42.144z" fill="#465a61"/><path d="m256.759 348.622c9.313 4.175 19.401 4.337 28.34 1.241-3.041-1.715-5.098-4.971-5.098-8.711v-11.983c-7.833 3.395-17.008 3.618-25.413-.149-8.04-3.604-13.827-10.164-16.658-17.823-.761-2.06-3.791-1.648-3.891.545-.693 15.324 7.872 30.225 22.72 36.88z" fill="#596c76"/><path d="m473.299 380.25h-63.138c-.718 0-1.38.385-1.737 1.008l-5.714 10c-.762 1.333.201 2.992 1.736 2.992h60.93c2.786-4.572 5.435-9.237 7.923-14z" fill="#596c76"/><g><g fill="#596c76"><path d="m432 370.75h-9c-1.105 0-2-.895-2-2v-9c0-1.105.895-2 2-2h9c1.105 0 2 .895 2 2v9c0 1.105-.895 2-2 2z"/><path d="m455 370.75h-9c-1.105 0-2-.895-2-2v-9c0-1.105.895-2 2-2h9c1.105 0 2 .895 2 2v9c0 1.105-.895 2-2 2z"/><path d="m432 416.75h-9c-1.105 0-2-.895-2-2v-9c0-1.105.895-2 2-2h9c1.105 0 2 .895 2 2v9c0 1.105-.895 2-2 2z"/></g><path d="m202 173h-9c-1.105 0-2-.895-2-2v-9c0-1.105.895-2 2-2h9c1.105 0 2 .895 2 2v9c0 1.105-.895 2-2 2z" fill="#465a61"/><path d="m278 173h-9c-1.105 0-2-.895-2-2v-9c0-1.105.895-2 2-2h9c1.105 0 2 .895 2 2v9c0 1.105-.895 2-2 2z" fill="#596c76"/></g><path d="m393.419 239.706c-4.592 1.013-9.399-1.32-11.44-5.557-.684-1.42-1.009-2.892-1.028-4.333-.01-.795-1.02-1.116-1.49-.475-2.514 3.429-3.162 8.139-1.051 12.411 2.32 4.695 7.607 7.338 12.758 6.393 6.006-1.102 9.909-6.302 9.83-11.907-.011-.788-1.01-1.148-1.474-.512-1.414 1.942-3.518 3.409-6.105 3.98z" fill="#596c76"/></g></svg>