<svg id="Capa_1" enable-background="new 0 0 512 512" height="512" viewBox="0 0 512 512" width="512" xmlns="http://www.w3.org/2000/svg"><g><path d="m256 22c-135.31 0-245 109.69-245 245 0 25.424 3.874 49.943 11.062 73l4.874 1h458.129l4.874-1c7.187-23.057 11.061-47.576 11.061-73 0-135.31-109.69-245-245-245z" fill="#c8effe"/><path d="m22.062 340c31.064 99.657 124.052 172 233.938 172s202.874-72.343 233.938-172z" fill="#08a9f1"/><path d="m417.5 436h-323c-10.217 0-18.5-8.283-18.5-18.5 0-10.217 8.283-18.5 18.5-18.5h323c10.217 0 18.5 8.283 18.5 18.5 0 10.217-8.283 18.5-18.5 18.5z" fill="#0290cf"/><g><g><path d="m215.974 36.579v-29.167c0-4.094-3.319-7.412-7.412-7.412h-71.158c-4.094 0-7.412 3.319-7.412 7.412v29.167z" fill="#08a9f1"/><path d="m170.43 0h-33.026c-4.094 0-7.412 3.319-7.412 7.412v29.167h33.026v-29.167c0-4.093 3.318-7.412 7.412-7.412z" fill="#0290cf"/><path d="m230.798 66.229v-23.238c0-4.094-3.319-7.412-7.412-7.412h-100.807c-4.094 0-7.412 3.319-7.412 7.412v23.237h115.631z" fill="#e8edf2"/><path d="m164.781 35.579h-42.202c-4.094 0-7.412 3.319-7.412 7.412v23.237h42.202v-23.237c-.001-4.093 3.318-7.412 7.412-7.412z" fill="#d9e7ec"/><path d="m407.368 17.841c-3.66-9.835-13.048-16.359-23.542-16.359h-113.084c-13.873 0-25.119 11.246-25.119 25.119v33.627c0 2.761-2.239 5-5 5h-131.386c-12.281 0-22.237 9.956-22.237 22.237v312.798c0 12.281 9.956 22.237 22.237 22.237h293.526c12.281 0 22.237-9.956 22.237-22.237v-321.692c0-8.825-1.576-17.578-4.653-25.849z" fill="#f5f8f9"/><g fill="#e8edf2"><path d="m269.623 55.228v-28.627c0-13.873 11.246-25.119 25.119-25.119h-24c-13.873 0-25.119 11.246-25.119 25.119v33.627c0 2.761-2.239 5-5 5h19c5.523 0 10-4.477 10-10z"/><path d="m127 400.263v-312.798c0-12.281 9.956-22.237 22.237-22.237h-40c-12.281 0-22.237 9.956-22.237 22.237v312.798c0 12.281 9.956 22.237 22.237 22.237h40c-12.281 0-22.237-9.956-22.237-22.237z"/></g><path d="m144.502 159h222.996v169.728h-222.996z" fill="#fff"/><path d="m144.502 159h42.498v169.728h-42.498z" fill="#f2fbff"/><path d="m144.502 159h42.498v169.728h-42.498z" fill="#f2fbff"/><path d="m359.825 75.552h-56.439c-10.978 0-19.96-8.982-19.96-19.96 0-10.978 8.982-19.96 19.96-19.96h56.439c10.978 0 19.96 8.982 19.96 19.96 0 10.978-8.982 19.96-19.96 19.96z" fill="#c8effe"/></g><g><path d="m144.502 346.895c0 8.187 6.637 14.825 14.825 14.825h193.347c8.187 0 14.825-6.637 14.825-14.825v-19.272h-222.997z" fill="#08a9f1"/><path d="m352.673 126.009h-193.346c-8.187 0-14.825 6.637-14.825 14.825v19.272h222.996v-19.272c0-8.188-6.637-14.825-14.825-14.825z" fill="#08a9f1"/><path d="m201.825 126.009h-42.498c-8.187 0-14.825 6.637-14.825 14.825v19.272h42.498v-19.272c0-8.188 6.637-14.825 14.825-14.825z" fill="#0290cf"/></g><g><g><path d="m196.158 305.386h-23.719c-4.094 0-7.412-3.319-7.412-7.412v-23.719c0-4.094 3.319-7.412 7.412-7.412h23.719c4.094 0 7.412 3.319 7.412 7.412v23.719c0 4.093-3.318 7.412-7.412 7.412z" fill="#fac600"/><path d="m182 297.974v-23.719c0-4.094 3.319-7.412 7.412-7.412h-16.974c-4.094 0-7.412 3.319-7.412 7.412v23.719c0 4.094 3.319 7.412 7.412 7.412h16.974c-4.093 0-7.412-3.319-7.412-7.412z" fill="#e8b800"/><path d="m196.158 252.018h-23.719c-4.094 0-7.412-3.319-7.412-7.412v-23.719c0-4.094 3.319-7.412 7.412-7.412h23.719c4.094 0 7.412 3.319 7.412 7.412v23.719c0 4.093-3.318 7.412-7.412 7.412z" fill="#fac600"/><path d="m182 244.605v-23.719c0-4.094 3.319-7.412 7.412-7.412h-16.974c-4.094 0-7.412 3.319-7.412 7.412v23.719c0 4.094 3.319 7.412 7.412 7.412h16.974c-4.093.001-7.412-3.318-7.412-7.412z" fill="#e8b800"/></g><path d="m339.561 305.386h-114.149c-4.094 0-7.412-3.319-7.412-7.412v-77.088c0-4.094 3.319-7.412 7.412-7.412h114.149c4.094 0 7.412 3.319 7.412 7.412v77.088c.001 4.093-3.318 7.412-7.412 7.412z" fill="#dff6fd"/><path d="m252 297.974v-77.088c0-4.094 3.319-7.412 7.412-7.412h-34c-4.094 0-7.412 3.319-7.412 7.412v77.088c0 4.094 3.319 7.412 7.412 7.412h34c-4.093 0-7.412-3.319-7.412-7.412z" fill="#c8effe"/></g></g><path d="m263.812 189.5h-95.786c-1.657 0-3-1.343-3-3v-9c0-1.657 1.343-3 3-3h95.786c1.657 0 3 1.343 3 3v9c0 1.657-1.343 3-3 3z" fill="#d9e7ec"/><path d="m343.974 189.5h-38.974c-1.657 0-3-1.343-3-3v-9c0-1.657 1.343-3 3-3h38.974c1.657 0 3 1.343 3 3v9c0 1.657-1.343 3-3 3z" fill="#d9e7ec"/><path d="m187 346.895v-19.272h-42.498v19.272c0 8.187 6.637 14.825 14.825 14.825h42.498c-8.188-.001-14.825-6.638-14.825-14.825z" fill="#0290cf"/></g></svg>