<svg id="Capa_1" enable-background="new 0 0 512 512" height="512" viewBox="0 0 512 512" width="512" xmlns="http://www.w3.org/2000/svg"><g><path d="m256 22c-135.31 0-245 109.69-245 245 0 47.824 13.716 92.437 37.409 130.148l69.577 72.294c13.527 9.24 28.024 17.162 43.312 23.575l189.399.002c15.29-6.414 29.788-14.336 43.316-23.577l69.577-72.294c23.694-37.71 37.41-82.324 37.41-130.148 0-135.31-109.69-245-245-245z" fill="#01c0fa"/><g><g><circle cx="256" cy="267" fill="#08a9f1" r="188"/></g></g><g><g fill="#fed2a4"><g><path d="m186.713 116.53-5.222-41.53h-1.855c-11.397 0-20.636 9.239-20.636 20.637v7.727c0 11.397 9.239 20.637 20.637 20.637h8.731c-.773-2.432-1.336-4.932-1.655-7.471z"/><path d="m332.363 75h-1.855l-5.221 41.53c-.319 2.539-.882 5.038-1.655 7.47h8.731c11.397 0 20.637-9.239 20.637-20.637v-7.727c0-11.397-9.239-20.636-20.637-20.636z"/></g><path d="m463.591 261.962c0-37.133-30.102-67.235-67.235-67.235h-90.713c-7.166 0-13.332-5.069-14.717-12.1l-3.021-15.331-5.343 5.513c-1.349 1.393-3.233 2.19-5.172 2.19-1.312 0-2.612-.369-3.761-1.068-5.306-3.226-11.401-4.931-17.629-4.931s-12.323 1.705-17.629 4.932c-1.148.699-2.449 1.068-3.761 1.068-1.938 0-3.823-.798-5.172-2.189l-5.343-5.513-3.021 15.331c-1.385 7.031-7.551 12.1-14.717 12.1h-90.713c-37.133 0-67.235 30.102-67.235 67.235v62.317c0 8.352 3.133 15.968 8.282 21.75-5.161 6.069-8.282 13.928-8.282 22.519v28.6c17.981 28.62 41.71 53.259 69.577 72.294v-145.165c0-1.872.157-3.706.46-5.491 2.028 12.316 7.551 23.451 15.522 32.353 2.816 3.145 4.803 6.941 5.615 11.084l21.716 130.793c29.134 12.222 61.127 18.982 94.701 18.982 33.572 0 65.563-6.76 94.697-18.98l21.655-130.535c.814-4.162 2.817-7.974 5.654-11.127 8.012-8.905 13.556-20.07 15.57-32.423.287 1.739.438 3.524.438 5.345v145.163c27.867-19.035 51.596-43.674 69.577-72.294v-28.6c0-8.591-3.121-16.45-8.282-22.519 5.149-5.782 8.282-13.398 8.282-21.75z"/><path d="m463.591 261.962c0-37.133-30.102-67.235-67.235-67.235h-90.713c-7.166 0-13.332-5.069-14.717-12.1l-3.021-15.331-5.343 5.513c-1.349 1.393-3.233 2.19-5.172 2.19-1.312 0-2.612-.369-3.761-1.068-5.306-3.226-11.401-4.931-17.629-4.931s-12.323 1.705-17.629 4.932c-1.148.699-2.449 1.068-3.761 1.068-1.938 0-3.823-.798-5.172-2.189l-5.343-5.513-3.021 15.331c-1.385 7.031-7.551 12.1-14.717 12.1h-90.713c-37.133 0-67.235 30.102-67.235 67.235v62.317c0 8.352 3.133 15.968 8.282 21.75-5.161 6.069-8.282 13.928-8.282 22.519v28.6c17.981 28.62 41.71 53.259 69.577 72.294v-145.165c0-1.872.157-3.706.46-5.491 2.028 12.316 7.551 23.451 15.522 32.353 2.816 3.145 4.803 6.941 5.615 11.084l21.716 130.793c29.134 12.222 61.127 18.982 94.701 18.982 33.572 0 65.563-6.76 94.697-18.98l21.655-130.535c.814-4.162 2.817-7.974 5.654-11.127 8.012-8.905 13.556-20.07 15.57-32.423.287 1.739.438 3.524.438 5.345v145.163c27.867-19.035 51.596-43.674 69.577-72.294v-28.6c0-8.591-3.121-16.45-8.282-22.519 5.149-5.782 8.282-13.398 8.282-21.75z"/></g><path d="m394.014 469.443c7.174-4.9 14.069-10.179 20.667-15.794v-115.85c0-7.96-5.383-14.912-13.089-16.905l-8.016-1.96c.287 1.739.438 3.524.438 5.345z" fill="#ffbd86"/><g fill="#ffbd86"><path d="m238.371 173.932c-1.148.699-2.449 1.068-3.761 1.068-1.938 0-3.823-.798-5.172-2.189l-5.343-5.513-3.021 15.331c-1.385 7.031-7.551 12.1-14.717 12.1h25.409c7.166 0 13.331-5.069 14.717-12.1l2.543-12.904c-3.751.785-7.356 2.201-10.655 4.207z"/><path d="m73.818 368.548c0-8.591 3.121-16.45 8.282-22.519-5.149-5.782-8.282-13.398-8.282-21.75v-62.317c0-37.133 30.102-67.235 67.235-67.235h-25.409c-37.133 0-67.235 30.102-67.235 67.235v62.317c0 8.352 3.133 15.968 8.282 21.75-5.161 6.069-8.282 13.928-8.282 22.519v28.6c7.504 11.943 16.021 23.181 25.409 33.62z"/></g><g><path d="m256 501c-2.762 0-5-2.238-5-5v-271.543c0-2.762 2.238-5 5-5s5 2.238 5 5v271.543c0 2.762-2.238 5-5 5z" fill="#ffbd86"/></g><g><path d="m277.633 0h-43.267c-33.317 0-59.226 28.981-55.507 62.09l6.861 54.565c1.171 9.31 5.335 17.988 11.866 24.727l31.134 32.124c1.545 1.594 3.67 2.494 5.89 2.494 1.512 0 2.988-.428 4.28-1.214 4.99-3.034 10.844-4.786 17.11-4.786s12.12 1.752 17.109 4.786c1.292.786 2.768 1.214 4.28 1.214 2.22 0 4.345-.9 5.89-2.494l31.134-32.124c6.531-6.738 10.695-15.417 11.866-24.727l6.861-54.565c3.719-33.109-22.189-62.09-55.507-62.09z" fill="#8379c1"/></g><g><g><path d="m235.587 141.382c-6.531-6.738-10.695-15.416-11.866-24.727l-6.861-54.565c-3.719-33.109 22.189-62.09 55.507-62.09h-38c-33.317 0-59.226 28.981-55.507 62.09l6.861 54.565c1.171 9.311 5.335 17.989 11.866 24.727l31.134 32.124c1.545 1.594 3.67 2.494 5.89 2.494 1.512 0 2.988-.428 4.28-1.214 4.989-3.034 10.843-4.786 17.109-4.786 2.896 0 5.702.38 8.375 1.086z" fill="#6e61b6"/></g></g><g><path d="m309.227 374.75c-29.844 1.511-43.037 20.386-47.518 28.958v-1.157c0-3.14-2.569-5.708-5.708-5.708s-5.708 2.569-5.708 5.708v1.157c-4.482-8.572-17.674-27.447-47.518-28.958-2.053-.104-3.676 1.56-3.299 3.386.906 4.392 3.15 11.745 8.322 14.861 7.611 4.586-3.171 21.21 4.44 22.357h26.597c-7.001 4.836-25.544 18.845-20.889 28.663 5.708 12.038 23.468 21.211 27.273 17.198 1.984-2.092 3.794-15.087 5.074-27.05v2.636c0 3.14 2.569 5.708 5.708 5.708s5.708-2.569 5.708-5.708v-2.636c1.28 11.963 3.09 24.958 5.074 27.05 3.805 4.013 21.565-5.159 27.273-17.198 4.655-9.818-13.888-23.827-20.889-28.663h26.597c7.611-1.146-3.171-17.771 4.44-22.357 5.172-3.117 7.416-10.469 8.322-14.861.377-1.826-1.246-3.49-3.299-3.386z" fill="#596c76"/></g><g fill="#465a61"><path d="m230.364 444.018c-3.786-7.984 7.77-18.74 15.984-25.08 1.512-1.167.689-3.583-1.221-3.583h-6.294c-7.001 4.836-25.544 18.845-20.889 28.663 5.708 12.038 23.468 21.211 27.273 17.198.316-.333.628-.945.933-1.784-6.04-3.196-12.687-8.88-15.786-15.414z"/><path d="m220.216 392.998c-5.173-3.117-7.416-10.469-8.322-14.861-.169-.817.078-1.591.568-2.199-3.018-.596-6.237-1.012-9.689-1.187-2.053-.104-3.676 1.56-3.299 3.386.906 4.392 3.15 11.745 8.322 14.861 7.611 4.586-3.171 21.21 4.44 22.357h12.42c-7.611-1.147 3.171-17.771-4.44-22.357z"/></g><g><g><path d="m190.085 226.494 4.993 10.117c.283.574.83.971 1.463 1.063l11.164 1.622c1.594.232 2.23 2.19 1.077 3.314l-8.079 7.875c-.458.446-.667 1.09-.559 1.72l1.907 11.119c.272 1.587-1.394 2.798-2.819 2.048l-9.986-5.25c-.566-.298-1.242-.298-1.808 0l-9.986 5.25c-1.426.749-3.092-.461-2.819-2.048l1.907-11.119c.108-.63-.101-1.274-.559-1.72l-8.079-7.875c-1.153-1.124-.517-3.083 1.077-3.314l11.164-1.622c.633-.092 1.18-.489 1.463-1.063l4.993-10.117c.714-1.444 2.774-1.444 3.486 0z" fill="#596c76"/></g><g><path d="m184.319 259.724 1.907-11.119c.108-.63-.101-1.273-.559-1.72l-8.079-7.875c-.268-.262-.431-.571-.516-.89l-8.093 1.176c-1.594.231-2.23 2.19-1.077 3.314l8.079 7.875c.458.446.667 1.09.559 1.72l-1.907 11.119c-.272 1.587 1.394 2.798 2.819 2.048l7.458-3.921c-.444-.417-.71-1.029-.591-1.727z" fill="#465a61"/></g><g><path d="m325.4 226.494 4.993 10.117c.283.574.83.971 1.463 1.063l11.164 1.622c1.594.232 2.23 2.19 1.077 3.314l-8.079 7.875c-.458.446-.667 1.09-.559 1.72l1.907 11.119c.272 1.587-1.394 2.798-2.819 2.048l-9.986-5.25c-.566-.298-1.242-.298-1.808 0l-9.986 5.25c-1.426.749-3.092-.461-2.819-2.048l1.907-11.119c.108-.63-.101-1.274-.559-1.72l-8.079-7.875c-1.153-1.124-.517-3.083 1.077-3.314l11.164-1.622c.633-.092 1.18-.489 1.463-1.063l4.993-10.117c.713-1.444 2.773-1.444 3.486 0z" fill="#596c76"/></g><g><path d="m320.319 260.724 1.907-11.119c.108-.63-.101-1.273-.559-1.72l-8.079-7.875c-.577-.563-.706-1.334-.491-1.994l-8.804 1.279c-1.594.231-2.23 2.19-1.077 3.314l8.079 7.875c.458.446.667 1.09.559 1.72l-1.907 11.119c-.272 1.587 1.394 2.798 2.819 2.048l7.563-3.976c-.037-.213-.05-.435-.01-.671z" fill="#465a61"/></g></g></g><path d="m374.808 238.91c0-6.353 4.39-10.05 10.743-10.05 6.123 0 8.433 3.697 8.433 7.74 0 3.812-2.079 8.086-5.198 9.934 1.501 1.733 3.35 2.426 5.198 2.426 6.007 0 9.588-5.083 9.588-11.667 0-12.938-13.284-15.39-19.406-15.39-13.746 0-27.493 10.885-27.493 23.014 0 17.212 24.951 21.948 24.951 43.665 0 8.548-3.581 16.518-12.707 16.518-5.429 0-11.435-3.35-11.435-11.089 0-7.971 4.158-11.898 13.515-12.707-.924-4.159-4.159-5.891-9.357-5.891-8.895 0-16.981 5.776-16.981 16.634 0 2.515.359 4.769.993 6.789-6.706-2.42-14.328-1.763-18.785 2.694-9.174 9.174 1.601 24.997-9.974 36.573-4.556 4.556-10.713 6.896-15.577 2.031-2.894-2.894-4.31-7.88-.185-12.006 4.249-4.248 8.558-4.125 13.976.431 1.724-2.709.923-5.357-1.847-8.127-2.282-2.282-5.179-3.738-8.214-4.003l13.327-19.383c2.35-3.415 2.11-8.001-.58-11.152l-19.615-22.989c-1.745-2.046-4.289-3.22-6.979-3.22h-70.396c-2.69 0-5.234 1.174-6.979 3.22l-19.614 22.987c-2.691 3.153-2.931 7.739-.582 11.153l13.328 19.384c-3.035.265-5.932 1.721-8.214 4.003-2.771 2.771-3.571 5.418-1.847 8.127 5.418-4.556 9.728-4.679 13.976-.431 4.125 4.125 2.709 9.112-.184 12.006-4.864 4.864-11.021 2.525-15.577-2.031-11.575-11.575-.801-27.399-9.974-36.573-4.457-4.456-12.079-5.114-18.785-2.694.634-2.021.993-4.274.993-6.789 0-10.858-8.086-16.634-16.981-16.634-5.198 0-8.433 1.733-9.357 5.891 9.357.809 13.515 4.736 13.515 12.707 0 7.74-6.006 11.089-11.435 11.089-9.126 0-12.707-7.97-12.707-16.518 0-21.718 24.951-26.453 24.951-43.665 0-12.129-13.747-23.014-27.493-23.014-6.122 0-19.406 2.452-19.406 15.39 0 6.585 3.581 11.667 9.588 11.667 1.848 0 3.697-.693 5.198-2.426-3.119-1.848-5.198-6.122-5.198-9.934 0-4.043 2.31-7.74 8.433-7.74 6.353 0 10.743 3.697 10.743 10.05 0 18.136-25.991 19.176-25.991 44.936 0 16.288 12.797 30.213 31.395 30.213 3.13 0 6.977-.62 10.697-2.081-.938 3.331-.618 7.089 2.779 10.487 3.51 3.51 8.127 4.31 11.329 1.108.985-.985 1.601-2.34 1.478-4.063-2.648.677-6.034-.493-8.066-2.524-2.155-2.155-2.894-5.356.37-8.62 3.386-3.386 7.696-3.756 11.083-.369 9.666 9.666-3.633 24.074 10.097 37.804 8.681 8.681 22.924 9.282 32.837-.63 2.08-2.08 4.24-5.268 5.379-8.923l27.862 40.525c1.712 2.49 4.538 3.977 7.56 3.977s5.848-1.486 7.56-3.976l27.863-40.526c1.139 3.655 3.299 6.843 5.378 8.922 9.913 9.913 24.156 9.312 32.837.63 13.73-13.73.431-28.138 10.097-37.804 3.386-3.386 7.697-3.017 11.083.369 3.263 3.264 2.524 6.465.37 8.62-2.032 2.032-5.418 3.202-8.066 2.524-.123 1.724.492 3.078 1.478 4.063 3.202 3.202 7.819 2.401 11.329-1.108 3.397-3.398 3.717-7.156 2.779-10.487 3.72 1.461 7.568 2.081 10.697 2.081 18.598 0 31.395-13.925 31.395-30.213-.004-25.759-25.996-26.799-25.996-44.935zm-83.991 30.776 14.411 16.89h-23.817l-5.211-16.89zm-44.552 0h19.471l5.211 16.89h-29.893zm-25.082 0h14.617l-5.211 16.89h-23.817zm-15.745 26.889h24.931l14.123 56.803zm50.562 61.643-15.326-61.643h30.652zm25.631-61.643h24.931l-39.054 56.803z" fill="#596c76"/></g></svg>