<svg id="Capa_1" enable-background="new 0 0 512 512" height="512" viewBox="0 0 512 512" width="512" xmlns="http://www.w3.org/2000/svg"><g><path d="m506.261 256.495-26.889-101.648c-40.695-78.897-122.981-132.847-217.872-132.847-135.31 0-245 109.69-245 245 0 1.518.03 3.029.057 4.54l1.021 1h317.922c11.028 0 20 8.972 20 20s-8.972 20-20 20h-14.434l-28.354 71.576c-5.214 13.16-12.865 24.999-22.743 35.188l-1.644 1.696h115.931c4.963 0 9 4.037 9 9v16c0 4.963-4.037 9-9 9h-278.302l-.36 1c42.36 34.983 96.678 56 155.906 56 135.31 0 245-109.69 245-245 0-3.521-.092-7.02-.239-10.505z" fill="#c8effe"/><path d="m177.726 421h162.142c59.941-29.833 101.132-91.703 101.132-163.203 0-100.628-81.575-182.203-182.203-182.203s-182.203 81.575-182.203 182.203c0 71.5 41.191 133.37 101.132 163.203z" fill="#dff6fd"/><path d="m176.143 155.136c2.109-2.359 5.221-3.867 8.626-3.867h9.381c-.615-.425-1.193-.915-1.723-1.47-2.1-2.193-3.182-5.078-3.049-8.122.254-5.806 5.365-10.528 11.392-10.528h33.969c-2.329-8.165-9.828-14.149-18.739-14.149-6.351 0-11.976 3.05-15.536 7.75-3.22-2.348-7.174-3.75-11.464-3.75-10.77 0-19.5 8.73-19.5 19.5 0 5.838 2.579 11.062 6.643 14.636z" fill="#fff"/><g fill="#ffbd86"><path d="m192.539 252.947h54.884c1.968 0 3.569-1.602 3.569-3.569v-4.7c0-1.968-1.601-3.568-3.569-3.568h-58.733c-.107.455-.197.917-.249 1.394-.456 4.172 1.234 7.968 4.098 10.443z"/><path d="m170.671 219.055h76.751c1.968 0 3.569-1.601 3.569-3.568v-4.704c0-1.968-1.601-3.569-3.569-3.569h-80.598c-.108.457-.198.921-.25 1.399-.455 4.171 1.234 7.966 4.097 10.442z"/><path d="m170.662 185.161h76.761c1.968 0 3.569-1.602 3.569-3.569v-4.699c0-1.969-1.601-3.57-3.569-3.57h-63.03c-3.037 0-5.866-1.209-7.966-3.403-1.304-1.362-2.214-2.992-2.686-4.76-4.059 1.819-7.022 5.698-7.228 10.364-.171 3.85 1.474 7.322 4.149 9.637z"/><path d="m192.526 151.269 84.898.001-19.354-19.355c-.549-.549-1.031-1.144-1.466-1.765h-55.835c-6.497 0-12.106 4.993-12.391 11.484-.169 3.85 1.475 7.32 4.148 9.635z"/><path d="m276.743 113.909 56.617 57.893c2.589 2.647 6.197 4.166 9.9 4.166h145.747c-2.889-7.214-6.099-14.264-9.635-21.12h-120.112c-3.457 0-6.768-1.393-9.185-3.865l-56.625-57.9c-5.26-5.26-13.823-5.881-19.41-.97-5.55 4.879-6.237 12.997-2.097 18.699 1.784.686 3.432 1.73 4.8 3.097z"/></g><path d="m247.422 218.055h-84.555c-6.185 0-11.623 4.528-12.294 10.676-.79 7.244 4.865 13.377 11.953 13.377h84.896c1.419 0 2.57 1.15 2.57 2.569v4.7c0 1.419-1.15 2.569-2.57 2.569h-62.687c-6.185 0-11.624 4.527-12.295 10.676-.424 3.888 1.019 7.446 3.533 9.917h136.701c6.312-3.192 12.473-8.131 17.845-12.854 2.343-2.059 5.351-3.191 8.47-3.191h167.272c-1.213-28.734-7.372-56.184-17.653-81.528h-145.348c-3.457 0-6.768-1.393-9.185-3.865l-56.625-57.9c-5.26-5.26-13.823-5.881-19.41-.97-6.123 5.382-6.349 14.717-.677 20.389l17.648 17.648h-90.241c-6.497 0-12.106 4.993-12.391 11.484-.302 6.89 5.192 12.57 12.014 12.57h63.03c1.419 0 2.57 1.15 2.57 2.57v4.699c0 1.419-1.15 2.57-2.57 2.57h-84.518c-6.497 0-12.105 4.991-12.392 11.481-.305 6.889 5.191 12.57 12.014 12.57h84.896c1.419 0 2.57 1.15 2.57 2.57v4.704c-.001 1.419-1.152 2.569-2.571 2.569z" fill="#fed2a4"/><path d="m305.452 272.54c-.504-10.321-9.007-18.54-19.452-18.54-4.03 0-7.774 1.224-10.883 3.318-2.862-7.212-9.886-12.318-18.117-12.318-9.138 0-16.786 6.294-18.9 14.778-2.469-1.131-5.206-1.778-8.1-1.778-9.052 0-16.642 6.177-18.839 14.54z" fill="#fff"/><path d="m163.573 272.54c.156-.993.26-2.003.26-3.04 0-10.77-8.73-19.5-19.5-19.5-3.249 0-6.306.806-9 2.211v-139.211h-30v149.211c-2.694-1.405-5.751-2.211-9-2.211-8.314 0-15.393 5.212-18.198 12.54z" fill="#01c0fa"/><g><path d="m121.5 158c2.761 0 5-2.239 5-5v-40h-10v40c0 2.761 2.239 5 5 5z" fill="#08a9f1"/></g><path d="m117 222.333c-2.761 0-5 2.239-5 5v45.207h10v-45.207c0-2.761-2.239-5-5-5z" fill="#08a9f1"/><path d="m192.181 251.212c-2.119-2.362-3.094-5.417-2.746-8.601.056-.515.16-1.013.286-1.502h-19.059c-.096.785-.161 1.58-.161 2.391 0 1.942.293 3.814.822 5.585-9.982.853-17.822 9.212-17.822 19.415 0 1.386.15 2.736.424 4.04h22.468v-1c-2.239-2.363-3.314-5.551-2.958-8.809.609-5.578 5.467-9.784 11.301-9.784h9.446c-.727-.495-1.404-1.069-2.001-1.735z" fill="#fff"/><g fill="#c5d3dd"><path d="m44.5 246.417c-5.779 0-11.258-1.302-16.167-3.62v29.743h35v-31.139c-5.556 3.184-11.983 5.016-18.833 5.016z"/><path d="m83.833 0c-30.603 0-55.5 24.897-55.5 55.5v118.537c4.909-2.318 10.388-3.62 16.167-3.62 6.85 0 13.277 1.832 18.833 5.016v-119.933c0-11.304 9.196-20.5 20.5-20.5s20.5 9.196 20.5 20.5v39.5h35v-39.5c0-30.603-24.897-55.5-55.5-55.5z"/></g><g><g><path d="m44.5 246.417c-5.779 0-11.258-1.302-16.167-3.62v29.743h16.667v-26.14c-.167.003-.332.017-.5.017z" fill="#b6c4cf"/></g><g><path d="m45 55.5c0-27.771 20.503-50.84 47.167-54.873-2.719-.411-5.502-.627-8.334-.627-30.603 0-55.5 24.897-55.5 55.5v118.537c4.909-2.318 10.388-3.62 16.167-3.62.168 0 .333.014.5.017z" fill="#b6c4cf"/></g></g><g><g><path d="m146.333 114h-49c-1.657 0-3-1.343-3-3v-14c0-1.657 1.343-3 3-3h49c1.657 0 3 1.343 3 3v14c0 1.657-1.343 3-3 3z" fill="#f5f8f9"/></g></g><path d="m119 111v-14c0-1.657 1.343-3 3-3h-24.667c-1.657 0-3 1.343-3 3v14c0 1.657 1.343 3 3 3h24.667c-1.657 0-3-1.343-3-3z" fill="#e8edf2"/><path d="m20.753 312.54c7.628 40.568 25.248 77.606 50.215 108.46h198.75c10.17-10.225 18.395-22.558 23.924-36.516l28.5-71.944z" fill="#f5f8f9"/><path d="m335.5 271.54h-318.943c.261 14.335 1.755 28.367 4.377 42h314.566c11.598 0 21-9.402 21-21s-9.402-21-21-21z" fill="#f5f8f9"/><path d="m52.957 289.506c-.922-5.921-1.632-11.913-2.124-17.966h-34.276c.261 14.335 1.755 28.367 4.377 42h314.566c9.706 0 17.851-6.594 20.258-15.54h-292.91c-4.942 0-9.131-3.611-9.891-8.494z" fill="#e8edf2"/><circle cx="44.5" cy="208.417" fill="#f5f8f9" r="39"/><path d="m30 208.417c0-17.258 11.214-31.888 26.75-37.026-3.854-1.275-7.969-1.974-12.25-1.974-21.539 0-39 17.461-39 39s17.461 39 39 39c4.281 0 8.396-.7 12.25-1.974-15.536-5.138-26.75-19.768-26.75-37.026z" fill="#e8edf2"/><path d="m93.5 220h-49c-2.761 0-5-2.239-5-5v-14c0-2.761 2.239-5 5-5h49c2.761 0 5 2.239 5 5v14c0 2.761-2.239 5-5 5z" fill="#c5d3dd"/><path d="m61 212c-2.761 0-5-2.239-5-5v-11h-11.5c-2.761 0-5 2.239-5 5v14c0 2.761 2.239 5 5 5h49c2.761 0 5-2.239 5-5v-3z" fill="#b6c4cf"/><path d="m384.256 420h-314.099c10.551 13.178 22.424 25.253 35.437 36h278.662c5.523 0 10-4.477 10-10v-16c0-5.523-4.478-10-10-10z" fill="#c5d3dd"/><path d="m138.036 438.834c-7.03-5.897-13.71-12.194-20.034-18.834h-47.845c10.551 13.178 22.424 25.253 35.437 36h278.662c5.523 0 10-4.477 10-10v-6h-252.996c-1.178 0-2.322-.41-3.224-1.166z" fill="#b6c4cf"/></g></svg>