<svg id="Capa_1" enable-background="new 0 0 512 512" height="512" viewBox="0 0 512 512" width="512" xmlns="http://www.w3.org/2000/svg"><g><g><circle cx="256" cy="267" fill="#fedf30" r="245"/></g><g><circle cx="256" cy="267" fill="#fed402" r="175"/></g><g fill="#b6c4cf"><path d="m126.762 358.952v-176.94c-2.211 1.278-4.768 2.021-7.5 2.021s-5.289-.743-7.5-2.021v176.941c-16.355 3.463-28.667 18.009-28.667 35.38 0 19.943 16.225 36.168 36.167 36.168s36.167-16.225 36.167-36.168c0-17.372-12.312-31.918-28.667-35.381zm-7.5 56.548c-11.672 0-21.167-9.496-21.167-21.168s9.496-21.167 21.167-21.167 21.167 9.495 21.167 21.167-9.495 21.168-21.167 21.168z"/><path d="m220.734 409.952v-227.932c-2.259 1.304-4.822 2.013-7.5 2.013 0 0 0 0-.001 0-.241 0-.485-.006-.729-.018-2.466-.116-4.765-.843-6.771-2.028v227.965c-16.355 3.463-28.667 18.009-28.667 35.38 0 19.943 16.225 36.168 36.167 36.168s36.167-16.225 36.167-36.168c.001-17.371-12.311-31.917-28.666-35.38zm-7.5 56.548c-11.672 0-21.167-9.496-21.167-21.168s9.496-21.167 21.167-21.167 21.167 9.495 21.167 21.167-9.495 21.168-21.167 21.168z"/><path d="m310.979 409.952v-227.94c-2.211 1.278-4.768 2.021-7.5 2.021s-5.289-.743-7.5-2.021v227.941c-16.355 3.463-28.667 18.009-28.667 35.38 0 19.943 16.225 36.168 36.167 36.168s36.167-16.225 36.167-36.168c0-17.372-12.312-31.918-28.667-35.381zm-7.5 56.548c-11.672 0-21.167-9.496-21.167-21.168s9.496-21.167 21.167-21.167 21.167 9.495 21.167 21.167-9.495 21.168-21.167 21.168z"/><path d="m400.238 358.952v-176.932c-2.259 1.304-4.822 2.013-7.5 2.013 0 0 0 0-.001 0-.241 0-.485-.006-.729-.018-2.466-.116-4.764-.843-6.771-2.028v176.965c-16.355 3.463-28.667 18.009-28.667 35.38 0 19.943 16.225 36.168 36.167 36.168s36.167-16.225 36.167-36.168c.002-17.371-12.31-31.917-28.666-35.38zm-7.5 56.548c-11.672 0-21.167-9.496-21.167-21.168s9.496-21.167 21.167-21.167 21.167 9.495 21.167 21.167-9.495 21.168-21.167 21.168z"/></g><path d="m119.262 56.455c1.755 0 3.433.317 5 .872v-52.327c0-2.762-2.239-5-5-5s-5 2.238-5 5v52.327c1.567-.555 3.245-.872 5-.872z" fill="#465a61"/><g><path d="m131.016 287.708h-23.507c-4.142 0-7.5-3.357-7.5-7.5s3.358-7.5 7.5-7.5h23.507c4.142 0 7.5 3.357 7.5 7.5s-3.358 7.5-7.5 7.5z" fill="#c5d3dd"/></g><g><path d="m119.262 185.032c-8.866 0-16.054-7.188-16.054-16.054v-97.469c0-8.866 7.188-16.054 16.054-16.054 8.866 0 16.054 7.188 16.054 16.054v97.469c0 8.866-7.188 16.054-16.054 16.054z" fill="#7a8c98"/></g><g><path d="m224.987 287.708h-23.507c-4.142 0-7.5-3.357-7.5-7.5s3.358-7.5 7.5-7.5h23.507c4.142 0 7.5 3.357 7.5 7.5s-3.358 7.5-7.5 7.5z" fill="#c5d3dd"/></g><g><path d="m315.233 287.708h-23.507c-4.142 0-7.5-3.357-7.5-7.5s3.358-7.5 7.5-7.5h23.507c4.142 0 7.5 3.357 7.5 7.5s-3.358 7.5-7.5 7.5z" fill="#c5d3dd"/></g><g><path d="m404.492 287.708h-23.507c-4.142 0-7.5-3.357-7.5-7.5s3.358-7.5 7.5-7.5h23.507c4.142 0 7.5 3.357 7.5 7.5s-3.358 7.5-7.5 7.5z" fill="#c5d3dd"/></g><g fill="#465a61"><path d="m380.125 2.5c-1.381 0-2.5 1.119-2.5 2.5v60.775c0-1.346 1.155-2.44 2.5-2.44h2.5v-58.335c0-1.381-1.12-2.5-2.5-2.5z"/><g><path d="m399.443 63.335v-58.335c0-1.381-1.119-2.5-2.5-2.5s-2.5 1.119-2.5 2.5v58.335z"/><path d="m391.034 63.335v-58.335c0-1.381-1.119-2.5-2.5-2.5s-2.5 1.119-2.5 2.5v58.335z"/><path d="m405.352 2.5c-1.381 0-2.5 1.119-2.5 2.5v58.335h2.5c1.345 0 2.5 1.095 2.5 2.44v-60.775c0-1.381-1.119-2.5-2.5-2.5z"/></g></g><g fill="#465a61"><path d="m315.726 63.335v-58.335c0-1.381-1.119-2.5-2.5-2.5s-2.5 1.119-2.5 2.5v58.335z"/><path d="m296.232 63.335v-58.335c0-1.381-1.119-2.5-2.5-2.5s-2.5 1.119-2.5 2.5v58.335z"/><path d="m305.979 63.335v-58.335c0-1.381-1.119-2.5-2.5-2.5s-2.5 1.119-2.5 2.5v58.335z"/></g><g fill="#465a61"><path d="m209.28 63.335v-58.335c0-1.933-1.567-3.5-3.5-3.5s-3.5 1.567-3.5 3.5v58.335z"/><path d="m224.187 63.335v-58.335c0-1.933-1.567-3.5-3.5-3.5s-3.5 1.567-3.5 3.5v58.335z"/></g><g><path d="m197.18 65.775v102.75c0 8.644 6.643 16.082 15.278 16.489 9.219.434 16.83-6.912 16.83-16.035v-103.204c0-1.9-1.54-3.44-3.44-3.44h-25.228c-1.9 0-3.44 1.54-3.44 3.44z" fill="#7a8c98"/></g><g><path d="m287.425 65.775v103.203c0 8.866 7.188 16.054 16.054 16.054 8.866 0 16.054-7.188 16.054-16.054v-103.203c0-1.9-1.54-3.44-3.44-3.44h-25.227c-1.9 0-3.441 1.54-3.441 3.44z" fill="#7a8c98"/></g><g><path d="m376.684 65.775v102.75c0 8.644 6.643 16.082 15.278 16.489 9.219.434 16.83-6.912 16.83-16.035v-103.204c0-1.9-1.54-3.44-3.44-3.44h-25.227c-1.9 0-3.441 1.54-3.441 3.44z" fill="#7a8c98"/></g><g><path d="m119.262 185.032c-8.866 0-16.054-7.188-16.054-16.054v-97.469c0-8.866 7.188-16.054 16.054-16.054 8.866 0 16.054 7.188 16.054 16.054v97.469c0 8.866-7.188 16.054-16.054 16.054z" fill="#7a8c98"/></g><g><path d="m197.18 65.775v102.75c0 8.644 6.643 16.082 15.278 16.489 9.219.434 16.83-6.912 16.83-16.035v-103.204c0-1.9-1.54-3.44-3.44-3.44h-25.228c-1.9 0-3.44 1.54-3.44 3.44z" fill="#7a8c98"/></g><g><path d="m287.425 65.775v103.203c0 8.866 7.188 16.054 16.054 16.054 8.866 0 16.054-7.188 16.054-16.054v-103.203c0-1.9-1.54-3.44-3.44-3.44h-25.227c-1.9 0-3.441 1.54-3.441 3.44z" fill="#7a8c98"/></g><path d="m116 168.978v-97.469c0-6.592 3.976-12.249 9.658-14.721-1.961-.853-4.121-1.332-6.396-1.332-8.866 0-16.054 7.188-16.054 16.054v97.469c0 8.866 7.188 16.054 16.054 16.054 2.275 0 4.435-.479 6.396-1.332-5.682-2.474-9.658-8.131-9.658-14.723z" fill="#596c76"/><path d="m209.972 168.525v-102.75c0-1.9 1.54-3.44 3.44-3.44h-12.792c-1.9 0-3.44 1.54-3.44 3.44v102.75c0 8.644 6.643 16.082 15.278 16.489 2.574.121 5.014-.382 7.207-1.343-5.75-2.569-9.693-8.493-9.693-15.146z" fill="#596c76"/><path d="m300.217 168.978v-103.203c0-1.9 1.54-3.44 3.44-3.44h-12.792c-1.9 0-3.44 1.54-3.44 3.44v103.203c0 8.866 7.188 16.054 16.054 16.054 2.275 0 4.435-.479 6.396-1.332-5.682-2.473-9.658-8.13-9.658-14.722z" fill="#596c76"/><path d="m389.476 168.525v-102.75c0-1.9 1.54-3.44 3.44-3.44h-12.792c-1.9 0-3.44 1.54-3.44 3.44v102.75c0 8.644 6.643 16.082 15.278 16.489 2.574.121 5.014-.382 7.207-1.343-5.75-2.569-9.693-8.493-9.693-15.146z" fill="#596c76"/></g></svg>