<svg id="Capa_1" enable-background="new 0 0 512 512" height="512" viewBox="0 0 512 512" width="512" xmlns="http://www.w3.org/2000/svg"><g><path d="m255.214 22c-135.31 0-245 109.69-245 245 0 53.115 16.908 102.278 45.627 142.412l1-.321v-110.611c0-20.828 15.622-38.081 36.338-40.131l.901-.089v-1.399c0-7.72 6.28-14 14-14h80.017v14.168c0 16.542 13.458 30 30 30s30-13.458 30-30v-14.168h80.018c7.72 0 14 6.28 14 14v1.399l.901.089c20.716 2.05 36.338 19.302 36.338 40.131v178.605l1 .569c71.767-42.725 119.86-121.067 119.86-210.654 0-135.31-109.69-245-245-245z" fill="#c8effe"/><g><path d="m472.445 312.008 19.239 19.24c3.062-11.295 5.338-22.912 6.761-34.792l-5.224-5.224z" fill="#08a9f1"/><g><g><circle cx="255.214" cy="267" fill="#99e6fc" r="178"/></g></g><g><g fill="#fed2a4"><path d="m380.354 477.655v-26.234l-1-1h-37.239v45.699c13.341-5.066 26.128-11.255 38.239-18.465z"/><g><path d="m379.354 432.421 1-1v-89.421l-1-1h-37.239v91.421z"/><path d="m380.354 322v-23.52c0-21.79-16.857-39.63-38.239-41.225v65.745h37.239z"/></g></g><path d="m355.975 260.785c-4.284-1.931-8.95-3.163-13.861-3.529v238.864c4.692-1.781 9.311-3.71 13.861-5.765z" fill="#ffbd86"/><g><path d="m55.842 298.48v110.931c11.084 15.489 23.928 29.633 38.239 42.139v-194.294c-21.383 1.594-38.239 19.435-38.239 41.224z" fill="#fed2a4"/></g></g><g fill="#596c76"><path d="m353.132 386.353 7.353-7.353h-18.37v10h20.001z"/><path d="m94.081 347.035-14.129 11.081c-.983.771-.983 2.258 0 3.029l14.129 11.081z"/><g><path d="m342.115 311.404 10.192-17.654c.096-.166.241-.25.433-.25s.338.084.434.25l16.887 29.25h5.501c-.123-.513-.314-1.015-.589-1.491l-17.47-30.259c-.995-1.723-2.775-2.75-4.764-2.75h-.001c-1.988 0-3.768 1.028-4.762 2.75l-5.862 10.154v10z"/><path d="m353.606 305.5c-.385-.667-1.347-.667-1.732 0l-7.078 12.259c-.385.667.096 1.5.866 1.5h14.156c.77 0 1.251-.833.866-1.5z"/></g><path d="m94.081 281.455-14.46 25.045c-1.155 2 .289 4.5 2.598 4.5h11.862z"/><path d="m342.115 450.421v37.488l21.643-37.488z"/></g><g><path d="m354.311 491.108c8.695-3.852 17.125-8.194 25.254-12.992l-6.278-10.875c-1.155-2-4.042-2-5.196 0z" fill="#596c76"/></g><g fill="#f2fbff"><path d="m342.115 431.421h38.239v20h-38.239z"/><path d="m342.115 322h38.239v20h-38.239z"/></g><g><path d="m257.811 39.826v36.039h6.627c13.386 0 24.276 10.891 24.276 24.276v12.859h11.388c4.172 0 8.097 1.072 11.519 2.952v-60.98c0-24.484-19.848-44.332-44.332-44.332h-22.741c8.121 7.121 13.263 17.561 13.263 29.186z" fill="#08a9f1"/></g><g><path d="m136.093 113h11.388v-12.858c0-13.386 10.891-24.276 24.276-24.276h87.053v-36.04c.001-21.995-17.83-39.826-39.826-39.826h-84.41c-5.523 0-10 4.477-10 10v105.952c3.422-1.88 7.347-2.952 11.519-2.952z" fill="#01c0fa"/></g><path d="m158.214 10c0-5.523 4.477-10 10-10h-33.64c-5.523 0-10 4.477-10 10v105.952c3.422-1.88 7.347-2.952 11.519-2.952h11.388v-12.858c0-8.375 4.263-15.772 10.733-20.138z" fill="#08a9f1"/><g><path d="m328.115 241.862h-81.017v15.168c0 15.99-13.01 29-29 29s-29-13.01-29-29v-15.168h-81.016c-8.284 0-15 6.716-15 15v193.798c43.2 38.166 99.956 61.34 162.134 61.34 30.982 0 60.614-5.766 87.9-16.258v-238.88c-.001-8.285-6.717-15-15.001-15z" fill="#8379c1"/></g><path d="m130.115 256.862c0-8.284 6.716-15 15-15h-37.034c-8.284 0-15 6.716-15 15v193.798c11.44 10.107 23.842 19.146 37.034 26.997z" fill="#6e61b6"/><g><path d="m239.352 227.259h-42.509c-2.985 0-5.905-.281-8.746-.792v30.562c0 16.569 13.431 30 30 30 16.569 0 30-13.431 30-30v-30.562c-2.84.511-5.759.792-8.745.792z" fill="#ffbd86"/></g><g><path d="m212.214 257.03v-29.771h-15.371c-2.985 0-5.905-.281-8.746-.792v30.562c0 16.569 13.431 30 30 30 4.291 0 8.367-.907 12.058-2.53-10.561-4.643-17.941-15.191-17.941-27.469z" fill="#f6a96c"/></g><g><g><path d="m147.481 112h-11.387c-13.807 0-25 11.193-25 25v13c0 13.807 11.193 25 25 25h11.387z" fill="#f6a96c"/></g><g><path d="m300.102 112h-11.388v63h11.388c13.807 0 25-11.193 25-25v-13c0-13.807-11.193-25-25-25z" fill="#ffbd86"/></g></g><g><g><path d="m239.352 228.259h-42.509c-27.814 0-50.362-22.548-50.362-50.362v-77.755c0-13.96 11.317-25.277 25.277-25.277h92.681c13.96 0 25.277 11.317 25.277 25.277v77.755c-.001 27.814-22.549 50.362-50.364 50.362z" fill="#fed2a4"/></g><path d="m180.214 177.897v-77.755c0-13.96 11.317-25.277 25.277-25.277h-33.734c-13.96 0-25.277 11.317-25.277 25.277v77.755c0 27.814 22.548 50.362 50.362 50.362h33.734c-27.814 0-50.362-22.548-50.362-50.362z" fill="#ffbd86"/><g><g><path d="m178.793 151.021c-4.143 0-7.5-3.357-7.5-7.5v-11.796c0-4.143 3.357-7.5 7.5-7.5s7.5 3.357 7.5 7.5v11.796c0 4.143-3.357 7.5-7.5 7.5z" fill="#d78878"/></g><g><path d="m257.401 151.021c-4.143 0-7.5-3.357-7.5-7.5v-11.796c0-4.143 3.357-7.5 7.5-7.5s7.5 3.357 7.5 7.5v11.796c0 4.143-3.358 7.5-7.5 7.5z" fill="#d78878"/></g></g><g><path d="m218.091 173.762c-1.181 0-2.38-.28-3.497-.87l-13.671-7.223c-1.924-1.017-3.312-2.818-3.803-4.938s-.037-4.349 1.243-6.107l13.671-18.779c2.438-3.35 7.13-4.086 10.478-1.649 3.349 2.438 4.087 7.129 1.649 10.478l-8.574 11.778 6.015 3.178c3.662 1.936 5.062 6.473 3.128 10.136-1.345 2.543-3.947 3.995-6.639 3.996z" fill="#d78878"/></g><g><path d="m218.098 204.209c-11.396 0-22.787-4.336-31.463-13.011-2.929-2.93-2.929-7.678 0-10.607 2.93-2.928 7.678-2.928 10.607 0 11.499 11.499 30.211 11.501 41.712 0 2.929-2.929 7.678-2.928 10.606.001s2.929 7.678-.001 10.606c-8.672 8.673-20.068 13.011-31.461 13.011z" fill="#d78878"/></g></g><g><g><path d="m193.275 118.502c-.721 0-1.453-.104-2.179-.324l-28.373-8.603c-3.964-1.202-6.203-5.39-5.002-9.354 1.202-3.964 5.389-6.2 9.354-5.002l28.373 8.603c3.964 1.202 6.203 5.39 5.002 9.354-.983 3.238-3.958 5.326-7.175 5.326z" fill="#d78878"/></g><g><path d="m242.92 118.502c-3.218 0-6.192-2.087-7.175-5.326-1.201-3.964 1.038-8.151 5.002-9.354l28.373-8.603c3.958-1.203 8.15 1.037 9.354 5.002 1.201 3.964-1.038 8.151-5.002 9.354l-28.373 8.603c-.724.219-1.458.324-2.179.324z" fill="#d78878"/></g></g><g><path d="m269.4 428.249h-102.604c-2.761 0-5-2.239-5-5v-100.83c0-2.761 2.239-5 5-5h102.604c2.761 0 5 2.239 5 5v100.831c0 2.761-2.239 4.999-5 4.999z" fill="#6e61b6"/></g><g><g><path d="m77.743 384.174-21.901 22.147v-20.528l5.941-6.009-5.941-4.654v-28.999l12.089-9.47-12.089-9.47v-18.336l28.243 22.124v11.364l-23.346 18.288 17.004 12.786z" fill="#596c76"/></g></g><g><path d="m66.383 412.784 14.59-11.442c1.263-.991 3.112-.091 3.112 1.514v22.883c0 1.605-1.849 2.505-3.112 1.514l-14.59-11.442c-.982-.769-.982-2.257 0-3.027z" fill="#596c76"/></g><g><path d="m463.668 302.398 18.944-18.944-4.626-4.626c-2.437-2.437-6.388-2.437-8.825 0l-10.119 10.119c-2.437 2.437-2.437 6.388 0 8.825z" fill="#8d9ca8"/><path d="m467.644 297.772c-2.437-2.437-2.437-6.388 0-8.825l10.119-10.119c.036-.036.075-.066.112-.101-2.444-2.33-6.312-2.3-8.714.101l-10.119 10.119c-2.437 2.437-2.437 6.388 0 8.825l4.626 4.626 4.301-4.301z" fill="#7a8c98"/><path d="m374.636 363.434-22.21 22.21c-.537.537-.303 1.452.424 1.666l12.38 3.648c.351.104.731.007.99-.252l17.845-17.845z" fill="#8d9ca8"/><path d="m362.059 382.645 15.894-15.894-3.317-3.317-22.21 22.21c-.537.537-.303 1.452.424 1.666l12.38 3.648c.351.104.731.007.99-.252l4.09-4.09-7.826-2.306c-.728-.214-.962-1.129-.425-1.665z" fill="#7a8c98"/><path d="m378.014 353.137-5.463 5.463c-1.15 1.15-1.15 3.014 0 4.164l12.183 12.183c1.15 1.15 3.014 1.15 4.164 0l5.463-5.463z" fill="#f5f8f9"/><path d="m378.014 353.137-5.463 5.463c-1.15 1.15-1.15 3.014 0 4.164l5.673 5.673c.025-.719.304-1.431.853-1.979l6.129-6.129z" fill="#e8edf2"/><path d="m430.187 304.744h11.801v13.334h-11.801z" fill="#8d9ca8" transform="matrix(.707 -.707 .707 .707 -92.474 399.571)"/><g><path d="m394.412 370.948-17.861-17.861c-2.734-2.734-2.734-7.166 0-9.899l37.241-37.241c2.734-2.734 7.166-2.734 9.9 0l17.861 17.861c2.734 2.734 2.734 7.166 0 9.9l-37.241 37.241c-2.734 2.733-7.166 2.733-9.9-.001z" fill="#c5d3dd"/></g><path d="m393.265 353.087c-2.734-2.734-2.734-7.166 0-9.9l33.834-33.834-3.407-3.407c-2.734-2.734-7.166-2.734-9.9 0l-37.241 37.241c-2.734 2.734-2.734 7.166 0 9.9l17.861 17.861c2.734 2.734 7.166 2.734 9.899 0l3.407-3.407z" fill="#b6c4cf"/><path d="m498.125 270.063-20.69-20.69c-1.953-1.953-5.118-1.953-7.071 0l-3.536 3.536c-1.953 1.953-1.953 5.119 0 7.071l18.922 18.922-27.013 27.013-25.546-25.547-10.607 10.607 27.314 27.314c2.438 2.437 5.638 3.654 8.839 3.654s6.401-1.218 8.839-3.654l30.549-30.549c2.36-2.361 3.661-5.501 3.661-8.84 0-3.336-1.301-6.475-3.661-8.837z" fill="#01c0fa"/><g><path d="m459.327 318.291-23.779-23.779c-1.953-1.953-1.953-5.118 0-7.071l2.358-2.358-4.714-4.714-10.607 10.607 27.314 27.314c2.438 2.437 5.638 3.654 8.839 3.654 1.604 0 3.207-.306 4.714-.917-1.502-.608-2.909-1.52-4.125-2.736z" fill="#08a9f1"/></g></g><g><path d="m414.973 295.759-5.186-5.186c-1.172-1.172-1.172-3.071 0-4.243l18.757-18.757c1.172-1.172 3.071-1.172 4.243 0l5.186 5.186c1.172 1.172 1.172 3.071 0 4.243l-18.757 18.757c-1.172 1.171-3.071 1.171-4.243 0z" fill="#8d9ca8"/></g><path d="m418.093 290.573c-1.172-1.172-1.172-3.071 0-4.242l16.726-16.726-2.031-2.031c-1.172-1.172-3.071-1.172-4.243 0l-18.757 18.758c-1.172 1.171-1.172 3.071 0 4.242l5.186 5.186c1.172 1.172 3.071 1.172 4.243 0l2.031-2.031z" fill="#7a8c98"/></g></g></svg>