<svg id="Capa_1" enable-background="new 0 0 512 512" height="512" viewBox="0 0 512 512" width="512" xmlns="http://www.w3.org/2000/svg"><g><g><circle cx="256" cy="267" fill="#dff6fd" r="245"/></g><g><circle cx="256" cy="267" fill="#c8effe" r="191"/></g><g><g><g fill="#8d9ca8"><path d="m263.615 153.2c9.232 5.778 12.193 18.36 6.6 28.048l-33.728 58.419c-1.977 3.424-2.502 7.413-1.479 11.231l2.946 10.997 55.298-95.779v-100.282c0-10.385-8.604-18.761-19.072-18.389-9.971.355-17.73 8.852-17.73 18.83v84.143c2.524.468 4.955 1.399 7.165 2.782z"/><path d="m160.978 389.705c3.837-6.646 10.993-10.774 18.676-10.774 3.758 0 7.475 1 10.749 2.89l7.757 4.478 8.739-35.278c.974-3.928.934-8.072-.114-11.982l-21.573-80.511c-1.416-5.286-.688-10.808 2.048-15.547l47.727-82.666c2.378-4.119 6.101-7.212 10.426-8.874v-117.183c0-9.978-7.759-18.475-17.73-18.83-10.468-.372-19.072 8.004-19.072 18.389v120.518c0 3.023-2.329 5.658-5.35 5.749-3.126.094-5.69-2.413-5.69-5.518v-135.724c0-9.978-7.759-18.475-17.73-18.83-10.468-.372-19.072 8.004-19.072 18.389v135.934c0 3.023-2.329 5.658-5.35 5.749-3.126.094-5.69-2.413-5.69-5.518v-112.008c0-9.977-7.759-18.475-17.73-18.83-10.468-.372-19.072 8.004-19.072 18.389v219.851l-6.343-6.343c-2.588-2.588-4.042-6.098-4.042-9.758v-67.457c0-11.652-9.061-21.576-20.705-21.99-12.225-.435-22.272 9.347-22.272 21.475v95.455c0 5.699 2.264 11.165 6.294 15.195l58.938 58.938c2.75 2.75 4.759 6.153 5.836 9.891l9.968 34.564h19.269c.328-.759.688-1.507 1.108-2.233z"/></g><g fill="#7a8c98"><path d="m218.27 154.335v-120.518c0-8.473 5.728-15.603 13.522-17.742-1.317-.363-2.687-.596-4.11-.647-10.468-.372-19.072 8.004-19.072 18.389v120.518c0 3.023-2.329 5.658-5.35 5.749h9.66c3.021-.09 5.35-2.726 5.35-5.749z"/><path d="m170.428 154.335v-135.934c0-8.473 5.728-15.603 13.522-17.742-1.317-.363-2.687-.596-4.11-.647-10.468-.372-19.072 8.004-19.072 18.389v135.934c0 3.023-2.329 5.658-5.35 5.749h9.66c3.021-.09 5.35-2.726 5.35-5.749z"/><path d="m264.145 152.352c.693.434 1.343.91 1.967 1.408v-87.485c0-8.554 5.709-16.003 13.619-18.183-1.759-.483-3.622-.715-5.55-.647-9.971.354-17.73 8.852-17.73 18.83v83.12c2.65.466 5.261 1.435 7.694 2.957z"/><path d="m112.926 261.968c5.335 0 9.66-4.325 9.66-9.66v-210.191c0-8.473 5.728-15.603 13.522-17.742-1.317-.363-2.687-.596-4.11-.647-10.468-.372-19.072 8.004-19.072 18.389z"/></g><path d="m160.978 389.705c.26-.451.539-.888.829-1.315l-9.094-36.934c-1.078-3.737-3.086-7.14-5.836-9.891l-58.938-58.938c-4.03-4.03-6.294-9.496-6.294-15.195v-89.537c0-7.802 4.162-14.629 10.384-18.393-2.99-1.833-6.457-2.949-10.192-3.082-12.225-.435-22.272 9.347-22.272 21.475v95.455c0 5.699 2.264 11.165 6.294 15.195l58.938 58.938c2.75 2.75 4.758 6.153 5.836 9.891l9.968 34.564h19.269c.328-.759.688-1.507 1.108-2.233z" fill="#7a8c98"/><path d="m168.861 419.13c-4.983-2.877-8.547-7.522-10.036-13.08-1.361-5.079-.818-10.357 1.478-15.034h-27.596c-12.449 0-22.541 10.092-22.541 22.541 0 12.449 10.092 22.541 22.541 22.541h65.546z" fill="#596c76"/></g><g><path d="m485.209 154.15c-8.813-4.679-19.781-1.199-24.769 7.442l-44.03 76.262c-1.511 2.618-4.846 3.736-7.508 2.304-2.754-1.482-3.721-4.934-2.169-7.623l60.154-104.191c4.989-8.641 2.519-19.88-5.94-25.172-8.88-5.556-20.518-2.604-25.711 6.389l-60.259 104.372c-1.511 2.618-4.846 3.736-7.508 2.304-2.754-1.482-3.721-4.934-2.169-7.623l67.862-117.541c4.989-8.641 2.519-19.88-5.94-25.172-8.88-5.556-20.518-2.604-25.711 6.389l-67.967 117.723c-1.511 2.618-4.846 3.736-7.508 2.304-2.754-1.482-3.721-4.934-2.169-7.623l56.004-97.002c4.989-8.641 2.519-19.879-5.939-25.172-8.88-5.557-20.518-2.605-25.711 6.389l-109.925 190.395-2.322-8.665c-.947-3.535-.451-7.302 1.379-10.472l33.728-58.419c5.826-10.091 2.941-23.215-6.936-29.396-10.37-6.489-23.962-3.042-30.026 7.462l-47.727 82.666c-2.85 4.936-3.622 10.801-2.147 16.306l21.573 80.51c1.007 3.757 1.044 7.708.109 11.484l-8.65 34.917 107.376 61.994 71.094-74.445c8.38-8.775 15.681-18.52 21.747-29.027l95.036-164.608c5.194-8.994 1.931-20.549-7.321-25.461z" fill="#7a8c98"/><g fill="#596c76"><path d="m383.344 218.764 60.259-104.372c4.236-7.338 12.762-10.649 20.581-8.604-.959-.973-2.029-1.86-3.236-2.615-8.88-5.556-20.518-2.604-25.711 6.389l-60.259 104.372c-1.511 2.618-4.846 3.736-7.508 2.304l8.366 4.83c2.661 1.431 5.996.313 7.508-2.304z"/><path d="m341.911 194.843 67.967-117.723c4.236-7.338 12.762-10.649 20.581-8.604-.959-.973-2.029-1.86-3.236-2.615-8.88-5.556-20.518-2.604-25.711 6.389l-67.967 117.723c-1.511 2.618-4.846 3.736-7.508 2.304l8.366 4.83c2.662 1.431 5.997.313 7.508-2.304z"/><path d="m468.806 166.422c4.277-7.408 12.946-11.004 20.886-8.937-1.282-1.298-2.779-2.431-4.483-3.335-8.813-4.679-19.781-1.199-24.769 7.442l-44.03 76.262c-1.511 2.618-4.846 3.736-7.508 2.304l8.366 4.83c2.662 1.432 5.997.314 7.508-2.304z"/><path d="m238.296 259.304c4.62 2.668 10.529 1.085 13.196-3.536l105.095-182.03c4.236-7.338 12.762-10.649 20.581-8.604-.959-.973-2.029-1.86-3.236-2.615-8.88-5.556-20.518-2.605-25.711 6.389z"/></g><g><path d="m227.9 345.212-21.573-80.51c-1.475-5.505-.703-11.37 2.147-16.306l44.768-77.541c3.901-6.757 10.919-10.588 18.189-10.737-1.673-3.083-4.117-5.782-7.286-7.765-10.37-6.489-23.962-3.042-30.026 7.462l-47.727 82.666c-2.85 4.936-3.622 10.801-2.147 16.306l21.573 80.51c1.007 3.757 1.044 7.708.109 11.484l-8.65 34.917 19.123 11.04 11.609-40.042c.935-3.776.898-7.727-.109-11.484z" fill="#596c76"/></g><path d="m283.894 486.699-115.533-66.703c-10.781-6.224-14.475-20.01-8.251-30.791 6.225-10.781 20.01-14.475 30.792-8.251l115.533 66.703c10.781 6.225 14.475 20.01 8.251 30.792-6.225 10.781-20.01 14.475-30.792 8.25z" fill="#596c76"/><path d="m220.342 433.009c-10.781-6.225-14.475-20.01-8.251-30.792 1.375-2.381 3.12-4.416 5.119-6.075l-26.307-15.188c-10.781-6.225-24.567-2.531-30.792 8.251s-2.531 24.567 8.251 30.792l115.533 66.703c8.4 4.85 18.623 3.677 25.673-2.176z" fill="#465a61"/></g></g></g></svg>