<svg id="Capa_1" enable-background="new 0 0 512 512" height="512" viewBox="0 0 512 512" width="512" xmlns="http://www.w3.org/2000/svg"><g><g><path d="m476.688 382.775c22.409-36.985 35.312-80.373 35.312-126.775 0-135.31-109.69-245-245-245s-245 109.69-245 245c0 46.402 12.903 89.79 35.312 126.775z" fill="#fedf30"/></g><path d="m96.445 419-11.437 1c44.84 49.73 109.759 81 181.992 81s137.153-31.27 181.992-81l-11.312-1z" fill="#978ecb"/><g><path d="m468.568 91h-349.852c7.172 10.4 11.384 22.99 11.384 36.55 0 1.567-.076 3.115-.186 4.654h336.497l13.294-1.114v-28.954c0-6.15-4.986-11.136-11.137-11.136z" fill="#d9e7ec"/><path d="m129.999 131.091c-1.845 33.952-30.044 61.009-64.449 61.009-3.84 0-7.597-.356-11.255-1.003v186.559c.988 1.723 2.007 3.425 3.038 5.119h419.333c1.031-1.694 2.051-3.396 3.038-5.119v-246.565z" fill="#fff"/><g><path d="m103.591 362.727h-17.023c-5.523 0-10-4.477-10-10v-161.579c-3.582.62-7.261.952-11.018.952-3.84 0-7.597-.356-11.255-1.003v186.559c.988 1.723 2.007 3.425 3.038 5.119h49.295c-1.031-1.694-2.051-3.396-3.038-5.119v-14.929z" fill="#f5f8f9"/></g><path d="m358.341 153.364h-233.644c-8.56 19.538-26.519 34.042-48.129 37.776v161.587c0 5.523 4.477 10 10 10h271.773c5.523 0 10-4.477 10-10v-189.363c0-5.523-4.477-10-10-10z" fill="#d9e7ec"/><path d="m346.068 170.068h-232.011c-5.761 6.564-12.82 11.96-20.785 15.765v154.622c0 3.075 2.493 5.568 5.568 5.568h247.227c3.075 0 5.568-2.493 5.568-5.568v-164.819c.001-3.075-2.492-5.568-5.567-5.568z" fill="#01c0fa"/><path d="m127 340.455v-164.819c0-3.075 2.493-5.568 5.568-5.568h-18.511c-5.761 6.564-12.82 11.96-20.785 15.765v154.622c0 3.075 2.493 5.568 5.568 5.568h33.727c-3.074 0-5.567-2.493-5.567-5.568z" fill="#08a9f1"/><g><g><path d="m93.273 221.295h258.364v11.136h-258.364z" fill="#c8effe"/></g><g><path d="m93.273 283.659h258.364v11.136h-258.364z" fill="#c8effe"/></g></g><path d="m346.068 165.068h-228.041c-2.602 3.63-5.562 6.985-8.843 10h236.884c.313 0 .568.255.568.568v164.818c0 .313-.255.568-.568.568h-247.227c-.313 0-.568-.255-.568-.568v-157.296c-3.171 1.873-6.513 3.485-10 4.801v152.495c0 5.828 4.741 10.568 10.568 10.568h247.228c5.827 0 10.568-4.741 10.568-10.568v-164.818c-.001-5.827-4.741-10.568-10.569-10.568z" fill="#c5d3dd"/><g><path d="m425.136 307.045c-18.451 0-33.409-14.958-33.409-33.409v-86.864c0-18.451 14.958-33.409 33.409-33.409 18.451 0 33.409 14.958 33.409 33.409v86.864c0 18.452-14.957 33.409-33.409 33.409z" fill="#7a8c98"/></g><g><path d="m417 273.636v-86.864c0-13.978 8.588-25.945 20.773-30.929-3.899-1.595-8.163-2.48-12.636-2.48-18.451 0-33.409 14.958-33.409 33.409v86.864c0 18.451 14.958 33.409 33.409 33.409 4.473 0 8.737-.885 12.636-2.48-12.185-4.983-20.773-16.95-20.773-30.929z" fill="#596c76"/></g><g><path d="m452.977 362.727h-55.682c-3.075 0-5.568-2.493-5.568-5.568v-24.5c0-3.075 2.493-5.568 5.568-5.568h55.682c3.075 0 5.568 2.493 5.568 5.568v24.5c0 3.075-2.493 5.568-5.568 5.568z" fill="#9facba"/></g><g><path d="m417 357.159v-24.5c0-3.075 2.493-5.568 5.568-5.568h-25.273c-3.075 0-5.568 2.493-5.568 5.568v24.5c0 3.075 2.493 5.568 5.568 5.568h25.273c-3.075 0-5.568-2.493-5.568-5.568z" fill="#7a8c98"/></g><g><path d="m424.295 170.089c-8.973.443-15.863 8.184-15.863 17.168v29.584c0 1.845 1.496 3.341 3.341 3.341h26.727c1.845 0 3.341-1.496 3.341-3.341v-30.068c0-9.49-7.955-17.157-17.546-16.684z" fill="#01c0fa"/></g><g><path d="m425 216.841v-29.583c0-6.279 3.372-11.942 8.462-14.939-2.681-1.55-5.819-2.394-9.168-2.229-8.973.443-15.863 8.184-15.863 17.168v29.583c0 1.845 1.496 3.341 3.341 3.341h16.568c-1.844 0-3.34-1.496-3.34-3.341z" fill="#08a9f1"/></g><g><circle cx="425.136" cy="274.75" fill="#a2e62e" r="10.023"/></g><path d="m423.955 274.75c0-3.947 2.287-7.35 5.602-8.985-1.335-.658-2.832-1.038-4.42-1.038-5.535 0-10.023 4.487-10.023 10.023s4.487 10.023 10.023 10.023c1.589 0 3.086-.38 4.42-1.038-3.316-1.635-5.602-5.038-5.602-8.985z" fill="#97d729"/><g><circle cx="425.136" cy="245.795" fill="#fe5694" r="10.023"/></g><path d="m423.955 245.795c0-3.947 2.287-7.35 5.602-8.985-1.335-.658-2.832-1.038-4.42-1.038-5.535 0-10.023 4.487-10.023 10.023s4.487 10.023 10.023 10.023c1.589 0 3.086-.38 4.42-1.038-3.316-1.634-5.602-5.038-5.602-8.985z" fill="#fe0364"/></g><g><path d="m84.997 420h364.007c10.607-11.764 20.086-24.563 28.276-38.225h-420.559c8.189 13.662 17.668 26.461 28.276 38.225z" fill="#8379c1"/></g><path d="m116.644 395.701c-3.903-4.501-7.64-9.148-11.213-13.925h-48.71c8.189 13.661 17.668 26.46 28.276 38.224h364.007c5.969-6.62 11.566-13.578 16.792-20.823h-341.566c-2.914 0-5.677-1.275-7.586-3.476z" fill="#6e61b6"/><g><g><circle cx="65.55" cy="127.55" fill="#fe5694" r="65.55"/></g><g><path d="m34 127.55c0-30.321 20.592-55.822 48.55-63.311-5.423-1.453-11.119-2.239-17-2.239-36.202 0-65.55 29.348-65.55 65.55s29.348 65.55 65.55 65.55c5.881 0 11.577-.786 17-2.239-27.958-7.489-48.55-32.99-48.55-63.311z" fill="#fe0364"/></g><g><g><g><path d="m46.257 155.884h-11.458c-7.329 0-13.271-5.941-13.271-13.271v-36.729c0-1.105.895-2 2-2h6c1.105 0 2 .895 2 2v36.729c0 1.807 1.464 3.271 3.271 3.271h11.458c1.807 0 3.271-1.464 3.271-3.271v-36.729c0-1.105.895-2 2-2h6c1.105 0 2 .895 2 2v36.729c0 7.329-5.942 13.271-13.271 13.271z" fill="#fff"/></g></g><g><path d="m98.463 105.204-11.249 31.149-11.588-31.166c-.291-.783-1.039-1.303-1.875-1.303h-6.401c-1.394 0-2.36 1.39-1.875 2.697l17.12 46.046c.728 1.958 2.597 3.257 4.686 3.257h.024c2.092 0 3.96-1.311 4.671-3.279l16.628-46.041c.471-1.304-.495-2.679-1.881-2.679h-6.379c-.842-.001-1.595.527-1.881 1.319z" fill="#fff"/></g></g></g></g></svg>