<svg id="Capa_1" enable-background="new 0 0 512 512" height="512" viewBox="0 0 512 512" width="512" xmlns="http://www.w3.org/2000/svg"><g><g><path d="m473.953 379c17.284-33.568 27.047-71.643 27.047-112 0-135.31-109.69-245-245-245s-245 109.69-245 245c0 40.357 9.763 78.432 27.047 112z" fill="#fed402"/></g><g><g><g><path d="m138 337.518v20.08c0 2.206-1.794 4-4 4h-49c-2.206 0-4-1.794-4-4v-20.08h-19.579l-3.163.633v37.957c0 1.009.161 1.98.452 2.892h101.58c.292-.912.452-1.883.452-2.892v-37.957l-3.242-.633z" fill="#7a8c98"/><path d="m74 379v-41.482h-12.579l-3.163.633v37.957c0 1.009.161 1.98.452 2.892z" fill="#596c76"/><path d="m141.255 204.668h-8.98v-8.857h-45.549v8.857h-8.98c-10.763 0-19.488 8.725-19.488 19.488v25.428l3.282.633h19.46v-9.619c0-2.206 1.794-4 4-4h49c2.206 0 4 1.794 4 4v9.619h19.619l3.124-.633v-25.428c-.001-10.763-8.726-19.488-19.488-19.488z" fill="#596c76"/><g><path d="m74 225.712c0-7.1 5.756-12.856 12.856-12.856h10.613c2.761 0 5-2.239 5-5v-12.046h-15.743v8.857h-8.98c-10.763 0-19.488 8.725-19.488 19.488v25.428l3.282.633h12.46z" fill="#465a61"/></g><g fill="#7a8c98"><path d="m81 249.584h-22.742v30.366l3.242.632h19.5z"/><path d="m138 280.582h19.579l3.163-.632v-30.366h-22.742z"/></g><path d="m58.258 249.584h15.742v30.366h-15.742z" fill="#596c76"/></g><g><g><path d="m121.898 119.264-6.181-29.744c-.305-1.468-1.598-2.52-3.097-2.52h-6.24c-1.499 0-2.792 1.052-3.097 2.52l-6.181 29.744z" fill="#596c76"/></g><g><path d="m114.75 87.838c-.568-.52-1.315-.838-2.13-.838h-6.24c-1.499 0-2.792 1.052-3.097 2.52l-6.181 29.744h10.5l6.181-29.744c.139-.67.491-1.246.967-1.682z" fill="#465a61"/></g><g><path d="m129.744 153.425v-30.366c0-2.446-1.983-4.428-4.428-4.428h-31.631c-2.446 0-4.428 1.983-4.428 4.428v30.366z" fill="#7a8c98"/></g><g><path d="m108.867 118.631h-15.182c-2.446 0-4.428 1.983-4.428 4.428v30.366h15.183v-30.366c-.001-2.445 1.982-4.428 4.427-4.428z" fill="#596c76"/></g><g><path d="m135.438 196.444h-51.875c-3.494 0-6.326-2.832-6.326-6.326v-30.998c0-3.494 2.832-6.326 6.326-6.326h51.875c3.494 0 6.326 2.832 6.326 6.326v30.998c0 3.493-2.833 6.326-6.326 6.326z" fill="#596c76"/></g><g><path d="m103.806 183.158c-3.494 0-6.326-2.832-6.326-6.326v-24.04h-13.917c-3.494 0-6.326 2.832-6.326 6.326v30.998c0 3.494 2.832 6.326 6.326 6.326h51.875c3.494 0 6.326-2.832 6.326-6.326v-6.959h-37.958z" fill="#465a61"/></g><g fill="#596c76"><path d="m58.258 279.95h22.742v58.201h-22.742z"/><path d="m138 279.95h22.742v58.201h-22.742z"/></g><path d="m58.258 279.95h15.742v58.201h-15.742z" fill="#465a61"/></g></g><path d="m134 362.597h-49c-2.761 0-5-2.239-5-5v-117c0-2.761 2.239-5 5-5h49c2.761 0 5 2.239 5 5v117c0 2.762-2.238 5-5 5z" fill="#c5d3dd"/><path d="m96 357.597v-117c0-2.761 2.239-5 5-5h-16c-2.761 0-5 2.239-5 5v117c0 2.761 2.239 5 5 5h16c-2.761 0-5-2.238-5-5z" fill="#b6c4cf"/><g fill="#596c76"><path d="m121.742 298.597h-26c-1.657 0-3-1.343-3-3v-39c0-1.657 1.343-3 3-3h26c1.657 0 3 1.343 3 3v39c0 1.657-1.343 3-3 3z"/><path d="m121.742 321.597h-26c-1.657 0-3-1.343-3-3v-6c0-1.657 1.343-3 3-3h26c1.657 0 3 1.343 3 3v6c0 1.657-1.343 3-3 3z"/><path d="m121.742 341.597h-26c-1.657 0-3-1.343-3-3v-6c0-1.657 1.343-3 3-3h26c1.657 0 3 1.343 3 3v6c0 1.657-1.343 3-3 3z"/></g></g><g><g><g><g><path d="m450.5 337.518h-19.5v20.08c0 2.206-1.794 4-4 4h-49c-2.206 0-4-1.794-4-4v-20.08h-19.579l-3.163.633v37.957c0 1.009.161 1.98.452 2.892h101.58c.292-.912.452-1.883.452-2.892v-37.957z" fill="#7a8c98"/><path d="m367 379v-41.482h-12.579l-3.163.633v37.957c0 1.009.161 1.98.452 2.892z" fill="#596c76"/><path d="m434.255 204.668h-8.98v-8.857h-45.549v8.857h-8.98c-10.763 0-19.488 8.725-19.488 19.488v25.428l3.282.633h19.46v-9.619c0-2.206 1.794-4 4-4h49c2.206 0 4 1.794 4 4v9.619h19.619l3.124-.633v-25.428c-.001-10.763-8.726-19.488-19.488-19.488z" fill="#596c76"/><g><path d="m367 225.712c0-7.1 5.756-12.856 12.855-12.856h10.613c2.761 0 5-2.239 5-5v-12.046h-15.742v8.857h-8.98c-10.763 0-19.488 8.725-19.488 19.488v25.428l3.282.633h12.46z" fill="#465a61"/></g><g fill="#7a8c98"><path d="m374 249.584h-22.742v30.366l3.242.632h19.5z"/><path d="m431 249.584v30.998h19.579l3.163-.632v-30.366z"/></g><path d="m351.258 249.584h15.742v30.366h-15.742z" fill="#596c76"/></g><g><g><path d="m414.898 119.264-6.181-29.744c-.305-1.468-1.598-2.52-3.097-2.52h-6.24c-1.499 0-2.792 1.052-3.097 2.52l-6.181 29.744z" fill="#596c76"/></g><g><path d="m407.75 87.838c-.568-.52-1.315-.838-2.13-.838h-6.24c-1.499 0-2.792 1.052-3.097 2.52l-6.181 29.744h10.5l6.181-29.744c.139-.67.491-1.246.967-1.682z" fill="#465a61"/></g><g><path d="m422.744 153.425v-30.366c0-2.446-1.983-4.428-4.428-4.428h-31.631c-2.446 0-4.428 1.983-4.428 4.428v30.366z" fill="#7a8c98"/></g><g><path d="m401.867 118.631h-15.183c-2.446 0-4.428 1.983-4.428 4.428v30.366h15.183v-30.366c0-2.445 1.983-4.428 4.428-4.428z" fill="#596c76"/></g><g><path d="m428.438 196.444h-51.875c-3.494 0-6.326-2.832-6.326-6.326v-30.998c0-3.494 2.832-6.326 6.326-6.326h51.875c3.494 0 6.326 2.832 6.326 6.326v30.998c0 3.493-2.833 6.326-6.326 6.326z" fill="#596c76"/></g><g><path d="m396.806 183.158c-3.494 0-6.326-2.832-6.326-6.326v-24.04h-13.918c-3.494 0-6.326 2.832-6.326 6.326v30.998c0 3.494 2.832 6.326 6.326 6.326h51.875c3.494 0 6.326-2.832 6.326-6.326v-6.959h-37.957z" fill="#465a61"/></g><g fill="#596c76"><path d="m351.258 279.95h22.742v58.201h-22.742z"/><path d="m431 279.95h22.742v58.201h-22.742z"/></g><path d="m351.258 279.95h15.742v58.201h-15.742z" fill="#465a61"/></g></g><path d="m427 362.597h-49c-2.761 0-5-2.239-5-5v-117c0-2.761 2.239-5 5-5h49c2.761 0 5 2.239 5 5v117c0 2.762-2.239 5-5 5z" fill="#c5d3dd"/><path d="m389 357.597v-117c0-2.761 2.239-5 5-5h-16c-2.761 0-5 2.239-5 5v117c0 2.761 2.239 5 5 5h16c-2.761 0-5-2.238-5-5z" fill="#b6c4cf"/><g fill="#596c76"><path d="m414.742 298.597h-26c-1.657 0-3-1.343-3-3v-39c0-1.657 1.343-3 3-3h26c1.657 0 3 1.343 3 3v39c0 1.657-1.343 3-3 3z"/><path d="m414.742 321.597h-26c-1.657 0-3-1.343-3-3v-6c0-1.657 1.343-3 3-3h26c1.657 0 3 1.343 3 3v6c0 1.657-1.343 3-3 3z"/><path d="m414.742 341.597h-26c-1.657 0-3-1.343-3-3v-6c0-1.657 1.343-3 3-3h26c1.657 0 3 1.343 3 3v6c0 1.657-1.343 3-3 3z"/></g></g></g><path d="m37.536 378c40.486 79.524 123.111 134 218.464 134s177.978-54.476 218.464-134z" fill="#01c0fa"/><path d="m336.5 473h-161c-7.7 0-14-6.3-14-14 0-7.7 6.3-14 14-14h161c7.7 0 14 6.3 14 14 0 7.7-6.3 14-14 14z" fill="#08a9f1"/><g><g><g><path d="m330.042 386.433h-148.206l-4.879.976v58.551c0 8.084 6.553 14.638 14.638 14.638h128.811c8.084 0 14.638-6.553 14.638-14.638v-58.551z" fill="#596c76"/></g><g><path d="m304.983 181.507h-13.853v-13.662h-70.26v13.662h-13.852c-16.602 0-30.061 13.459-30.061 30.061v39.224l5.062.976h148.206l4.818-.976v-39.224c0-16.603-13.458-30.061-30.06-30.061z" fill="#7a8c98"/></g><path d="m202 445.96v-58.551h-25.043v58.551c0 8.084 6.554 14.638 14.638 14.638h25.043c-8.085-.001-14.638-6.554-14.638-14.638z" fill="#465a61"/><path d="m202 211.567c0-16.602 13.459-30.06 30.06-30.06h8.852c2.761 0 5-2.239 5-5v-8.662h-25.042v13.662h-13.852c-16.602 0-30.061 13.459-30.061 30.061v39.224h25.043z" fill="#596c76"/><g><path d="m176.957 250.791v46.841l5.001.976h148.206l4.879-.976v-46.841z" fill="#596c76"/></g><path d="m176.957 250.791h25.043v46.84h-25.043z" fill="#465a61"/></g><g><g><path d="m275.124 49.768-9.534-45.881c-.47-2.264-2.465-3.887-4.777-3.887h-9.626c-2.312 0-4.307 1.623-4.777 3.887l-9.534 45.881z" fill="#596c76"/></g><g><path d="m264.098 1.293c-.875-.802-2.028-1.293-3.285-1.293h-9.626c-2.312 0-4.307 1.623-4.777 3.887l-9.534 45.881h16.196l9.534-45.881c.215-1.033.757-1.921 1.492-2.594z" fill="#465a61"/></g><g><path d="m287.227 102.463v-46.84c0-3.773-3.058-6.831-6.831-6.831h-48.792c-3.773 0-6.831 3.058-6.831 6.831v46.84z" fill="#7a8c98"/></g><g><path d="m255.024 48.792h-23.42c-3.773 0-6.831 3.058-6.831 6.831v46.84h23.42v-46.84c0-3.773 3.059-6.831 6.831-6.831z" fill="#596c76"/></g><g><path d="m296.01 168.821h-80.02c-5.389 0-9.758-4.369-9.758-9.758v-47.816c0-5.389 4.369-9.758 9.758-9.758h80.019c5.389 0 9.758 4.369 9.758 9.758v47.816c.001 5.389-4.368 9.758-9.757 9.758z" fill="#596c76"/></g><g><path d="m247.217 148.328c-5.389 0-9.758-4.369-9.758-9.758v-37.082h-21.469c-5.389 0-9.758 4.369-9.758 9.758v47.816c0 5.389 4.369 9.758 9.758 9.758h80.019c5.389 0 9.758-4.369 9.758-9.758v-10.734z" fill="#465a61"/></g><g><path d="m313.575 281.53h-115.15c-1.617 0-2.928-1.311-2.928-2.928v-8.783c0-1.617 1.311-2.928 2.928-2.928h115.149c1.617 0 2.928 1.311 2.928 2.928v8.783c0 1.618-1.311 2.928-2.927 2.928z" fill="#8d9ca8"/></g><g><path d="m176.957 297.632h158.086v89.777h-158.086z" fill="#fff"/></g><path d="m176.957 297.632h25.043v89.777h-25.043z" fill="#f5f8f9"/><g><g><path d="m238.435 363.989h-40.01c-1.617 0-2.928-1.311-2.928-2.928v-40.01c0-1.617 1.311-2.928 2.928-2.928h40.01c1.617 0 2.928 1.311 2.928 2.928v40.01c-.001 1.617-1.311 2.928-2.928 2.928z" fill="#c5d3dd"/></g><path d="m211.111 361.062v-40.01c0-1.617 1.311-2.928 2.928-2.928h-15.613c-1.617 0-2.928 1.311-2.928 2.928v40.01c0 1.617 1.311 2.928 2.928 2.928h15.613c-1.617-.001-2.928-1.312-2.928-2.928z" fill="#b6c4cf"/><g><path d="m313.575 363.989h-58.551c-1.617 0-2.928-1.311-2.928-2.928v-8.783c0-1.617 1.311-2.928 2.928-2.928h58.551c1.617 0 2.928 1.311 2.928 2.928v8.783c-.001 1.617-1.312 2.928-2.928 2.928z" fill="#596c76"/></g><path d="m275.517 361.062v-8.783c0-1.617 1.311-2.928 2.928-2.928h-23.42c-1.617 0-2.928 1.311-2.928 2.928v8.783c0 1.617 1.311 2.928 2.928 2.928h23.42c-1.617-.001-2.928-1.312-2.928-2.928z" fill="#465a61"/><g><path d="m313.575 332.762h-58.551c-1.617 0-2.928-1.311-2.928-2.928v-8.783c0-1.617 1.311-2.928 2.928-2.928h58.551c1.617 0 2.928 1.311 2.928 2.928v8.783c-.001 1.617-1.312 2.928-2.928 2.928z" fill="#596c76"/></g><path d="m275.517 329.835v-8.783c0-1.617 1.311-2.928 2.928-2.928h-23.42c-1.617 0-2.928 1.311-2.928 2.928v8.783c0 1.617 1.311 2.928 2.928 2.928h23.42c-1.617-.001-2.928-1.312-2.928-2.928z" fill="#465a61"/></g></g></g></g></svg>